G04 ================== begin FILE IDENTIFICATION RECORD ==================*
G04 Layout Name:  D:/TinyTMR/FrontendTMR/PCB/TMR_Tiny_May-15-Copy.brd*
G04 Film Name:    GND*
G04 File Format:  Gerber RS274X*
G04 File Origin:  Cadence Allegro 25.1-S020*
G04 Origin Date:  Fri May 15 10:26:34 2026*
G04 *
G04 Layer:  VIA CLASS/GND-2*
G04 Layer:  PIN/GND-2*
G04 Layer:  ETCH/GND-2*
G04 Layer:  BOARD GEOMETRY/WB_GUIDE_LINE*
G04 *
G04 Offset:    (0.0000 0.0000)*
G04 Mirror:    No*
G04 Mode:      Positive*
G04 Rotation:  0*
G04 FullContactRelief:  No*
G04 UndefLineWidth:     0.2540*
G04 ================== end FILE IDENTIFICATION RECORD ====================*
%FSLAX25Y25*MOMM*%
%IR0*IPPOS*OFA0.00000B0.00000*MIA0B0*SFA1.00000B1.00000*%
%ADD10C,.4*%
%ADD12C,1.*%
%ADD14C,2.3*%
%ADD11C,1.5*%
%ADD13C,1.8*%
%ADD15C,.1*%
%ADD16C,.381*%
%ADD17C,.254*%
%ADD18C,1.0004*%
%ADD22C,2.1004*%
%ADD19C,2.4004*%
%ADD20C,1.6004*%
%ADD23C,2.0544*%
%ADD21C,1.2544*%
G75*
%LPD*%
G75*
G36*
G01X-2949960Y-1893070D02*
G02X-2931430Y-1887310I10160J1D01*
G03X373770Y-3408390I2931427J2018261D01*
G02X385000Y-3418500I1069J-10105D01*
G01Y-3604900D01*
G02X379930Y-3609980I-5080J0D01*
G03Y-3710020I70J-50020D01*
G02X385000Y-3715100I-10J-5080D01*
G01Y-3840000D01*
G03X392320Y-3857680I25011J0D01*
G01X412320Y-3877680D01*
G03X430000Y-3885000I17680J17691D01*
G01X1245000D01*
Y-4580000D01*
G03X1252320Y-4597680I25011J0D01*
G01X1272320Y-4617680D01*
G03X1290000Y-4625000I17680J17691D01*
G01X1590000D01*
G03X1607680Y-4617680I0J25011D01*
G01X1617680Y-4607680D01*
G03X1625000Y-4590000I-17691J17680D01*
G01Y-3965000D01*
X2010000D01*
G03X2027680Y-3957680I0J25011D01*
G01X2037680Y-3947680D01*
G03X2045000Y-3930000I-17691J17680D01*
G01Y-3885000D01*
X2260930D01*
G02X2269220Y-3901040I3J-10161D01*
G03X2259980Y-3930000I40778J-28965D01*
G03X2289480Y-3975620I50024J0D01*
G02X2294540Y-3989120I-4170J-9261D01*
G03X2289980Y-4010000I45463J-20867D01*
G03X2303370Y-4044070I50023J-7D01*
G03X2288150Y-4080000I34800J-35930D01*
G03X2388190I50020J0D01*
G03X2374800Y-4045930I-50023J7D01*
G03X2390020Y-4010000I-34800J35930D01*
G03X2360520Y-3964380I-50024J0D01*
G02X2355460Y-3950880I4170J9261D01*
G03X2360020Y-3930000I-45463J20867D01*
G03X2350780Y-3901040I-50018J-5D01*
G02X2359070Y-3885000I8287J5879D01*
G01X2471680D01*
G02X2481520Y-3897670I-3J-10159D01*
G03X2479980Y-3910000I48482J-12316D01*
G03X2496790Y-3947400I50010J0D01*
G02Y-3962600I-6747J-7600D01*
G03X2479980Y-4000000I33200J-37400D01*
G03X2580020I50020J0D01*
G03X2563210Y-3962600I-50010J0D01*
G02Y-3947400I6747J7600D01*
G03X2580020Y-3910000I-33200J37400D01*
G03X2578480Y-3897670I-50022J14D01*
G02X2588320Y-3885000I9843J2511D01*
G01X2672160D01*
X2673420Y-3888230D01*
G03X2766580I46580J18230D01*
G01X2767840Y-3885000D01*
X2949960D01*
Y-5449960D01*
X-2949960D01*
Y-1893070D01*
G37*
G36*
G01X2915650Y-1910040D02*
X2949960D01*
Y-3835000D01*
X2755740D01*
G03X2684260I-35740J-35012D01*
G01X2020000D01*
G03X1995000Y-3860000I0J-25000D01*
G01Y-3915000D01*
X1610000D01*
G03X1592320Y-3922320I0J-25011D01*
G01X1582320Y-3932320D01*
G03X1575000Y-3950000I17691J-17680D01*
G01Y-4288230D01*
G02X1558960Y-4296520I-10161J-3D01*
G03X1530000Y-4287280I-28965J-40778D01*
G03Y-4387320I0J-50020D01*
G03X1558960Y-4378080I-5J50018D01*
G02X1575000Y-4386370I5879J-8287D01*
G01Y-4575000D01*
X1300360D01*
X1295000Y-4569640D01*
Y-4386370D01*
G02X1311040Y-4378080I10161J3D01*
G03X1340000Y-4387320I28965J40778D01*
G03Y-4287280I0J50020D01*
G03X1311040Y-4296520I5J-50018D01*
G02X1295000Y-4288230I-5879J8287D01*
G01Y-3870000D01*
G03X1287680Y-3852320I-25011J0D01*
G01X1277680Y-3842320D01*
G03X1260000Y-3835000I-17680J-17691D01*
G01X615740D01*
G03X580000Y-3819980I-35740J-35012D01*
G03X571240Y-3820750I-17J-50021D01*
G02X559430Y-3812310I-1774J10001D01*
G03X545740Y-3785000I-49428J-7691D01*
G03X560020Y-3750000I-35752J35000D01*
G03X459980I-50020J0D01*
G03X474260Y-3785000I50032J0D01*
G03X459980Y-3820000I35752J-35000D01*
G03X460140Y-3824020I50021J-22D01*
G02X450020Y-3835000I-10126J-821D01*
G01X440360D01*
X435000Y-3829640D01*
Y-3401390D01*
G03X2914130Y-1912200I-435006J3532338D01*
G01X2915650Y-1910040D01*
G37*
%LPC*%
G75*
G36*
G01X1026750Y-5407370D02*
G03X1013250I-6750J-7592D01*
G02X980000Y-5420020I-33250J37373D01*
G02Y-5319980I0J50020D01*
G02X1013250Y-5332630I0J-50023D01*
G03X1026750I6750J7592D01*
G02X1060000Y-5319980I33250J-37373D01*
G02Y-5420020I0J-50020D01*
G02X1026750Y-5407370I0J50023D01*
G37*
G36*
G01X-2711560Y-5347840D02*
G03X-2728440I-8440J-5650D01*
G02X-2770000Y-5370020I-41560J27847D01*
G02Y-5269980I0J50020D01*
G02X-2728440Y-5292160I0J-50027D01*
G03X-2711560I8440J5650D01*
G02X-2670000Y-5269980I41560J-27847D01*
G02Y-5370020I0J-50020D01*
G02X-2711560Y-5347840I0J50027D01*
G37*
G36*
G01X222670Y-5036190D02*
G03X206670Y-5031580I-9612J-3289D01*
G02X175200Y-5042720I-31470J38881D01*
G02Y-4942680I0J50020D01*
G02X222530Y-4976510I0J-50024D01*
G03X238530Y-4981120I9612J3289D01*
G02X270000Y-4969980I31470J-38881D01*
G02Y-5070020I0J-50020D01*
G02X222670Y-5036190I0J50024D01*
G37*
G36*
G01X-821860Y-4841410D02*
G02X-810000Y-4839980I11875J-48588D01*
G02Y-4940020I0J-50020D01*
G02X-858140Y-4903590I0J50022D01*
G02X-870000Y-4905020I-11875J48588D01*
G02Y-4804980I0J50020D01*
G02X-821860Y-4841410I0J-50022D01*
G37*
G36*
G01X-1363630Y-4808760D02*
G02X-1332680Y-4855000I-19067J-46240D01*
G02X-1432720I-50020J0D01*
G02X-1429070Y-4836240I50021J3D01*
G02X-1460020Y-4790000I19067J46240D01*
G02X-1359980I50020J0D01*
G02X-1363630Y-4808760I-50021J-3D01*
G37*
G36*
G01X875110Y-4519550D02*
G03X878490Y-4513340I-1514J4849D01*
G02X876680Y-4500000I48211J13334D01*
G02X976720I50020J0D01*
G02X941590Y-4547750I-50017J0D01*
G03X938210Y-4553960I1514J-4849D01*
G02X940020Y-4567300I-48211J-13334D01*
G02X932520Y-4593650I-50021J-5D01*
G02X940020Y-4620000I-42521J-26345D01*
G02X930020Y-4650000I-50018J6D01*
G02X940020Y-4680000I-40018J-30006D01*
G02X839980I-50020J0D01*
G02X849980Y-4650000I50018J-6D01*
G02X839980Y-4620000I40018J30006D01*
G02X847480Y-4593650I50021J5D01*
G02X839980Y-4567300I42521J26345D01*
G02X875110Y-4519550I50017J0D01*
G37*
G36*
G01X-1190880Y-4300640D02*
G03X-1179240Y-4288830I1642J10023D01*
G02X-1180020Y-4280000I49243J8799D01*
G02X-1079980I50020J0D01*
G02X-1080790Y-4288970I-50020J-5D01*
G03X-1068970Y-4300790I9994J-1826D01*
G02X-1060000Y-4299980I8965J-49210D01*
G02Y-4400020I0J-50020D01*
G02X-1071440Y-4398700I-24J50023D01*
G03X-1083250Y-4412200I-2317J-9889D01*
G02X-1079980Y-4430000I-46752J-17789D01*
G02X-1180020I-50020J0D01*
G02X-1176820Y-4412410I50018J-13D01*
G03X-1188470Y-4398900I-9511J3577D01*
G02X-1199000Y-4400020I-10526J48900D01*
G02X-1249020Y-4350000I0J50020D01*
G02X-1248180Y-4340860I50021J11D01*
G03X-1260160Y-4329040I-9989J1857D01*
G02X-1270000Y-4330020I-9853J49039D01*
G02X-1219980Y-4280000I0J50020D01*
G02X-1220820Y-4289140I-50021J-11D01*
G03X-1208840Y-4300960I9989J-1857D01*
G02X-1199000Y-4299980I9853J-49039D01*
G02X-1190880Y-4300640I21J-50022D01*
G37*
G36*
G01X-1949800Y-4314640D02*
G02X-1950020Y-4310000I49798J4686D01*
G02X-1909350Y-4260860I50022J0D01*
G02X-1910020Y-4252700I49356J8160D01*
G02X-1809980I50020J0D01*
G02X-1850650Y-4301840I-50022J0D01*
G02X-1849980Y-4310000I-49356J-8160D01*
G02X-1851810Y-4323400I-50019J6D01*
G02X-1819980Y-4370000I-18197J-46600D01*
G02X-1832990Y-4403650I-50022J0D01*
G02X-1819980Y-4437300I-37012J-33650D01*
G02X-1870000Y-4487320I-50020J0D01*
G02X-1903250Y-4474670I0J50023D01*
G03X-1916750I-6750J-7592D01*
G02X-1950000Y-4487320I-33250J37373D01*
G02X-2000020Y-4437300I0J50020D01*
G02X-1987010Y-4403650I50022J0D01*
G02X-2000020Y-4370000I37012J33650D01*
G02X-1954410Y-4320180I50014J0D01*
G03X-1949800Y-4314640I-451J5063D01*
G37*
G36*
G01X77770Y-4125420D02*
G03X71590Y-4112250I-9511J3572D01*
G02X37980Y-4065000I16408J47250D01*
G02X88000Y-4014980I50020J0D01*
G02X128930Y-4036250I0J-50016D01*
G03X143550Y-4038380I8315J5836D01*
G02X174600Y-4027580I31046J-39222D01*
G02X224620Y-4077600I0J-50020D01*
G02X182810Y-4126940I-50018J0D01*
G03X174370Y-4137980I1668J-10021D01*
G02X174620Y-4143000I-49771J-4995D01*
G02X74580I-50020J0D01*
G02X77770Y-4125420I50021J3D01*
G37*
G36*
G01X2206630Y-4044070D02*
G02X2221850Y-4080000I-34800J-35930D01*
G02X2121810I-50020J0D01*
G02X2135200Y-4045930I50023J7D01*
G02X2119980Y-4010000I34800J35930D01*
G02X2220020I50020J0D01*
G02X2206630Y-4044070I-50023J-7D01*
G37*
G36*
G01X252160Y-3858440D02*
G03Y-3841560I-5650J8440D01*
G02X229980Y-3800000I27847J41560D01*
G02X330020I50020J0D01*
G02X307840Y-3841560I-50027J0D01*
G03Y-3858440I5650J-8440D01*
G02X330020Y-3900000I-27847J-41560D01*
G02X229980I-50020J0D01*
G02X252160Y-3858440I50027J0D01*
G37*
G36*
G01X-1364940Y-3781710D02*
G02X-1339980Y-3825000I-25061J-43290D01*
G02X-1440020I-50020J0D01*
G02X-1435060Y-3803290I50019J-6D01*
G02X-1460020Y-3760000I25061J43290D01*
G02X-1359980I50020J0D01*
G02X-1364940Y-3781710I-50019J6D01*
G37*
G36*
G01X-347790Y-3615650D02*
G03X-354910I-3560J-3620D01*
G02X-390000Y-3630020I-35090J35658D01*
G02Y-3529980I0J50020D01*
G02X-354910Y-3544350I0J-50028D01*
G03X-347790I3560J3620D01*
G02X-312700Y-3529980I35090J-35658D01*
G02Y-3630020I0J-50020D01*
G02X-347790Y-3615650I0J50028D01*
G37*
G36*
G01X-1846600Y-3618190D02*
G02X-1860000Y-3620020I-13406J48189D01*
G02X-1873400Y-3618190I6J50019D01*
G02X-1920000Y-3650020I-46600J18197D01*
G02Y-3549980I0J50020D01*
G02X-1906600Y-3551810I-6J-50019D01*
G02X-1813400I46600J-18197D01*
G02X-1800000Y-3549980I13406J-48189D01*
G02Y-3650020I0J-50020D01*
G02X-1846600Y-3618190I0J50027D01*
G37*
G36*
G01X-2306750Y-2852630D02*
G03X-2293250I6750J7592D01*
G02X-2260000Y-2839980I33250J-37373D01*
G02X-2225000Y-2854260I0J-50032D01*
G02X-2190000Y-2839980I35000J-35752D01*
G02Y-2940020I0J-50020D01*
G02X-2225000Y-2925740I0J50032D01*
G02X-2260000Y-2940020I-35000J35752D01*
G02X-2293250Y-2927370I0J50023D01*
G03X-2306750I-6750J-7592D01*
G02X-2340000Y-2940020I-33250J37373D01*
G02X-2342670Y-2939950I-25J50021D01*
G03X-2352800Y-2953450I-540J-10146D01*
G02X-2349980Y-2970000I-47199J-16558D01*
G02X-2450020I-50020J0D01*
G02X-2443660Y-2945590I50023J0D01*
G03X-2447040Y-2932080I-8867J4959D01*
G02X-2470020Y-2890000I27038J42080D01*
G02X-2420000Y-2839980I50020J0D01*
G02X-2386750Y-2852630I0J-50023D01*
G03X-2373250I6750J7592D01*
G02X-2306750I33250J-37373D01*
G37*
G36*
G01X-115560Y-5299710D02*
G02X-160020Y-5250000I5560J49710D01*
G02X-59980I50020J0D01*
G02X-62880Y-5266780I-50019J4D01*
G03X-54440Y-5280290I9570J-3413D01*
G02X-9980Y-5330000I-5560J-49710D01*
G02X-60000Y-5380020I-50020J0D01*
G02X-94410Y-5366310I-6J50022D01*
G03X-111290Y-5371370I-6988J-7373D01*
G02X-160000Y-5410020I-48710J11369D01*
G02X-207520Y-5375620I0J50022D01*
G03X-219340Y-5368870I-9651J-3175D01*
G02X-230000Y-5370020I-10664J48870D01*
G02X-275620Y-5340520I0J50024D01*
G03X-289120Y-5335460I-9261J-4170D01*
G02X-310000Y-5340020I-20867J45463D01*
G02Y-5239980I0J50020D01*
G02X-264380Y-5269480I0J-50024D01*
G03X-250880Y-5274540I9261J4170D01*
G02X-230000Y-5269980I20867J-45463D01*
G02X-182480Y-5304380I0J-50022D01*
G03X-170660Y-5311130I9651J3175D01*
G02X-160000Y-5309980I10664J-48870D01*
G02X-125590Y-5323690I6J-50022D01*
G03X-108710Y-5318630I6988J7373D01*
G02X-107120Y-5313220I48708J-11377D01*
G03X-115560Y-5299710I-9570J3413D01*
G37*
G36*
G01X610170Y-4897400D02*
G02X609980Y-4893000I49832J4356D01*
G02X660000Y-4943020I50020J0D01*
G02X644990Y-4940720I-16J50022D01*
G03X631830Y-4951300I-3042J-9690D01*
G02X632020Y-4955700I-49832J-4356D01*
G02X582000Y-4905680I-50020J0D01*
G02X597010Y-4907980I16J-50022D01*
G03X610170Y-4897400I3042J9690D01*
G37*
G36*
G01X-400920Y-4891440D02*
G02X-420000Y-4895220I-19075J46241D01*
G02X-369980Y-4845200I0J50020D01*
G02X-372590Y-4861130I-50017J16D01*
G03X-359080Y-4873760I9631J-3239D01*
G02X-340000Y-4869980I19075J-46241D01*
G02X-390020Y-4920000I0J-50020D01*
G02X-387410Y-4904070I50017J-16D01*
G03X-400920Y-4891440I-9631J3239D01*
G37*
G36*
G01X-1587150Y-4743500D02*
G02X-1600020Y-4710000I37152J33495D01*
G02X-1499980I50020J0D01*
G02X-1513690Y-4744410I-50022J-6D01*
G03X-1508630Y-4761290I7373J-6988D01*
G02X-1469980Y-4810000I-11369J-48710D01*
G02X-1503260Y-4857140I-50026J0D01*
G03X-1508330Y-4872330I3395J-9574D01*
G02X-1499980Y-4900000I-41671J-27670D01*
G02X-1600020I-50020J0D01*
G02X-1593030Y-4874500I50008J0D01*
G03X-1599780Y-4859350I-8739J5185D01*
G02X-1640020Y-4810300I9774J49050D01*
G02X-1593900Y-4760430I50022J0D01*
G03X-1587150Y-4743500I-793J10127D01*
G37*
G36*
G01X-744360Y-4746350D02*
G02X-760020Y-4710000I34358J36350D01*
G02X-659980I50020J0D01*
G02X-700490Y-4759110I-50023J0D01*
G03X-702330Y-4768330I966J-4986D01*
G02X-695000Y-4774260I-27656J-41681D01*
G02X-660000Y-4759980I35000J-35752D01*
G02X-609980Y-4810000I0J-50020D01*
G02X-643260Y-4857140I-50026J0D01*
G03X-648330Y-4872330I3395J-9574D01*
G02X-639980Y-4900000I-41671J-27670D01*
G02X-740020I-50020J0D01*
G02X-732900Y-4874270I50022J8D01*
G03X-739650Y-4859080I-8713J5223D01*
G02X-780020Y-4810000I9650J49080D01*
G02X-747740Y-4763230I50022J0D01*
G03X-744360Y-4746350I-3602J9500D01*
G37*
G36*
G01X438130Y-4398820D02*
G03X451340Y-4390380I3126J9666D01*
G02X501000Y-4346380I49660J-6024D01*
G02X551020Y-4396400I0J-50020D01*
G02X537590Y-4430510I-50032J0D01*
G03X542990Y-4447390I7433J-6926D01*
G02X583020Y-4496400I-9987J-49010D01*
G02X542290Y-4545550I-50020J0D01*
G03X536720Y-4562430I1887J-9982D01*
G02X550020Y-4596400I-36732J-33970D01*
G02X500000Y-4646420I-50020J0D01*
G02X485370Y-4644230I9J50019D01*
G03X472320Y-4652680I-2968J-9719D01*
G02X422700Y-4696420I-49620J6275D01*
G02X372680Y-4646400I0J50020D01*
G02X394860Y-4604840I50027J0D01*
G03Y-4587960I-5650J8440D01*
G02Y-4504840I27847J41560D01*
G03Y-4487960I-5650J8440D01*
G02X372680Y-4446400I27847J41560D01*
G02X422700Y-4396380I50020J0D01*
G02X438130Y-4398820I0J-50008D01*
G37*
G36*
G01X-494360Y-4364900D02*
G03X-479170Y-4364090I7236J7130D01*
G02X-440000Y-4345180I39170J-31113D01*
G02X-389980Y-4395200I0J-50020D01*
G02X-408460Y-4434020I-50014J0D01*
G03X-406770Y-4450900I6410J-7883D01*
G02X-379980Y-4495200I-23232J-44300D01*
G02X-429980Y-4545220I-50020J0D01*
G02X-480000Y-4595220I-50020J20D01*
G02X-530020Y-4545200I0J50020D01*
G02X-480020Y-4495180I50020J0D01*
G02X-461540Y-4456380I50019J-23D01*
G03X-463230Y-4439500I-6410J7883D01*
G02X-475640Y-4430300I23227J44301D01*
G03X-490830Y-4431110I-7236J-7130D01*
G02X-530000Y-4450020I-39170J31113D01*
G02Y-4349980I0J50020D01*
G02X-494360Y-4364900I0J-50027D01*
G37*
G36*
G01X-1565000Y-3795740D02*
G02X-1600000Y-3810020I-35000J35752D01*
G02Y-3709980I0J50020D01*
G02X-1565000Y-3724260I0J-50032D01*
G02X-1530000Y-3709980I35000J-35752D01*
G02X-1479980Y-3760000I0J-50020D01*
G02X-1512260Y-3806770I-50022J0D01*
G03X-1515640Y-3823650I3602J-9500D01*
G02X-1499980Y-3860000I-34358J-36350D01*
G02X-1600020I-50020J0D01*
G02X-1559510Y-3810890I50023J0D01*
G03X-1557670Y-3801670I-966J4986D01*
G02X-1565000Y-3795740I27656J41681D01*
G37*
G36*
G01X-758740Y-3748760D02*
G02X-710000Y-3709980I48740J-11239D01*
G02X-675000Y-3724260I0J-50032D01*
G02X-640000Y-3709980I35000J-35752D01*
G02X-589980Y-3760000I0J-50020D01*
G02X-635890Y-3809850I-50019J0D01*
G03X-642650Y-3826730I831J-10126D01*
G02X-629980Y-3860000I-37347J-33270D01*
G02X-730020I-50020J0D01*
G02X-716310Y-3825590I50022J6D01*
G03X-721370Y-3808710I-7373J6988D01*
G02X-742690Y-3797860I11369J48711D01*
G03X-759230Y-3803270I-6639J-7690D01*
G02X-807970Y-3842050I-48740J11239D01*
G02X-819950Y-3840590I17J50018D01*
G03X-825880Y-3843630I-1215J-4934D01*
G02X-872300Y-3875020I-46420J18628D01*
G02Y-3774980I0J50020D01*
G02X-860320Y-3776440I-17J-50018D01*
G03X-854390Y-3773400I1215J4934D01*
G02X-807970Y-3742010I46420J-18628D01*
G02X-775280Y-3754170I0J-50021D01*
G03X-758740Y-3748760I6639J7690D01*
G37*
G36*
G01X807990Y-3790920D02*
G03X792010I-7990J-6286D01*
G02X752700Y-3810020I-39317J30917D01*
G02Y-3709980I0J50020D01*
G02X792010Y-3729080I-7J-50017D01*
G03X807990I7990J6286D01*
G02X847300Y-3709980I39317J-30917D01*
G02Y-3810020I0J-50020D01*
G02X807990Y-3790920I7J50017D01*
G37*
G36*
G01X2106750Y-3760070D02*
G03X2093250I-6750J-7592D01*
G02X2060000Y-3772720I-33250J37373D01*
G02Y-3672680I0J50020D01*
G02X2093250Y-3685330I0J-50023D01*
G03X2106750I6750J7592D01*
G02X2140000Y-3672680I33250J-37373D01*
G02Y-3772720I0J-50020D01*
G02X2106750Y-3760070I0J50023D01*
G37*
G36*
G01X2739080Y-3607990D02*
G03Y-3592010I-6286J7990D01*
G02X2719980Y-3552700I30917J39317D01*
G02X2820020I50020J0D01*
G02X2800920Y-3592010I-50017J7D01*
G03Y-3607990I6286J-7990D01*
G02X2820020Y-3647300I-30917J-39317D01*
G02X2719980I-50020J0D01*
G02X2739080Y-3607990I50017J-7D01*
G37*
G36*
G01X1606790Y-3602600D02*
G03Y-3587400I-6747J7600D01*
G02X1589980Y-3550000I33200J37400D01*
G02X1690020I50020J0D01*
G02X1673210Y-3587400I-50010J0D01*
G03Y-3602600I6747J-7600D01*
G02X1690020Y-3640000I-33200J-37400D01*
G02X1677370Y-3673250I-50023J0D01*
G03Y-3686750I7592J-6750D01*
G02X1690020Y-3720000I-37373J-33250D01*
G02X1589980I-50020J0D01*
G02X1602630Y-3686750I50023J0D01*
G03Y-3673250I-7592J6750D01*
G02X1589980Y-3640000I37373J33250D01*
G02X1606790Y-3602600I50010J0D01*
G37*
G54D18*
X-1830000Y-5300000D03*
X-1270000Y-5310000D03*
X-1130000D03*
X-830000Y-5280000D03*
X-1340000Y-5070000D03*
X-990000Y-5220000D03*
X-920000Y-5080000D03*
X-380000Y-5070000D03*
X80000Y-5240000D03*
X-24800Y-5000000D03*
X350000Y-4920000D03*
X622700Y-5150000D03*
X1080000Y-4996000D03*
X1180000Y-5117300D03*
X1385600Y-4960000D03*
X1434000Y-5117300D03*
X1307000Y-5113000D03*
X1080000Y-4660000D03*
X1434000Y-4802700D03*
X1307000D03*
X1561000Y-4809000D03*
X1790000Y-4587300D03*
X-870000Y-4330000D03*
X-350000Y-4220000D03*
X1180000Y-4530000D03*
X1820000Y-4410000D03*
X-2366300Y-3904560D03*
X-2040000Y-4030000D03*
X-1340000Y-4040000D03*
X-990000Y-4180000D03*
X-920000Y-4040000D03*
X829000Y-4071700D03*
X926700Y-3960000D03*
X1010000Y-4160000D03*
X2790000Y-4150000D03*
X2640000D03*
X-1980000Y-3710000D03*
Y-3850000D03*
X-1550000Y-3650000D03*
X-700000D03*
X-250000Y-3850000D03*
X-50000Y-3650000D03*
X-1130000Y-3401000D03*
X1030000Y-3665000D03*
X1248840Y-3374120D03*
X2470000Y-3410000D03*
X2675000Y-3370000D03*
X2792820Y-3337180D03*
X2305100Y-3130000D03*
X2435100D03*
G54D22*
X2450000Y-4330000D03*
X2750000D03*
G54D19*
X2310000Y-5230000D03*
X-2680000Y-3530000D03*
X-1800000Y-3180000D03*
G54D20*
X-2722000Y-4580000D03*
Y-4834000D03*
X-2468000Y-4580000D03*
Y-4834000D03*
X-1960000Y-4580000D03*
Y-4834000D03*
X-2214000Y-4580000D03*
Y-4834000D03*
X2222000Y-4580000D03*
Y-4834000D03*
X2476000Y-4580000D03*
G54D23*
X-2680000Y-2770000D03*
X-2720000Y-2460000D03*
G54D21*
X1968000Y-4580000D03*
Y-4834000D03*
X2476000D03*
X2730000Y-4580000D03*
Y-4834000D03*
%LPD*%
G75*
G54D10*
X-3340000Y-500000D03*
X-3346000Y435000D03*
X-3039000Y-1471000D03*
X-3067050Y-1149880D03*
X-3097170Y-1344520D03*
X-3224060Y-1004840D03*
X-3261000Y-300000D03*
X-3266000Y235000D03*
X-3299000Y718000D03*
X-3263960Y860140D03*
X-3119000Y994540D03*
X-3154100Y1205720D03*
X-2770000Y-5320000D03*
X-2670000D03*
X-2822800Y-4250900D03*
X-2860000Y-4030000D03*
X-2780000Y-4120000D03*
X-2870000Y-3730000D03*
X-2718000Y-1824000D03*
X-2689340Y-2036860D03*
X-2905740Y-1717000D03*
X-2707000Y-300000D03*
X-2714000Y235000D03*
X-2979000Y1587000D03*
X-2904160Y1719720D03*
X-2682570Y2048570D03*
X-2713090Y1835890D03*
X-2400000Y-5289100D03*
X-2293400Y-5356600D03*
X-2630400Y-4250900D03*
X-2290000Y-4130000D03*
X-2560000Y-4050000D03*
X-2366300Y-3904560D03*
X-2340000Y-2890000D03*
X-2420000D03*
X-2400000Y-2970000D03*
X-2603000Y-2149000D03*
X-2355070Y-1372910D03*
X-2454070Y-926780D03*
X-2609900Y-781290D03*
X-2576000Y-500000D03*
X-2586000Y435000D03*
X-2530920Y1003240D03*
X-2501080Y793760D03*
X-2230000Y-4280000D03*
X-1950000Y-4370000D03*
Y-4437300D03*
X-2090000Y-4142700D03*
X-2020000D03*
X-1940000Y-4140000D03*
X-2040000Y-4030000D03*
X-2220000Y-3720000D03*
X-2270000Y-3670000D03*
X-2170000D03*
X-2270000Y-3770000D03*
X-2170000D03*
X-1980000Y-3710000D03*
Y-3850000D03*
X-2190000Y-2890000D03*
X-2260000D03*
X-2050100Y-2680940D03*
X-2167970Y-1480040D03*
X-2154880Y1665180D03*
X-2187820Y1454260D03*
X-2169000Y2587000D03*
X-2036730Y2692190D03*
X-1830000Y-5300000D03*
X-1650000Y-5220000D03*
X-1620000Y-4310000D03*
X-1900000D03*
X-1860000Y-4252700D03*
X-1870000Y-4370000D03*
Y-4437300D03*
X-1670000Y-4140000D03*
X-1870000D03*
X-1800000D03*
X-1920000Y-3600000D03*
X-1860000Y-3570000D03*
X-1800000Y-3600000D03*
X-1600000Y-3760000D03*
X-1737310Y-2892770D03*
X-1837070Y-2710960D03*
X-1668000Y-2155010D03*
X-1833370Y2714770D03*
X-1727370Y2900410D03*
X-1270000Y-5310000D03*
X-1550000Y-4900000D03*
X-1340000Y-5070000D03*
X-1382700Y-4855000D03*
X-1410000Y-4790000D03*
X-1550000Y-4710000D03*
X-1520000Y-4810000D03*
X-1590000Y-4810300D03*
X-1270000Y-4280000D03*
X-1430000Y-4420000D03*
X-1492700Y-4310000D03*
X-1560000D03*
X-1590000Y-4230000D03*
X-1550000Y-3860000D03*
X-1340000Y-4040000D03*
X-1390000Y-3825000D03*
X-1410000Y-3760000D03*
X-1530000D03*
X-1550000Y-3650000D03*
X-1339500Y-3320000D03*
X-1430000D03*
Y-3390000D03*
X-1582000Y-2981000D03*
X-1454480Y-2184390D03*
X-1373890Y2356080D03*
X-1480180Y2170880D03*
X-1130000Y-5310000D03*
X-1080000Y-4930000D03*
X-1180000D03*
X-1130000Y-4990000D03*
X-1237700Y-4955000D03*
X-990000Y-5220000D03*
X-920000Y-5080000D03*
X-1180000Y-4830000D03*
X-1080000D03*
X-1130000Y-4880000D03*
X-1030000Y-4760000D03*
X-1155000Y-4765000D03*
X-1240000Y-4805000D03*
X-1130000Y-4430000D03*
X-1199000Y-4350000D03*
X-1060000D03*
X-1130000Y-4280000D03*
Y-4350000D03*
X-990000Y-4180000D03*
X-1130000Y-3960000D03*
X-1180000Y-3900000D03*
X-1080000D03*
X-920000Y-4040000D03*
X-1130000Y-3850000D03*
X-1180000Y-3800000D03*
X-1080000D03*
X-1030000Y-3740000D03*
X-1130000D03*
X-1240000Y-3775000D03*
X-1130000Y-3401000D03*
X-930000Y-3330000D03*
X-976000Y-3230000D03*
X-1046000Y3209000D03*
X-830000Y-5280000D03*
X-790000Y-5220000D03*
X-690000Y-4900000D03*
X-810000Y-4890000D03*
X-870000Y-4855000D03*
X-730000Y-4810000D03*
X-660000D03*
X-710000Y-4710000D03*
X-830000Y-4420000D03*
X-770000Y-4310000D03*
X-710000D03*
X-650000D03*
X-870000Y-4330000D03*
X-680000Y-3860000D03*
X-872300Y-3825000D03*
X-807970Y-3792030D03*
X-710000Y-3760000D03*
X-640000D03*
X-700000Y-3650000D03*
X-820000Y-3390000D03*
X-649530Y-3209890D03*
X-719880Y-2627030D03*
X-555000Y2564990D03*
X-877730Y3259080D03*
X-668000Y3205770D03*
X-488300Y-5280000D03*
X-310000Y-5290000D03*
X-230000Y-5320000D03*
X-380000Y-5070000D03*
X-340000Y-4920000D03*
X-420000Y-4845200D03*
X-350000Y-4220000D03*
X-530000Y-4400000D03*
X-440000Y-4395200D03*
X-480000Y-4545200D03*
X-430000Y-4495200D03*
X-250000Y-3950000D03*
X-312700Y-3580000D03*
X-390000D03*
X-250000Y-3850000D03*
X-301000Y-3362000D03*
X-453850Y-3343000D03*
X-514330Y-2573940D03*
X-385720Y2699060D03*
X-498550Y3338900D03*
X-160000Y-5360000D03*
X-110000Y-5250000D03*
X-60000Y-5330000D03*
X80000Y-5240000D03*
X-24800Y-5000000D03*
X0Y-4560000D03*
X-120000D03*
X120000D03*
X-120000Y-4640000D03*
X120000D03*
X0D03*
X120000Y-4720000D03*
X-120000D03*
X0D03*
X-120000Y-4480000D03*
X0D03*
X120000D03*
X0Y-4400000D03*
X-120000D03*
X120000D03*
X124600Y-4143000D03*
X88000Y-4065000D03*
X50000Y-3650000D03*
X-50000D03*
X270000Y-5020000D03*
X350000Y-4920000D03*
X175200Y-4992700D03*
X422700Y-4546400D03*
Y-4646400D03*
Y-4446400D03*
X174600Y-4077600D03*
X280000Y-3900000D03*
X380000Y-3660000D03*
X280000Y-3800000D03*
X464680Y-3340000D03*
X351830Y-2700000D03*
X481580Y2580080D03*
X297000Y3361000D03*
X448340Y3345090D03*
X670000Y-5360000D03*
X760000D03*
X582000Y-4955700D03*
X622700Y-5150000D03*
X500000Y-4596400D03*
X780000Y-4878700D03*
X687300Y-4796000D03*
X660000Y-4893000D03*
X533000Y-4496400D03*
X610000Y-4470000D03*
X780000Y-4220000D03*
X720000Y-4270000D03*
X840000D03*
X501000Y-4396400D03*
X720000Y-4170000D03*
X840000D03*
X580000Y-3870000D03*
X829000Y-4071700D03*
X510000Y-3750000D03*
Y-3820000D03*
X752700Y-3760000D03*
X504000Y-3513000D03*
X585000Y-3567000D03*
X685000Y-3506000D03*
X634690Y-3210000D03*
X704000Y-3414000D03*
X599130Y-3502130D03*
X648000Y-3453000D03*
X521830Y-2570000D03*
X687720Y2636050D03*
X823340Y3274000D03*
X616550Y3215000D03*
X980000Y-5370000D03*
X1060000D03*
X1080000Y-4996000D03*
X1180000Y-5117300D03*
X1034400Y-4552300D03*
X1090000Y-4890000D03*
X1080000Y-4660000D03*
X890000Y-4620000D03*
Y-4567300D03*
Y-4680000D03*
X926700Y-4500000D03*
X1180000Y-4530000D03*
X926700Y-3960000D03*
X1010000Y-4160000D03*
X1030000Y-3665000D03*
X847300Y-3760000D03*
X867730Y-3260080D03*
X1009000Y-3220000D03*
X1138130Y-3069960D03*
X1129000Y-2480000D03*
X989000Y-2432000D03*
X1385600Y-4960000D03*
X1434000Y-5117300D03*
X1307000Y-5113000D03*
X1434000Y-4802700D03*
X1307000D03*
X1530000Y-4337300D03*
X1340000D03*
X1435000D03*
Y-4530000D03*
X1430000Y-4180000D03*
X1360000Y-3600000D03*
X1490000Y-3530000D03*
X1220000D03*
X1248840Y-3374120D03*
X1238000Y-3034000D03*
X1501210Y-2151880D03*
X1395000Y-2340430D03*
X1432690Y2201190D03*
X1640000Y-5300000D03*
Y-5210000D03*
X1561000Y-4809000D03*
X1790000Y-4587300D03*
X1820000Y-4410000D03*
X1640000Y-3550000D03*
Y-3640000D03*
Y-3720000D03*
X1739760Y-2892140D03*
X1846000Y-2705000D03*
X1642610Y2175600D03*
X1785880Y2745080D03*
X1687530Y2923290D03*
X1552000Y2998000D03*
X1910000Y-4230000D03*
X2232700Y-4290000D03*
X2220000Y-3940000D03*
X2170000Y-4010000D03*
X2171830Y-4080000D03*
X1940000Y-3870000D03*
X2140000Y-3722700D03*
X2060000D03*
X1980000Y-3690000D03*
X2064070Y-2669950D03*
X2155000Y-2597000D03*
X2192140Y-1619000D03*
X2219000Y-1403670D03*
X2164000Y1484670D03*
X1998050Y2722960D03*
X2340000Y-4010000D03*
X2338170Y-4080000D03*
X2310000Y-3930000D03*
X2530000Y-4000000D03*
Y-3910000D03*
X2580000Y-3647300D03*
X2470000Y-3640000D03*
Y-3565000D03*
Y-3410000D03*
X2305100Y-3130000D03*
X2435100D03*
X2305100Y-2732000D03*
X2487770Y-833560D03*
X2513780Y-1051000D03*
X2456900Y920250D03*
X2349610Y1376610D03*
X2720000Y-3870000D03*
X2790000Y-4150000D03*
X2640000D03*
X2770000Y-3552700D03*
Y-3647300D03*
X2675000Y-3370000D03*
X2792820Y-3337180D03*
X2620000Y-3250000D03*
X2743860Y-1785000D03*
X2717980Y-2001040D03*
X2918900Y-1692160D03*
X2678000Y-500000D03*
X2608000Y-300000D03*
X2615000Y235000D03*
X2689000Y435000D03*
X2613050Y774890D03*
X2903970Y1723030D03*
X2685810Y2046240D03*
X2716900Y1830180D03*
X2605000Y2148000D03*
X2983000Y-1578000D03*
X3089930Y-1089150D03*
X3112880Y-1305300D03*
X3243960Y-938100D03*
X3262000Y-300000D03*
X3268000Y235000D03*
X3225120Y997680D03*
X3093080Y1348760D03*
X3068980Y1143040D03*
X3034000Y1477000D03*
X3280000Y-811000D03*
X3339000Y-500000D03*
X3348000Y435000D03*
G54D11*
X-3090000Y-500000D03*
Y-300000D03*
Y235000D03*
Y435000D03*
X-2890000Y-500000D03*
Y-300000D03*
Y235000D03*
Y435000D03*
X2450000Y-4330000D03*
X2750000D03*
X2870000Y-500000D03*
Y-300000D03*
Y235000D03*
Y435000D03*
X3070000Y-500000D03*
Y-300000D03*
Y235000D03*
Y435000D03*
G54D12*
X-2722000Y-4834000D03*
Y-4580000D03*
X-2468000Y-4834000D03*
Y-4580000D03*
X-2214000Y-4834000D03*
Y-4580000D03*
X-1960000Y-4834000D03*
Y-4580000D03*
X1968000Y-4834000D03*
Y-4580000D03*
X2222000Y-4834000D03*
Y-4580000D03*
X2476000Y-4834000D03*
Y-4580000D03*
X2730000Y-4834000D03*
Y-4580000D03*
G54D13*
X-2680000Y-3530000D03*
Y-2770000D03*
X-2720000Y-2460000D03*
X-1800000Y-3180000D03*
X2310000Y-5230000D03*
G54D14*
X-2120000Y-2120000D03*
Y2120000D03*
X-1150000Y2770000D03*
X0Y-3000000D03*
Y3000000D03*
X1150000Y2770000D03*
X2120000Y-2120000D03*
Y2120000D03*
G54D15*
G01X3000000Y-1800000D02*
G03X-3000000I-3000000J1801179D01*
G01D02*
Y-5500000D01*
X3000000D01*
Y-1800000D01*
G54D16*
G01X-2680000Y-2877800D02*
Y-2770000D01*
G01D02*
Y-2662200D01*
G01X-2787800Y-2770000D02*
X-2680000D01*
G01D02*
X-2572200D01*
G01X-2720000Y-2567800D02*
Y-2460000D01*
G01D02*
Y-2352200D01*
G01X-2827800Y-2460000D02*
X-2720000D01*
G01D02*
X-2612200D01*
G01X1968000Y-4901800D02*
Y-4834000D01*
G01Y-4647800D02*
Y-4580000D01*
G01D02*
Y-4512200D01*
G01X1900200Y-4580000D02*
X1968000D01*
G01D02*
X2035800D01*
G01X1968000Y-4834000D02*
Y-4766200D01*
G01X1900200Y-4834000D02*
X1968000D01*
G01D02*
X2035800D01*
G01X2476000Y-4901800D02*
Y-4834000D01*
G01D02*
Y-4766200D01*
G01X2408200Y-4834000D02*
X2476000D01*
G01D02*
X2543800D01*
G01X2730000Y-4901800D02*
Y-4834000D01*
G01Y-4647800D02*
Y-4580000D01*
G01D02*
Y-4512200D01*
G01X2662200Y-4580000D02*
X2730000D01*
G01D02*
X2797800D01*
G01X2730000Y-4834000D02*
Y-4766200D01*
G01X2662200Y-4834000D02*
X2730000D01*
G01D02*
X2797800D01*
G54D17*
G01X2500000Y0D02*
G03I-2500000J0D01*
M02*
