G04 ================== begin FILE IDENTIFICATION RECORD ==================*
G04 Layout Name:  TMR_Tiny_May-25.brd*
G04 Film Name:    PASTEMASK_BOTTOM*
G04 File Format:  Gerber RS274X*
G04 File Origin:  Cadence Allegro 25.1-S020*
G04 Origin Date:  Mon May 25 15:09:01 2026*
G04 *
G04 Layer:  VIA CLASS/PASTEMASK_BOTTOM*
G04 Layer:  PIN/PASTEMASK_BOTTOM*
G04 Layer:  DRC ERROR CLASS/PASTEMASK_BOTTOM*
G04 Layer:  BOARD GEOMETRY/WB_GUIDE_LINE*
G04 *
G04 Offset:    (0.0000 0.0000)*
G04 Mirror:    No*
G04 Mode:      Positive*
G04 Rotation:  0*
G04 FullContactRelief:  No*
G04 UndefLineWidth:     0.2540*
G04 ================== end FILE IDENTIFICATION RECORD ====================*
%FSLAX25Y25*MOMM*%
%IR0*IPPOS*OFA0.00000B0.00000*MIA0B0*SFA1.00000B1.00000*%
%ADD23R,.9X1.*%
%ADD14R,1.27X.51*%
%ADD20R,.65X1.5*%
%ADD19R,.3X.2*%
%ADD18R,.2X.3*%
%ADD10C,1.*%
%ADD21R,.3X.35*%
%ADD22R,.5X.6*%
%ADD12R,.8X.6*%
%ADD24C,1.5*%
%ADD11R,.6X.8*%
%ADD15R,.6X.55*%
%ADD17R,.9X.8*%
%ADD16R,.8X.9*%
%ADD13C,1.8*%
%ADD25C,.1*%
%ADD26C,.254*%
G75*
%LPD*%
G75*
G54D10*
X-2739000Y-5324000D03*
Y-5070000D03*
X-2485000Y-5324000D03*
Y-5070000D03*
X-2231000Y-5324000D03*
X-1977000D03*
X-2231000Y-5070000D03*
X-1977000D03*
X1968000Y-5324000D03*
X2222000D03*
X1968000Y-5070000D03*
X2222000D03*
X2476000Y-5324000D03*
Y-5070000D03*
X2730000Y-5324000D03*
Y-5070000D03*
G54D11*
X-2780000Y-4030000D03*
X-2680000D03*
X-2000000Y-4590000D03*
X-2230000Y-4030000D03*
X-2130000D03*
X-1900000Y-4590000D03*
X-1590000Y-4140000D03*
X-1890000Y-3890000D03*
X-1790000D03*
Y-4029500D03*
X-1890000D03*
Y-3740000D03*
X-1790000D03*
X-1490000Y-4140000D03*
X-1200000Y-5130000D03*
X-1100000D03*
X-1140000Y-4090000D03*
X-1040000D03*
X-900000Y-3910000D03*
X-1000000D03*
X-740000Y-4170000D03*
X-640000D03*
X-250000Y-3580000D03*
X-150000D03*
X460000Y-5310000D03*
Y-5150000D03*
X560000Y-5310000D03*
Y-5150000D03*
X1020000Y-4780000D03*
X920000D03*
X1180000Y-4630000D03*
X1210000Y-4960000D03*
X1310000D03*
X1280000Y-4630000D03*
X2240000Y-3670000D03*
Y-3820000D03*
X2340000Y-3670000D03*
Y-3820000D03*
X2620000Y-4900000D03*
X2720000D03*
G54D20*
X-15000Y-3835000D03*
G54D12*
X-2770000Y-3840000D03*
X-2630000D03*
X-2770000Y-3740000D03*
X-2630000D03*
X-2490000Y-3840000D03*
Y-3740000D03*
X-2050000Y-4740000D03*
Y-4840000D03*
X-1690000Y-4900000D03*
Y-5000000D03*
X-1900000Y-4740000D03*
Y-4840000D03*
X-1630000Y-3910000D03*
Y-4010000D03*
X-1550000Y-5120000D03*
Y-5220000D03*
Y-4900000D03*
Y-5000000D03*
X-1320000Y-4880000D03*
Y-4980000D03*
X-1490000Y-3910000D03*
Y-4010000D03*
X-1410000Y-3670000D03*
Y-3570000D03*
X-970000Y-4900000D03*
Y-5000000D03*
X-550000Y-4900000D03*
Y-5000000D03*
X-690000Y-5120000D03*
Y-5220000D03*
Y-4900000D03*
Y-5000000D03*
X-710000Y-4610000D03*
Y-4510000D03*
X-750000Y-3930000D03*
Y-4030000D03*
X-600000Y-3930000D03*
Y-4030000D03*
X-350000Y-4750000D03*
Y-4650000D03*
X290000Y-5270000D03*
Y-5170000D03*
X720000Y-5270000D03*
Y-5170000D03*
X760000Y-4720000D03*
Y-4620000D03*
X1810000Y-4770000D03*
Y-4870000D03*
X2120000Y-4869000D03*
Y-4769000D03*
X2790000Y-4040000D03*
Y-3940000D03*
X2640000Y-4040000D03*
Y-3940000D03*
G54D21*
X80000Y-3899000D03*
X-110000D03*
X80000Y-3769000D03*
X-110000D03*
X80000Y-3834000D03*
X-110000D03*
G54D13*
X-2680000Y-3530000D03*
Y-2770000D03*
X-2720000Y-2460000D03*
X-1800000Y-3180000D03*
X2410000Y-4790000D03*
G54D22*
X432000Y-4893000D03*
X582000D03*
G54D14*
X-2263400Y-4829100D03*
Y-4637600D03*
X-2534170Y-4731500D03*
G54D23*
X1330000Y-3810000D03*
X1490000D03*
G54D15*
X-2439500Y-3120500D03*
X-2080500D03*
G54D24*
X2450000Y-4330000D03*
X2750000D03*
G54D25*
G01X3000000Y-1800000D02*
G03X-3000000I-3000000J1801179D01*
G01D02*
Y-5500000D01*
X3000000D01*
Y-1800000D01*
G54D16*
X-1360000Y-4690000D03*
X-1220000D03*
X-1250000Y-3650000D03*
X-880000Y-4690000D03*
X-1020000D03*
X-1110000Y-3650000D03*
X1370000Y-4430000D03*
X1510000D03*
G54D26*
G01X2500000Y0D02*
G03I-2500000J0D01*
G54D17*
X-900000Y-3730000D03*
Y-3590000D03*
G54D18*
X-375600Y-5230000D03*
X-430000D03*
X-315600Y-4550000D03*
X-370000D03*
X-315600Y-4490000D03*
X-370000D03*
X-405600Y-4160000D03*
X-460000D03*
X-344400D03*
X-290000D03*
X24400Y-3540000D03*
X-30000D03*
X24400Y-3600000D03*
X-30000D03*
X243600Y-4922000D03*
X298000D03*
X325600Y-4760000D03*
X380000D03*
X325600Y-4700000D03*
X380000D03*
X325600Y-4640000D03*
X380000D03*
X243600Y-4865000D03*
X298000D03*
X325600Y-4393000D03*
X380000D03*
X325600Y-4501000D03*
X380000D03*
X325600Y-4447000D03*
X380000D03*
X384400Y-3960000D03*
X330000D03*
X384400Y-3900000D03*
X330000D03*
X165600Y-3710000D03*
X220000D03*
X384400Y-3800000D03*
X330000D03*
X554400Y-4650000D03*
X500000D03*
X604400Y-4590000D03*
X550000D03*
X795600Y-4500000D03*
X779400Y-4010000D03*
X725000D03*
X725600Y-4070000D03*
X780000D03*
X820000Y-3950000D03*
X1180000Y-5060000D03*
X850000Y-4500000D03*
X1024400D03*
X970000D03*
X875600Y-4070000D03*
X930000D03*
X975600Y-3950000D03*
X1030000D03*
X874400D03*
X925600Y-4010000D03*
X980000D03*
X1234400Y-5060000D03*
X1385600D03*
X1440000D03*
X1354400Y-4860000D03*
X1300000D03*
X1405600D03*
X1460000D03*
X2124400Y-4990000D03*
X2070000D03*
X2635600Y-4790000D03*
X2690000D03*
X2675600Y-3660000D03*
X2730000D03*
X2675600Y-3600000D03*
X2730000D03*
X2675600Y-3540000D03*
X2730000D03*
X2675600Y-3450000D03*
X2730000D03*
G54D19*
X-310000Y-5234400D03*
Y-5180000D03*
X-380000Y-5115600D03*
Y-5170000D03*
X-300000Y-3924400D03*
Y-3870000D03*
X0Y-4930000D03*
X120000D03*
X60000D03*
X0Y-4875600D03*
X120000D03*
X60000D03*
X180000Y-4930000D03*
Y-4875600D03*
X440000Y-4764400D03*
Y-4710000D03*
X170000Y-3875600D03*
Y-3930000D03*
Y-3765600D03*
Y-3820000D03*
X500000Y-4764400D03*
Y-4710000D03*
X740000Y-3665600D03*
Y-3720000D03*
X800000Y-3665600D03*
Y-3720000D03*
X950000Y-4965600D03*
Y-5020000D03*
X1010000Y-4965600D03*
Y-5020000D03*
Y-4654400D03*
Y-4600000D03*
X1180000Y-4425600D03*
Y-4480000D03*
X1120000Y-4425600D03*
Y-4480000D03*
X860000Y-3665600D03*
Y-3720000D03*
X950000Y-3665600D03*
Y-3720000D03*
X1340000Y-4284400D03*
Y-4230000D03*
X1530000Y-4284400D03*
Y-4230000D03*
X2010000Y-4745600D03*
Y-4800000D03*
X2230000Y-4745600D03*
Y-4800000D03*
X2220000Y-4005600D03*
Y-4060000D03*
X2130000Y-3625600D03*
Y-3680000D03*
X2070000Y-3625600D03*
Y-3680000D03*
X2290000Y-4005600D03*
Y-4060000D03*
X2260000Y-3010600D03*
Y-3065000D03*
X2500000Y-3064400D03*
Y-3010000D03*
X2440000Y-3064400D03*
Y-3010000D03*
X2320000Y-3010600D03*
Y-3065000D03*
X2380000Y-3064400D03*
Y-3010000D03*
M02*
