G04 ================== begin FILE IDENTIFICATION RECORD ==================*
G04 Layout Name:  D:/TinyTMR/FrontendTMR/PCB/TMR_Tiny_May-15-Copy.brd*
G04 Film Name:    SILKSCREEN_TOP*
G04 File Format:  Gerber RS274X*
G04 File Origin:  Cadence Allegro 25.1-S020*
G04 Origin Date:  Fri May 15 10:26:34 2026*
G04 *
G04 Layer:  REF DES/SILKSCREEN_TOP*
G04 Layer:  PACKAGE GEOMETRY/SILKSCREEN_TOP*
G04 Layer:  BOARD GEOMETRY/SILKSCREEN_TOP*
G04 Layer:  BOARD GEOMETRY/WB_GUIDE_LINE*
G04 *
G04 Offset:    (0.0000 0.0000)*
G04 Mirror:    No*
G04 Mode:      Positive*
G04 Rotation:  0*
G04 FullContactRelief:  No*
G04 UndefLineWidth:     0.2540*
G04 ================== end FILE IDENTIFICATION RECORD ====================*
%FSLAX25Y25*MOMM*%
%IR0*IPPOS*OFA0.00000B0.00000*MIA0B0*SFA1.00000B1.00000*%
%ADD10C,.1*%
%ADD11C,.2*%
%ADD12C,.03*%
%ADD13C,.05*%
%ADD14C,.254*%
G75*
%LPD*%
G75*
G36*
G01X-2673760Y776270D02*
X-2658310Y823820D01*
X-2721320Y791720D01*
X-2673760Y776270D01*
G37*
G36*
G01X-2431500Y-3510000D02*
X-2360000D01*
Y-3510400D01*
X-2431500Y-3581900D01*
Y-3510000D01*
G37*
G36*
G01X-2266090Y-1623890D02*
X-2292580Y-1581490D01*
X-2308490Y-1650390D01*
X-2266090Y-1623890D01*
G37*
G36*
G01X-2577160Y-1046070D02*
X-2594260Y-999090D01*
X-2624150Y-1063170D01*
X-2577160Y-1046070D01*
G37*
G36*
G01X-2356990Y1490640D02*
X-2327600Y1531090D01*
X-2397440Y1520030D01*
X-2356990Y1490640D01*
G37*
G36*
G01X-1621080Y2259340D02*
X-1579150Y2286570D01*
X-1648320Y2301270D01*
X-1621080Y2259340D01*
G37*
G36*
G01X-1370000Y-5120000D02*
X-1305000D01*
X-1370000Y-5055000D01*
Y-5120000D01*
G37*
G36*
G01Y-4090000D02*
X-1305000D01*
X-1370000Y-4025000D01*
Y-4090000D01*
G37*
G36*
G01X-1492640Y-2355990D02*
X-1533090Y-2326600D01*
X-1522030Y-2396440D01*
X-1492640Y-2355990D01*
G37*
G36*
G01X-651160Y2707160D02*
X-601920Y2715840D01*
X-659840Y2756400D01*
X-651160Y2707160D01*
G37*
G36*
G01X-325370Y-4196500D02*
G03I-49630J0D01*
G37*
G36*
G01X-478760Y-2743200D02*
X-527670Y-2732810D01*
X-489160Y-2792110D01*
X-478760Y-2743200D01*
G37*
G36*
G01X217300Y-5240300D02*
X217100D01*
X163800Y-5187000D01*
Y-5186800D01*
X218500D01*
X218800Y-5187100D01*
Y-5238800D01*
X217300Y-5240300D01*
G37*
G36*
G01X408000Y-3492000D02*
Y-3562000D01*
X338000Y-3492000D01*
X408000D01*
G37*
G36*
G01X445760Y2748200D02*
X494670Y2737810D01*
X456160Y2797110D01*
X445760Y2748200D01*
G37*
G36*
G01X621470Y-3503000D02*
G03I-22470J0D01*
G37*
G36*
G01X618160Y-2713160D02*
X568920Y-2721840D01*
X626840Y-2762400D01*
X618160Y-2713160D01*
G37*
G36*
G01X1110000Y-5360000D02*
X1150000D01*
X1170000D01*
X1110000Y-5300000D01*
Y-5320000D01*
Y-5360000D01*
G37*
G36*
G01X900000Y-3927000D02*
X948000Y-3975000D01*
Y-3925000D01*
X898000D01*
X900000Y-3927000D01*
G37*
G36*
G01X1270000Y-4510000D02*
Y-4460000D01*
X1320000Y-4510000D01*
X1270000D01*
G37*
G36*
G01X1396060Y-3640000D02*
G03I-36060J0D01*
G37*
G36*
G01X1454670Y2363590D02*
X1496600Y2336360D01*
X1481900Y2405520D01*
X1454670Y2363590D01*
G37*
G36*
G01X1643890Y-2248090D02*
X1601490Y-2274580D01*
X1670390Y-2290490D01*
X1643890Y-2248090D01*
G37*
G36*
G01X2060000Y-3870000D02*
X2030000D01*
Y-3900000D01*
X2060000Y-3870000D01*
G37*
G36*
G01X2430000Y-3730000D02*
X2380000D01*
X2430000Y-3680000D01*
Y-3730000D01*
G37*
G36*
G01X2535470Y-3801000D02*
G03I-22470J0D01*
G37*
G36*
G01X2526500Y-2778700D02*
X2573000Y-2825200D01*
Y-2775200D01*
X2523000D01*
X2526500Y-2778700D01*
G37*
G36*
G01X2388990Y-1440640D02*
X2359600Y-1481090D01*
X2429440Y-1470030D01*
X2388990Y-1440640D01*
G37*
G36*
G01X2261090Y1627890D02*
X2287580Y1585490D01*
X2303490Y1654390D01*
X2261090Y1627890D01*
G37*
G36*
G01X2665180Y-832810D02*
X2645640Y-878830D01*
X2711190Y-852350D01*
X2665180Y-832810D01*
G37*
G36*
G01X2584160Y1041070D02*
X2601260Y994090D01*
X2631150Y1058170D01*
X2584160Y1041070D01*
G37*
G36*
G01X-4865550Y328200D02*
X-4907090D01*
X-4954450Y175800D01*
X-5003670Y328200D01*
X-5046260D01*
X-4976680Y125000D01*
X-4934880D01*
X-4865550Y328200D01*
G37*
G36*
G01X-4771360Y209670D02*
X-4844380D01*
Y175800D01*
X-4771360D01*
Y209670D01*
G37*
G36*
G01X-4671340Y328200D02*
X-4676130Y328100D01*
X-4680810Y327810D01*
X-4689190Y326770D01*
X-4697190Y325070D01*
X-4704810Y322700D01*
X-4712050Y319670D01*
X-4718910Y315980D01*
X-4725390Y311630D01*
X-4731500Y306620D01*
X-4737220Y300950D01*
X-4739080Y298860D01*
X-4743910Y292660D01*
X-4748170Y285940D01*
X-4751870Y278730D01*
X-4754990Y271000D01*
X-4757550Y262760D01*
X-4759540Y254020D01*
X-4760960Y244770D01*
X-4761810Y235010D01*
X-4762100Y224750D01*
X-4762090Y223590D01*
X-4761720Y213720D01*
X-4760760Y204320D01*
X-4759190Y195390D01*
X-4757030Y186930D01*
X-4754260Y178950D01*
X-4750900Y171430D01*
X-4746940Y164390D01*
X-4742380Y157820D01*
X-4737220Y151720D01*
X-4732150Y146680D01*
X-4726070Y141600D01*
X-4719640Y137190D01*
X-4712860Y133470D01*
X-4705730Y130420D01*
X-4698250Y128050D01*
X-4690420Y126350D01*
X-4682250Y125340D01*
X-4673720Y125000D01*
X-4668010Y125110D01*
X-4659140Y125740D01*
X-4650770Y126940D01*
X-4642920Y128710D01*
X-4635570Y131050D01*
X-4628730Y133960D01*
X-4622400Y137440D01*
X-4617950Y140460D01*
X-4612570Y144940D01*
X-4607690Y149980D01*
X-4603330Y155580D01*
X-4599470Y161750D01*
X-4596130Y168490D01*
X-4593290Y175800D01*
X-4631130Y192730D01*
X-4631960Y190030D01*
X-4634210Y184180D01*
X-4636900Y178960D01*
X-4640010Y174370D01*
X-4643550Y170400D01*
X-4647530Y167070D01*
X-4651980Y164210D01*
X-4657000Y161870D01*
X-4662380Y160200D01*
X-4668140Y159200D01*
X-4674250Y158870D01*
X-4679260Y159100D01*
X-4685010Y160000D01*
X-4690420Y161590D01*
X-4695490Y163850D01*
X-4700220Y166800D01*
X-4704600Y170430D01*
X-4708650Y174740D01*
X-4710420Y177050D01*
X-4712070Y179570D01*
X-4714670Y184530D01*
X-4716880Y190140D01*
X-4718680Y196400D01*
X-4720080Y203310D01*
X-4721080Y210870D01*
X-4721680Y219070D01*
X-4721880Y227920D01*
X-4721720Y235360D01*
X-4721120Y243390D01*
X-4720090Y250800D01*
X-4718620Y257580D01*
X-4716720Y263740D01*
X-4714380Y269270D01*
X-4711600Y274180D01*
X-4708380Y278460D01*
X-4705010Y282070D01*
X-4700600Y285810D01*
X-4695850Y288880D01*
X-4690770Y291270D01*
X-4685340Y292970D01*
X-4679570Y293990D01*
X-4673460Y294330D01*
X-4672110Y294320D01*
X-4666390Y293820D01*
X-4661020Y292650D01*
X-4656000Y290800D01*
X-4651330Y288280D01*
X-4647000Y285070D01*
X-4644610Y282970D01*
X-4642400Y280710D01*
X-4639050Y276390D01*
X-4636270Y271580D01*
X-4634070Y266270D01*
X-4632450Y260470D01*
X-4593820Y277400D01*
X-4595240Y281570D01*
X-4598070Y288400D01*
X-4601330Y294600D01*
X-4605010Y300170D01*
X-4609130Y305110D01*
X-4613660Y309410D01*
X-4618180Y312940D01*
X-4624450Y316990D01*
X-4631170Y320410D01*
X-4638330Y323220D01*
X-4645920Y325400D01*
X-4653960Y326950D01*
X-4662430Y327890D01*
X-4671340Y328200D01*
G37*
G36*
G01X-4397760D02*
X-4436920D01*
Y217340D01*
X-4436970Y209900D01*
X-4437130Y203050D01*
X-4437380Y196960D01*
X-4437740Y191620D01*
X-4438210Y187040D01*
X-4438770Y183210D01*
X-4439170Y181120D01*
X-4440550Y176790D01*
X-4442620Y172790D01*
X-4445380Y169110D01*
X-4448830Y165750D01*
X-4449820Y164990D01*
X-4453480Y162780D01*
X-4457720Y161070D01*
X-4462550Y159850D01*
X-4467970Y159110D01*
X-4473960Y158870D01*
X-4474920D01*
X-4480950Y159240D01*
X-4486470Y160160D01*
X-4491460Y161640D01*
X-4495940Y163680D01*
X-4499890Y166280D01*
X-4502410Y168500D01*
X-4505670Y172220D01*
X-4508320Y176390D01*
X-4510360Y181020D01*
X-4511800Y186120D01*
X-4512130Y188510D01*
X-4512430Y191810D01*
X-4512680Y195870D01*
X-4512870Y200700D01*
X-4513010Y206280D01*
X-4513090Y212620D01*
X-4513120Y219720D01*
Y328200D01*
X-4552280D01*
Y221570D01*
X-4552240Y214780D01*
X-4552040Y205630D01*
X-4551680Y197220D01*
X-4551150Y189560D01*
X-4550460Y182640D01*
X-4549600Y176470D01*
X-4548580Y171040D01*
X-4547130Y165930D01*
X-4544750Y160080D01*
X-4541610Y154380D01*
X-4537730Y148810D01*
X-4536520Y147350D01*
X-4532080Y142780D01*
X-4527010Y138630D01*
X-4521300Y134910D01*
X-4514970Y131610D01*
X-4513880Y131130D01*
X-4508710Y129260D01*
X-4502860Y127730D01*
X-4496330Y126530D01*
X-4489110Y125680D01*
X-4481220Y125170D01*
X-4472640Y125000D01*
X-4470180Y125020D01*
X-4461960Y125360D01*
X-4454370Y126140D01*
X-4447400Y127350D01*
X-4441050Y129000D01*
X-4435330Y131090D01*
X-4433370Y131950D01*
X-4427230Y135130D01*
X-4421720Y138730D01*
X-4416830Y142760D01*
X-4412580Y147230D01*
X-4411530Y148550D01*
X-4408010Y153760D01*
X-4405070Y159470D01*
X-4402720Y165670D01*
X-4400940Y172360D01*
X-4400530Y174410D01*
X-4399800Y179110D01*
X-4399180Y184570D01*
X-4398670Y190780D01*
X-4398270Y197750D01*
X-4397990Y205460D01*
X-4397820Y213940D01*
X-4397760Y223160D01*
Y328200D01*
G37*
G36*
G01X-4208590D02*
X-4362840D01*
Y294330D01*
X-4305160D01*
Y125000D01*
X-4266000D01*
Y294330D01*
X-4208590D01*
Y328200D01*
G37*
G36*
G01X4101450Y333200D02*
X4059910D01*
X4012550Y180800D01*
X3963330Y333200D01*
X3920740D01*
X3990320Y130000D01*
X4032120D01*
X4101450Y333200D01*
G37*
G36*
G01X4195640Y214670D02*
X4122620D01*
Y180800D01*
X4195640D01*
Y214670D01*
G37*
G36*
G01X4295660Y333200D02*
X4290870Y333100D01*
X4286190Y332810D01*
X4277810Y331770D01*
X4269810Y330070D01*
X4262190Y327700D01*
X4254950Y324670D01*
X4248090Y320980D01*
X4241610Y316630D01*
X4235500Y311620D01*
X4229780Y305950D01*
X4227920Y303860D01*
X4223090Y297660D01*
X4218830Y290940D01*
X4215130Y283730D01*
X4212010Y276000D01*
X4209450Y267760D01*
X4207460Y259020D01*
X4206040Y249770D01*
X4205190Y240010D01*
X4204900Y229750D01*
X4204910Y228590D01*
X4205280Y218720D01*
X4206240Y209320D01*
X4207810Y200390D01*
X4209970Y191930D01*
X4212740Y183950D01*
X4216100Y176430D01*
X4220060Y169390D01*
X4224620Y162820D01*
X4229780Y156720D01*
X4234850Y151680D01*
X4240930Y146600D01*
X4247360Y142190D01*
X4254140Y138470D01*
X4261270Y135420D01*
X4268750Y133050D01*
X4276580Y131350D01*
X4284750Y130340D01*
X4293280Y130000D01*
X4298990Y130110D01*
X4307860Y130740D01*
X4316230Y131940D01*
X4324080Y133710D01*
X4331430Y136050D01*
X4338270Y138960D01*
X4344600Y142440D01*
X4349050Y145460D01*
X4354430Y149940D01*
X4359310Y154980D01*
X4363670Y160580D01*
X4367530Y166750D01*
X4370870Y173490D01*
X4373710Y180800D01*
X4335870Y197730D01*
X4335040Y195030D01*
X4332790Y189180D01*
X4330100Y183960D01*
X4326990Y179370D01*
X4323450Y175400D01*
X4319470Y172070D01*
X4315020Y169210D01*
X4310000Y166870D01*
X4304620Y165200D01*
X4298860Y164200D01*
X4292750Y163870D01*
X4287740Y164100D01*
X4281990Y165000D01*
X4276580Y166590D01*
X4271510Y168850D01*
X4266780Y171800D01*
X4262400Y175430D01*
X4258350Y179740D01*
X4256580Y182050D01*
X4254930Y184570D01*
X4252330Y189530D01*
X4250120Y195140D01*
X4248320Y201400D01*
X4246920Y208310D01*
X4245920Y215870D01*
X4245320Y224070D01*
X4245120Y232920D01*
X4245280Y240360D01*
X4245880Y248390D01*
X4246910Y255800D01*
X4248380Y262580D01*
X4250280Y268740D01*
X4252620Y274270D01*
X4255400Y279180D01*
X4258620Y283460D01*
X4261990Y287070D01*
X4266400Y290810D01*
X4271150Y293880D01*
X4276230Y296270D01*
X4281660Y297970D01*
X4287430Y298990D01*
X4293540Y299330D01*
X4294890Y299320D01*
X4300610Y298820D01*
X4305980Y297650D01*
X4311000Y295800D01*
X4315670Y293280D01*
X4320000Y290070D01*
X4322390Y287970D01*
X4324600Y285710D01*
X4327950Y281390D01*
X4330730Y276580D01*
X4332930Y271270D01*
X4334550Y265470D01*
X4373180Y282400D01*
X4371760Y286570D01*
X4368930Y293400D01*
X4365670Y299600D01*
X4361990Y305170D01*
X4357870Y310110D01*
X4353340Y314410D01*
X4348820Y317940D01*
X4342550Y321990D01*
X4335830Y325410D01*
X4328670Y328220D01*
X4321080Y330400D01*
X4313040Y331950D01*
X4304570Y332890D01*
X4295660Y333200D01*
G37*
G36*
G01X4569240D02*
X4530080D01*
Y222340D01*
X4530030Y214900D01*
X4529870Y208050D01*
X4529620Y201960D01*
X4529260Y196620D01*
X4528790Y192040D01*
X4528230Y188210D01*
X4527830Y186120D01*
X4526450Y181790D01*
X4524380Y177790D01*
X4521620Y174110D01*
X4518170Y170750D01*
X4517180Y169990D01*
X4513520Y167780D01*
X4509280Y166070D01*
X4504450Y164850D01*
X4499030Y164110D01*
X4493040Y163870D01*
X4492080D01*
X4486050Y164240D01*
X4480530Y165160D01*
X4475540Y166640D01*
X4471060Y168680D01*
X4467110Y171280D01*
X4464590Y173500D01*
X4461330Y177220D01*
X4458680Y181390D01*
X4456640Y186020D01*
X4455200Y191120D01*
X4454870Y193510D01*
X4454570Y196810D01*
X4454320Y200870D01*
X4454130Y205700D01*
X4453990Y211280D01*
X4453910Y217620D01*
X4453880Y224720D01*
Y333200D01*
X4414720D01*
Y226570D01*
X4414760Y219780D01*
X4414960Y210630D01*
X4415320Y202220D01*
X4415850Y194560D01*
X4416540Y187640D01*
X4417400Y181470D01*
X4418420Y176040D01*
X4419870Y170930D01*
X4422250Y165080D01*
X4425390Y159380D01*
X4429270Y153810D01*
X4430480Y152350D01*
X4434920Y147780D01*
X4439990Y143630D01*
X4445700Y139910D01*
X4452030Y136610D01*
X4453120Y136130D01*
X4458290Y134260D01*
X4464140Y132730D01*
X4470670Y131530D01*
X4477890Y130680D01*
X4485780Y130170D01*
X4494360Y130000D01*
X4496820Y130020D01*
X4505040Y130360D01*
X4512630Y131140D01*
X4519600Y132350D01*
X4525950Y134000D01*
X4531670Y136090D01*
X4533630Y136950D01*
X4539770Y140130D01*
X4545280Y143730D01*
X4550170Y147760D01*
X4554420Y152230D01*
X4555470Y153550D01*
X4558990Y158760D01*
X4561930Y164470D01*
X4564280Y170670D01*
X4566060Y177360D01*
X4566470Y179410D01*
X4567200Y184110D01*
X4567820Y189570D01*
X4568330Y195780D01*
X4568730Y202750D01*
X4569010Y210460D01*
X4569180Y218940D01*
X4569240Y228160D01*
Y333200D01*
G37*
G36*
G01X4758410D02*
X4604160D01*
Y299330D01*
X4661840D01*
Y130000D01*
X4701000D01*
Y299330D01*
X4758410D01*
Y333200D01*
G37*
G54D10*
G01X3000000Y-1800000D02*
G03X-3000000I-3000000J1801179D01*
G01D02*
Y-5500000D01*
X3000000D01*
Y-1800000D01*
G01X-2991500Y-1164950D02*
X-3094100Y-883040D01*
X-2690040Y-735970D01*
X-2577160Y-1046070D01*
X-2981230Y-1193140D01*
X-2991500Y-1164950D01*
G01X-2975360Y698380D02*
X-3138930Y754700D01*
X-3100190Y867220D01*
X-2908240Y801130D01*
X-2946990Y688610D01*
X-2975360Y698380D01*
G01X-3073450Y937680D02*
X-2980740Y1222990D01*
X-2571780Y1090120D01*
X-2673760Y776270D01*
X-3082720Y909150D01*
X-3073450Y937680D01*
G01X2900000Y-1960000D02*
Y-5400000D01*
X-2900000D01*
Y-1960000D01*
G01X-2671000Y-3885000D02*
Y-4018000D01*
X-2788000D01*
Y-3823000D01*
X-2671000D01*
Y-3885000D01*
G01X-2659000Y-3789000D02*
X-2832000D01*
Y-3670000D01*
X-2629000D01*
Y-3789000D01*
X-2659000D01*
G01X-2876000Y-3512500D02*
X-2796000Y-3500000D01*
X-2876000Y-3487500D01*
G01Y-3460000D02*
Y-3448000D01*
G01Y-3454000D02*
X-2796000D01*
G01Y-3460000D02*
Y-3448000D01*
G01Y-3419500D02*
X-2876000D01*
X-2796000Y-3396500D01*
X-2876000D01*
G01X-2770000Y-3220000D02*
Y-3390000D01*
X-2590000D01*
Y-3220000D01*
G01X-2770000Y-3100000D02*
Y-2930000D01*
X-2590000D01*
Y-3100000D01*
G01X-2646650Y-1826320D02*
X-2805620Y-1571900D01*
X-2440960Y-1344040D01*
X-2266090Y-1623890D01*
X-2630750Y-1851760D01*
X-2646650Y-1826320D01*
G01X-2770080Y-1288260D02*
X-2932660Y-1347430D01*
X-2973350Y-1235610D01*
X-2782590Y-1166180D01*
X-2741900Y-1278000D01*
X-2770080Y-1288260D01*
G01X-2719920Y-1141740D02*
X-2557340Y-1082570D01*
X-2516650Y-1194390D01*
X-2707410Y-1263820D01*
X-2748100Y-1152000D01*
X-2719920Y-1141740D01*
G01X-2848110Y780330D02*
X-2680240Y738480D01*
X-2709030Y623010D01*
X-2906010Y672130D01*
X-2877210Y787590D01*
X-2848110Y780330D01*
G01X-2662390Y1505610D02*
X-2810680Y1594710D01*
X-2749390Y1696720D01*
X-2575380Y1592160D01*
X-2636670Y1490160D01*
X-2662390Y1505610D01*
G01X-2687230Y1767660D02*
X-2510900Y2010370D01*
X-2163020Y1757620D01*
X-2356990Y1490640D01*
X-2704870Y1743390D01*
X-2687230Y1767660D01*
G01X-2375000Y-3981000D02*
X-2242000D01*
Y-4098000D01*
X-2437000D01*
Y-3981000D01*
X-2375000D01*
G01X-2619000Y-3991000D02*
Y-3818000D01*
X-2500000D01*
Y-4021000D01*
X-2619000D01*
Y-3991000D01*
G01X-2419100Y-3507800D02*
X-2007800D01*
Y-3933200D01*
X-2435200D01*
Y-3507800D01*
X-2419100D01*
G01X-2515000Y-3010000D02*
X-1970000D01*
Y-3310000D01*
X-2540000D01*
Y-3010000D01*
X-2515000D01*
G01X-2421000Y-3341000D02*
X-2248000D01*
Y-3460000D01*
X-2451000D01*
Y-3341000D01*
X-2421000D01*
G01X-2340000Y-3160000D02*
X-2280000D01*
G01X-2571000Y-2593000D02*
X-2561000D01*
Y-2617000D01*
X-2564000Y-2625000D01*
X-2567500Y-2630330D01*
X-2572500Y-2633000D01*
X-2577500Y-2630330D01*
X-2581000Y-2625000D01*
X-2584000Y-2617000D01*
X-2586000Y-2607670D01*
X-2587000Y-2597000D01*
Y-2587670D01*
X-2586000Y-2579670D01*
X-2584000Y-2570330D01*
X-2581000Y-2562330D01*
X-2578000Y-2557000D01*
X-2574000Y-2553000D01*
X-2570500D01*
X-2566500Y-2555670D01*
X-2563500Y-2561000D01*
G01X-2539500Y-2633000D02*
Y-2553000D01*
X-2516500Y-2633000D01*
Y-2553000D01*
G01X-2493000Y-2633000D02*
Y-2553000D01*
X-2483000D01*
X-2479000Y-2557000D01*
X-2476000Y-2562330D01*
X-2473500Y-2570330D01*
X-2471500Y-2579670D01*
X-2471000Y-2593000D01*
X-2471500Y-2606330D01*
X-2473500Y-2615670D01*
X-2476000Y-2623670D01*
X-2479000Y-2629000D01*
X-2483000Y-2633000D01*
X-2493000D01*
G01X-2389750Y-1741960D02*
X-2244660Y-1647730D01*
X-2179840Y-1747540D01*
X-2350090Y-1858100D01*
X-2414910Y-1758300D01*
X-2389750Y-1741960D01*
G01X-2399720Y-1892480D02*
X-2537890Y-1996600D01*
X-2609500Y-1901560D01*
X-2447380Y-1779390D01*
X-2375760Y-1874430D01*
X-2399720Y-1892480D01*
G01X-2510610Y1541390D02*
X-2362320Y1452290D01*
X-2423610Y1350280D01*
X-2597620Y1454840D01*
X-2536330Y1556840D01*
X-2510610Y1541390D01*
G01X-2181000Y-3341000D02*
X-2008000D01*
Y-3460000D01*
X-2211000D01*
Y-3341000D01*
X-2181000D01*
G01X-2280000Y-3160000D02*
G02X-2230000I25000J0D01*
G01D02*
X-2170000D01*
G01X-1769660Y-2686230D02*
X-2012370Y-2509900D01*
X-1759620Y-2162020D01*
X-1492640Y-2355990D01*
X-1745390Y-2703870D01*
X-1769660Y-2686230D01*
G01X-1907170Y2394600D02*
X-2003910Y2538020D01*
X-1905260Y2604570D01*
X-1791740Y2436270D01*
X-1890390Y2369730D01*
X-1907170Y2394600D01*
G01X-1620000Y-5030000D02*
Y-5160000D01*
X-1480000D01*
Y-5030000D01*
G01X-1620000Y-4960000D02*
Y-4830000D01*
X-1480000D01*
Y-4960000D01*
G01X-1640000Y-4630000D02*
Y-4800000D01*
X-1460000D01*
Y-4630000D01*
G01X-1640000Y-4510000D02*
Y-4340000D01*
X-1460000D01*
Y-4510000D01*
G01X-1620000Y-3990000D02*
Y-4120000D01*
X-1480000D01*
Y-3990000D01*
G01X-1620000Y-3920000D02*
Y-3790000D01*
X-1480000D01*
Y-3920000D01*
G01X-1940000D02*
Y-4090000D01*
X-1760000D01*
Y-3920000D01*
G01X-1791000Y-3405000D02*
Y-3538000D01*
X-1908000D01*
Y-3343000D01*
X-1791000D01*
Y-3405000D01*
G01X-1940000Y-3800000D02*
Y-3630000D01*
X-1760000D01*
Y-3800000D01*
G01X-1640000Y-3570000D02*
Y-3740000D01*
X-1460000D01*
Y-3570000D01*
G01X-1640000Y-3450000D02*
Y-3280000D01*
X-1460000D01*
Y-3450000D01*
G01X-1894000Y-3052000D02*
X-1891000Y-3058670D01*
X-1887500Y-3062670D01*
X-1883000Y-3064000D01*
X-1878500Y-3061330D01*
X-1875000Y-3056000D01*
X-1872500Y-3046670D01*
X-1872000Y-3036000D01*
X-1873000Y-3025330D01*
X-1875500Y-3018670D01*
X-1879000Y-3013330D01*
X-1882500Y-3012000D01*
X-1886000Y-3013330D01*
X-1890500Y-3018670D01*
X-1889000Y-2984000D01*
X-1875500D01*
G01X-1849500D02*
X-1837000Y-3064000D01*
X-1824500Y-2984000D01*
G01X-1791000D02*
X-1795000Y-2986670D01*
X-1798000Y-2993330D01*
X-1800000Y-3001330D01*
X-1801500Y-3012000D01*
X-1802000Y-3024000D01*
X-1801500Y-3036000D01*
X-1800000Y-3046670D01*
X-1798000Y-3054670D01*
X-1795000Y-3061330D01*
X-1791000Y-3064000D01*
X-1787000Y-3061330D01*
X-1784000Y-3054670D01*
X-1782000Y-3046670D01*
X-1780500Y-3036000D01*
X-1780000Y-3024000D01*
X-1780500Y-3012000D01*
X-1782000Y-3001330D01*
X-1784000Y-2993330D01*
X-1787000Y-2986670D01*
X-1791000Y-2984000D01*
G01X-1497920Y-2663690D02*
X-1599610Y-2803650D01*
X-1695880Y-2733700D01*
X-1576560Y-2569470D01*
X-1480290Y-2639420D01*
X-1497920Y-2663690D01*
G01X-1754440Y2376870D02*
X-1647930Y2240550D01*
X-1741700Y2167280D01*
X-1866680Y2327250D01*
X-1772910Y2400510D01*
X-1754440Y2376870D01*
G01X-1830120Y2636310D02*
X-1578520Y2799700D01*
X-1344320Y2439070D01*
X-1621080Y2259340D01*
X-1855280Y2619970D01*
X-1830120Y2636310D01*
G01X-1281000Y-5235000D02*
Y-5368000D01*
X-1398000D01*
Y-5173000D01*
X-1281000D01*
Y-5235000D01*
G01X-1280000Y-4640000D02*
X-885000D01*
Y-5120000D01*
X-1370000D01*
Y-4640000D01*
X-1280000D01*
G01X-1280500Y-4407500D02*
Y-4580500D01*
X-1399500D01*
Y-4377500D01*
X-1280500D01*
Y-4407500D01*
G01X-1281000Y-4195000D02*
Y-4328000D01*
X-1398000D01*
Y-4133000D01*
X-1281000D01*
Y-4195000D01*
G01X-1280000Y-3610000D02*
X-885000D01*
Y-4090000D01*
X-1370000D01*
Y-3610000D01*
X-1280000D01*
G01X-1280500Y-3378500D02*
Y-3551500D01*
X-1399500D01*
Y-3348500D01*
X-1280500D01*
Y-3378500D01*
G01X-1540160Y-2522540D02*
X-1448490Y-2375830D01*
X-1347570Y-2438890D01*
X-1455140Y-2611050D01*
X-1556060Y-2547990D01*
X-1540160Y-2522540D01*
G01X-1001000Y-5235000D02*
Y-5368000D01*
X-1118000D01*
Y-5173000D01*
X-1001000D01*
Y-5235000D01*
G01X-861000D02*
Y-5368000D01*
X-978000D01*
Y-5173000D01*
X-861000D01*
Y-5235000D01*
G01X-1141000D02*
Y-5368000D01*
X-1258000D01*
Y-5173000D01*
X-1141000D01*
Y-5235000D01*
G01X-978000Y-4515000D02*
Y-4382000D01*
X-861000D01*
Y-4577000D01*
X-978000D01*
Y-4515000D01*
G01X-1258000D02*
Y-4382000D01*
X-1141000D01*
Y-4577000D01*
X-1258000D01*
Y-4515000D01*
G01X-1001000Y-4444000D02*
Y-4577000D01*
X-1118000D01*
Y-4382000D01*
X-1001000D01*
Y-4444000D01*
G01Y-4195000D02*
Y-4328000D01*
X-1118000D01*
Y-4133000D01*
X-1001000D01*
Y-4195000D01*
G01X-861000D02*
Y-4328000D01*
X-978000D01*
Y-4133000D01*
X-861000D01*
Y-4195000D01*
G01X-1141000D02*
Y-4328000D01*
X-1258000D01*
Y-4133000D01*
X-1141000D01*
Y-4195000D01*
G01X-978000Y-3486000D02*
Y-3353000D01*
X-861000D01*
Y-3548000D01*
X-978000D01*
Y-3486000D01*
G01X-1258000D02*
Y-3353000D01*
X-1141000D01*
Y-3548000D01*
X-1258000D01*
Y-3486000D01*
G01X-1001000Y-3415000D02*
Y-3548000D01*
X-1118000D01*
Y-3353000D01*
X-1001000D01*
Y-3415000D01*
G01X-760000Y-5030000D02*
Y-5160000D01*
X-620000D01*
Y-5030000D01*
G01X-760000Y-4960000D02*
Y-4830000D01*
X-620000D01*
Y-4960000D01*
G01X-800000Y-4630000D02*
Y-4800000D01*
X-620000D01*
Y-4630000D01*
G01X-800000Y-4510000D02*
Y-4340000D01*
X-620000D01*
Y-4510000D01*
G01X-750000Y-3990000D02*
Y-4120000D01*
X-610000D01*
Y-3990000D01*
G01X-750000Y-3920000D02*
Y-3790000D01*
X-610000D01*
Y-3920000D01*
G01X-790000Y-3570000D02*
Y-3740000D01*
X-610000D01*
Y-3570000D01*
G01X-790000Y-3450000D02*
Y-3280000D01*
X-610000D01*
Y-3450000D01*
G01X-597510Y-3157570D02*
X-890950Y-3095190D01*
X-801550Y-2674590D01*
X-478760Y-2743200D01*
X-568160Y-3163810D01*
X-597510Y-3157570D01*
G01X-722450Y2857550D02*
X-677670Y2690450D01*
X-792620Y2659650D01*
X-845160Y2855730D01*
X-730210Y2886530D01*
X-722450Y2857550D01*
G01X-696280Y3135840D02*
X-400840Y3187930D01*
X-326170Y2764470D01*
X-651160Y2707160D01*
X-725830Y3130630D01*
X-696280Y3135840D01*
G01X-851550Y2933450D02*
X-896330Y3100550D01*
X-781380Y3131350D01*
X-728840Y2935270D01*
X-843790Y2904470D01*
X-851550Y2933450D01*
G01X160700Y-5606500D02*
X161400D01*
Y-5658000D01*
X-425500D01*
Y-5606100D01*
G01X218700Y-5485200D02*
X220200D01*
Y-5606300D01*
X-484400D01*
Y-5484000D01*
G01X-484600Y-5310700D02*
X-484900D01*
Y-5186700D01*
X-336900D01*
G01X0Y-4312500D02*
X257500D01*
Y-4827500D01*
X-257500D01*
Y-4312500D01*
X0D01*
G01X409000Y-3512000D02*
Y-4110000D01*
X-411000D01*
Y-3490000D01*
X409000D01*
Y-3512000D01*
G01X-355880Y-3029350D02*
X-376960Y-3201060D01*
X-495080Y-3186550D01*
X-470340Y-2985070D01*
X-352220Y-2999570D01*
X-355880Y-3029350D01*
G01X-459080Y-2920270D02*
X-423110Y-2751050D01*
X-306710Y-2775800D01*
X-348910Y-2974360D01*
X-465310Y-2949620D01*
X-459080Y-2920270D01*
G01X66400Y-5185600D02*
X219500D01*
Y-5309800D01*
G01X110000Y3000000D02*
G03I-110000J0D01*
G01X451000Y-3655000D02*
Y-3522000D01*
X568000D01*
Y-3717000D01*
X451000D01*
Y-3655000D01*
G01X663280Y-3141840D02*
X367840Y-3193930D01*
X293170Y-2770470D01*
X618160Y-2713160D01*
X692830Y-3136630D01*
X663280Y-3141840D01*
G01X564510Y3162570D02*
X857950Y3100190D01*
X768550Y2679590D01*
X445760Y2748200D01*
X535160Y3168810D01*
X564510Y3162570D01*
G01X345650Y3038420D02*
X369730Y3209730D01*
X487570Y3193170D01*
X459320Y2992150D01*
X341480Y3008710D01*
X345650Y3038420D01*
G01X436120Y2926650D02*
X415040Y2754940D01*
X296920Y2769450D01*
X321660Y2970930D01*
X439780Y2956430D01*
X436120Y2926650D01*
G01X821000Y-5265000D02*
Y-5132000D01*
X938000D01*
Y-5327000D01*
X821000D01*
Y-5265000D01*
G01X1045000Y-5064000D02*
X699000D01*
Y-4728000D01*
X1060000D01*
Y-5064000D01*
X1045000D01*
G01X618000Y-3500000D02*
X1001000D01*
Y-3825000D01*
X598000D01*
Y-3500000D01*
X636000D01*
G01X779000Y-3349000D02*
X1000000D01*
Y-3471000D01*
X743000D01*
Y-3349000D01*
X779000D01*
G01X705540Y-2870930D02*
X675500Y-2700550D01*
X792690Y-2679890D01*
X827940Y-2879810D01*
X710750Y-2900470D01*
X705540Y-2870930D01*
G01X841550Y-2934450D02*
X886330Y-3101550D01*
X771380Y-3132350D01*
X718840Y-2936270D01*
X833790Y-2905470D01*
X841550Y-2934450D01*
G01X1079000Y-5195000D02*
Y-5328000D01*
X962000D01*
Y-5133000D01*
X1079000D01*
Y-5195000D01*
G01X1110000Y-5260000D02*
Y-4560000D01*
X1630000D01*
Y-5360000D01*
X1110000D01*
Y-5250000D01*
G01X1079000Y-4813000D02*
Y-4709000D01*
X962000D01*
G01X1169000Y-4139000D02*
Y-4312000D01*
X1050000D01*
Y-4109000D01*
X1169000D01*
Y-4139000D01*
G01X1123920Y-3279430D02*
X1248900Y-3233940D01*
X1288910Y-3343880D01*
X1105670Y-3410580D01*
X1065660Y-3300630D01*
X1123920Y-3279430D01*
G01X1270000Y-4450000D02*
Y-4110000D01*
X1600000D01*
Y-4510000D01*
X1270000D01*
Y-4450000D01*
G01X1846320Y-2628650D02*
X1591900Y-2787620D01*
X1364040Y-2422960D01*
X1643890Y-2248090D01*
X1871760Y-2612750D01*
X1846320Y-2628650D01*
G01X1509160Y2532540D02*
X1417490Y2385830D01*
X1316570Y2448890D01*
X1424140Y2621050D01*
X1525060Y2557990D01*
X1509160Y2532540D01*
G01X1714020Y2707880D02*
X1965630Y2544490D01*
X1731430Y2183860D01*
X1454670Y2363590D01*
X1688860Y2724220D01*
X1714020Y2707880D01*
G01X1466840Y2681460D02*
X1558510Y2828170D01*
X1659430Y2765110D01*
X1551860Y2592950D01*
X1450940Y2656010D01*
X1466840Y2681460D01*
G01X1881000Y-3929000D02*
X1708000D01*
Y-3810000D01*
X1911000D01*
Y-3929000D01*
X1881000D01*
G01X1845000Y-3779000D02*
X1712000D01*
Y-3662000D01*
X1907000D01*
Y-3779000D01*
X1845000D01*
G01X1711000Y-3545000D02*
Y-3412000D01*
X1828000D01*
Y-3607000D01*
X1711000D01*
Y-3545000D01*
G01X1979000Y-3439000D02*
Y-3612000D01*
X1860000D01*
Y-3409000D01*
X1979000D01*
Y-3439000D01*
G01X1529000Y-3211000D02*
Y-3131000D01*
X1539000D01*
X1543000Y-3135000D01*
X1546000Y-3140330D01*
X1548500Y-3148330D01*
X1550500Y-3157670D01*
X1551000Y-3171000D01*
X1550500Y-3184330D01*
X1548500Y-3193670D01*
X1546000Y-3201670D01*
X1543000Y-3207000D01*
X1539000Y-3211000D01*
X1529000D01*
G01X1580000Y-3131000D02*
X1592000D01*
G01X1586000D02*
Y-3211000D01*
G01X1580000D02*
X1592000D01*
G01X1622500D02*
Y-3131000D01*
X1641500D01*
G01X1634500Y-3169670D02*
X1622500D01*
G01X1668500Y-3211000D02*
Y-3131000D01*
X1687500D01*
G01X1680500Y-3169670D02*
X1668500D01*
G01X1931000Y-3052000D02*
X2064000D01*
Y-3169000D01*
X1869000D01*
X1869010Y-3052000D01*
X1931000D01*
G01Y-2910000D02*
X2064000D01*
Y-3027000D01*
X1869000D01*
X1869010Y-2910000D01*
X1931000D01*
G01X1918480Y-2378730D02*
X2022590Y-2516890D01*
X1927550Y-2588500D01*
X1805400Y-2426380D01*
X1900430Y-2354760D01*
X1918480Y-2378730D01*
G01X1770830Y-2368400D02*
X1674090Y-2224970D01*
X1772740Y-2158430D01*
X1886260Y-2326730D01*
X1787610Y-2393270D01*
X1770830Y-2368400D01*
G01X2070000Y-3870000D02*
X2480000D01*
Y-4110000D01*
X2030000D01*
Y-3870000D01*
X2090000D01*
G01X2160000Y-3800000D02*
X2190000D01*
X2220000Y-3770000D01*
Y-3730000D01*
G01X2370000D02*
X2030000D01*
Y-3400000D01*
X2430000D01*
Y-3730000D01*
X2370000D01*
G01X2015000Y-3231000D02*
X2148000D01*
Y-3348000D01*
X1953000D01*
Y-3231000D01*
X2015000D01*
G01X2719230Y-1717660D02*
X2542900Y-1960370D01*
X2195020Y-1707620D01*
X2388990Y-1440640D01*
X2736870Y-1693390D01*
X2719230Y-1717660D01*
G01X2374670Y1750610D02*
X2234710Y1648920D01*
X2164760Y1745200D01*
X2328990Y1864520D01*
X2398940Y1768250D01*
X2374670Y1750610D01*
G01X2450000Y-3770000D02*
X2480000D01*
X2510000Y-3740000D01*
G01Y-3782000D02*
Y-3399000D01*
X2835000D01*
Y-3802000D01*
X2510000D01*
Y-3764000D01*
G01X2431000Y-2571000D02*
Y-2651000D01*
G01X2419500Y-2571000D02*
X2442500D01*
G01X2471000D02*
X2483000D01*
G01X2477000D02*
Y-2651000D01*
G01X2471000D02*
X2483000D01*
G01X2511500D02*
Y-2571000D01*
X2534500Y-2651000D01*
Y-2571000D01*
G01X2569000Y-2651000D02*
Y-2615000D01*
X2559000Y-2571000D01*
G01X2579000D02*
X2569000Y-2615000D01*
G01X2661000Y-2571000D02*
Y-2651000D01*
G01X2649500Y-2571000D02*
X2672500D01*
G01X2694000Y-2651000D02*
Y-2571000D01*
X2707000Y-2637670D01*
X2720000Y-2571000D01*
Y-2651000D01*
G01X2743000D02*
Y-2571000D01*
X2755500D01*
X2759500Y-2575000D01*
X2762000Y-2580330D01*
X2763000Y-2591000D01*
X2762000Y-2601670D01*
X2759000Y-2608330D01*
X2755500Y-2612330D01*
X2743000D01*
G01X2755500D02*
X2763000Y-2651000D01*
G01X2555000Y-2496000D02*
Y-2416000D01*
X2568000Y-2482670D01*
X2581000Y-2416000D01*
Y-2496000D01*
G01X2601500D02*
X2614000Y-2416000D01*
X2626500Y-2496000D01*
G01X2622000Y-2468000D02*
X2606000D01*
G01X2660000Y-2496000D02*
Y-2460000D01*
X2650000Y-2416000D01*
G01X2670000D02*
X2660000Y-2460000D01*
G01X2696500Y-2462670D02*
X2700000Y-2453330D01*
X2703000Y-2448000D01*
X2707000Y-2445330D01*
X2710500Y-2448000D01*
X2713000Y-2453330D01*
X2715000Y-2461330D01*
X2715500Y-2470670D01*
X2715000Y-2478670D01*
X2713000Y-2486670D01*
X2710000Y-2493330D01*
X2706500Y-2496000D01*
X2702500Y-2493330D01*
X2699000Y-2485340D01*
X2697000Y-2473330D01*
X2696500Y-2460000D01*
X2697500Y-2442670D01*
X2699000Y-2433330D01*
X2701500Y-2424000D01*
X2705000Y-2417330D01*
X2708500Y-2416000D01*
X2712000Y-2418670D01*
X2714500Y-2425330D01*
G01X2742500Y-2429330D02*
X2745500Y-2421330D01*
X2749000Y-2417330D01*
X2753000Y-2416000D01*
X2758000Y-2418670D01*
X2761500Y-2425330D01*
X2762500Y-2433330D01*
X2762000Y-2441340D01*
X2760000Y-2448000D01*
X2750000Y-2461330D01*
X2745500Y-2470670D01*
X2742500Y-2484000D01*
X2741500Y-2496000D01*
X2762500D01*
G01X2788500Y-2462670D02*
X2792000Y-2453330D01*
X2795000Y-2448000D01*
X2799000Y-2445330D01*
X2802500Y-2448000D01*
X2805000Y-2453330D01*
X2807000Y-2461330D01*
X2807500Y-2470670D01*
X2807000Y-2478670D01*
X2805000Y-2486670D01*
X2802000Y-2493330D01*
X2798500Y-2496000D01*
X2794500Y-2493330D01*
X2791000Y-2485340D01*
X2789000Y-2473330D01*
X2788500Y-2460000D01*
X2789500Y-2442670D01*
X2791000Y-2433330D01*
X2793500Y-2424000D01*
X2797000Y-2417330D01*
X2800500Y-2416000D01*
X2804000Y-2418670D01*
X2806500Y-2425330D01*
G01X2546360Y-1503380D02*
X2404650Y-1404150D01*
X2472900Y-1306670D01*
X2639190Y-1423100D01*
X2570940Y-1520580D01*
X2546360Y-1503380D01*
G01X3049270Y-1028440D02*
X2932050Y-1304590D01*
X2536230Y-1136570D01*
X2665180Y-832810D01*
X3061000Y-1000820D01*
X3049270Y-1028440D01*
G01X2721970Y1146400D02*
X2565170Y1073290D01*
X2514890Y1181140D01*
X2698870Y1266930D01*
X2749150Y1159080D01*
X2721970Y1146400D01*
G01X2641650Y1830320D02*
X2800620Y1575900D01*
X2435960Y1348040D01*
X2261090Y1627890D01*
X2625750Y1855760D01*
X2641650Y1830320D01*
G01X2391720Y1898480D02*
X2529890Y2002600D01*
X2601500Y1907560D01*
X2439380Y1785390D01*
X2367760Y1880430D01*
X2391720Y1898480D01*
G01X2811000Y-3842000D02*
X2744000D01*
X2778000Y-3886000D01*
X2811000Y-3842000D01*
G01X2778000Y-3921000D02*
X2777500Y-3920500D01*
Y-3814500D01*
X2778000Y-3814000D01*
G01X2744000Y-3886000D02*
X2811000D01*
G01X2689000Y-3841000D02*
X2622000D01*
X2656000Y-3885000D01*
X2689000Y-3841000D01*
G01X2656000Y-3920000D02*
X2655500Y-3919500D01*
Y-3813500D01*
X2656000Y-3813000D01*
G01X2622000Y-3885000D02*
X2689000D01*
G01X2581000Y-4065000D02*
Y-3932000D01*
X2698000D01*
Y-4127000D01*
X2581000D01*
Y-4065000D01*
G01X2731000D02*
Y-3932000D01*
X2848000D01*
Y-4127000D01*
X2731000D01*
Y-4065000D01*
G01X2689000Y-3191000D02*
X2862000D01*
Y-3310000D01*
X2659000D01*
Y-3191000D01*
X2689000D01*
G01X2761000Y-3075000D02*
Y-2942000D01*
X2878000D01*
Y-3137000D01*
X2761000D01*
Y-3075000D01*
G01X2621000D02*
Y-2942000D01*
X2738000D01*
Y-3137000D01*
X2621000D01*
Y-3075000D01*
G01X2649000Y-2347000D02*
Y-2267000D01*
X2661500D01*
X2665500Y-2271000D01*
X2668000Y-2276330D01*
X2669000Y-2287000D01*
X2668000Y-2297670D01*
X2665000Y-2304330D01*
X2661500Y-2308330D01*
X2649000D01*
G01X2661500D02*
X2669000Y-2347000D01*
G01X2715000D02*
X2695000D01*
Y-2267000D01*
X2715000D01*
G01X2707000Y-2305670D02*
X2695000D01*
G01X2738500Y-2267000D02*
X2751000Y-2347000D01*
X2763500Y-2267000D01*
G01X2784500Y-2347000D02*
X2797000Y-2267000D01*
X2809500Y-2347000D01*
G01X2805000Y-2319000D02*
X2789000D01*
G01X2843000Y-2347000D02*
Y-2267000D01*
X2837000Y-2283000D01*
G01Y-2347000D02*
X2849000D01*
G01X2689640Y-1459620D02*
X2831350Y-1558850D01*
X2763100Y-1656330D01*
X2596810Y-1539900D01*
X2665060Y-1442420D01*
X2689640Y-1459620D01*
G01X2964720Y-755490D02*
X3123980Y-823070D01*
X3077470Y-932620D01*
X2890620Y-853300D01*
X2937110Y-743770D01*
X2964720Y-755490D01*
G01X2831740Y-831600D02*
X2667210Y-778140D01*
X2703980Y-664970D01*
X2897040Y-727700D01*
X2860270Y-840870D01*
X2831740Y-831600D01*
G01X2998500Y1159950D02*
X3101100Y878040D01*
X2697040Y730970D01*
X2584160Y1041070D01*
X2988230Y1188140D01*
X2998500Y1159950D01*
G01X2768090Y1293260D02*
X2930650Y1352430D01*
X2971360Y1240600D01*
X2780600Y1171170D01*
X2739900Y1283000D01*
X2768090Y1293260D01*
G54D11*
G01X-4264000Y0D02*
X-5363000D01*
G01X-4265000Y1000D02*
X-4264000Y0D01*
X5027000D01*
G01X3425000D02*
G03I-3425000J0D01*
G01X-1690000Y-4959000D02*
Y-4181000D01*
X-2994000D01*
Y-5486000D01*
X-1690000D01*
Y-4959000D01*
G01X-2990000Y85000D02*
X-2660000D01*
Y-565000D01*
X-3320000D01*
Y85000D01*
X-2990000D01*
G01X-3090000Y-300000D02*
Y-150000D01*
G01X-2990000D02*
X-3320000D01*
Y500000D01*
X-2660000D01*
Y-150000D01*
X-2990000D01*
G01X-3090000Y235000D02*
Y85000D01*
G01X-2890000Y-300000D02*
Y-150000D01*
G01Y235000D02*
Y85000D01*
G01X-2161000Y-6633000D02*
X-2375000Y-6778000D01*
G01X-2161000Y-6542000D02*
X-2523000Y-6701000D01*
G01X-2520000Y-5480000D02*
Y-6780000D01*
X-2160000D01*
Y-5480000D01*
G01Y-6437000D02*
X-2522000Y-6596000D01*
G01X-2163000Y-6316000D02*
X-2525000Y-6475000D01*
G01X-2163000Y-6203000D02*
X-2525000Y-6362000D01*
G01X-2163000Y-6091000D02*
X-2525000Y-6250000D01*
G01X-2162000Y-5977000D02*
X-2524000Y-6136000D01*
G01X-2162000Y-5849000D02*
X-2524000Y-6008000D01*
G01X-2162000Y-5745000D02*
X-2524000Y-5904000D01*
G01X-2158000Y-5622000D02*
X-2520000Y-5781000D01*
G01X-2161000Y-5508000D02*
X-2523000Y-5667000D01*
G01X-2469000Y-4997000D02*
Y-5297000D01*
G01X-2205000Y-4706000D02*
X-2097000D01*
X-2086000Y-4717000D01*
Y-5139000D01*
X-2088000Y-5141000D01*
X-2582000D01*
Y-4649000D01*
X-2536000Y-4603000D01*
G01X-2215000Y-5300000D02*
Y-5000000D01*
X-2469000Y-5141000D01*
X-2215000Y-5300000D01*
G01X-2396000Y-4836000D02*
X-2286000D01*
G01X2575000Y0D02*
G03I-2575000J0D01*
G01X-2213000Y-4647000D02*
Y-4766000D01*
G01X-150670Y-3185000D02*
X-158670Y-3176000D01*
X-168000Y-3170000D01*
X-178670D01*
X-190670Y-3179000D01*
X-200000Y-3194000D01*
X-206670Y-3212000D01*
X-212000Y-3242000D01*
X-213330Y-3269000D01*
X-210670Y-3296000D01*
X-206670Y-3314000D01*
X-198670Y-3332000D01*
X-189330Y-3344000D01*
X-180000Y-3350000D01*
X-170670D01*
X-161330Y-3344000D01*
X-153330Y-3335000D01*
X-146670Y-3323010D01*
G01X-53330Y-3350000D02*
X-106670D01*
Y-3170000D01*
X-53330D01*
G01X-74670Y-3257000D02*
X-106670D01*
G01X-6670Y-3350000D02*
Y-3170000D01*
X25330D01*
X36000Y-3179000D01*
X44000Y-3200000D01*
X46670Y-3224000D01*
X44000Y-3248000D01*
X37330Y-3266000D01*
X25330Y-3275010D01*
X-6670D01*
G01X93330Y-3350000D02*
Y-3170000D01*
X126670D01*
X137330Y-3179000D01*
X144000Y-3191000D01*
X146670Y-3215000D01*
X144000Y-3239000D01*
X136000Y-3254000D01*
X126670Y-3263000D01*
X93330D01*
G01X126670D02*
X146670Y-3350000D01*
G01X204000Y-3170000D02*
X236000D01*
G01X220000D02*
Y-3350000D01*
G01X204000D02*
X236000D01*
G01X917000Y-4527000D02*
X604000D01*
Y-3915000D01*
X958000D01*
Y-4527000D01*
X917000D01*
G01X1180000Y-3800000D02*
Y-3830000D01*
X1290000D01*
G01Y-3500000D02*
X1180000D01*
Y-3550000D01*
G01X1430000Y-3500000D02*
X1500000D01*
X1550000Y-3550000D01*
G01X1360000Y-3640000D02*
Y-3720000D01*
G01X1420000Y-3830000D02*
X1540000D01*
Y-3810000D01*
G01X3000000Y-4959000D02*
Y-4181000D01*
X1696000D01*
Y-5486000D01*
X3000000D01*
Y-4959000D01*
G01X2529000Y-6542000D02*
X2167000Y-6701000D01*
G01X2170000Y-5480000D02*
Y-6780000D01*
X2530000D01*
Y-5480000D01*
G01Y-6437000D02*
X2168000Y-6596000D01*
G01X2527000Y-6316000D02*
X2165000Y-6475000D01*
G01X2527000Y-6203000D02*
X2165000Y-6362000D01*
G01X2527000Y-6091000D02*
X2165000Y-6250000D01*
G01X2528000Y-5977000D02*
X2166000Y-6136000D01*
G01X2528000Y-5849000D02*
X2166000Y-6008000D01*
G01X2528000Y-5745000D02*
X2166000Y-5904000D01*
G01X2532000Y-5622000D02*
X2170000Y-5781000D01*
G01X2529000Y-5508000D02*
X2167000Y-5667000D01*
G01X2526900Y-3301800D02*
X2221200D01*
Y-2765200D01*
X2583000D01*
Y-3301800D01*
X2526900D01*
G01X2529000Y-6633000D02*
X2315000Y-6778000D01*
G01X2970000Y85000D02*
X3300000D01*
Y-565000D01*
X2640000D01*
Y85000D01*
X2970000D01*
G01X2870000Y-300000D02*
Y-150000D01*
G01X2970000D02*
X2640000D01*
Y500000D01*
X3300000D01*
Y-150000D01*
X2970000D01*
G01X2870000Y235000D02*
Y85000D01*
G01X3070000Y-300000D02*
Y-150000D01*
G01Y235000D02*
Y85000D01*
G54D12*
G01X-3039380Y-1371430D02*
X-3043220Y-1369630D01*
X-3047200Y-1368950D01*
X-3050960Y-1370320D01*
X-3054160Y-1374680D01*
X-3055740Y-1380570D01*
X-3056030Y-1387060D01*
X-3054490Y-1397150D01*
X-3051890Y-1405770D01*
X-3047870Y-1413890D01*
X-3044410Y-1419010D01*
X-3039530Y-1423630D01*
X-3034880Y-1426190D01*
X-3030910Y-1426870D01*
X-3027620Y-1425670D01*
X-3025010Y-1422600D01*
X-3023220Y-1418750D01*
X-3022240Y-1414140D01*
G01X-2993320Y-1413190D02*
X-3013840Y-1356810D01*
X-3015370Y-1370140D01*
G01X-2998950Y-1415240D02*
X-2987680Y-1411140D01*
G01X-2966110Y-1395840D02*
X-2961110Y-1399340D01*
X-2956660Y-1399850D01*
X-2953590Y-1396600D01*
X-2952350Y-1389770D01*
X-2953080Y-1380460D01*
X-2955220Y-1371660D01*
X-2958980Y-1361320D01*
X-2963000Y-1353210D01*
X-2968090Y-1346540D01*
X-2972270Y-1343810D01*
X-2976250Y-1343130D01*
X-2979320Y-1346380D01*
X-2980770Y-1351160D01*
X-2980600Y-1357480D01*
X-2978800Y-1365340D01*
X-2975470Y-1371580D01*
X-2970730Y-1377300D01*
X-2966540Y-1380030D01*
X-2962910Y-1379780D01*
X-2959830Y-1376530D01*
X-2958720Y-1370800D01*
X-2958980Y-1361320D01*
G01X-3287000Y-664000D02*
X-3284500Y-670000D01*
X-3281500Y-674000D01*
X-3278000Y-676000D01*
X-3274000Y-674000D01*
X-3271000Y-670000D01*
X-3268000Y-664000D01*
X-3267000Y-656000D01*
Y-616000D01*
G01X-3246500Y-651000D02*
X-3243000Y-644000D01*
X-3240000Y-640000D01*
X-3236000Y-638000D01*
X-3232500Y-640000D01*
X-3230000Y-644000D01*
X-3228000Y-650000D01*
X-3227500Y-657000D01*
X-3228000Y-663000D01*
X-3230000Y-669000D01*
X-3233000Y-674000D01*
X-3236500Y-676000D01*
X-3240500Y-674000D01*
X-3244000Y-668000D01*
X-3246000Y-659000D01*
X-3246500Y-649000D01*
X-3245500Y-636000D01*
X-3244000Y-629000D01*
X-3241500Y-622000D01*
X-3238000Y-617000D01*
X-3234500Y-616000D01*
X-3231000Y-618000D01*
X-3228500Y-623000D01*
G01X-3310000Y553000D02*
X-3307500Y547000D01*
X-3304500Y543000D01*
X-3301000Y541000D01*
X-3297000Y543000D01*
X-3294000Y547000D01*
X-3291000Y553000D01*
X-3290000Y561000D01*
Y601000D01*
G01X-3271000Y550000D02*
X-3268000Y545000D01*
X-3264500Y542000D01*
X-3260000Y541000D01*
X-3255500Y543000D01*
X-3252000Y547000D01*
X-3249500Y554000D01*
X-3249000Y562000D01*
X-3250000Y570000D01*
X-3252500Y575000D01*
X-3256000Y579000D01*
X-3259500Y580000D01*
X-3263000Y579000D01*
X-3267500Y575000D01*
X-3266000Y601000D01*
X-3252500D01*
G01X-3239140Y799160D02*
X-3241000Y802970D01*
X-3243660Y806000D01*
X-3247440Y807300D01*
X-3252670Y805930D01*
X-3257610Y802350D01*
X-3261930Y797490D01*
X-3267070Y788680D01*
X-3270480Y780330D01*
X-3272460Y771500D01*
X-3273000Y765340D01*
X-3272110Y758690D01*
X-3270110Y753770D01*
X-3267450Y750740D01*
X-3264140Y749600D01*
X-3260180Y750350D01*
X-3256360Y752210D01*
X-3252700Y755170D01*
G01X-3229630Y737720D02*
X-3210090Y794450D01*
X-3219670Y785060D01*
G01X-3235300Y739670D02*
X-3223950Y735760D01*
G01X-3199280Y736790D02*
X-3198070Y731080D01*
X-3195740Y727110D01*
X-3191810Y724700D01*
X-3186900Y725120D01*
X-3182290Y727760D01*
X-3177650Y733570D01*
X-3174570Y740970D01*
X-3172910Y748860D01*
X-3173650Y754400D01*
X-3175650Y759320D01*
X-3178640Y761410D01*
X-3182270Y761600D01*
X-3187830Y759290D01*
X-3177950Y783380D01*
X-3165180Y778990D01*
G01X-2880000Y-4148000D02*
Y-4088000D01*
X-2870000D01*
X-2866000Y-4091000D01*
X-2863000Y-4095000D01*
X-2860500Y-4101000D01*
X-2858500Y-4108000D01*
X-2858000Y-4118000D01*
X-2858500Y-4128000D01*
X-2860500Y-4135000D01*
X-2863000Y-4141000D01*
X-2866000Y-4145000D01*
X-2870000Y-4148000D01*
X-2880000D01*
G01X-2840000Y-4136000D02*
X-2837000Y-4143000D01*
X-2833000Y-4147000D01*
X-2828500Y-4148000D01*
X-2824500Y-4147000D01*
X-2820500Y-4142000D01*
X-2818000Y-4136000D01*
X-2817500Y-4130000D01*
X-2818500Y-4123000D01*
X-2822000Y-4118000D01*
X-2825500Y-4116000D01*
X-2830000D01*
G01X-2825500D02*
X-2822500Y-4113000D01*
X-2820000Y-4108000D01*
X-2819000Y-4102000D01*
X-2820000Y-4096000D01*
X-2822500Y-4091000D01*
X-2827000Y-4088000D01*
X-2831500Y-4089000D01*
X-2836000Y-4093000D01*
G01X-2811000Y-3965000D02*
X-2871000D01*
Y-3952500D01*
X-2868000Y-3948500D01*
X-2864000Y-3946000D01*
X-2856000Y-3945000D01*
X-2848000Y-3946000D01*
X-2843000Y-3949000D01*
X-2840000Y-3952500D01*
Y-3965000D01*
G01Y-3952500D02*
X-2811000Y-3945000D01*
G01Y-3915000D02*
X-2871000D01*
X-2859000Y-3921000D01*
G01X-2811000D02*
Y-3909000D01*
G01Y-3869000D02*
X-2871000D01*
X-2828000Y-3887500D01*
Y-3862500D01*
G01X-2686000Y-4070000D02*
X-2689000Y-4067000D01*
X-2692500Y-4065000D01*
X-2696500D01*
X-2701000Y-4068000D01*
X-2704500Y-4073000D01*
X-2707000Y-4079000D01*
X-2709000Y-4089000D01*
X-2709500Y-4098000D01*
X-2708500Y-4107000D01*
X-2707000Y-4113000D01*
X-2704000Y-4119000D01*
X-2700500Y-4123000D01*
X-2697000Y-4125000D01*
X-2693500D01*
X-2690000Y-4123000D01*
X-2687000Y-4120000D01*
X-2684500Y-4116000D01*
G01X-2651000Y-4125000D02*
Y-4065000D01*
X-2669500Y-4108000D01*
X-2644500D01*
G01X-2628000Y-4116000D02*
X-2625000Y-4121000D01*
X-2621500Y-4124000D01*
X-2617000Y-4125000D01*
X-2612500Y-4123000D01*
X-2609000Y-4119000D01*
X-2606500Y-4112000D01*
X-2606000Y-4104000D01*
X-2607000Y-4096000D01*
X-2609500Y-4091000D01*
X-2613000Y-4087000D01*
X-2616500Y-4086000D01*
X-2620000Y-4087000D01*
X-2624500Y-4091000D01*
X-2623000Y-4065000D01*
X-2609500D01*
G01X-2849000Y-3591000D02*
X-2852000Y-3588000D01*
X-2855500Y-3586000D01*
X-2859500D01*
X-2864000Y-3589000D01*
X-2867500Y-3594000D01*
X-2870000Y-3600000D01*
X-2872000Y-3610000D01*
X-2872500Y-3619000D01*
X-2871500Y-3628000D01*
X-2870000Y-3634000D01*
X-2867000Y-3640000D01*
X-2863500Y-3644000D01*
X-2860000Y-3646000D01*
X-2856500D01*
X-2853000Y-3644000D01*
X-2850000Y-3641000D01*
X-2847500Y-3637000D01*
G01X-2814000Y-3646000D02*
Y-3586000D01*
X-2832500Y-3629000D01*
X-2807500D01*
G01X-2789500Y-3596000D02*
X-2786500Y-3590000D01*
X-2783000Y-3587000D01*
X-2779000Y-3586000D01*
X-2774000Y-3588000D01*
X-2770500Y-3593000D01*
X-2769500Y-3599000D01*
X-2770000Y-3605000D01*
X-2772000Y-3610000D01*
X-2782000Y-3620000D01*
X-2786500Y-3627000D01*
X-2789500Y-3637000D01*
X-2790500Y-3646000D01*
X-2769500D01*
G01X-2862000Y-3041000D02*
X-2865000Y-3044000D01*
X-2867000Y-3047500D01*
Y-3051500D01*
X-2864000Y-3056000D01*
X-2859000Y-3059500D01*
X-2853000Y-3062000D01*
X-2843000Y-3064000D01*
X-2834000Y-3064500D01*
X-2825000Y-3063500D01*
X-2819000Y-3062000D01*
X-2813000Y-3059000D01*
X-2809000Y-3055500D01*
X-2807000Y-3052000D01*
Y-3048500D01*
X-2809000Y-3045000D01*
X-2812000Y-3042000D01*
X-2816000Y-3039500D01*
G01X-2819000Y-3023000D02*
X-2812000Y-3020000D01*
X-2808000Y-3016000D01*
X-2807000Y-3011500D01*
X-2808000Y-3007500D01*
X-2813000Y-3003500D01*
X-2819000Y-3001000D01*
X-2825000Y-3000500D01*
X-2832000Y-3001500D01*
X-2837000Y-3005000D01*
X-2839000Y-3008500D01*
Y-3013000D01*
G01Y-3008500D02*
X-2842000Y-3005500D01*
X-2847000Y-3003000D01*
X-2853000Y-3002000D01*
X-2859000Y-3003000D01*
X-2864000Y-3005500D01*
X-2867000Y-3010000D01*
X-2866000Y-3014500D01*
X-2862000Y-3019000D01*
G01X-2819000Y-2983000D02*
X-2812000Y-2980000D01*
X-2808000Y-2976000D01*
X-2807000Y-2971500D01*
X-2808000Y-2967500D01*
X-2813000Y-2963500D01*
X-2819000Y-2961000D01*
X-2825000Y-2960500D01*
X-2832000Y-2961500D01*
X-2837000Y-2965000D01*
X-2839000Y-2968500D01*
Y-2973000D01*
G01Y-2968500D02*
X-2842000Y-2965500D01*
X-2847000Y-2963000D01*
X-2853000Y-2962000D01*
X-2859000Y-2963000D01*
X-2864000Y-2965500D01*
X-2867000Y-2970000D01*
X-2866000Y-2974500D01*
X-2862000Y-2979000D01*
G01X-2785000Y-2224000D02*
Y-2284000D01*
G01X-2796500Y-2224000D02*
X-2773500D01*
G01X-2755000Y-2284000D02*
Y-2224000D01*
X-2743000D01*
X-2739000Y-2227000D01*
X-2736000Y-2234000D01*
X-2735000Y-2242000D01*
X-2736000Y-2250000D01*
X-2738500Y-2256000D01*
X-2743000Y-2259000D01*
X-2755000D01*
G01X-2705000Y-2284000D02*
Y-2224000D01*
X-2711000Y-2236000D01*
G01Y-2284000D02*
X-2699000D01*
G01X-2635330Y-2052430D02*
X-2639540Y-2051840D01*
X-2643540Y-2052350D01*
X-2646730Y-2054750D01*
X-2648520Y-2059860D01*
X-2648300Y-2065960D01*
X-2646690Y-2072250D01*
X-2642270Y-2081440D01*
X-2637250Y-2088930D01*
X-2631040Y-2095520D01*
X-2626230Y-2099410D01*
X-2620220Y-2102390D01*
X-2615020Y-2103480D01*
X-2611020Y-2102970D01*
X-2608230Y-2100870D01*
X-2606630Y-2097160D01*
X-2606040Y-2092960D01*
X-2606450Y-2088260D01*
G01X-2616750Y-2044690D02*
X-2617960Y-2038090D01*
X-2616970Y-2033590D01*
X-2614380Y-2030380D01*
X-2609180Y-2028970D01*
X-2603380Y-2030860D01*
X-2598970Y-2035050D01*
X-2595760Y-2040140D01*
X-2594350Y-2045340D01*
X-2596310Y-2059340D01*
X-2595700Y-2067640D01*
X-2592070Y-2077430D01*
X-2587460Y-2085220D01*
X-2570680Y-2072580D01*
G01X-2542330Y-2051220D02*
X-2578440Y-2003300D01*
X-2567330Y-2048780D01*
X-2547370Y-2033730D01*
G01X-2796000Y-1530400D02*
X-2759540Y-1507620D01*
X-2752960Y-1501150D01*
X-2749990Y-1494580D01*
X-2750950Y-1489280D01*
X-2755290Y-1486100D01*
X-2762500Y-1485880D01*
X-2771190Y-1488960D01*
X-2807660Y-1511750D01*
G01X-2772150Y-1455360D02*
X-2823030Y-1487150D01*
X-2809680Y-1485880D01*
G01X-2768970Y-1460450D02*
X-2775330Y-1450270D01*
G01X-2793350Y-1421440D02*
X-2844230Y-1453230D01*
X-2830880Y-1451960D01*
G01X-2790170Y-1426530D02*
X-2796530Y-1416350D01*
G01X-2939970Y-777310D02*
X-2899560Y-762610D01*
X-2891790Y-757650D01*
X-2887520Y-751840D01*
X-2887350Y-746460D01*
X-2890940Y-742440D01*
X-2897940Y-740730D01*
X-2907090Y-741930D01*
X-2947490Y-756640D01*
G01X-2904700Y-719250D02*
X-2901200Y-714250D01*
X-2900690Y-709800D01*
X-2903940Y-706730D01*
X-2910770Y-705490D01*
X-2920080Y-706220D01*
X-2928880Y-708360D01*
X-2939220Y-712120D01*
X-2947330Y-716140D01*
X-2954000Y-721230D01*
X-2956730Y-725410D01*
X-2957410Y-729390D01*
X-2954160Y-732460D01*
X-2949380Y-733910D01*
X-2943060Y-733740D01*
X-2935200Y-731940D01*
X-2928960Y-728610D01*
X-2923240Y-723870D01*
X-2920510Y-719680D01*
X-2920760Y-716050D01*
X-2924010Y-712970D01*
X-2929740Y-711860D01*
X-2939220Y-712120D01*
G01X-2664250Y641500D02*
X-2667880Y639320D01*
X-2670670Y636410D01*
X-2671640Y632530D01*
X-2669810Y627430D01*
X-2665810Y622830D01*
X-2660590Y618950D01*
X-2651370Y614590D01*
X-2642760Y611930D01*
X-2633790Y610720D01*
X-2627600D01*
X-2621060Y612180D01*
X-2616330Y614610D01*
X-2613540Y617520D01*
X-2612690Y620920D01*
X-2613790Y624800D01*
X-2615970Y628440D01*
X-2619250Y631830D01*
G01X-2603860Y656330D02*
X-2662080Y670850D01*
X-2651890Y662130D01*
G01X-2605310Y650510D02*
X-2602410Y662160D01*
G01X-2620740Y691970D02*
X-2626680Y697060D01*
X-2629840Y700940D01*
X-2630810Y705310D01*
X-2628020Y708220D01*
X-2623540Y709680D01*
X-2617230Y710170D01*
X-2610320Y708960D01*
X-2604620Y707020D01*
X-2599280Y703630D01*
X-2595150Y699510D01*
X-2594060Y695630D01*
X-2596970Y692230D01*
X-2603640Y690290D01*
X-2612850Y690520D01*
X-2622680Y692460D01*
X-2635050Y696570D01*
X-2641480Y699720D01*
X-2647670Y703840D01*
X-2651670Y708450D01*
X-2651790Y712090D01*
X-2649010Y715000D01*
X-2643550Y716210D01*
G01X-2788830Y1204350D02*
X-2747930Y1191060D01*
X-2738750Y1190180D01*
X-2731810Y1192130D01*
X-2728360Y1196270D01*
X-2728720Y1201640D01*
X-2733190Y1207300D01*
X-2741130Y1211980D01*
X-2782030Y1225270D01*
G01X-2716310Y1233350D02*
X-2728370Y1238320D01*
X-2738370Y1243150D01*
X-2747260Y1248140D01*
X-2756950Y1253920D01*
X-2769980Y1262360D01*
X-2776160Y1243340D01*
G01X-2906390Y1659750D02*
X-2907410Y1663870D01*
X-2909380Y1667390D01*
X-2912810Y1669450D01*
X-2918220Y1669190D01*
X-2923790Y1666710D01*
X-2929020Y1662850D01*
X-2935890Y1655310D01*
X-2940950Y1647860D01*
X-2944730Y1639630D01*
X-2946530Y1633710D01*
X-2947050Y1627020D01*
X-2946110Y1621790D01*
X-2944140Y1618270D01*
X-2941140Y1616470D01*
X-2937110Y1616380D01*
X-2933000Y1617410D01*
X-2928790Y1619550D01*
G01X-2909850Y1597670D02*
X-2878950Y1649100D01*
X-2890270Y1641910D01*
G01X-2915000Y1600760D02*
X-2904710Y1594580D01*
G01X-2875560Y1577070D02*
X-2844660Y1628500D01*
X-2855980Y1621310D01*
G01X-2880710Y1580160D02*
X-2870420Y1573980D01*
G01X-2564000Y-3491000D02*
Y-3551000D01*
G01X-2575500Y-3491000D02*
X-2552500D01*
G01X-2534000Y-3551000D02*
Y-3491000D01*
X-2522000D01*
X-2518000Y-3494000D01*
X-2515000Y-3501000D01*
X-2514000Y-3509000D01*
X-2515000Y-3517000D01*
X-2517500Y-3523000D01*
X-2522000Y-3526000D01*
X-2534000D01*
G01X-2478000Y-3551000D02*
Y-3491000D01*
X-2496500Y-3534000D01*
X-2471500D01*
G01X-2581000Y-3591000D02*
Y-3634000D01*
X-2579000Y-3643000D01*
X-2575000Y-3649000D01*
X-2570000Y-3651000D01*
X-2565000Y-3649000D01*
X-2561000Y-3643000D01*
X-2559000Y-3634000D01*
Y-3591000D01*
G01X-2539500Y-3601000D02*
X-2536500Y-3595000D01*
X-2533000Y-3592000D01*
X-2529000Y-3591000D01*
X-2524000Y-3593000D01*
X-2520500Y-3598000D01*
X-2519500Y-3604000D01*
X-2520000Y-3610000D01*
X-2522000Y-3615000D01*
X-2532000Y-3625000D01*
X-2536500Y-3632000D01*
X-2539500Y-3642000D01*
X-2540500Y-3651000D01*
X-2519500D01*
G01X-2490000D02*
Y-3591000D01*
X-2496000Y-3603000D01*
G01Y-3651000D02*
X-2484000D01*
G01X-2537000Y-3422000D02*
X-2540000Y-3425000D01*
X-2542000Y-3428500D01*
Y-3432500D01*
X-2539000Y-3437000D01*
X-2534000Y-3440500D01*
X-2528000Y-3443000D01*
X-2518000Y-3445000D01*
X-2509000Y-3445500D01*
X-2500000Y-3444500D01*
X-2494000Y-3443000D01*
X-2488000Y-3440000D01*
X-2484000Y-3436500D01*
X-2482000Y-3433000D01*
Y-3429500D01*
X-2484000Y-3426000D01*
X-2487000Y-3423000D01*
X-2491000Y-3420500D01*
G01X-2494000Y-3404000D02*
X-2487000Y-3401000D01*
X-2483000Y-3397000D01*
X-2482000Y-3392500D01*
X-2483000Y-3388500D01*
X-2488000Y-3384500D01*
X-2494000Y-3382000D01*
X-2500000Y-3381500D01*
X-2507000Y-3382500D01*
X-2512000Y-3386000D01*
X-2514000Y-3389500D01*
Y-3394000D01*
G01Y-3389500D02*
X-2517000Y-3386500D01*
X-2522000Y-3384000D01*
X-2528000Y-3383000D01*
X-2534000Y-3384000D01*
X-2539000Y-3386500D01*
X-2542000Y-3391000D01*
X-2541000Y-3395500D01*
X-2537000Y-3400000D01*
G01X-2491000Y-3364000D02*
X-2486000Y-3361000D01*
X-2483000Y-3357500D01*
X-2482000Y-3353000D01*
X-2484000Y-3348500D01*
X-2488000Y-3345000D01*
X-2495000Y-3342500D01*
X-2503000Y-3342000D01*
X-2511000Y-3343000D01*
X-2516000Y-3345500D01*
X-2520000Y-3349000D01*
X-2521000Y-3352500D01*
X-2520000Y-3356000D01*
X-2516000Y-3360500D01*
X-2542000Y-3359000D01*
Y-3345500D01*
G01X-2533000Y-2905000D02*
Y-2965000D01*
X-2513000D01*
G01X-2483000D02*
Y-2905000D01*
X-2489000Y-2917000D01*
G01Y-2965000D02*
X-2477000D01*
G01X-2519000Y-2730000D02*
Y-2790000D01*
G01X-2530500Y-2730000D02*
X-2507500D01*
G01X-2489000Y-2790000D02*
Y-2730000D01*
X-2477000D01*
X-2473000Y-2733000D01*
X-2470000Y-2740000D01*
X-2469000Y-2748000D01*
X-2470000Y-2756000D01*
X-2472500Y-2762000D01*
X-2477000Y-2765000D01*
X-2489000D01*
G01X-2448500Y-2740000D02*
X-2445500Y-2734000D01*
X-2442000Y-2731000D01*
X-2438000Y-2730000D01*
X-2433000Y-2732000D01*
X-2429500Y-2737000D01*
X-2428500Y-2743000D01*
X-2429000Y-2749000D01*
X-2431000Y-2754000D01*
X-2441000Y-2764000D01*
X-2445500Y-2771000D01*
X-2448500Y-2781000D01*
X-2449500Y-2790000D01*
X-2428500D01*
G01X-2488570Y-1156380D02*
X-2490370Y-1160220D01*
X-2491050Y-1164200D01*
X-2489680Y-1167960D01*
X-2485320Y-1171160D01*
X-2479430Y-1172740D01*
X-2472940Y-1173030D01*
X-2462850Y-1171490D01*
X-2454230Y-1168890D01*
X-2446110Y-1164870D01*
X-2440990Y-1161410D01*
X-2436370Y-1156530D01*
X-2433810Y-1151880D01*
X-2433130Y-1147910D01*
X-2434330Y-1144620D01*
X-2437400Y-1142010D01*
X-2441250Y-1140220D01*
X-2445860Y-1139240D01*
G01X-2490550Y-1136340D02*
X-2497210Y-1135580D01*
X-2501230Y-1133310D01*
X-2503530Y-1129900D01*
X-2503370Y-1124510D01*
X-2499860Y-1119510D01*
X-2494570Y-1116520D01*
X-2488760Y-1114940D01*
X-2483370Y-1115110D01*
X-2470560Y-1121090D01*
X-2462440Y-1122920D01*
X-2452020Y-1122320D01*
X-2443220Y-1120180D01*
X-2450400Y-1100450D01*
G01X-2516870Y-1093250D02*
X-2513620Y-1096320D01*
X-2507900Y-1097430D01*
X-2501580Y-1097260D01*
X-2493550Y-1095930D01*
X-2484920Y-1093320D01*
X-2476630Y-1089770D01*
X-2469630Y-1085630D01*
X-2464670Y-1081700D01*
X-2461000Y-1077170D01*
X-2460490Y-1072730D01*
X-2463740Y-1069650D01*
X-2469460Y-1068540D01*
X-2475780Y-1068710D01*
X-2483810Y-1070040D01*
X-2492440Y-1072650D01*
X-2500730Y-1076200D01*
X-2507740Y-1080340D01*
X-2512690Y-1084270D01*
X-2516360Y-1088800D01*
X-2516870Y-1093250D01*
G01X-2371750Y1360610D02*
X-2375870Y1359590D01*
X-2379390Y1357620D01*
X-2381450Y1354190D01*
X-2381190Y1348780D01*
X-2378710Y1343210D01*
X-2374850Y1337980D01*
X-2367310Y1331110D01*
X-2359860Y1326050D01*
X-2351630Y1322270D01*
X-2345710Y1320470D01*
X-2339020Y1319950D01*
X-2333790Y1320890D01*
X-2330270Y1322860D01*
X-2328470Y1325860D01*
X-2328380Y1329890D01*
X-2329410Y1334000D01*
X-2331550Y1338210D01*
G01X-2309670Y1357150D02*
X-2361100Y1388050D01*
X-2353910Y1376730D01*
G01X-2312760Y1352000D02*
X-2306580Y1362290D01*
G01X-2336830Y1409050D02*
X-2340420Y1414710D01*
X-2341190Y1419250D01*
X-2339990Y1423200D01*
X-2335700Y1426450D01*
X-2329610Y1426880D01*
X-2323950Y1424650D01*
X-2319070Y1421130D01*
X-2315810Y1416840D01*
X-2312390Y1403110D01*
X-2308710Y1395650D01*
X-2301680Y1387930D01*
X-2294480Y1382440D01*
X-2283670Y1400440D01*
G01X-2313190Y1938500D02*
X-2278400Y1913230D01*
X-2269940Y1909560D01*
X-2262740Y1909270D01*
X-2258180Y1912130D01*
X-2256860Y1917360D01*
X-2259360Y1924120D01*
X-2265470Y1931030D01*
X-2300260Y1956300D01*
G01X-2248420Y1940890D02*
X-2242610Y1940370D01*
X-2238130Y1941440D01*
X-2234670Y1944490D01*
X-2233650Y1949310D01*
X-2234820Y1954490D01*
X-2239020Y1960630D01*
X-2245200Y1965740D01*
X-2252260Y1969630D01*
X-2257770Y1970550D01*
X-2263060Y1970070D01*
X-2265930Y1967820D01*
X-2267180Y1964400D01*
X-2266590Y1958410D01*
X-2286740Y1974910D01*
X-2278810Y1985830D01*
G01X-2207000Y-4076000D02*
Y-4016000D01*
X-2194500D01*
X-2190500Y-4019000D01*
X-2188000Y-4023000D01*
X-2187000Y-4031000D01*
X-2188000Y-4039000D01*
X-2191000Y-4044000D01*
X-2194500Y-4047000D01*
X-2207000D01*
G01X-2194500D02*
X-2187000Y-4076000D01*
G01X-2157000D02*
Y-4016000D01*
X-2163000Y-4028000D01*
G01Y-4076000D02*
X-2151000D01*
G01X-2128000Y-4067000D02*
X-2125000Y-4072000D01*
X-2121500Y-4075000D01*
X-2117000Y-4076000D01*
X-2112500Y-4074000D01*
X-2109000Y-4070000D01*
X-2106500Y-4063000D01*
X-2106000Y-4055000D01*
X-2107000Y-4047000D01*
X-2109500Y-4042000D01*
X-2113000Y-4038000D01*
X-2116500Y-4037000D01*
X-2120000Y-4038000D01*
X-2124500Y-4042000D01*
X-2123000Y-4016000D01*
X-2109500D01*
G01X-2010000Y-4073000D02*
X-2013000Y-4076000D01*
X-2015000Y-4079500D01*
Y-4083500D01*
X-2012000Y-4088000D01*
X-2007000Y-4091500D01*
X-2001000Y-4094000D01*
X-1991000Y-4096000D01*
X-1982000Y-4096500D01*
X-1973000Y-4095500D01*
X-1967000Y-4094000D01*
X-1961000Y-4091000D01*
X-1957000Y-4087500D01*
X-1955000Y-4084000D01*
Y-4080500D01*
X-1957000Y-4077000D01*
X-1960000Y-4074000D01*
X-1964000Y-4071500D01*
G01X-1955000Y-4038000D02*
X-2015000D01*
X-1972000Y-4056500D01*
Y-4031500D01*
G01X-1967000Y-4015000D02*
X-1960000Y-4012000D01*
X-1956000Y-4008000D01*
X-1955000Y-4003500D01*
X-1956000Y-3999500D01*
X-1961000Y-3995500D01*
X-1967000Y-3993000D01*
X-1973000Y-3992500D01*
X-1980000Y-3993500D01*
X-1985000Y-3997000D01*
X-1987000Y-4000500D01*
Y-4005000D01*
G01Y-4000500D02*
X-1990000Y-3997500D01*
X-1995000Y-3995000D01*
X-2001000Y-3994000D01*
X-2007000Y-3995000D01*
X-2012000Y-3997500D01*
X-2015000Y-4002000D01*
X-2014000Y-4006500D01*
X-2010000Y-4011000D01*
G01X-1984000Y-3434000D02*
X-1987000Y-3437000D01*
X-1989000Y-3440500D01*
Y-3444500D01*
X-1986000Y-3449000D01*
X-1981000Y-3452500D01*
X-1975000Y-3455000D01*
X-1965000Y-3457000D01*
X-1956000Y-3457500D01*
X-1947000Y-3456500D01*
X-1941000Y-3455000D01*
X-1935000Y-3452000D01*
X-1931000Y-3448500D01*
X-1929000Y-3445000D01*
Y-3441500D01*
X-1931000Y-3438000D01*
X-1934000Y-3435000D01*
X-1938000Y-3432500D01*
G01X-1941000Y-3416000D02*
X-1934000Y-3413000D01*
X-1930000Y-3409000D01*
X-1929000Y-3404500D01*
X-1930000Y-3400500D01*
X-1935000Y-3396500D01*
X-1941000Y-3394000D01*
X-1947000Y-3393500D01*
X-1954000Y-3394500D01*
X-1959000Y-3398000D01*
X-1961000Y-3401500D01*
Y-3406000D01*
G01Y-3401500D02*
X-1964000Y-3398500D01*
X-1969000Y-3396000D01*
X-1975000Y-3395000D01*
X-1981000Y-3396000D01*
X-1986000Y-3398500D01*
X-1989000Y-3403000D01*
X-1988000Y-3407500D01*
X-1984000Y-3412000D01*
G01X-1954000Y-3374500D02*
X-1961000Y-3371000D01*
X-1965000Y-3368000D01*
X-1967000Y-3364000D01*
X-1965000Y-3360500D01*
X-1961000Y-3358000D01*
X-1955000Y-3356000D01*
X-1948000Y-3355500D01*
X-1942000Y-3356000D01*
X-1936000Y-3358000D01*
X-1931000Y-3361000D01*
X-1929000Y-3364500D01*
X-1931000Y-3368500D01*
X-1937000Y-3372000D01*
X-1946000Y-3374000D01*
X-1956000Y-3374500D01*
X-1969000Y-3373500D01*
X-1976000Y-3372000D01*
X-1983000Y-3369500D01*
X-1988000Y-3366000D01*
X-1989000Y-3362500D01*
X-1987000Y-3359000D01*
X-1982000Y-3356500D01*
G01X-1947500Y-2359190D02*
X-1922230Y-2324400D01*
X-1918560Y-2315940D01*
X-1918270Y-2308740D01*
X-1921130Y-2304180D01*
X-1926360Y-2302860D01*
X-1933120Y-2305360D01*
X-1940030Y-2311470D01*
X-1965300Y-2346260D01*
G01X-1953490Y-2280670D02*
X-1988760Y-2329210D01*
X-1976860Y-2323030D01*
G01X-1948640Y-2284200D02*
X-1958350Y-2277150D01*
G01X-1984010Y-2273340D02*
X-1982320Y-2265910D01*
X-1983210Y-2260320D01*
X-1986260Y-2256870D01*
X-1990080Y-2255330D01*
X-1996260Y-2257020D01*
X-2001810Y-2260410D01*
X-2005740Y-2264970D01*
X-2009040Y-2271220D01*
X-2009150Y-2277320D01*
X-2007500Y-2281000D01*
X-2003860Y-2283640D01*
G01X-2007500Y-2281000D02*
X-2011690Y-2281660D01*
X-2016650Y-2284230D01*
X-2020980Y-2288500D01*
X-2023700Y-2293940D01*
X-2024620Y-2299460D01*
X-2022740Y-2304530D01*
X-2018510Y-2306360D01*
X-2012520Y-2305770D01*
G01X-2154290Y-1706150D02*
X-2155170Y-1710300D01*
X-2154940Y-1714320D01*
X-2152760Y-1717680D01*
X-2147790Y-1719820D01*
X-2141700Y-1720030D01*
X-2135300Y-1718860D01*
X-2125830Y-1715090D01*
X-2118010Y-1710610D01*
X-2111000Y-1704870D01*
X-2106790Y-1700340D01*
X-2103390Y-1694560D01*
X-2101940Y-1689440D01*
X-2102170Y-1685420D01*
X-2104080Y-1682480D01*
X-2107660Y-1680640D01*
X-2111810Y-1679760D01*
X-2116520Y-1679840D01*
G01X-2160720Y-1687070D02*
X-2167380Y-1687820D01*
X-2171810Y-1686520D01*
X-2174820Y-1683710D01*
X-2175870Y-1678430D01*
X-2173580Y-1672770D01*
X-2169100Y-1668660D01*
X-2163790Y-1665810D01*
X-2158510Y-1664770D01*
X-2144680Y-1667710D01*
X-2136350Y-1667670D01*
X-2126330Y-1664740D01*
X-2118240Y-1660680D01*
X-2129680Y-1643060D01*
G01X-2149820Y-1634080D02*
X-2145580Y-1627750D01*
X-2144410Y-1622220D01*
X-2146020Y-1617900D01*
X-2149040Y-1615090D01*
X-2155410Y-1614460D01*
X-2161800Y-1615630D01*
X-2167110Y-1618480D01*
X-2172430Y-1623130D01*
X-2174720Y-1628790D01*
X-2174490Y-1632810D01*
X-2172040Y-1636590D01*
G01X-2174490Y-1632810D02*
X-2178640Y-1631930D01*
X-2184200Y-1632560D01*
X-2189770Y-1634990D01*
X-2194260Y-1639090D01*
X-2197090Y-1643910D01*
X-2197160Y-1649320D01*
X-2193870Y-1652550D01*
X-2188060Y-1654150D01*
G01X-2049860Y2609200D02*
X-2049050Y2613370D01*
X-2049350Y2617380D01*
X-2051590Y2620700D01*
X-2056600Y2622750D01*
X-2062700Y2622860D01*
X-2069070Y2621580D01*
X-2078480Y2617640D01*
X-2086220Y2613030D01*
X-2093120Y2607160D01*
X-2097260Y2602560D01*
X-2100550Y2596720D01*
X-2101910Y2591580D01*
X-2101610Y2587560D01*
X-2099660Y2584660D01*
X-2096040Y2582880D01*
X-2091880Y2582070D01*
X-2087160Y2582230D01*
G01X-2079800Y2555230D02*
X-2068470Y2561670D01*
X-2058510Y2566580D01*
X-2049100Y2570520D01*
X-2038580Y2574590D01*
X-2023910Y2579670D01*
X-2035090Y2596250D01*
G01X-1629000Y-5480000D02*
Y-5420000D01*
X-1619000D01*
X-1615000Y-5423000D01*
X-1612000Y-5427000D01*
X-1609500Y-5433000D01*
X-1607500Y-5440000D01*
X-1607000Y-5450000D01*
X-1607500Y-5460000D01*
X-1609500Y-5467000D01*
X-1612000Y-5473000D01*
X-1615000Y-5477000D01*
X-1619000Y-5480000D01*
X-1629000D01*
G01X-1590500D02*
X-1578000Y-5420000D01*
X-1565500Y-5480000D01*
G01X-1570000Y-5459000D02*
X-1586000D01*
G01X-1538000Y-5420000D02*
Y-5480000D01*
G01X-1549500Y-5420000D02*
X-1526500D01*
G01X-1510500Y-5480000D02*
X-1498000Y-5420000D01*
X-1485500Y-5480000D01*
G01X-1490000Y-5459000D02*
X-1506000D01*
G01X-1418000Y-5420000D02*
Y-5480000D01*
G01X-1429500Y-5420000D02*
X-1406500D01*
G01X-1388500Y-5480000D02*
X-1367500Y-5420000D01*
G01X-1388500D02*
X-1367500Y-5480000D01*
G01X-1551000Y-5376000D02*
X-1611000D01*
Y-5363500D01*
X-1608000Y-5359500D01*
X-1604000Y-5357000D01*
X-1596000Y-5356000D01*
X-1588000Y-5357000D01*
X-1583000Y-5360000D01*
X-1580000Y-5363500D01*
Y-5376000D01*
G01Y-5363500D02*
X-1551000Y-5356000D01*
G01X-1601000Y-5335500D02*
X-1607000Y-5332500D01*
X-1610000Y-5329000D01*
X-1611000Y-5325000D01*
X-1609000Y-5320000D01*
X-1604000Y-5316500D01*
X-1598000Y-5315500D01*
X-1592000Y-5316000D01*
X-1587000Y-5318000D01*
X-1577000Y-5328000D01*
X-1570000Y-5332500D01*
X-1560000Y-5335500D01*
X-1551000Y-5336500D01*
Y-5315500D01*
G01Y-5286000D02*
X-1552000Y-5282500D01*
X-1555000Y-5278500D01*
X-1560000Y-5276000D01*
X-1567000Y-5275000D01*
X-1574000Y-5276000D01*
X-1580000Y-5279000D01*
X-1583000Y-5283500D01*
Y-5288500D01*
X-1585000Y-5291500D01*
X-1590000Y-5294000D01*
X-1597000Y-5295000D01*
X-1604000Y-5293500D01*
X-1609000Y-5290000D01*
X-1611000Y-5286000D01*
X-1609000Y-5282000D01*
X-1604000Y-5278500D01*
X-1597000Y-5277000D01*
X-1590000Y-5278000D01*
X-1585000Y-5280500D01*
X-1583000Y-5283500D01*
Y-5288500D01*
X-1580000Y-5293000D01*
X-1574000Y-5296000D01*
X-1567000Y-5297000D01*
X-1560000Y-5296000D01*
X-1555000Y-5293500D01*
X-1552000Y-5289500D01*
X-1551000Y-5286000D01*
G01X-1634510Y-4568720D02*
X-1638750D01*
X-1642640Y-4569780D01*
X-1645470Y-4572610D01*
X-1646530Y-4577920D01*
X-1645470Y-4583930D01*
X-1642990Y-4589940D01*
X-1637330Y-4598420D01*
X-1631320Y-4605140D01*
X-1624250Y-4610800D01*
X-1618950Y-4613980D01*
X-1612580Y-4616100D01*
X-1607280Y-4616450D01*
X-1603390Y-4615390D01*
X-1600920Y-4612920D01*
X-1599860Y-4609030D01*
Y-4604790D01*
X-1600920Y-4600190D01*
G01X-1570870Y-4582870D02*
X-1613300Y-4540440D01*
X-1595970Y-4583930D01*
X-1578300Y-4566250D01*
G01X-1547540Y-4559540D02*
X-1556030Y-4549640D01*
X-1562740Y-4540800D01*
X-1568400Y-4532320D01*
X-1574410Y-4522770D01*
X-1582190Y-4509340D01*
X-1596330Y-4523480D01*
G01X-1705000Y-4077000D02*
X-1645000D01*
Y-4057000D01*
G01X-1657000Y-4038000D02*
X-1650000Y-4035000D01*
X-1646000Y-4031000D01*
X-1645000Y-4026500D01*
X-1646000Y-4022500D01*
X-1651000Y-4018500D01*
X-1657000Y-4016000D01*
X-1663000Y-4015500D01*
X-1670000Y-4016500D01*
X-1675000Y-4020000D01*
X-1677000Y-4023500D01*
Y-4028000D01*
G01Y-4023500D02*
X-1680000Y-4020500D01*
X-1685000Y-4018000D01*
X-1691000Y-4017000D01*
X-1697000Y-4018000D01*
X-1702000Y-4020500D01*
X-1705000Y-4025000D01*
X-1704000Y-4029500D01*
X-1700000Y-4034000D01*
G01X-1702000Y-3403000D02*
X-1762000D01*
Y-3390500D01*
X-1759000Y-3386500D01*
X-1755000Y-3384000D01*
X-1747000Y-3383000D01*
X-1739000Y-3384000D01*
X-1734000Y-3387000D01*
X-1731000Y-3390500D01*
Y-3403000D01*
G01Y-3390500D02*
X-1702000Y-3383000D01*
G01Y-3354000D02*
X-1715000Y-3353000D01*
X-1726000Y-3351500D01*
X-1736000Y-3349500D01*
X-1747000Y-3347000D01*
X-1762000Y-3343000D01*
Y-3363000D01*
G01X-1585000Y-3207000D02*
X-1588000Y-3204000D01*
X-1591500Y-3202000D01*
X-1595500D01*
X-1600000Y-3205000D01*
X-1603500Y-3210000D01*
X-1606000Y-3216000D01*
X-1608000Y-3226000D01*
X-1608500Y-3235000D01*
X-1607500Y-3244000D01*
X-1606000Y-3250000D01*
X-1603000Y-3256000D01*
X-1599500Y-3260000D01*
X-1596000Y-3262000D01*
X-1592500D01*
X-1589000Y-3260000D01*
X-1586000Y-3257000D01*
X-1583500Y-3253000D01*
G01X-1567000Y-3250000D02*
X-1564000Y-3257000D01*
X-1560000Y-3261000D01*
X-1555500Y-3262000D01*
X-1551500Y-3261000D01*
X-1547500Y-3256000D01*
X-1545000Y-3250000D01*
X-1544500Y-3244000D01*
X-1545500Y-3237000D01*
X-1549000Y-3232000D01*
X-1552500Y-3230000D01*
X-1557000D01*
G01X-1552500D02*
X-1549500Y-3227000D01*
X-1547000Y-3222000D01*
X-1546000Y-3216000D01*
X-1547000Y-3210000D01*
X-1549500Y-3205000D01*
X-1554000Y-3202000D01*
X-1558500Y-3203000D01*
X-1563000Y-3207000D01*
G01X-1524500Y-3255000D02*
X-1521000Y-3260000D01*
X-1517000Y-3262000D01*
X-1513000Y-3260000D01*
X-1509500Y-3254000D01*
X-1507000Y-3245000D01*
X-1506000Y-3236000D01*
Y-3225000D01*
X-1507000Y-3216000D01*
X-1509500Y-3208000D01*
X-1512500Y-3204000D01*
X-1516000Y-3202000D01*
X-1520000Y-3204000D01*
X-1523000Y-3208000D01*
X-1525000Y-3214000D01*
X-1526000Y-3222000D01*
X-1525000Y-3229000D01*
X-1522500Y-3236000D01*
X-1519500Y-3240000D01*
X-1516000Y-3241000D01*
X-1512000Y-3239000D01*
X-1509000Y-3234000D01*
X-1506000Y-3225000D01*
G01X-1669000Y-3091000D02*
Y-3151000D01*
G01X-1680500Y-3091000D02*
X-1657500D01*
G01X-1639000Y-3151000D02*
Y-3091000D01*
X-1627000D01*
X-1623000Y-3094000D01*
X-1620000Y-3101000D01*
X-1619000Y-3109000D01*
X-1620000Y-3117000D01*
X-1622500Y-3123000D01*
X-1627000Y-3126000D01*
X-1639000D01*
G01X-1600000Y-3139000D02*
X-1597000Y-3146000D01*
X-1593000Y-3150000D01*
X-1588500Y-3151000D01*
X-1584500Y-3150000D01*
X-1580500Y-3145000D01*
X-1578000Y-3139000D01*
X-1577500Y-3133000D01*
X-1578500Y-3126000D01*
X-1582000Y-3121000D01*
X-1585500Y-3119000D01*
X-1590000D01*
G01X-1585500D02*
X-1582500Y-3116000D01*
X-1580000Y-3111000D01*
X-1579000Y-3105000D01*
X-1580000Y-3099000D01*
X-1582500Y-3094000D01*
X-1587000Y-3091000D01*
X-1591500Y-3092000D01*
X-1596000Y-3096000D01*
G01X-1662210Y-2895640D02*
X-1666400Y-2896300D01*
X-1670080Y-2897960D01*
X-1672430Y-2901190D01*
X-1672650Y-2906600D01*
X-1670660Y-2912370D01*
X-1667280Y-2917920D01*
X-1660360Y-2925410D01*
X-1653370Y-2931110D01*
X-1645500Y-2935590D01*
X-1639770Y-2937900D01*
X-1633150Y-2939000D01*
X-1627860Y-2938520D01*
X-1624180Y-2936870D01*
X-1622130Y-2934030D01*
X-1621690Y-2930030D01*
X-1622350Y-2925840D01*
X-1624120Y-2921460D01*
G01X-1646710Y-2882800D02*
X-1649800Y-2876850D01*
X-1650170Y-2872250D01*
X-1648630Y-2868430D01*
X-1644070Y-2865560D01*
X-1637970Y-2865670D01*
X-1632530Y-2868380D01*
X-1627960Y-2872320D01*
X-1625100Y-2876870D01*
X-1622880Y-2890840D01*
X-1619860Y-2898600D01*
X-1613540Y-2906900D01*
X-1606840Y-2913000D01*
X-1594500Y-2896010D01*
G01X-1577160Y-2872150D02*
X-1575910Y-2868730D01*
X-1575990Y-2863730D01*
X-1578560Y-2858770D01*
X-1583640Y-2853840D01*
X-1589890Y-2850540D01*
X-1596510Y-2849440D01*
X-1601580Y-2851310D01*
X-1604520Y-2855360D01*
X-1607900Y-2856610D01*
X-1613420Y-2855690D01*
X-1619670Y-2852390D01*
X-1624450Y-2847060D01*
X-1626440Y-2841290D01*
X-1625700Y-2836880D01*
X-1621740Y-2834820D01*
X-1615630Y-2834920D01*
X-1609090Y-2837830D01*
X-1604010Y-2842750D01*
X-1601440Y-2847710D01*
X-1601580Y-2851310D01*
X-1604520Y-2855360D01*
X-1604740Y-2860760D01*
X-1601650Y-2866720D01*
X-1596570Y-2871640D01*
X-1590320Y-2874950D01*
X-1584810Y-2875860D01*
X-1580030Y-2874390D01*
X-1577160Y-2872150D01*
G01X-1679370Y2170350D02*
X-1683580Y2170860D01*
X-1687570Y2170290D01*
X-1690730Y2167820D01*
X-1692420Y2162690D01*
X-1692100Y2156590D01*
X-1690380Y2150330D01*
X-1685800Y2141210D01*
X-1680650Y2133810D01*
X-1674320Y2127340D01*
X-1669450Y2123530D01*
X-1663390Y2120650D01*
X-1658170Y2119660D01*
X-1654180Y2120230D01*
X-1651420Y2122390D01*
X-1649890Y2126120D01*
X-1649380Y2130330D01*
X-1649870Y2135020D01*
G01X-1622660Y2144860D02*
X-1620520Y2147810D01*
X-1619210Y2152630D01*
X-1620320Y2158110D01*
X-1623840Y2164250D01*
X-1628940Y2169140D01*
X-1635000Y2172030D01*
X-1640390Y2171620D01*
X-1644330Y2168540D01*
X-1647930Y2168270D01*
X-1652970Y2170670D01*
X-1658070Y2175570D01*
X-1661200Y2182010D01*
X-1661520Y2188110D01*
X-1659600Y2192150D01*
X-1655220Y2193030D01*
X-1649380Y2191250D01*
X-1643890Y2186650D01*
X-1640370Y2180520D01*
X-1639260Y2175040D01*
X-1640390Y2171620D01*
X-1644330Y2168540D01*
X-1646030Y2163410D01*
X-1644700Y2156830D01*
X-1641180Y2150700D01*
X-1636080Y2145800D01*
X-1631030Y2143400D01*
X-1626030Y2143500D01*
X-1622660Y2144860D01*
G01X-1448000Y-5377000D02*
X-1508000D01*
Y-5364500D01*
X-1505000Y-5360500D01*
X-1501000Y-5358000D01*
X-1493000Y-5357000D01*
X-1485000Y-5358000D01*
X-1480000Y-5361000D01*
X-1477000Y-5364500D01*
Y-5377000D01*
G01Y-5364500D02*
X-1448000Y-5357000D01*
G01X-1498000Y-5336500D02*
X-1504000Y-5333500D01*
X-1507000Y-5330000D01*
X-1508000Y-5326000D01*
X-1506000Y-5321000D01*
X-1501000Y-5317500D01*
X-1495000Y-5316500D01*
X-1489000Y-5317000D01*
X-1484000Y-5319000D01*
X-1474000Y-5329000D01*
X-1467000Y-5333500D01*
X-1457000Y-5336500D01*
X-1448000Y-5337500D01*
Y-5316500D01*
G01X-1455000Y-5295500D02*
X-1450000Y-5292000D01*
X-1448000Y-5288000D01*
X-1450000Y-5284000D01*
X-1456000Y-5280500D01*
X-1465000Y-5278000D01*
X-1474000Y-5277000D01*
X-1485000D01*
X-1494000Y-5278000D01*
X-1502000Y-5280500D01*
X-1506000Y-5283500D01*
X-1508000Y-5287000D01*
X-1506000Y-5291000D01*
X-1502000Y-5294000D01*
X-1496000Y-5296000D01*
X-1488000Y-5297000D01*
X-1481000Y-5296000D01*
X-1474000Y-5293500D01*
X-1470000Y-5290500D01*
X-1469000Y-5287000D01*
X-1471000Y-5283000D01*
X-1476000Y-5280000D01*
X-1485000Y-5277000D01*
G01X-1580000Y-5179000D02*
Y-5239000D01*
X-1560000D01*
G01X-1541000Y-5230000D02*
X-1538000Y-5235000D01*
X-1534500Y-5238000D01*
X-1530000Y-5239000D01*
X-1525500Y-5237000D01*
X-1522000Y-5233000D01*
X-1519500Y-5226000D01*
X-1519000Y-5218000D01*
X-1520000Y-5210000D01*
X-1522500Y-5205000D01*
X-1526000Y-5201000D01*
X-1529500Y-5200000D01*
X-1533000Y-5201000D01*
X-1537500Y-5205000D01*
X-1536000Y-5179000D01*
X-1522500D01*
G01X-1501460Y-4624460D02*
X-1543890Y-4582040D01*
X-1535050Y-4573200D01*
X-1530100Y-4572490D01*
X-1525510Y-4573550D01*
X-1519140Y-4578500D01*
X-1514190Y-4584870D01*
X-1512780Y-4590520D01*
X-1513130Y-4595120D01*
X-1521970Y-4603960D01*
G01X-1513130Y-4595120D02*
X-1487320Y-4610320D01*
G01X-1508190Y-4560480D02*
X-1510310Y-4554110D01*
X-1509950Y-4549520D01*
X-1507830Y-4545980D01*
X-1502880Y-4543860D01*
X-1496870Y-4544920D01*
X-1491920Y-4548450D01*
X-1488030Y-4553050D01*
X-1485910Y-4558000D01*
Y-4572140D01*
X-1484140Y-4580270D01*
X-1479190Y-4589470D01*
X-1473540Y-4596540D01*
X-1458690Y-4581690D01*
G01X-1480260Y-4518410D02*
X-1481670Y-4522650D01*
X-1480260Y-4528310D01*
X-1477430Y-4533960D01*
X-1472830Y-4540680D01*
X-1466820Y-4547400D01*
X-1460110Y-4553410D01*
X-1453390Y-4558010D01*
X-1447730Y-4560830D01*
X-1442080Y-4562250D01*
X-1437830Y-4560830D01*
X-1436420Y-4556590D01*
X-1437830Y-4550940D01*
X-1440660Y-4545280D01*
X-1445260Y-4538560D01*
X-1451270Y-4531840D01*
X-1457990Y-4525830D01*
X-1464700Y-4521230D01*
X-1470360Y-4518410D01*
X-1476020Y-4516990D01*
X-1480260Y-4518410D01*
G01X-1435000Y-4734000D02*
X-1438000Y-4737000D01*
X-1440000Y-4740500D01*
Y-4744500D01*
X-1437000Y-4749000D01*
X-1432000Y-4752500D01*
X-1426000Y-4755000D01*
X-1416000Y-4757000D01*
X-1407000Y-4757500D01*
X-1398000Y-4756500D01*
X-1392000Y-4755000D01*
X-1386000Y-4752000D01*
X-1382000Y-4748500D01*
X-1380000Y-4745000D01*
Y-4741500D01*
X-1382000Y-4738000D01*
X-1385000Y-4735000D01*
X-1389000Y-4732500D01*
G01X-1380000Y-4699000D02*
X-1440000D01*
X-1397000Y-4717500D01*
Y-4692500D01*
G01X-1380000Y-4665000D02*
X-1381000Y-4661500D01*
X-1384000Y-4657500D01*
X-1389000Y-4655000D01*
X-1396000Y-4654000D01*
X-1403000Y-4655000D01*
X-1409000Y-4658000D01*
X-1412000Y-4662500D01*
Y-4667500D01*
X-1414000Y-4670500D01*
X-1419000Y-4673000D01*
X-1426000Y-4674000D01*
X-1433000Y-4672500D01*
X-1438000Y-4669000D01*
X-1440000Y-4665000D01*
X-1438000Y-4661000D01*
X-1433000Y-4657500D01*
X-1426000Y-4656000D01*
X-1419000Y-4657000D01*
X-1414000Y-4659500D01*
X-1412000Y-4662500D01*
Y-4667500D01*
X-1409000Y-4672000D01*
X-1403000Y-4675000D01*
X-1396000Y-4676000D01*
X-1389000Y-4675000D01*
X-1384000Y-4672500D01*
X-1381000Y-4668500D01*
X-1380000Y-4665000D01*
G01X-1423000Y-4245000D02*
X-1483000D01*
Y-4232500D01*
X-1480000Y-4228500D01*
X-1476000Y-4226000D01*
X-1468000Y-4225000D01*
X-1460000Y-4226000D01*
X-1455000Y-4229000D01*
X-1452000Y-4232500D01*
Y-4245000D01*
G01Y-4232500D02*
X-1423000Y-4225000D01*
G01Y-4195000D02*
X-1483000D01*
X-1471000Y-4201000D01*
G01X-1423000D02*
Y-4189000D01*
G01Y-4156000D02*
X-1436000Y-4155000D01*
X-1447000Y-4153500D01*
X-1457000Y-4151500D01*
X-1468000Y-4149000D01*
X-1483000Y-4145000D01*
Y-4165000D01*
G01X-1499000Y-4246000D02*
X-1559000D01*
Y-4233500D01*
X-1556000Y-4229500D01*
X-1552000Y-4227000D01*
X-1544000Y-4226000D01*
X-1536000Y-4227000D01*
X-1531000Y-4230000D01*
X-1528000Y-4233500D01*
Y-4246000D01*
G01Y-4233500D02*
X-1499000Y-4226000D01*
G01Y-4196000D02*
X-1559000D01*
X-1547000Y-4202000D01*
G01X-1499000D02*
Y-4190000D01*
G01X-1524000Y-4165500D02*
X-1531000Y-4162000D01*
X-1535000Y-4159000D01*
X-1537000Y-4155000D01*
X-1535000Y-4151500D01*
X-1531000Y-4149000D01*
X-1525000Y-4147000D01*
X-1518000Y-4146500D01*
X-1512000Y-4147000D01*
X-1506000Y-4149000D01*
X-1501000Y-4152000D01*
X-1499000Y-4155500D01*
X-1501000Y-4159500D01*
X-1507000Y-4163000D01*
X-1516000Y-4165000D01*
X-1526000Y-4165500D01*
X-1539000Y-4164500D01*
X-1546000Y-4163000D01*
X-1553000Y-4160500D01*
X-1558000Y-4157000D01*
X-1559000Y-4153500D01*
X-1557000Y-4150000D01*
X-1552000Y-4147500D01*
G01X-1447000Y-3708000D02*
X-1404000D01*
X-1395000Y-3706000D01*
X-1389000Y-3702000D01*
X-1387000Y-3697000D01*
X-1389000Y-3692000D01*
X-1395000Y-3688000D01*
X-1404000Y-3686000D01*
X-1447000D01*
G01X-1437000Y-3666500D02*
X-1443000Y-3663500D01*
X-1446000Y-3660000D01*
X-1447000Y-3656000D01*
X-1445000Y-3651000D01*
X-1440000Y-3647500D01*
X-1434000Y-3646500D01*
X-1428000Y-3647000D01*
X-1423000Y-3649000D01*
X-1413000Y-3659000D01*
X-1406000Y-3663500D01*
X-1396000Y-3666500D01*
X-1387000Y-3667500D01*
Y-3646500D01*
G01X-1399000Y-3628000D02*
X-1392000Y-3625000D01*
X-1388000Y-3621000D01*
X-1387000Y-3616500D01*
X-1388000Y-3612500D01*
X-1393000Y-3608500D01*
X-1399000Y-3606000D01*
X-1405000Y-3605500D01*
X-1412000Y-3606500D01*
X-1417000Y-3610000D01*
X-1419000Y-3613500D01*
Y-3618000D01*
G01Y-3613500D02*
X-1422000Y-3610500D01*
X-1427000Y-3608000D01*
X-1433000Y-3607000D01*
X-1439000Y-3608000D01*
X-1444000Y-3610500D01*
X-1447000Y-3615000D01*
X-1446000Y-3619500D01*
X-1442000Y-3624000D01*
G01X-1214000Y-3329000D02*
X-1274000D01*
Y-3316500D01*
X-1271000Y-3312500D01*
X-1267000Y-3310000D01*
X-1259000Y-3309000D01*
X-1251000Y-3310000D01*
X-1246000Y-3313000D01*
X-1243000Y-3316500D01*
Y-3329000D01*
G01Y-3316500D02*
X-1214000Y-3309000D01*
G01Y-3279000D02*
X-1215000Y-3275500D01*
X-1218000Y-3271500D01*
X-1223000Y-3269000D01*
X-1230000Y-3268000D01*
X-1237000Y-3269000D01*
X-1243000Y-3272000D01*
X-1246000Y-3276500D01*
Y-3281500D01*
X-1248000Y-3284500D01*
X-1253000Y-3287000D01*
X-1260000Y-3288000D01*
X-1267000Y-3286500D01*
X-1272000Y-3283000D01*
X-1274000Y-3279000D01*
X-1272000Y-3275000D01*
X-1267000Y-3271500D01*
X-1260000Y-3270000D01*
X-1253000Y-3271000D01*
X-1248000Y-3273500D01*
X-1246000Y-3276500D01*
Y-3281500D01*
X-1243000Y-3286000D01*
X-1237000Y-3289000D01*
X-1230000Y-3290000D01*
X-1223000Y-3289000D01*
X-1218000Y-3286500D01*
X-1215000Y-3282500D01*
X-1214000Y-3279000D01*
G01X-1400000Y-3210000D02*
X-1403000Y-3207000D01*
X-1406500Y-3205000D01*
X-1410500D01*
X-1415000Y-3208000D01*
X-1418500Y-3213000D01*
X-1421000Y-3219000D01*
X-1423000Y-3229000D01*
X-1423500Y-3238000D01*
X-1422500Y-3247000D01*
X-1421000Y-3253000D01*
X-1418000Y-3259000D01*
X-1414500Y-3263000D01*
X-1411000Y-3265000D01*
X-1407500D01*
X-1404000Y-3263000D01*
X-1401000Y-3260000D01*
X-1398500Y-3256000D01*
G01X-1382000Y-3253000D02*
X-1379000Y-3260000D01*
X-1375000Y-3264000D01*
X-1370500Y-3265000D01*
X-1366500Y-3264000D01*
X-1362500Y-3259000D01*
X-1360000Y-3253000D01*
X-1359500Y-3247000D01*
X-1360500Y-3240000D01*
X-1364000Y-3235000D01*
X-1367500Y-3233000D01*
X-1372000D01*
G01X-1367500D02*
X-1364500Y-3230000D01*
X-1362000Y-3225000D01*
X-1361000Y-3219000D01*
X-1362000Y-3213000D01*
X-1364500Y-3208000D01*
X-1369000Y-3205000D01*
X-1373500Y-3206000D01*
X-1378000Y-3210000D01*
G01X-1331000Y-3265000D02*
X-1327500Y-3264000D01*
X-1323500Y-3261000D01*
X-1321000Y-3256000D01*
X-1320000Y-3249000D01*
X-1321000Y-3242000D01*
X-1324000Y-3236000D01*
X-1328500Y-3233000D01*
X-1333500D01*
X-1336500Y-3231000D01*
X-1339000Y-3226000D01*
X-1340000Y-3219000D01*
X-1338500Y-3212000D01*
X-1335000Y-3207000D01*
X-1331000Y-3205000D01*
X-1327000Y-3207000D01*
X-1323500Y-3212000D01*
X-1322000Y-3219000D01*
X-1323000Y-3226000D01*
X-1325500Y-3231000D01*
X-1328500Y-3233000D01*
X-1333500D01*
X-1338000Y-3236000D01*
X-1341000Y-3242000D01*
X-1342000Y-3249000D01*
X-1341000Y-3256000D01*
X-1338500Y-3261000D01*
X-1334500Y-3264000D01*
X-1331000Y-3265000D01*
G01X-1357190Y-2396860D02*
X-1356240Y-2401000D01*
X-1354330Y-2404550D01*
X-1350940Y-2406670D01*
X-1345530Y-2406510D01*
X-1339920Y-2404120D01*
X-1334620Y-2400360D01*
X-1327620Y-2392940D01*
X-1322430Y-2385570D01*
X-1318510Y-2377410D01*
X-1316600Y-2371530D01*
X-1315960Y-2364850D01*
X-1316810Y-2359600D01*
X-1318720Y-2356050D01*
X-1321690Y-2354200D01*
X-1325720Y-2354040D01*
X-1329850Y-2354990D01*
X-1334090Y-2357060D01*
G01X-1371080Y-2382290D02*
X-1376800Y-2385790D01*
X-1381360Y-2386480D01*
X-1385280Y-2385200D01*
X-1388460Y-2380860D01*
X-1388780Y-2374760D01*
X-1386450Y-2369150D01*
X-1382850Y-2364320D01*
X-1378500Y-2361140D01*
X-1364720Y-2357960D01*
X-1357200Y-2354410D01*
X-1349350Y-2347520D01*
X-1343740Y-2340420D01*
X-1361550Y-2329290D01*
G01X-1385710Y-2314180D02*
X-1393450Y-2324680D01*
X-1400550Y-2333210D01*
X-1407550Y-2340630D01*
X-1415500Y-2348630D01*
X-1426840Y-2359230D01*
X-1409880Y-2369830D01*
G01X-1412320Y2656500D02*
X-1388900Y2620440D01*
X-1382320Y2613980D01*
X-1375700Y2611120D01*
X-1370420Y2612170D01*
X-1367320Y2616570D01*
X-1367230Y2623780D01*
X-1370450Y2632420D01*
X-1393870Y2668480D01*
G01X-1352630Y2638030D02*
X-1346300Y2633790D01*
X-1340770Y2632620D01*
X-1336450Y2634230D01*
X-1333640Y2637250D01*
X-1333010Y2643620D01*
X-1334180Y2650010D01*
X-1337030Y2655320D01*
X-1341680Y2660640D01*
X-1347340Y2662930D01*
X-1351360Y2662700D01*
X-1355140Y2660250D01*
G01X-1351360Y2662700D02*
X-1350480Y2666850D01*
X-1351110Y2672410D01*
X-1353540Y2677980D01*
X-1357640Y2682470D01*
X-1362460Y2685300D01*
X-1367870Y2685370D01*
X-1371100Y2682080D01*
X-1372700Y2676270D01*
G01X-1115000Y-3337000D02*
Y-3277000D01*
X-1102500D01*
X-1098500Y-3280000D01*
X-1096000Y-3284000D01*
X-1095000Y-3292000D01*
X-1096000Y-3300000D01*
X-1099000Y-3305000D01*
X-1102500Y-3308000D01*
X-1115000D01*
G01X-1102500D02*
X-1095000Y-3337000D01*
G01X-1065000D02*
Y-3277000D01*
X-1071000Y-3289000D01*
G01Y-3337000D02*
X-1059000D01*
G01X-1025000Y-3277000D02*
X-1029000Y-3279000D01*
X-1032000Y-3284000D01*
X-1034000Y-3290000D01*
X-1035500Y-3298000D01*
X-1036000Y-3307000D01*
X-1035500Y-3316000D01*
X-1034000Y-3324000D01*
X-1032000Y-3330000D01*
X-1029000Y-3335000D01*
X-1025000Y-3337000D01*
X-1021000Y-3335000D01*
X-1018000Y-3330000D01*
X-1016000Y-3324000D01*
X-1014500Y-3316000D01*
X-1014000Y-3307000D01*
X-1014500Y-3298000D01*
X-1016000Y-3290000D01*
X-1018000Y-3284000D01*
X-1021000Y-3279000D01*
X-1025000Y-3277000D01*
G01X-1140000Y-3331000D02*
X-1200000D01*
Y-3318500D01*
X-1197000Y-3314500D01*
X-1193000Y-3312000D01*
X-1185000Y-3311000D01*
X-1177000Y-3312000D01*
X-1172000Y-3315000D01*
X-1169000Y-3318500D01*
Y-3331000D01*
G01Y-3318500D02*
X-1140000Y-3311000D01*
G01X-1147000Y-3289500D02*
X-1142000Y-3286000D01*
X-1140000Y-3282000D01*
X-1142000Y-3278000D01*
X-1148000Y-3274500D01*
X-1157000Y-3272000D01*
X-1166000Y-3271000D01*
X-1177000D01*
X-1186000Y-3272000D01*
X-1194000Y-3274500D01*
X-1198000Y-3277500D01*
X-1200000Y-3281000D01*
X-1198000Y-3285000D01*
X-1194000Y-3288000D01*
X-1188000Y-3290000D01*
X-1180000Y-3291000D01*
X-1173000Y-3290000D01*
X-1166000Y-3287500D01*
X-1162000Y-3284500D01*
X-1161000Y-3281000D01*
X-1163000Y-3277000D01*
X-1168000Y-3274000D01*
X-1177000Y-3271000D01*
G01X-899390Y-2915860D02*
X-890450Y-2873800D01*
X-890530Y-2864580D01*
X-893200Y-2857880D01*
X-897670Y-2854880D01*
X-902980Y-2855800D01*
X-908140Y-2860830D01*
X-911970Y-2869220D01*
X-920910Y-2911280D01*
G01X-936800Y-2846560D02*
X-949280Y-2905250D01*
X-940910Y-2894760D01*
G01X-930930Y-2847810D02*
X-942670Y-2845310D01*
G01X-967040Y-2849330D02*
X-968940Y-2843820D01*
X-971740Y-2840150D01*
X-975930Y-2838240D01*
X-980750Y-2839260D01*
X-985000Y-2842450D01*
X-988910Y-2848770D01*
X-991060Y-2856490D01*
X-991740Y-2864530D01*
X-990340Y-2869940D01*
X-987740Y-2874580D01*
X-984530Y-2876280D01*
X-980900Y-2876030D01*
X-975670Y-2873060D01*
X-982540Y-2898180D01*
X-995740Y-2895370D01*
G01X-918150Y3180120D02*
X-916020Y3183800D01*
X-915000Y3187690D01*
X-916030Y3191560D01*
X-920100Y3195130D01*
X-925830Y3197210D01*
X-932270Y3198080D01*
X-942450Y3197420D01*
X-951270Y3195570D01*
X-959710Y3192280D01*
X-965120Y3189280D01*
X-970140Y3184830D01*
X-973090Y3180410D01*
X-974120Y3176510D01*
X-973210Y3173130D01*
X-970370Y3170270D01*
X-966700Y3168150D01*
X-962190Y3166770D01*
G01X-917930Y3159990D02*
X-911360Y3158640D01*
X-907550Y3156040D01*
X-905550Y3152430D01*
X-906190Y3147090D01*
X-910120Y3142410D01*
X-915650Y3139890D01*
X-921580Y3138820D01*
X-926920Y3139460D01*
X-939170Y3146530D01*
X-947100Y3149070D01*
X-957540Y3149380D01*
X-966490Y3148010D01*
X-961050Y3127730D01*
G01X-726000Y-5361000D02*
X-786000D01*
Y-5348500D01*
X-783000Y-5344500D01*
X-779000Y-5342000D01*
X-771000Y-5341000D01*
X-763000Y-5342000D01*
X-758000Y-5345000D01*
X-755000Y-5348500D01*
Y-5361000D01*
G01Y-5348500D02*
X-726000Y-5341000D01*
G01X-738000Y-5322000D02*
X-731000Y-5319000D01*
X-727000Y-5315000D01*
X-726000Y-5310500D01*
X-727000Y-5306500D01*
X-732000Y-5302500D01*
X-738000Y-5300000D01*
X-744000Y-5299500D01*
X-751000Y-5300500D01*
X-756000Y-5304000D01*
X-758000Y-5307500D01*
Y-5312000D01*
G01Y-5307500D02*
X-761000Y-5304500D01*
X-766000Y-5302000D01*
X-772000Y-5301000D01*
X-778000Y-5302000D01*
X-783000Y-5304500D01*
X-786000Y-5309000D01*
X-785000Y-5313500D01*
X-781000Y-5318000D01*
G01X-786000Y-5271000D02*
X-784000Y-5275000D01*
X-779000Y-5278000D01*
X-773000Y-5280000D01*
X-765000Y-5281500D01*
X-756000Y-5282000D01*
X-747000Y-5281500D01*
X-739000Y-5280000D01*
X-733000Y-5278000D01*
X-728000Y-5275000D01*
X-726000Y-5271000D01*
X-728000Y-5267000D01*
X-733000Y-5264000D01*
X-739000Y-5262000D01*
X-747000Y-5260500D01*
X-756000Y-5260000D01*
X-765000Y-5260500D01*
X-773000Y-5262000D01*
X-779000Y-5264000D01*
X-784000Y-5267000D01*
X-786000Y-5271000D01*
G01X-641000Y-5361000D02*
X-701000D01*
Y-5348500D01*
X-698000Y-5344500D01*
X-694000Y-5342000D01*
X-686000Y-5341000D01*
X-678000Y-5342000D01*
X-673000Y-5345000D01*
X-670000Y-5348500D01*
Y-5361000D01*
G01Y-5348500D02*
X-641000Y-5341000D01*
G01X-653000Y-5322000D02*
X-646000Y-5319000D01*
X-642000Y-5315000D01*
X-641000Y-5310500D01*
X-642000Y-5306500D01*
X-647000Y-5302500D01*
X-653000Y-5300000D01*
X-659000Y-5299500D01*
X-666000Y-5300500D01*
X-671000Y-5304000D01*
X-673000Y-5307500D01*
Y-5312000D01*
G01Y-5307500D02*
X-676000Y-5304500D01*
X-681000Y-5302000D01*
X-687000Y-5301000D01*
X-693000Y-5302000D01*
X-698000Y-5304500D01*
X-701000Y-5309000D01*
X-700000Y-5313500D01*
X-696000Y-5318000D01*
G01X-641000Y-5271000D02*
X-701000D01*
X-689000Y-5277000D01*
G01X-641000D02*
Y-5265000D01*
G01X-591000Y-5039000D02*
Y-5099000D01*
X-571000D01*
G01X-550500Y-5074000D02*
X-547000Y-5067000D01*
X-544000Y-5063000D01*
X-540000Y-5061000D01*
X-536500Y-5063000D01*
X-534000Y-5067000D01*
X-532000Y-5073000D01*
X-531500Y-5080000D01*
X-532000Y-5086000D01*
X-534000Y-5092000D01*
X-537000Y-5097000D01*
X-540500Y-5099000D01*
X-544500Y-5097000D01*
X-548000Y-5091000D01*
X-550000Y-5082000D01*
X-550500Y-5072000D01*
X-549500Y-5059000D01*
X-548000Y-5052000D01*
X-545500Y-5045000D01*
X-542000Y-5040000D01*
X-538500Y-5039000D01*
X-535000Y-5041000D01*
X-532500Y-5046000D01*
G01X-840750Y-5090400D02*
X-871150Y-5120810D01*
X-876100Y-5128590D01*
X-877520Y-5135660D01*
X-875390Y-5140610D01*
X-870440Y-5142730D01*
X-863370Y-5141320D01*
X-855590Y-5136360D01*
X-825190Y-5105960D01*
G01X-818480Y-5126810D02*
X-812110Y-5124690D01*
X-807520Y-5125050D01*
X-803980Y-5127170D01*
X-801860Y-5132120D01*
X-802920Y-5138130D01*
X-806450Y-5143080D01*
X-811050Y-5146970D01*
X-816000Y-5149090D01*
X-830140D01*
X-838270Y-5150860D01*
X-847470Y-5155810D01*
X-854540Y-5161460D01*
X-839690Y-5176310D01*
G01X-818830Y-5197170D02*
X-815650Y-5198930D01*
X-810700Y-5199640D01*
X-805400Y-5197880D01*
X-799740Y-5193630D01*
X-795500Y-5187980D01*
X-793380Y-5181610D01*
X-794440Y-5176310D01*
X-797970Y-5172770D01*
X-798680Y-5169240D01*
X-796910Y-5163930D01*
X-792670Y-5158280D01*
X-786660Y-5154390D01*
X-780650Y-5153330D01*
X-776410Y-5154740D01*
X-774990Y-5158980D01*
X-776050Y-5164990D01*
X-779940Y-5171000D01*
X-785600Y-5175250D01*
X-790900Y-5177010D01*
X-794440Y-5176310D01*
X-797970Y-5172770D01*
X-803280Y-5171710D01*
X-809640Y-5173830D01*
X-815300Y-5178070D01*
X-819540Y-5183730D01*
X-821310Y-5189040D01*
X-820600Y-5193980D01*
X-818830Y-5197170D01*
G01X-664460Y-4624460D02*
X-706890Y-4582040D01*
X-698050Y-4573200D01*
X-693100Y-4572490D01*
X-688510Y-4573550D01*
X-682140Y-4578500D01*
X-677190Y-4584870D01*
X-675780Y-4590520D01*
X-676130Y-4595120D01*
X-684970Y-4603960D01*
G01X-676130Y-4595120D02*
X-650320Y-4610320D01*
G01X-671190Y-4560480D02*
X-673310Y-4554110D01*
X-672950Y-4549520D01*
X-670830Y-4545980D01*
X-665880Y-4543860D01*
X-659870Y-4544920D01*
X-654920Y-4548450D01*
X-651030Y-4553050D01*
X-648910Y-4558000D01*
Y-4572140D01*
X-647140Y-4580270D01*
X-642190Y-4589470D01*
X-636540Y-4596540D01*
X-621690Y-4581690D01*
G01X-642910Y-4532200D02*
X-645030Y-4525830D01*
X-644670Y-4521240D01*
X-642550Y-4517700D01*
X-637600Y-4515580D01*
X-631590Y-4516640D01*
X-626640Y-4520170D01*
X-622750Y-4524770D01*
X-620630Y-4529720D01*
Y-4543860D01*
X-618860Y-4551990D01*
X-613910Y-4561190D01*
X-608260Y-4568260D01*
X-593410Y-4553410D01*
G01X-777460Y-4616460D02*
X-819890Y-4574040D01*
X-811050Y-4565200D01*
X-806100Y-4564490D01*
X-801510Y-4565550D01*
X-795140Y-4570500D01*
X-790190Y-4576870D01*
X-788780Y-4582520D01*
X-789130Y-4587120D01*
X-797970Y-4595960D01*
G01X-789130Y-4587120D02*
X-763320Y-4602320D01*
G01X-784190Y-4552480D02*
X-786310Y-4546110D01*
X-785950Y-4541520D01*
X-783830Y-4537980D01*
X-778880Y-4535860D01*
X-772870Y-4536920D01*
X-767920Y-4540450D01*
X-764030Y-4545050D01*
X-761910Y-4550000D01*
Y-4564140D01*
X-760140Y-4572270D01*
X-755190Y-4581470D01*
X-749540Y-4588540D01*
X-734690Y-4573690D01*
G01X-713830Y-4552830D02*
X-756260Y-4510410D01*
X-752020Y-4523130D01*
G01X-718080Y-4557080D02*
X-709590Y-4548590D01*
G01X-599000Y-4710000D02*
X-602000Y-4713000D01*
X-604000Y-4716500D01*
Y-4720500D01*
X-601000Y-4725000D01*
X-596000Y-4728500D01*
X-590000Y-4731000D01*
X-580000Y-4733000D01*
X-571000Y-4733500D01*
X-562000Y-4732500D01*
X-556000Y-4731000D01*
X-550000Y-4728000D01*
X-546000Y-4724500D01*
X-544000Y-4721000D01*
Y-4717500D01*
X-546000Y-4714000D01*
X-549000Y-4711000D01*
X-553000Y-4708500D01*
G01X-544000Y-4675000D02*
X-604000D01*
X-561000Y-4693500D01*
Y-4668500D01*
G01X-551000Y-4649500D02*
X-546000Y-4646000D01*
X-544000Y-4642000D01*
X-546000Y-4638000D01*
X-552000Y-4634500D01*
X-561000Y-4632000D01*
X-570000Y-4631000D01*
X-581000D01*
X-590000Y-4632000D01*
X-598000Y-4634500D01*
X-602000Y-4637500D01*
X-604000Y-4641000D01*
X-602000Y-4645000D01*
X-598000Y-4648000D01*
X-592000Y-4650000D01*
X-584000Y-4651000D01*
X-577000Y-4650000D01*
X-570000Y-4647500D01*
X-566000Y-4644500D01*
X-565000Y-4641000D01*
X-567000Y-4637000D01*
X-572000Y-4634000D01*
X-581000Y-4631000D01*
G01X-766000Y-4244000D02*
X-826000D01*
Y-4231500D01*
X-823000Y-4227500D01*
X-819000Y-4225000D01*
X-811000Y-4224000D01*
X-803000Y-4225000D01*
X-798000Y-4228000D01*
X-795000Y-4231500D01*
Y-4244000D01*
G01Y-4231500D02*
X-766000Y-4224000D01*
G01Y-4194000D02*
X-826000D01*
X-814000Y-4200000D01*
G01X-766000D02*
Y-4188000D01*
G01Y-4154000D02*
X-767000Y-4150500D01*
X-770000Y-4146500D01*
X-775000Y-4144000D01*
X-782000Y-4143000D01*
X-789000Y-4144000D01*
X-795000Y-4147000D01*
X-798000Y-4151500D01*
Y-4156500D01*
X-800000Y-4159500D01*
X-805000Y-4162000D01*
X-812000Y-4163000D01*
X-819000Y-4161500D01*
X-824000Y-4158000D01*
X-826000Y-4154000D01*
X-824000Y-4150000D01*
X-819000Y-4146500D01*
X-812000Y-4145000D01*
X-805000Y-4146000D01*
X-800000Y-4148500D01*
X-798000Y-4151500D01*
Y-4156500D01*
X-795000Y-4161000D01*
X-789000Y-4164000D01*
X-782000Y-4165000D01*
X-775000Y-4164000D01*
X-770000Y-4161500D01*
X-767000Y-4157500D01*
X-766000Y-4154000D01*
G01X-676000Y-4244000D02*
X-736000D01*
Y-4231500D01*
X-733000Y-4227500D01*
X-729000Y-4225000D01*
X-721000Y-4224000D01*
X-713000Y-4225000D01*
X-708000Y-4228000D01*
X-705000Y-4231500D01*
Y-4244000D01*
G01Y-4231500D02*
X-676000Y-4224000D01*
G01Y-4194000D02*
X-736000D01*
X-724000Y-4200000D01*
G01X-676000D02*
Y-4188000D01*
G01X-683000Y-4162500D02*
X-678000Y-4159000D01*
X-676000Y-4155000D01*
X-678000Y-4151000D01*
X-684000Y-4147500D01*
X-693000Y-4145000D01*
X-702000Y-4144000D01*
X-713000D01*
X-722000Y-4145000D01*
X-730000Y-4147500D01*
X-734000Y-4150500D01*
X-736000Y-4154000D01*
X-734000Y-4158000D01*
X-730000Y-4161000D01*
X-724000Y-4163000D01*
X-716000Y-4164000D01*
X-709000Y-4163000D01*
X-702000Y-4160500D01*
X-698000Y-4157500D01*
X-697000Y-4154000D01*
X-699000Y-4150000D01*
X-704000Y-4147000D01*
X-713000Y-4144000D01*
G01X-599000Y-4169000D02*
Y-4212000D01*
X-597000Y-4221000D01*
X-593000Y-4227000D01*
X-588000Y-4229000D01*
X-583000Y-4227000D01*
X-579000Y-4221000D01*
X-577000Y-4212000D01*
Y-4169000D01*
G01X-557500Y-4179000D02*
X-554500Y-4173000D01*
X-551000Y-4170000D01*
X-547000Y-4169000D01*
X-542000Y-4171000D01*
X-538500Y-4176000D01*
X-537500Y-4182000D01*
X-538000Y-4188000D01*
X-540000Y-4193000D01*
X-550000Y-4203000D01*
X-554500Y-4210000D01*
X-557500Y-4220000D01*
X-558500Y-4229000D01*
X-537500D01*
G01X-509000D02*
X-508000Y-4216000D01*
X-506500Y-4205000D01*
X-504500Y-4195000D01*
X-502000Y-4184000D01*
X-498000Y-4169000D01*
X-518000D01*
G01X-576000Y-4027000D02*
Y-4087000D01*
X-556000D01*
G01X-520000D02*
Y-4027000D01*
X-538500Y-4070000D01*
X-513500D01*
G01X-570000Y-3533000D02*
X-573000Y-3536000D01*
X-575000Y-3539500D01*
Y-3543500D01*
X-572000Y-3548000D01*
X-567000Y-3551500D01*
X-561000Y-3554000D01*
X-551000Y-3556000D01*
X-542000Y-3556500D01*
X-533000Y-3555500D01*
X-527000Y-3554000D01*
X-521000Y-3551000D01*
X-517000Y-3547500D01*
X-515000Y-3544000D01*
Y-3540500D01*
X-517000Y-3537000D01*
X-520000Y-3534000D01*
X-524000Y-3531500D01*
G01X-515000Y-3498000D02*
X-575000D01*
X-532000Y-3516500D01*
Y-3491500D01*
G01X-575000Y-3464000D02*
X-573000Y-3468000D01*
X-568000Y-3471000D01*
X-562000Y-3473000D01*
X-554000Y-3474500D01*
X-545000Y-3475000D01*
X-536000Y-3474500D01*
X-528000Y-3473000D01*
X-522000Y-3471000D01*
X-517000Y-3468000D01*
X-515000Y-3464000D01*
X-517000Y-3460000D01*
X-522000Y-3457000D01*
X-528000Y-3455000D01*
X-536000Y-3453500D01*
X-545000Y-3453000D01*
X-554000Y-3453500D01*
X-562000Y-3455000D01*
X-568000Y-3457000D01*
X-573000Y-3460000D01*
X-575000Y-3464000D01*
G01X-731120Y2630850D02*
X-734800Y2632980D01*
X-738690Y2634000D01*
X-742560Y2632970D01*
X-746130Y2628900D01*
X-748210Y2623170D01*
X-749080Y2616730D01*
X-748420Y2606550D01*
X-746570Y2597730D01*
X-743280Y2589290D01*
X-740280Y2583880D01*
X-735830Y2578860D01*
X-731410Y2575910D01*
X-727510Y2574880D01*
X-724130Y2575790D01*
X-721270Y2578630D01*
X-719150Y2582300D01*
X-717770Y2586810D01*
G01X-683080Y2586790D02*
X-698600Y2644740D01*
X-705350Y2598420D01*
X-681200Y2604890D01*
G01X-490000Y-5146000D02*
X-487500Y-5152000D01*
X-484500Y-5156000D01*
X-481000Y-5158000D01*
X-477000Y-5156000D01*
X-474000Y-5152000D01*
X-471000Y-5146000D01*
X-470000Y-5138000D01*
Y-5098000D01*
G01X-449500Y-5108000D02*
X-446500Y-5102000D01*
X-443000Y-5099000D01*
X-439000Y-5098000D01*
X-434000Y-5100000D01*
X-430500Y-5105000D01*
X-429500Y-5111000D01*
X-430000Y-5117000D01*
X-432000Y-5122000D01*
X-442000Y-5132000D01*
X-446500Y-5139000D01*
X-449500Y-5149000D01*
X-450500Y-5158000D01*
X-429500D01*
G01X-560600Y-3674750D02*
X-530190Y-3705150D01*
X-522410Y-3710100D01*
X-515340Y-3711520D01*
X-510390Y-3709390D01*
X-508270Y-3704440D01*
X-509680Y-3697370D01*
X-514640Y-3689590D01*
X-545040Y-3659190D01*
G01X-524190Y-3652480D02*
X-526310Y-3646110D01*
X-525950Y-3641520D01*
X-523830Y-3637980D01*
X-518880Y-3635860D01*
X-512870Y-3636920D01*
X-507920Y-3640450D01*
X-504030Y-3645050D01*
X-501910Y-3650000D01*
Y-3664140D01*
X-500140Y-3672270D01*
X-495190Y-3681470D01*
X-489540Y-3688540D01*
X-474690Y-3673690D01*
G01X-495910Y-3624200D02*
X-498030Y-3617830D01*
X-497670Y-3613240D01*
X-495550Y-3609700D01*
X-490600Y-3607580D01*
X-484590Y-3608640D01*
X-479640Y-3612170D01*
X-475750Y-3616770D01*
X-473630Y-3621720D01*
Y-3635860D01*
X-471860Y-3643990D01*
X-466910Y-3653190D01*
X-461260Y-3660260D01*
X-446410Y-3645410D01*
G01X-397420Y-3315490D02*
X-400770Y-3318100D01*
X-403180Y-3321330D01*
X-403660Y-3325300D01*
X-401230Y-3330140D01*
X-396700Y-3334220D01*
X-391050Y-3337430D01*
X-381370Y-3340640D01*
X-372490Y-3342230D01*
X-363440Y-3342330D01*
X-357300Y-3341580D01*
X-350980Y-3339330D01*
X-346580Y-3336340D01*
X-344170Y-3333110D01*
X-343750Y-3329640D01*
X-345300Y-3325920D01*
X-347910Y-3322580D01*
X-351580Y-3319610D01*
G01X-352550Y-3302870D02*
X-345240Y-3300740D01*
X-340780Y-3297260D01*
X-339240Y-3292920D01*
X-339750Y-3288820D01*
X-344220Y-3284240D01*
X-349870Y-3281030D01*
X-355770Y-3279800D01*
X-362830Y-3279940D01*
X-368220Y-3282810D01*
X-370640Y-3286040D01*
X-371190Y-3290500D01*
G01X-370640Y-3286040D02*
X-373250Y-3282690D01*
X-377910Y-3279600D01*
X-383740Y-3277880D01*
X-389820Y-3278140D01*
X-395080Y-3280010D01*
X-398610Y-3284110D01*
X-398170Y-3288700D01*
X-394740Y-3293660D01*
G01X-385220Y-3257050D02*
X-390810Y-3253340D01*
X-393360Y-3249500D01*
X-393860Y-3245410D01*
X-391270Y-3240690D01*
X-385880Y-3237820D01*
X-379800Y-3237560D01*
X-373910Y-3238790D01*
X-369190Y-3241380D01*
X-360480Y-3252530D01*
X-354080Y-3257850D01*
X-344520Y-3262040D01*
X-335710Y-3264130D01*
X-333150Y-3243290D01*
G01X-335870Y-2730390D02*
X-333560Y-2733950D01*
X-330550Y-2736630D01*
X-326640Y-2737470D01*
X-321610Y-2735470D01*
X-317150Y-2731300D01*
X-313450Y-2725950D01*
X-309420Y-2716590D01*
X-307060Y-2707890D01*
X-306170Y-2698880D01*
X-306390Y-2692700D01*
X-308070Y-2686200D01*
X-310660Y-2681560D01*
X-313670Y-2678880D01*
X-317100Y-2678150D01*
X-320930Y-2679380D01*
X-324490Y-2681690D01*
X-327770Y-2685080D01*
G01X-344540Y-2684590D02*
X-346020Y-2677110D01*
X-349100Y-2672370D01*
X-353290Y-2670460D01*
X-357410Y-2670600D01*
X-362360Y-2674660D01*
X-366060Y-2680010D01*
X-367790Y-2685780D01*
X-368270Y-2692830D01*
X-365890Y-2698450D01*
X-362880Y-2701130D01*
X-358480Y-2702070D01*
G01X-362880Y-2701130D02*
X-366440Y-2703440D01*
X-369920Y-2707810D01*
X-372150Y-2713480D01*
X-372420Y-2719550D01*
X-371010Y-2724960D01*
X-367230Y-2728830D01*
X-362620Y-2728790D01*
X-357390Y-2725810D01*
G01X-404410Y-2720930D02*
X-400080Y-2719810D01*
X-396100Y-2715540D01*
X-392900Y-2710090D01*
X-389770Y-2702570D01*
X-387410Y-2693870D01*
X-386030Y-2684960D01*
X-385830Y-2676830D01*
X-386540Y-2670540D01*
X-388430Y-2665030D01*
X-391930Y-2662240D01*
X-396260Y-2663370D01*
X-400230Y-2667630D01*
X-403440Y-2673090D01*
X-406570Y-2680600D01*
X-408930Y-2689300D01*
X-410310Y-2698210D01*
X-410510Y-2706340D01*
X-409800Y-2712630D01*
X-407900Y-2718140D01*
X-404410Y-2720930D01*
G01X-310480Y3009780D02*
X-303010Y2967440D01*
X-299480Y2958920D01*
X-294500Y2953710D01*
X-289230Y2952600D01*
X-284650Y2955440D01*
X-281750Y2962040D01*
X-281350Y2971260D01*
X-288810Y3013600D01*
G01X-249840Y2959550D02*
X-260260Y3018640D01*
X-264080Y3005780D01*
G01X-255750Y2958510D02*
X-243930Y2960600D01*
G01X266000Y-5252000D02*
Y-5192000D01*
X278500D01*
X282500Y-5195000D01*
X285000Y-5199000D01*
X286000Y-5207000D01*
X285000Y-5215000D01*
X282000Y-5220000D01*
X278500Y-5223000D01*
X266000D01*
G01X278500D02*
X286000Y-5252000D01*
G01X306500Y-5202000D02*
X309500Y-5196000D01*
X313000Y-5193000D01*
X317000Y-5192000D01*
X322000Y-5194000D01*
X325500Y-5199000D01*
X326500Y-5205000D01*
X326000Y-5211000D01*
X324000Y-5216000D01*
X314000Y-5226000D01*
X309500Y-5233000D01*
X306500Y-5243000D01*
X305500Y-5252000D01*
X326500D01*
G01X346500Y-5227000D02*
X350000Y-5220000D01*
X353000Y-5216000D01*
X357000Y-5214000D01*
X360500Y-5216000D01*
X363000Y-5220000D01*
X365000Y-5226000D01*
X365500Y-5233000D01*
X365000Y-5239000D01*
X363000Y-5245000D01*
X360000Y-5250000D01*
X356500Y-5252000D01*
X352500Y-5250000D01*
X349000Y-5244000D01*
X347000Y-5235000D01*
X346500Y-5225000D01*
X347500Y-5212000D01*
X349000Y-5205000D01*
X351500Y-5198000D01*
X355000Y-5193000D01*
X358500Y-5192000D01*
X362000Y-5194000D01*
X364500Y-5199000D01*
G01X426000Y-4990000D02*
Y-4930000D01*
X438500D01*
X442500Y-4933000D01*
X445000Y-4937000D01*
X446000Y-4945000D01*
X445000Y-4953000D01*
X442000Y-4958000D01*
X438500Y-4961000D01*
X426000D01*
G01X438500D02*
X446000Y-4990000D01*
G01X466500Y-4940000D02*
X469500Y-4934000D01*
X473000Y-4931000D01*
X477000Y-4930000D01*
X482000Y-4932000D01*
X485500Y-4937000D01*
X486500Y-4943000D01*
X486000Y-4949000D01*
X484000Y-4954000D01*
X474000Y-4964000D01*
X469500Y-4971000D01*
X466500Y-4981000D01*
X465500Y-4990000D01*
X486500D01*
G01X505000Y-4981000D02*
X508000Y-4986000D01*
X511500Y-4989000D01*
X516000Y-4990000D01*
X520500Y-4988000D01*
X524000Y-4984000D01*
X526500Y-4977000D01*
X527000Y-4969000D01*
X526000Y-4961000D01*
X523500Y-4956000D01*
X520000Y-4952000D01*
X516500Y-4951000D01*
X513000Y-4952000D01*
X508500Y-4956000D01*
X510000Y-4930000D01*
X523500D01*
G01X452000Y-3476000D02*
Y-3416000D01*
X464500D01*
X468500Y-3419000D01*
X471000Y-3423000D01*
X472000Y-3431000D01*
X471000Y-3439000D01*
X468000Y-3444000D01*
X464500Y-3447000D01*
X452000D01*
G01X464500D02*
X472000Y-3476000D01*
G01X502000D02*
Y-3416000D01*
X496000Y-3428000D01*
G01Y-3476000D02*
X508000D01*
G01X532500Y-3426000D02*
X535500Y-3420000D01*
X539000Y-3417000D01*
X543000Y-3416000D01*
X548000Y-3418000D01*
X551500Y-3423000D01*
X552500Y-3429000D01*
X552000Y-3435000D01*
X550000Y-3440000D01*
X540000Y-3450000D01*
X535500Y-3457000D01*
X532500Y-3467000D01*
X531500Y-3476000D01*
X552500D01*
G01X292480Y-3028780D02*
X285010Y-2986440D01*
X281480Y-2977920D01*
X276500Y-2972710D01*
X271230Y-2971600D01*
X266650Y-2974440D01*
X263750Y-2981040D01*
X263350Y-2990260D01*
X270810Y-3032600D01*
G01X231840Y-2978550D02*
X242260Y-3037640D01*
X246080Y-3024780D01*
G01X237750Y-2977510D02*
X225930Y-2979600D01*
G01X206140Y-3008470D02*
X203910Y-3015980D01*
X201650Y-3020440D01*
X198060Y-3023100D01*
X194270Y-3021740D01*
X191110Y-3018230D01*
X188100Y-3012670D01*
X186390Y-3005870D01*
X185840Y-2999870D01*
X186770Y-2993610D01*
X188860Y-2988170D01*
X191960Y-2985590D01*
X196240Y-2986870D01*
X200730Y-2992170D01*
X204260Y-3000680D01*
X206490Y-3010440D01*
X207760Y-3023420D01*
X207500Y-3030580D01*
X206260Y-3037900D01*
X203680Y-3043430D01*
X200400Y-3045030D01*
X196610Y-3043670D01*
X193280Y-3039180D01*
G01X337510Y2730420D02*
X334900Y2733770D01*
X331670Y2736180D01*
X327700Y2736660D01*
X322860Y2734230D01*
X318780Y2729700D01*
X315570Y2724050D01*
X312360Y2714370D01*
X310770Y2705490D01*
X310670Y2696440D01*
X311420Y2690300D01*
X313670Y2683980D01*
X316660Y2679580D01*
X319890Y2677170D01*
X323360Y2676750D01*
X327080Y2678300D01*
X330420Y2680910D01*
X333390Y2684580D01*
G01X350130Y2685550D02*
X352260Y2678240D01*
X355740Y2673780D01*
X360080Y2672240D01*
X364180Y2672750D01*
X368760Y2677220D01*
X371970Y2682870D01*
X373200Y2688770D01*
X373060Y2695830D01*
X370190Y2701220D01*
X366960Y2703640D01*
X362500Y2704190D01*
G01X366960Y2703640D02*
X370310Y2706250D01*
X373400Y2710910D01*
X375120Y2716740D01*
X374860Y2722820D01*
X372990Y2728080D01*
X368890Y2731610D01*
X364300Y2731170D01*
X359340Y2727740D01*
G01X390850Y3301600D02*
X394240Y3304150D01*
X396700Y3307340D01*
X397260Y3311300D01*
X394910Y3316170D01*
X390450Y3320340D01*
X384860Y3323650D01*
X375230Y3327020D01*
X366390Y3328770D01*
X357340Y3329030D01*
X351190Y3328380D01*
X344830Y3326240D01*
X340380Y3323330D01*
X337910Y3320150D01*
X337430Y3316680D01*
X338920Y3312940D01*
X341470Y3309550D01*
X345080Y3306510D01*
G01X332340Y3280540D02*
X391760Y3272190D01*
X380710Y3279800D01*
G01X333180Y3286480D02*
X331510Y3274600D01*
G01X753000Y-5376000D02*
X749000Y-5375000D01*
X745500Y-5371000D01*
X742500Y-5365000D01*
X740500Y-5358000D01*
X739500Y-5350000D01*
Y-5342000D01*
X740500Y-5334000D01*
X742500Y-5327000D01*
X745500Y-5321000D01*
X749000Y-5317000D01*
X753000Y-5316000D01*
X757000Y-5317000D01*
X760500Y-5321000D01*
X763500Y-5327000D01*
X765500Y-5334000D01*
X766500Y-5342000D01*
Y-5350000D01*
X765500Y-5358000D01*
X763500Y-5365000D01*
X760500Y-5371000D01*
X757000Y-5375000D01*
X753000Y-5376000D01*
G01X757000Y-5360000D02*
X763000Y-5376000D01*
G01X793000D02*
Y-5316000D01*
X787000Y-5328000D01*
G01Y-5376000D02*
X799000D01*
G01X798000Y-5189000D02*
X738000D01*
Y-5176500D01*
X741000Y-5172500D01*
X745000Y-5170000D01*
X753000Y-5169000D01*
X761000Y-5170000D01*
X766000Y-5173000D01*
X769000Y-5176500D01*
Y-5189000D01*
G01Y-5176500D02*
X798000Y-5169000D01*
G01X748000Y-5148500D02*
X742000Y-5145500D01*
X739000Y-5142000D01*
X738000Y-5138000D01*
X740000Y-5133000D01*
X745000Y-5129500D01*
X751000Y-5128500D01*
X757000Y-5129000D01*
X762000Y-5131000D01*
X772000Y-5141000D01*
X779000Y-5145500D01*
X789000Y-5148500D01*
X798000Y-5149500D01*
Y-5128500D01*
G01Y-5100000D02*
X785000Y-5099000D01*
X774000Y-5097500D01*
X764000Y-5095500D01*
X753000Y-5093000D01*
X738000Y-5089000D01*
Y-5109000D01*
G01X567000Y-4910000D02*
Y-4883000D01*
X557000Y-4850000D01*
G01X577000D02*
X567000Y-4883000D01*
G01X607000Y-4910000D02*
Y-4850000D01*
X601000Y-4862000D01*
G01Y-4910000D02*
X613000D01*
G01X501000Y-4155000D02*
X544000D01*
X553000Y-4153000D01*
X559000Y-4149000D01*
X561000Y-4144000D01*
X559000Y-4139000D01*
X553000Y-4135000D01*
X544000Y-4133000D01*
X501000D01*
G01X511000Y-4113500D02*
X505000Y-4110500D01*
X502000Y-4107000D01*
X501000Y-4103000D01*
X503000Y-4098000D01*
X508000Y-4094500D01*
X514000Y-4093500D01*
X520000Y-4094000D01*
X525000Y-4096000D01*
X535000Y-4106000D01*
X542000Y-4110500D01*
X552000Y-4113500D01*
X561000Y-4114500D01*
Y-4093500D01*
G01X552000Y-4075000D02*
X557000Y-4072000D01*
X560000Y-4068500D01*
X561000Y-4064000D01*
X559000Y-4059500D01*
X555000Y-4056000D01*
X548000Y-4053500D01*
X540000Y-4053000D01*
X532000Y-4054000D01*
X527000Y-4056500D01*
X523000Y-4060000D01*
X522000Y-4063500D01*
X523000Y-4067000D01*
X527000Y-4071500D01*
X501000Y-4070000D01*
Y-4056500D01*
G01X703000Y-3265000D02*
X700000Y-3262000D01*
X696500Y-3260000D01*
X692500D01*
X688000Y-3263000D01*
X684500Y-3268000D01*
X682000Y-3274000D01*
X680000Y-3284000D01*
X679500Y-3293000D01*
X680500Y-3302000D01*
X682000Y-3308000D01*
X685000Y-3314000D01*
X688500Y-3318000D01*
X692000Y-3320000D01*
X695500D01*
X699000Y-3318000D01*
X702000Y-3315000D01*
X704500Y-3311000D01*
G01X721000Y-3308000D02*
X724000Y-3315000D01*
X728000Y-3319000D01*
X732500Y-3320000D01*
X736500Y-3319000D01*
X740500Y-3314000D01*
X743000Y-3308000D01*
X743500Y-3302000D01*
X742500Y-3295000D01*
X739000Y-3290000D01*
X735500Y-3288000D01*
X731000D01*
G01X735500D02*
X738500Y-3285000D01*
X741000Y-3280000D01*
X742000Y-3274000D01*
X741000Y-3268000D01*
X738500Y-3263000D01*
X734000Y-3260000D01*
X729500Y-3261000D01*
X725000Y-3265000D01*
G01X771000Y-3320000D02*
X772000Y-3307000D01*
X773500Y-3296000D01*
X775500Y-3286000D01*
X778000Y-3275000D01*
X782000Y-3260000D01*
X762000D01*
G01X752950Y-2647680D02*
X756420Y-2650110D01*
X760210Y-2651470D01*
X764150Y-2650780D01*
X768070Y-2647040D01*
X770640Y-2641510D01*
X772060Y-2635170D01*
X772300Y-2624970D01*
X771230Y-2616020D01*
X768680Y-2607330D01*
X766160Y-2601690D01*
X762160Y-2596300D01*
X758020Y-2592970D01*
X754230Y-2591600D01*
X750780Y-2592210D01*
X747680Y-2594790D01*
X745250Y-2598260D01*
X743480Y-2602640D01*
G01X732880Y-2646150D02*
X730960Y-2652570D01*
X728040Y-2656140D01*
X724270Y-2657820D01*
X719000Y-2656720D01*
X714690Y-2652400D01*
X712660Y-2646660D01*
X712110Y-2640670D01*
X713210Y-2635400D01*
X721320Y-2623810D01*
X724540Y-2616140D01*
X725760Y-2605770D01*
X725180Y-2596730D01*
X704500Y-2600380D01*
G01X685030Y-2610920D02*
X680720Y-2606610D01*
X676430Y-2605330D01*
X672840Y-2607990D01*
X670440Y-2614510D01*
X669540Y-2623810D01*
X670110Y-2632850D01*
X672020Y-2643680D01*
X674570Y-2652370D01*
X678420Y-2659810D01*
X682070Y-2663230D01*
X685870Y-2664590D01*
X689460Y-2661930D01*
X691720Y-2657470D01*
X692650Y-2651210D01*
X692240Y-2643160D01*
X690040Y-2636440D01*
X686360Y-2629980D01*
X682710Y-2626560D01*
X679090Y-2626180D01*
X675500Y-2628850D01*
X673420Y-2634290D01*
X672020Y-2643680D01*
G01X983000Y-5134000D02*
Y-5074000D01*
X993000D01*
X997000Y-5077000D01*
X1000000Y-5081000D01*
X1002500Y-5087000D01*
X1004500Y-5094000D01*
X1005000Y-5104000D01*
X1004500Y-5114000D01*
X1002500Y-5121000D01*
X1000000Y-5127000D01*
X997000Y-5131000D01*
X993000Y-5134000D01*
X983000D01*
G01X1023000Y-5125000D02*
X1026000Y-5130000D01*
X1029500Y-5133000D01*
X1034000Y-5134000D01*
X1038500Y-5132000D01*
X1042000Y-5128000D01*
X1044500Y-5121000D01*
X1045000Y-5113000D01*
X1044000Y-5105000D01*
X1041500Y-5100000D01*
X1038000Y-5096000D01*
X1034500Y-5095000D01*
X1031000Y-5096000D01*
X1026500Y-5100000D01*
X1028000Y-5074000D01*
X1041500D01*
G01X1010000Y-4511000D02*
Y-4451000D01*
X1022500D01*
X1026500Y-4454000D01*
X1029000Y-4458000D01*
X1030000Y-4466000D01*
X1029000Y-4474000D01*
X1026000Y-4479000D01*
X1022500Y-4482000D01*
X1010000D01*
G01X1022500D02*
X1030000Y-4511000D01*
G01X1050500Y-4461000D02*
X1053500Y-4455000D01*
X1057000Y-4452000D01*
X1061000Y-4451000D01*
X1066000Y-4453000D01*
X1069500Y-4458000D01*
X1070500Y-4464000D01*
X1070000Y-4470000D01*
X1068000Y-4475000D01*
X1058000Y-4485000D01*
X1053500Y-4492000D01*
X1050500Y-4502000D01*
X1049500Y-4511000D01*
X1070500D01*
G01X1106000D02*
Y-4451000D01*
X1087500Y-4494000D01*
X1112500D01*
G01X1011000Y-4427000D02*
Y-4367000D01*
X1023500D01*
X1027500Y-4370000D01*
X1030000Y-4374000D01*
X1031000Y-4382000D01*
X1030000Y-4390000D01*
X1027000Y-4395000D01*
X1023500Y-4398000D01*
X1011000D01*
G01X1023500D02*
X1031000Y-4427000D01*
G01X1051500Y-4377000D02*
X1054500Y-4371000D01*
X1058000Y-4368000D01*
X1062000Y-4367000D01*
X1067000Y-4369000D01*
X1070500Y-4374000D01*
X1071500Y-4380000D01*
X1071000Y-4386000D01*
X1069000Y-4391000D01*
X1059000Y-4401000D01*
X1054500Y-4408000D01*
X1051500Y-4418000D01*
X1050500Y-4427000D01*
X1071500D01*
G01X1090000Y-4415000D02*
X1093000Y-4422000D01*
X1097000Y-4426000D01*
X1101500Y-4427000D01*
X1105500Y-4426000D01*
X1109500Y-4421000D01*
X1112000Y-4415000D01*
X1112500Y-4409000D01*
X1111500Y-4402000D01*
X1108000Y-4397000D01*
X1104500Y-4395000D01*
X1100000D01*
G01X1104500D02*
X1107500Y-4392000D01*
X1110000Y-4387000D01*
X1111000Y-4381000D01*
X1110000Y-4375000D01*
X1107500Y-4370000D01*
X1103000Y-4367000D01*
X1098500Y-4368000D01*
X1094000Y-4372000D01*
G01X1149000Y-4493000D02*
X1192000D01*
X1201000Y-4491000D01*
X1207000Y-4487000D01*
X1209000Y-4482000D01*
X1207000Y-4477000D01*
X1201000Y-4473000D01*
X1192000Y-4471000D01*
X1149000D01*
G01X1159000Y-4451500D02*
X1153000Y-4448500D01*
X1150000Y-4445000D01*
X1149000Y-4441000D01*
X1151000Y-4436000D01*
X1156000Y-4432500D01*
X1162000Y-4431500D01*
X1168000Y-4432000D01*
X1173000Y-4434000D01*
X1183000Y-4444000D01*
X1190000Y-4448500D01*
X1200000Y-4451500D01*
X1209000Y-4452500D01*
Y-4431500D01*
G01X1202000Y-4410500D02*
X1207000Y-4407000D01*
X1209000Y-4403000D01*
X1207000Y-4399000D01*
X1201000Y-4395500D01*
X1192000Y-4393000D01*
X1183000Y-4392000D01*
X1172000D01*
X1163000Y-4393000D01*
X1155000Y-4395500D01*
X1151000Y-4398500D01*
X1149000Y-4402000D01*
X1151000Y-4406000D01*
X1155000Y-4409000D01*
X1161000Y-4411000D01*
X1169000Y-4412000D01*
X1176000Y-4411000D01*
X1183000Y-4408500D01*
X1187000Y-4405500D01*
X1188000Y-4402000D01*
X1186000Y-4398000D01*
X1181000Y-4395000D01*
X1172000Y-4392000D01*
G01X1080000Y-4018000D02*
X1077000Y-4015000D01*
X1073500Y-4013000D01*
X1069500D01*
X1065000Y-4016000D01*
X1061500Y-4021000D01*
X1059000Y-4027000D01*
X1057000Y-4037000D01*
X1056500Y-4046000D01*
X1057500Y-4055000D01*
X1059000Y-4061000D01*
X1062000Y-4067000D01*
X1065500Y-4071000D01*
X1069000Y-4073000D01*
X1072500D01*
X1076000Y-4071000D01*
X1079000Y-4068000D01*
X1081500Y-4064000D01*
G01X1115000Y-4073000D02*
Y-4013000D01*
X1096500Y-4056000D01*
X1121500D01*
G01X1139500Y-4048000D02*
X1143000Y-4041000D01*
X1146000Y-4037000D01*
X1150000Y-4035000D01*
X1153500Y-4037000D01*
X1156000Y-4041000D01*
X1158000Y-4047000D01*
X1158500Y-4054000D01*
X1158000Y-4060000D01*
X1156000Y-4066000D01*
X1153000Y-4071000D01*
X1149500Y-4073000D01*
X1145500Y-4071000D01*
X1142000Y-4065000D01*
X1140000Y-4056000D01*
X1139500Y-4046000D01*
X1140500Y-4033000D01*
X1142000Y-4026000D01*
X1144500Y-4019000D01*
X1148000Y-4014000D01*
X1151500Y-4013000D01*
X1155000Y-4015000D01*
X1157500Y-4020000D01*
G01X1041000Y-3602000D02*
X1084000D01*
X1093000Y-3600000D01*
X1099000Y-3596000D01*
X1101000Y-3591000D01*
X1099000Y-3586000D01*
X1093000Y-3582000D01*
X1084000Y-3580000D01*
X1041000D01*
G01X1051000Y-3560500D02*
X1045000Y-3557500D01*
X1042000Y-3554000D01*
X1041000Y-3550000D01*
X1043000Y-3545000D01*
X1048000Y-3541500D01*
X1054000Y-3540500D01*
X1060000Y-3541000D01*
X1065000Y-3543000D01*
X1075000Y-3553000D01*
X1082000Y-3557500D01*
X1092000Y-3560500D01*
X1101000Y-3561500D01*
Y-3540500D01*
G01X1041000Y-3511000D02*
X1043000Y-3515000D01*
X1048000Y-3518000D01*
X1054000Y-3520000D01*
X1062000Y-3521500D01*
X1071000Y-3522000D01*
X1080000Y-3521500D01*
X1088000Y-3520000D01*
X1094000Y-3518000D01*
X1099000Y-3515000D01*
X1101000Y-3511000D01*
X1099000Y-3507000D01*
X1094000Y-3504000D01*
X1088000Y-3502000D01*
X1080000Y-3500500D01*
X1071000Y-3500000D01*
X1062000Y-3500500D01*
X1054000Y-3502000D01*
X1048000Y-3504000D01*
X1043000Y-3507000D01*
X1041000Y-3511000D01*
G01X902150Y-3204120D02*
X900020Y-3207800D01*
X899000Y-3211690D01*
X900030Y-3215560D01*
X904100Y-3219130D01*
X909830Y-3221210D01*
X916270Y-3222080D01*
X926450Y-3221420D01*
X935270Y-3219570D01*
X943710Y-3216280D01*
X949120Y-3213280D01*
X954140Y-3208830D01*
X957090Y-3204410D01*
X958120Y-3200510D01*
X957210Y-3197130D01*
X954370Y-3194270D01*
X950700Y-3192150D01*
X946190Y-3190770D01*
G01X939020Y-3175600D02*
X945010Y-3170890D01*
X947840Y-3165990D01*
X947640Y-3161390D01*
X945640Y-3157780D01*
X939770Y-3155210D01*
X933330Y-3154350D01*
X927400Y-3155420D01*
X920900Y-3158200D01*
X916980Y-3162870D01*
X915950Y-3166770D01*
X917120Y-3171120D01*
G01X915950Y-3166770D02*
X912280Y-3164650D01*
X906800Y-3163530D01*
X900750Y-3164120D01*
X895210Y-3166640D01*
X891030Y-3170340D01*
X889290Y-3175470D01*
X891420Y-3179560D01*
X896450Y-3182870D01*
G01X937420Y-3123230D02*
X879460Y-3138760D01*
X892610Y-3141450D01*
G01X938970Y-3129030D02*
X935870Y-3117440D01*
G01X867390Y2914860D02*
X858450Y2872800D01*
X858530Y2863580D01*
X861200Y2856880D01*
X865670Y2853880D01*
X870980Y2854800D01*
X876140Y2859830D01*
X879970Y2868220D01*
X888910Y2910280D01*
G01X905910Y2896440D02*
X910090Y2901690D01*
X914130Y2903900D01*
X918260Y2904040D01*
X922730Y2901050D01*
X925110Y2895430D01*
X924840Y2889350D01*
X923110Y2883580D01*
X920110Y2879110D01*
X908250Y2871410D01*
X902390Y2865500D01*
X897380Y2856340D01*
X894530Y2847740D01*
X915070Y2843380D01*
G01X1433000Y-5428000D02*
X1430000Y-5425000D01*
X1426500Y-5423000D01*
X1422500D01*
X1418000Y-5426000D01*
X1414500Y-5431000D01*
X1412000Y-5437000D01*
X1410000Y-5447000D01*
X1409500Y-5456000D01*
X1410500Y-5465000D01*
X1412000Y-5471000D01*
X1415000Y-5477000D01*
X1418500Y-5481000D01*
X1422000Y-5483000D01*
X1425500D01*
X1429000Y-5481000D01*
X1432000Y-5478000D01*
X1434500Y-5474000D01*
G01X1449000Y-5483000D02*
Y-5423000D01*
X1462000Y-5473000D01*
X1475000Y-5423000D01*
Y-5483000D01*
G01X1491000D02*
Y-5423000D01*
X1501000D01*
X1505000Y-5426000D01*
X1508000Y-5430000D01*
X1510500Y-5436000D01*
X1512500Y-5443000D01*
X1513000Y-5453000D01*
X1512500Y-5463000D01*
X1510500Y-5470000D01*
X1508000Y-5476000D01*
X1505000Y-5480000D01*
X1501000Y-5483000D01*
X1491000D01*
G01X1572000D02*
Y-5423000D01*
X1584500D01*
X1588500Y-5426000D01*
X1591000Y-5430000D01*
X1592000Y-5438000D01*
X1591000Y-5446000D01*
X1588000Y-5451000D01*
X1584500Y-5454000D01*
X1572000D01*
G01X1584500D02*
X1592000Y-5483000D01*
G01X1611500D02*
X1632500Y-5423000D01*
G01X1611500D02*
X1632500Y-5483000D01*
G01X1396000Y-4019000D02*
Y-4062000D01*
X1398000Y-4071000D01*
X1402000Y-4077000D01*
X1407000Y-4079000D01*
X1412000Y-4077000D01*
X1416000Y-4071000D01*
X1418000Y-4062000D01*
Y-4019000D01*
G01X1437500Y-4029000D02*
X1440500Y-4023000D01*
X1444000Y-4020000D01*
X1448000Y-4019000D01*
X1453000Y-4021000D01*
X1456500Y-4026000D01*
X1457500Y-4032000D01*
X1457000Y-4038000D01*
X1455000Y-4043000D01*
X1445000Y-4053000D01*
X1440500Y-4060000D01*
X1437500Y-4070000D01*
X1436500Y-4079000D01*
X1457500D01*
G01X1477500Y-4054000D02*
X1481000Y-4047000D01*
X1484000Y-4043000D01*
X1488000Y-4041000D01*
X1491500Y-4043000D01*
X1494000Y-4047000D01*
X1496000Y-4053000D01*
X1496500Y-4060000D01*
X1496000Y-4066000D01*
X1494000Y-4072000D01*
X1491000Y-4077000D01*
X1487500Y-4079000D01*
X1483500Y-4077000D01*
X1480000Y-4071000D01*
X1478000Y-4062000D01*
X1477500Y-4052000D01*
X1478500Y-4039000D01*
X1480000Y-4032000D01*
X1482500Y-4025000D01*
X1486000Y-4020000D01*
X1489500Y-4019000D01*
X1493000Y-4021000D01*
X1495500Y-4026000D01*
G01X1305700Y-3298290D02*
X1285180Y-3241910D01*
X1296920Y-3237630D01*
X1301710Y-3239090D01*
X1305430Y-3241990D01*
X1309100Y-3249160D01*
X1310900Y-3257020D01*
X1309790Y-3262750D01*
X1307530Y-3266760D01*
X1295780Y-3271040D01*
G01X1307530Y-3266760D02*
X1324490Y-3291450D01*
G01X1335210Y-3260950D02*
X1336100Y-3253170D01*
X1337550Y-3248390D01*
X1340630Y-3245140D01*
X1344600Y-3245820D01*
X1348320Y-3248720D01*
X1352250Y-3253680D01*
X1355110Y-3260090D01*
X1356700Y-3265900D01*
X1356870Y-3272220D01*
X1355760Y-3277940D01*
X1353160Y-3281020D01*
X1348710Y-3280510D01*
X1343370Y-3276070D01*
X1338410Y-3268290D01*
X1334520Y-3259070D01*
X1331020Y-3246510D01*
X1330030Y-3239420D01*
X1329990Y-3231990D01*
X1331570Y-3226090D01*
X1334510Y-3223950D01*
X1338490Y-3224630D01*
X1342550Y-3228480D01*
G01X1458000Y-3428000D02*
X1460500Y-3434000D01*
X1463500Y-3438000D01*
X1467000Y-3440000D01*
X1471000Y-3438000D01*
X1474000Y-3434000D01*
X1477000Y-3428000D01*
X1478000Y-3420000D01*
Y-3380000D01*
G01X1508000Y-3440000D02*
Y-3380000D01*
X1502000Y-3392000D01*
G01Y-3440000D02*
X1514000D01*
G01X1414400Y-2585000D02*
X1391620Y-2548540D01*
X1385150Y-2541960D01*
X1378580Y-2538990D01*
X1373280Y-2539950D01*
X1370100Y-2544290D01*
X1369880Y-2551500D01*
X1372960Y-2560190D01*
X1395750Y-2596660D01*
G01X1339360Y-2561150D02*
X1371150Y-2612030D01*
X1369880Y-2598680D01*
G01X1344450Y-2557970D02*
X1334270Y-2564330D01*
G01X1300350Y-2585530D02*
X1332150Y-2636410D01*
X1325050Y-2590140D01*
X1303850Y-2603390D01*
G01X1338190Y2391860D02*
X1337240Y2396000D01*
X1335330Y2399550D01*
X1331940Y2401670D01*
X1326530Y2401510D01*
X1320920Y2399120D01*
X1315620Y2395360D01*
X1308620Y2387940D01*
X1303430Y2380570D01*
X1299510Y2372410D01*
X1297600Y2366530D01*
X1296960Y2359850D01*
X1297810Y2354600D01*
X1299720Y2351050D01*
X1302690Y2349200D01*
X1306720Y2349040D01*
X1310850Y2349990D01*
X1315090Y2352060D01*
G01X1338830Y2356090D02*
X1345510Y2360170D01*
X1350170Y2361970D01*
X1354630Y2361550D01*
X1356530Y2358000D01*
Y2353280D01*
X1355050Y2347130D01*
X1351770Y2340930D01*
X1348160Y2336110D01*
X1343290Y2332080D01*
X1338090Y2329430D01*
X1334070Y2329590D01*
X1331730Y2333400D01*
X1331940Y2340340D01*
X1335020Y2349040D01*
X1339890Y2357780D01*
X1347630Y2368280D01*
X1352610Y2373420D01*
X1358440Y2378030D01*
X1364060Y2380420D01*
X1367560Y2379410D01*
X1369460Y2375860D01*
X1368940Y2370290D01*
G01X1700000Y-4141000D02*
Y-4081000D01*
X1710000D01*
X1714000Y-4084000D01*
X1717000Y-4088000D01*
X1719500Y-4094000D01*
X1721500Y-4101000D01*
X1722000Y-4111000D01*
X1721500Y-4121000D01*
X1719500Y-4128000D01*
X1717000Y-4134000D01*
X1714000Y-4138000D01*
X1710000Y-4141000D01*
X1700000D01*
G01X1757000D02*
Y-4081000D01*
X1738500Y-4124000D01*
X1763500D01*
G01X1773000Y-3956000D02*
X1770000Y-3953000D01*
X1766500Y-3951000D01*
X1762500D01*
X1758000Y-3954000D01*
X1754500Y-3959000D01*
X1752000Y-3965000D01*
X1750000Y-3975000D01*
X1749500Y-3984000D01*
X1750500Y-3993000D01*
X1752000Y-3999000D01*
X1755000Y-4005000D01*
X1758500Y-4009000D01*
X1762000Y-4011000D01*
X1765500D01*
X1769000Y-4009000D01*
X1772000Y-4006000D01*
X1774500Y-4002000D01*
G01X1808000Y-4011000D02*
Y-3951000D01*
X1789500Y-3994000D01*
X1814500D01*
G01X1848000Y-4011000D02*
Y-3951000D01*
X1829500Y-3994000D01*
X1854500D01*
G01X1672000Y-3850000D02*
X1612000D01*
Y-3837500D01*
X1615000Y-3833500D01*
X1619000Y-3831000D01*
X1627000Y-3830000D01*
X1635000Y-3831000D01*
X1640000Y-3834000D01*
X1643000Y-3837500D01*
Y-3850000D01*
G01Y-3837500D02*
X1672000Y-3830000D01*
G01Y-3800000D02*
X1612000D01*
X1624000Y-3806000D01*
G01X1672000D02*
Y-3794000D01*
G01X1660000Y-3771000D02*
X1667000Y-3768000D01*
X1671000Y-3764000D01*
X1672000Y-3759500D01*
X1671000Y-3755500D01*
X1666000Y-3751500D01*
X1660000Y-3749000D01*
X1654000Y-3748500D01*
X1647000Y-3749500D01*
X1642000Y-3753000D01*
X1640000Y-3756500D01*
Y-3761000D01*
G01Y-3756500D02*
X1637000Y-3753500D01*
X1632000Y-3751000D01*
X1626000Y-3750000D01*
X1620000Y-3751000D01*
X1615000Y-3753500D01*
X1612000Y-3758000D01*
X1613000Y-3762500D01*
X1617000Y-3767000D01*
G01X1682540Y-3405460D02*
X1640110Y-3363040D01*
X1648950Y-3354200D01*
X1653900Y-3353490D01*
X1658490Y-3354550D01*
X1664860Y-3359500D01*
X1669810Y-3365870D01*
X1671220Y-3371520D01*
X1670870Y-3376120D01*
X1662030Y-3384960D01*
G01X1670870Y-3376120D02*
X1696680Y-3391320D01*
G01X1717890Y-3370110D02*
X1675460Y-3327690D01*
X1679700Y-3340410D01*
G01X1713640Y-3374360D02*
X1722130Y-3365870D01*
G01X1746170Y-3341830D02*
X1703740Y-3299410D01*
X1707980Y-3312130D01*
G01X1741920Y-3346080D02*
X1750410Y-3337590D01*
G01X1831000Y-3263000D02*
Y-3203000D01*
X1843500D01*
X1847500Y-3206000D01*
X1850000Y-3210000D01*
X1851000Y-3218000D01*
X1850000Y-3226000D01*
X1847000Y-3231000D01*
X1843500Y-3234000D01*
X1831000D01*
G01X1843500D02*
X1851000Y-3263000D01*
G01X1870000Y-3254000D02*
X1873000Y-3259000D01*
X1876500Y-3262000D01*
X1881000Y-3263000D01*
X1885500Y-3261000D01*
X1889000Y-3257000D01*
X1891500Y-3250000D01*
X1892000Y-3242000D01*
X1891000Y-3234000D01*
X1888500Y-3229000D01*
X1885000Y-3225000D01*
X1881500Y-3224000D01*
X1878000Y-3225000D01*
X1873500Y-3229000D01*
X1875000Y-3203000D01*
X1888500D01*
G01X1794490Y-3336720D02*
X1790250D01*
X1786360Y-3337780D01*
X1783530Y-3340610D01*
X1782470Y-3345920D01*
X1783530Y-3351930D01*
X1786010Y-3357940D01*
X1791670Y-3366420D01*
X1797680Y-3373140D01*
X1804750Y-3378800D01*
X1810050Y-3381980D01*
X1816420Y-3384100D01*
X1821720Y-3384450D01*
X1825610Y-3383390D01*
X1828080Y-3380920D01*
X1829140Y-3377030D01*
Y-3372790D01*
X1828080Y-3368190D01*
G01X1858130Y-3350870D02*
X1815700Y-3308440D01*
X1833030Y-3351930D01*
X1850700Y-3334250D01*
G01X1882170Y-3326830D02*
X1839740Y-3284410D01*
X1843980Y-3297130D01*
G01X1877920Y-3331080D02*
X1886410Y-3322590D01*
G01X1728200Y-2146140D02*
X1732370Y-2146950D01*
X1736380Y-2146650D01*
X1739700Y-2144410D01*
X1741750Y-2139400D01*
X1741860Y-2133300D01*
X1740580Y-2126930D01*
X1736640Y-2117520D01*
X1732030Y-2109780D01*
X1726160Y-2102880D01*
X1721560Y-2098740D01*
X1715720Y-2095450D01*
X1710580Y-2094090D01*
X1706560Y-2094390D01*
X1703660Y-2096340D01*
X1701880Y-2099960D01*
X1701070Y-2104120D01*
X1701230Y-2108840D01*
G01X1709240Y-2152900D02*
X1710110Y-2159550D01*
X1708880Y-2163990D01*
X1706130Y-2167060D01*
X1700860Y-2168200D01*
X1695170Y-2166010D01*
X1690980Y-2161590D01*
X1688040Y-2156340D01*
X1686900Y-2151080D01*
X1689600Y-2137190D01*
X1689420Y-2128870D01*
X1686310Y-2118910D01*
X1682110Y-2110890D01*
X1664700Y-2122630D01*
G01X1654400Y-2140440D02*
X1649110Y-2137970D01*
X1644530Y-2137440D01*
X1640240Y-2139130D01*
X1637630Y-2143300D01*
X1636970Y-2148570D01*
X1638810Y-2155780D01*
X1642870Y-2162690D01*
X1648170Y-2168760D01*
X1653040Y-2171510D01*
X1658180Y-2172870D01*
X1661640Y-2171740D01*
X1663980Y-2168950D01*
X1665470Y-2163120D01*
X1678770Y-2185510D01*
X1667580Y-2193060D01*
G01X1619860Y2912810D02*
X1624000Y2913760D01*
X1627550Y2915670D01*
X1629670Y2919060D01*
X1629510Y2924470D01*
X1627120Y2930080D01*
X1623360Y2935380D01*
X1615940Y2942380D01*
X1608570Y2947570D01*
X1600410Y2951490D01*
X1594530Y2953400D01*
X1587850Y2954040D01*
X1582600Y2953190D01*
X1579050Y2951280D01*
X1577200Y2948310D01*
X1577040Y2944280D01*
X1577990Y2940150D01*
X1580060Y2935910D01*
G01X1571310Y2921920D02*
X1565480Y2922020D01*
X1561080Y2920650D01*
X1557850Y2917360D01*
X1557160Y2912480D01*
X1558700Y2907400D01*
X1563310Y2901570D01*
X1569830Y2896900D01*
X1577140Y2893510D01*
X1582710Y2892980D01*
X1587960Y2893830D01*
X1590660Y2896270D01*
X1591670Y2899770D01*
X1590660Y2905700D01*
X1611910Y2890650D01*
X1604760Y2879200D01*
G01X2079000Y-5209000D02*
Y-5269000D01*
G01X2067500Y-5209000D02*
X2090500D01*
G01X2109000Y-5269000D02*
Y-5209000D01*
X2121000D01*
X2125000Y-5212000D01*
X2128000Y-5219000D01*
X2129000Y-5227000D01*
X2128000Y-5235000D01*
X2125500Y-5241000D01*
X2121000Y-5244000D01*
X2109000D01*
G01X2148000Y-5260000D02*
X2151000Y-5265000D01*
X2154500Y-5268000D01*
X2159000Y-5269000D01*
X2163500Y-5267000D01*
X2167000Y-5263000D01*
X2169500Y-5256000D01*
X2170000Y-5248000D01*
X2169000Y-5240000D01*
X2166500Y-5235000D01*
X2163000Y-5231000D01*
X2159500Y-5230000D01*
X2156000Y-5231000D01*
X2151500Y-5235000D01*
X2153000Y-5209000D01*
X2166500D01*
G01X1935000Y-4096000D02*
X1978000D01*
X1987000Y-4094000D01*
X1993000Y-4090000D01*
X1995000Y-4085000D01*
X1993000Y-4080000D01*
X1987000Y-4076000D01*
X1978000Y-4074000D01*
X1935000D01*
G01X1945000Y-4054500D02*
X1939000Y-4051500D01*
X1936000Y-4048000D01*
X1935000Y-4044000D01*
X1937000Y-4039000D01*
X1942000Y-4035500D01*
X1948000Y-4034500D01*
X1954000Y-4035000D01*
X1959000Y-4037000D01*
X1969000Y-4047000D01*
X1976000Y-4051500D01*
X1986000Y-4054500D01*
X1995000Y-4055500D01*
Y-4034500D01*
G01Y-3999000D02*
X1935000D01*
X1978000Y-4017500D01*
Y-3992500D01*
G01X2034000Y-3770000D02*
Y-3813000D01*
X2036000Y-3822000D01*
X2040000Y-3828000D01*
X2045000Y-3830000D01*
X2050000Y-3828000D01*
X2054000Y-3822000D01*
X2056000Y-3813000D01*
Y-3770000D01*
G01X2085000Y-3830000D02*
Y-3770000D01*
X2079000Y-3782000D01*
G01Y-3830000D02*
X2091000D01*
G01X2125000D02*
X2128500Y-3829000D01*
X2132500Y-3826000D01*
X2135000Y-3821000D01*
X2136000Y-3814000D01*
X2135000Y-3807000D01*
X2132000Y-3801000D01*
X2127500Y-3798000D01*
X2122500D01*
X2119500Y-3796000D01*
X2117000Y-3791000D01*
X2116000Y-3784000D01*
X2117500Y-3777000D01*
X2121000Y-3772000D01*
X2125000Y-3770000D01*
X2129000Y-3772000D01*
X2132500Y-3777000D01*
X2134000Y-3784000D01*
X2133000Y-3791000D01*
X2130500Y-3796000D01*
X2127500Y-3798000D01*
X2122500D01*
X2118000Y-3801000D01*
X2115000Y-3807000D01*
X2114000Y-3814000D01*
X2115000Y-3821000D01*
X2117500Y-3826000D01*
X2121500Y-3829000D01*
X2125000Y-3830000D01*
G01X2109000Y-3185000D02*
Y-3125000D01*
X2121500D01*
X2125500Y-3128000D01*
X2128000Y-3132000D01*
X2129000Y-3140000D01*
X2128000Y-3148000D01*
X2125000Y-3153000D01*
X2121500Y-3156000D01*
X2109000D01*
G01X2121500D02*
X2129000Y-3185000D01*
G01X2149500Y-3135000D02*
X2152500Y-3129000D01*
X2156000Y-3126000D01*
X2160000Y-3125000D01*
X2165000Y-3127000D01*
X2168500Y-3132000D01*
X2169500Y-3138000D01*
X2169000Y-3144000D01*
X2167000Y-3149000D01*
X2157000Y-3159000D01*
X2152500Y-3166000D01*
X2149500Y-3176000D01*
X2148500Y-3185000D01*
X2169500D01*
G01X2108000Y-2924000D02*
Y-2864000D01*
X2120500D01*
X2124500Y-2867000D01*
X2127000Y-2871000D01*
X2128000Y-2879000D01*
X2127000Y-2887000D01*
X2124000Y-2892000D01*
X2120500Y-2895000D01*
X2108000D01*
G01X2120500D02*
X2128000Y-2924000D01*
G01X2158000D02*
Y-2864000D01*
X2152000Y-2876000D01*
G01Y-2924000D02*
X2164000D01*
G01X2080000Y-2757000D02*
Y-2800000D01*
X2082000Y-2809000D01*
X2086000Y-2815000D01*
X2091000Y-2817000D01*
X2096000Y-2815000D01*
X2100000Y-2809000D01*
X2102000Y-2800000D01*
Y-2757000D01*
G01X2131000Y-2817000D02*
Y-2757000D01*
X2125000Y-2769000D01*
G01Y-2817000D02*
X2137000D01*
G01X2170000D02*
X2171000Y-2804000D01*
X2172500Y-2793000D01*
X2174500Y-2783000D01*
X2177000Y-2772000D01*
X2181000Y-2757000D01*
X2161000D01*
G01X2065080Y-2630020D02*
X2064490Y-2634230D01*
X2065000Y-2638230D01*
X2067400Y-2641420D01*
X2072510Y-2643210D01*
X2078610Y-2642990D01*
X2084900Y-2641380D01*
X2094090Y-2636960D01*
X2101580Y-2631940D01*
X2108170Y-2625730D01*
X2112060Y-2620920D01*
X2115040Y-2614910D01*
X2116130Y-2609710D01*
X2115620Y-2605710D01*
X2113520Y-2602920D01*
X2109810Y-2601320D01*
X2105610Y-2600730D01*
X2100910Y-2601140D01*
G01X2057340Y-2611440D02*
X2050740Y-2612650D01*
X2046240Y-2611660D01*
X2043030Y-2609070D01*
X2041620Y-2603870D01*
X2043510Y-2598070D01*
X2047700Y-2593660D01*
X2052790Y-2590450D01*
X2057990Y-2589040D01*
X2071990Y-2591000D01*
X2080290Y-2590390D01*
X2090080Y-2586760D01*
X2097870Y-2582150D01*
X2085230Y-2565370D01*
G01X2053240Y-2564440D02*
X2045540Y-2565860D01*
X2040540Y-2565870D01*
X2036530Y-2563880D01*
X2036020Y-2559880D01*
X2037710Y-2555480D01*
X2041300Y-2550270D01*
X2046590Y-2545660D01*
X2051680Y-2542450D01*
X2057680Y-2540430D01*
X2063480Y-2539820D01*
X2067180Y-2541410D01*
X2067990Y-2545810D01*
X2065310Y-2552210D01*
X2059320Y-2559230D01*
X2051640Y-2565650D01*
X2040650Y-2572670D01*
X2034160Y-2575690D01*
X2027070Y-2577900D01*
X2020970Y-2578120D01*
X2018060Y-2575920D01*
X2017550Y-2571920D01*
X2020040Y-2566920D01*
G01X2150780Y1694290D02*
X2151440Y1698480D01*
X2151000Y1702490D01*
X2148650Y1705730D01*
X2143580Y1707600D01*
X2137480Y1707500D01*
X2131150Y1705990D01*
X2121890Y1701730D01*
X2114310Y1696850D01*
X2107620Y1690750D01*
X2103650Y1686010D01*
X2100560Y1680050D01*
X2099380Y1674870D01*
X2099820Y1670870D01*
X2101870Y1668030D01*
X2105550Y1666380D01*
X2109740Y1665710D01*
X2114440Y1666040D01*
G01X2123330Y1638510D02*
X2171870Y1673770D01*
X2158630Y1671570D01*
G01X2119800Y1643360D02*
X2126850Y1633650D01*
G01X2195380Y1641410D02*
X2191410Y1643470D01*
X2185600Y1642960D01*
X2179570Y1641050D01*
X2172220Y1637560D01*
X2164640Y1632680D01*
X2157650Y1626980D01*
X2152060Y1621070D01*
X2148380Y1615920D01*
X2146100Y1610560D01*
X2146840Y1606150D01*
X2150810Y1604080D01*
X2156610Y1604600D01*
X2162640Y1606500D01*
X2170000Y1609990D01*
X2177570Y1614880D01*
X2184560Y1620570D01*
X2190150Y1626490D01*
X2193830Y1631630D01*
X2196110Y1637000D01*
X2195380Y1641410D01*
G01X1918030Y2377140D02*
X1894610Y2341080D01*
X1891390Y2332440D01*
X1891480Y2325230D01*
X1894580Y2320830D01*
X1899860Y2319780D01*
X1906480Y2322640D01*
X1913060Y2329100D01*
X1936480Y2365160D01*
G01X1933160Y2295770D02*
X1965840Y2346090D01*
X1926910Y2320110D01*
X1947870Y2306490D01*
G01X2559000Y-3916000D02*
Y-3856000D01*
X2569000D01*
X2573000Y-3859000D01*
X2576000Y-3863000D01*
X2578500Y-3869000D01*
X2580500Y-3876000D01*
X2581000Y-3886000D01*
X2580500Y-3896000D01*
X2578500Y-3903000D01*
X2576000Y-3909000D01*
X2573000Y-3913000D01*
X2569000Y-3916000D01*
X2559000D01*
G01X2610000D02*
Y-3856000D01*
X2604000Y-3868000D01*
G01Y-3916000D02*
X2616000D01*
G01X2334000Y-3750000D02*
Y-3793000D01*
X2336000Y-3802000D01*
X2340000Y-3808000D01*
X2345000Y-3810000D01*
X2350000Y-3808000D01*
X2354000Y-3802000D01*
X2356000Y-3793000D01*
Y-3750000D01*
G01X2385000Y-3810000D02*
Y-3750000D01*
X2379000Y-3762000D01*
G01Y-3810000D02*
X2391000D01*
G01X2416500Y-3803000D02*
X2420000Y-3808000D01*
X2424000Y-3810000D01*
X2428000Y-3808000D01*
X2431500Y-3802000D01*
X2434000Y-3793000D01*
X2435000Y-3784000D01*
Y-3773000D01*
X2434000Y-3764000D01*
X2431500Y-3756000D01*
X2428500Y-3752000D01*
X2425000Y-3750000D01*
X2421000Y-3752000D01*
X2418000Y-3756000D01*
X2416000Y-3762000D01*
X2415000Y-3770000D01*
X2416000Y-3777000D01*
X2418500Y-3784000D01*
X2421500Y-3788000D01*
X2425000Y-3789000D01*
X2429000Y-3787000D01*
X2432000Y-3782000D01*
X2435000Y-3773000D01*
G01X2561000Y-3328000D02*
X2558000Y-3325000D01*
X2554500Y-3323000D01*
X2550500D01*
X2546000Y-3326000D01*
X2542500Y-3331000D01*
X2540000Y-3337000D01*
X2538000Y-3347000D01*
X2537500Y-3356000D01*
X2538500Y-3365000D01*
X2540000Y-3371000D01*
X2543000Y-3377000D01*
X2546500Y-3381000D01*
X2550000Y-3383000D01*
X2553500D01*
X2557000Y-3381000D01*
X2560000Y-3378000D01*
X2562500Y-3374000D01*
G01X2579000Y-3371000D02*
X2582000Y-3378000D01*
X2586000Y-3382000D01*
X2590500Y-3383000D01*
X2594500Y-3382000D01*
X2598500Y-3377000D01*
X2601000Y-3371000D01*
X2601500Y-3365000D01*
X2600500Y-3358000D01*
X2597000Y-3353000D01*
X2593500Y-3351000D01*
X2589000D01*
G01X2593500D02*
X2596500Y-3348000D01*
X2599000Y-3343000D01*
X2600000Y-3337000D01*
X2599000Y-3331000D01*
X2596500Y-3326000D01*
X2592000Y-3323000D01*
X2587500Y-3324000D01*
X2583000Y-3328000D01*
G01X2636000Y-3383000D02*
Y-3323000D01*
X2617500Y-3366000D01*
X2642500D01*
G01X2643190Y-2033500D02*
X2608400Y-2008230D01*
X2599940Y-2004560D01*
X2592740Y-2004270D01*
X2588180Y-2007130D01*
X2586860Y-2012360D01*
X2589360Y-2019120D01*
X2595470Y-2026030D01*
X2630260Y-2051300D01*
G01X2564670Y-2039490D02*
X2613210Y-2074760D01*
X2607030Y-2062860D01*
G01X2568200Y-2034640D02*
X2561150Y-2044350D01*
G01X2587200Y-2093560D02*
X2590290Y-2099510D01*
X2590660Y-2104110D01*
X2589120Y-2107930D01*
X2584560Y-2110800D01*
X2578460Y-2110690D01*
X2573020Y-2107980D01*
X2568450Y-2104040D01*
X2565590Y-2099490D01*
X2563370Y-2085520D01*
X2560350Y-2077760D01*
X2554030Y-2069460D01*
X2547330Y-2063360D01*
X2534990Y-2080350D01*
G01X2427140Y-1309840D02*
X2431320Y-1309110D01*
X2434960Y-1307390D01*
X2437260Y-1304110D01*
X2437380Y-1298700D01*
X2435290Y-1292970D01*
X2431810Y-1287480D01*
X2424770Y-1280110D01*
X2417680Y-1274530D01*
X2409740Y-1270190D01*
X2403960Y-1267980D01*
X2397330Y-1266990D01*
X2392040Y-1267570D01*
X2388400Y-1269290D01*
X2386390Y-1272150D01*
X2386020Y-1276170D01*
X2386760Y-1280350D01*
X2388600Y-1284690D01*
G01X2411860Y-1322950D02*
X2415060Y-1328850D01*
X2415510Y-1333440D01*
X2414030Y-1337290D01*
X2409530Y-1340240D01*
X2403420D01*
X2397930Y-1337620D01*
X2393300Y-1333760D01*
X2390360Y-1329260D01*
X2387900Y-1315330D01*
X2384750Y-1307630D01*
X2378280Y-1299440D01*
X2371480Y-1293460D01*
X2359430Y-1310660D01*
G01X2342520Y-1334830D02*
X2391670Y-1369240D01*
X2385280Y-1357440D01*
G01X2345960Y-1329910D02*
X2339080Y-1339740D01*
G01X2654700Y-679600D02*
X2658480Y-677680D01*
X2661470Y-674970D01*
X2662700Y-671160D01*
X2661240Y-665950D01*
X2657570Y-661080D01*
X2652630Y-656850D01*
X2643740Y-651860D01*
X2635340Y-648600D01*
X2626470Y-646770D01*
X2620300Y-646340D01*
X2613660Y-647340D01*
X2608780Y-649440D01*
X2605790Y-652150D01*
X2604710Y-655470D01*
X2605530Y-659420D01*
X2607460Y-663200D01*
X2610490Y-666820D01*
G01X2593430Y-690190D02*
X2650500Y-708730D01*
X2640940Y-699310D01*
G01X2595290Y-684480D02*
X2591580Y-695890D01*
G01X2581380Y-727270D02*
X2593440Y-732240D01*
X2603440Y-737070D01*
X2612330Y-742060D01*
X2622020Y-747840D01*
X2635050Y-756280D01*
X2641230Y-737260D01*
G01X2493870Y1131250D02*
X2495330Y1135240D01*
X2495660Y1139250D01*
X2493970Y1142880D01*
X2489350Y1145690D01*
X2483340Y1146750D01*
X2476840Y1146480D01*
X2466930Y1144070D01*
X2458570Y1140720D01*
X2450830Y1136000D01*
X2446030Y1132110D01*
X2441860Y1126850D01*
X2439710Y1121990D01*
X2439380Y1117980D01*
X2440860Y1114800D01*
X2444150Y1112480D01*
X2448140Y1111020D01*
X2452820Y1110450D01*
G01X2456280Y1081730D02*
X2510660Y1107080D01*
X2497250Y1107450D01*
G01X2453740Y1087160D02*
X2458810Y1076290D01*
G01X2475720Y1040040D02*
X2530090Y1065390D01*
X2483300Y1063990D01*
X2493870Y1041330D01*
G01X2621330Y2043430D02*
X2625540Y2042840D01*
X2629540Y2043350D01*
X2632730Y2045750D01*
X2634520Y2050860D01*
X2634300Y2056960D01*
X2632690Y2063250D01*
X2628270Y2072440D01*
X2623250Y2079930D01*
X2617040Y2086520D01*
X2612230Y2090410D01*
X2606220Y2093390D01*
X2601020Y2094480D01*
X2597020Y2093970D01*
X2594230Y2091870D01*
X2592630Y2088160D01*
X2592040Y2083960D01*
X2592450Y2079260D01*
G01X2576070Y2069430D02*
X2570270Y2071320D01*
X2565870Y2070500D01*
X2563880Y2066500D01*
X2564690Y2059600D01*
X2568110Y2050910D01*
X2572730Y2043120D01*
X2579350Y2034340D01*
X2585570Y2027750D01*
X2592380Y2022870D01*
X2597180Y2021480D01*
X2601180Y2021980D01*
X2603170Y2025990D01*
X2603160Y2030990D01*
X2601150Y2036980D01*
X2597130Y2043980D01*
X2592120Y2048960D01*
X2585910Y2053050D01*
X2581100Y2054440D01*
X2577710Y2053130D01*
X2575720Y2049130D01*
X2576330Y2043330D01*
X2579350Y2034340D01*
G01X2823000Y-3915000D02*
Y-3855000D01*
X2833000D01*
X2837000Y-3858000D01*
X2840000Y-3862000D01*
X2842500Y-3868000D01*
X2844500Y-3875000D01*
X2845000Y-3885000D01*
X2844500Y-3895000D01*
X2842500Y-3902000D01*
X2840000Y-3908000D01*
X2837000Y-3912000D01*
X2833000Y-3915000D01*
X2823000D01*
G01X2864500Y-3865000D02*
X2867500Y-3859000D01*
X2871000Y-3856000D01*
X2875000Y-3855000D01*
X2880000Y-3857000D01*
X2883500Y-3862000D01*
X2884500Y-3868000D01*
X2884000Y-3874000D01*
X2882000Y-3879000D01*
X2872000Y-3889000D01*
X2867500Y-3896000D01*
X2864500Y-3906000D01*
X2863500Y-3915000D01*
X2884500D01*
G01X2840000Y-2904000D02*
X2780000D01*
Y-2891500D01*
X2783000Y-2887500D01*
X2787000Y-2885000D01*
X2795000Y-2884000D01*
X2803000Y-2885000D01*
X2808000Y-2888000D01*
X2811000Y-2891500D01*
Y-2904000D01*
G01Y-2891500D02*
X2840000Y-2884000D01*
G01Y-2848000D02*
X2780000D01*
X2823000Y-2866500D01*
Y-2841500D01*
G01X2703000Y-2906000D02*
X2643000D01*
Y-2893500D01*
X2646000Y-2889500D01*
X2650000Y-2887000D01*
X2658000Y-2886000D01*
X2666000Y-2887000D01*
X2671000Y-2890000D01*
X2674000Y-2893500D01*
Y-2906000D01*
G01Y-2893500D02*
X2703000Y-2886000D01*
G01X2691000Y-2867000D02*
X2698000Y-2864000D01*
X2702000Y-2860000D01*
X2703000Y-2855500D01*
X2702000Y-2851500D01*
X2697000Y-2847500D01*
X2691000Y-2845000D01*
X2685000Y-2844500D01*
X2678000Y-2845500D01*
X2673000Y-2849000D01*
X2671000Y-2852500D01*
Y-2857000D01*
G01Y-2852500D02*
X2668000Y-2849500D01*
X2663000Y-2847000D01*
X2657000Y-2846000D01*
X2651000Y-2847000D01*
X2646000Y-2849500D01*
X2643000Y-2854000D01*
X2644000Y-2858500D01*
X2648000Y-2863000D01*
G01X2910160Y-1640140D02*
X2910890Y-1644320D01*
X2912610Y-1647960D01*
X2915890Y-1650260D01*
X2921300Y-1650380D01*
X2927030Y-1648290D01*
X2932520Y-1644810D01*
X2939890Y-1637770D01*
X2945470Y-1630680D01*
X2949810Y-1622740D01*
X2952020Y-1616960D01*
X2953010Y-1610330D01*
X2952430Y-1605040D01*
X2950710Y-1601400D01*
X2947850Y-1599390D01*
X2943830Y-1599020D01*
X2939650Y-1599760D01*
X2935310Y-1601600D01*
G01X2897050Y-1624860D02*
X2891150Y-1628060D01*
X2886560Y-1628510D01*
X2882710Y-1627030D01*
X2879760Y-1622530D01*
Y-1616420D01*
X2882380Y-1610930D01*
X2886240Y-1606300D01*
X2890740Y-1603360D01*
X2904670Y-1600900D01*
X2912370Y-1597750D01*
X2920560Y-1591280D01*
X2926540Y-1584480D01*
X2909340Y-1572430D01*
G01X2864280Y-1601920D02*
X2858380Y-1605120D01*
X2853790Y-1605570D01*
X2849940Y-1604090D01*
X2846990Y-1599590D01*
Y-1593480D01*
X2849610Y-1587990D01*
X2853470Y-1583360D01*
X2857970Y-1580420D01*
X2871900Y-1577960D01*
X2879600Y-1574810D01*
X2887790Y-1568340D01*
X2893770Y-1561540D01*
X2876570Y-1549490D01*
G01X2726660Y-1249150D02*
X2687080Y-1232340D01*
X2678010Y-1230670D01*
X2670920Y-1232010D01*
X2667130Y-1235830D01*
X2667020Y-1241210D01*
X2670970Y-1247240D01*
X2678480Y-1252600D01*
X2718060Y-1269400D01*
G01X2651500Y-1272650D02*
X2706730Y-1296090D01*
X2698030Y-1285880D01*
G01X2653840Y-1267120D02*
X2649150Y-1278170D01*
G01X2691100Y-1332910D02*
X2690820Y-1328450D01*
X2687390Y-1323730D01*
X2682650Y-1319550D01*
X2675870Y-1315040D01*
X2667780Y-1311060D01*
X2659300Y-1308010D01*
X2651350Y-1306260D01*
X2645050Y-1305760D01*
X2639270Y-1306570D01*
X2635870Y-1309470D01*
X2636150Y-1313930D01*
X2639580Y-1318650D01*
X2644320Y-1322830D01*
X2651100Y-1327340D01*
X2659190Y-1331310D01*
X2667670Y-1334370D01*
X2675620Y-1336120D01*
X2681920Y-1336620D01*
X2687700Y-1335810D01*
X2691100Y-1332910D01*
G01X2965800Y780700D02*
X2925390Y766000D01*
X2917620Y761040D01*
X2913350Y755230D01*
X2913180Y749850D01*
X2916770Y745830D01*
X2923770Y744120D01*
X2932920Y745320D01*
X2973320Y760030D01*
G01X2926860Y712260D02*
X2929000Y709310D01*
X2933180Y706570D01*
X2938740Y705940D01*
X2945660Y707390D01*
X2951890Y710720D01*
X2956500Y715600D01*
X2957790Y720850D01*
X2956080Y725550D01*
X2956930Y729050D01*
X2960770Y733110D01*
X2967010Y736440D01*
X2974100Y737430D01*
X2979990Y735850D01*
X2983240Y732780D01*
X2982730Y728330D01*
X2979230Y723330D01*
X2973160Y719530D01*
X2966240Y718080D01*
X2960690Y718710D01*
X2957790Y720850D01*
X2956080Y725550D01*
X2951720Y728750D01*
X2945050Y729520D01*
X2938130Y728060D01*
X2931900Y724730D01*
X2928050Y720670D01*
X2926600Y715890D01*
X2926860Y712260D01*
G01X2663000Y1455400D02*
X2626540Y1432620D01*
X2619960Y1426150D01*
X2616990Y1419580D01*
X2617950Y1414280D01*
X2622290Y1411100D01*
X2629500Y1410880D01*
X2638190Y1413960D01*
X2674660Y1436750D01*
G01X2655310Y1401660D02*
X2663110Y1402410D01*
X2668090Y1401980D01*
X2671900Y1399650D01*
X2672060Y1395620D01*
X2670000Y1391380D01*
X2665970Y1386500D01*
X2660300Y1382370D01*
X2654940Y1379610D01*
X2648790Y1378130D01*
X2642960Y1378030D01*
X2639410Y1379930D01*
X2638990Y1384390D01*
X2642220Y1390530D01*
X2648800Y1397000D01*
X2657010Y1402720D01*
X2668570Y1408760D01*
X2675300Y1411200D01*
X2682560Y1412790D01*
X2688650Y1412470D01*
X2691360Y1410030D01*
X2691520Y1406010D01*
X2688600Y1401240D01*
G01X3158610Y-1029270D02*
X3160200Y-1033200D01*
X3162640Y-1036410D01*
X3166320Y-1037970D01*
X3171630Y-1036970D01*
X3176810Y-1033740D01*
X3181450Y-1029190D01*
X3187200Y-1020770D01*
X3191180Y-1012680D01*
X3193770Y-1004000D01*
X3194740Y-997890D01*
X3194320Y-991200D01*
X3192660Y-986150D01*
X3190220Y-982940D01*
X3187000Y-981570D01*
X3183000Y-982040D01*
X3179060Y-983630D01*
X3175200Y-986340D01*
G01X3153400Y-967310D02*
X3129960Y-1022540D01*
X3140170Y-1013840D01*
G01X3158930Y-969650D02*
X3147880Y-964960D01*
G01X3116580Y-951680D02*
X3112970Y-951230D01*
X3108120Y-952430D01*
X3103860Y-956050D01*
X3100210Y-962110D01*
X3098390Y-968940D01*
X3098810Y-975640D01*
X3101780Y-980160D01*
X3106380Y-982110D01*
X3108360Y-985130D01*
X3108710Y-990700D01*
X3106890Y-997540D01*
X3102780Y-1003400D01*
X3097600Y-1006630D01*
X3093140Y-1006910D01*
X3090240Y-1003510D01*
X3088970Y-997540D01*
X3090320Y-990500D01*
X3093980Y-984450D01*
X3098230Y-980830D01*
X3101780Y-980160D01*
X3106380Y-982110D01*
X3111690Y-981110D01*
X3116800Y-976760D01*
X3120460Y-970710D01*
X3122270Y-963870D01*
X3121920Y-958290D01*
X3119410Y-953970D01*
X3116580Y-951680D01*
G01X3232000Y-662000D02*
X3234500Y-668000D01*
X3237500Y-672000D01*
X3241000Y-674000D01*
X3245000Y-672000D01*
X3248000Y-668000D01*
X3251000Y-662000D01*
X3252000Y-654000D01*
Y-614000D01*
G01X3288000Y-674000D02*
Y-614000D01*
X3269500Y-657000D01*
X3294500D01*
G01X3216000Y575000D02*
X3218500Y569000D01*
X3221500Y565000D01*
X3225000Y563000D01*
X3229000Y565000D01*
X3232000Y569000D01*
X3235000Y575000D01*
X3236000Y583000D01*
Y623000D01*
G01X3255000Y575000D02*
X3258000Y568000D01*
X3262000Y564000D01*
X3266500Y563000D01*
X3270500Y564000D01*
X3274500Y569000D01*
X3277000Y575000D01*
X3277500Y581000D01*
X3276500Y588000D01*
X3273000Y593000D01*
X3269500Y595000D01*
X3265000D01*
G01X3269500D02*
X3272500Y598000D01*
X3275000Y603000D01*
X3276000Y609000D01*
X3275000Y615000D01*
X3272500Y620000D01*
X3268000Y623000D01*
X3263500Y622000D01*
X3259000Y618000D01*
G01X3051380Y1373430D02*
X3055220Y1371630D01*
X3059200Y1370950D01*
X3062960Y1372320D01*
X3066160Y1376680D01*
X3067740Y1382570D01*
X3068030Y1389060D01*
X3066490Y1399150D01*
X3063890Y1407770D01*
X3059870Y1415890D01*
X3056410Y1421010D01*
X3051530Y1425630D01*
X3046880Y1428190D01*
X3042910Y1428870D01*
X3039620Y1427670D01*
X3037010Y1424600D01*
X3035220Y1420750D01*
X3034240Y1416140D01*
G01X3005320Y1415190D02*
X3025840Y1358810D01*
X3027370Y1372140D01*
G01X3010950Y1417240D02*
X2999680Y1413140D01*
G01X2982170Y1394000D02*
X2976950Y1399550D01*
X2971830Y1401940D01*
X2967250Y1401340D01*
X2963840Y1399030D01*
X2961790Y1392970D01*
X2961490Y1386470D01*
X2963070Y1380660D01*
X2966410Y1374430D01*
X2971410Y1370930D01*
X2975380Y1370240D01*
X2979610Y1371780D01*
G01X2975380Y1370240D02*
X2973590Y1366400D01*
X2972950Y1360840D01*
X2974060Y1354860D01*
X2977050Y1349570D01*
X2981110Y1345730D01*
X2986370Y1344440D01*
X2990250Y1346920D01*
X2993110Y1352220D01*
G54D13*
G01X-294900Y-4945600D02*
X-375500D01*
Y-4864900D01*
G01X-294800Y-4195600D02*
X-375000D01*
Y-4270620D01*
G01X443400Y-5185310D02*
Y-5301320D01*
G01X714170Y-5279300D02*
Y-5383000D01*
X443400D01*
Y-5373320D01*
G01X267000Y-5127000D02*
X343000D01*
Y-5173000D01*
X252000D01*
Y-5127000D01*
X267000D01*
G01X714170Y-5203640D02*
Y-5100000D01*
X443400D01*
Y-5112160D01*
G01X375200Y-4865600D02*
X374700D01*
Y-4944700D01*
X296500D01*
G01X292700Y-4195200D02*
X374300D01*
Y-4277800D01*
G01X517000Y-5017000D02*
X593000D01*
Y-5063000D01*
X502000D01*
Y-5017000D01*
X517000D01*
G01X898000Y-5086000D02*
X956000D01*
G01X955000Y-5110000D02*
X898000D01*
X926000Y-5086000D01*
X955000Y-5110000D01*
G01X926000Y-5075000D02*
Y-5122000D01*
G01X977000Y-4637000D02*
X1053000D01*
Y-4683000D01*
X962000D01*
Y-4637000D01*
X977000D01*
G01Y-4577000D02*
X1053000D01*
Y-4623000D01*
X962000D01*
Y-4577000D01*
X977000D01*
G54D14*
G01X2500000Y0D02*
G03I-2500000J0D01*
M02*
