M48
METRIC,TZ
T01C.2
T02C.7
T03C1.
T04C1.1
T05C1.2
T06C2.2
;LEADER: 12 
;HEADER: 
;CODE  : ASCII 
;FILE  : TMR_Tiny_May-15-1-6.drl for board D:/TinyTMR/FrontendTMR/PCB/#Taaaarl03676.tmp ... layers TOP and BOTTOM
;T01 Holesize 1. = 0.200000 Tolerance = +0.000000/-0.000000 PLATED MM Quantity = 377
;T02 Holesize 2. = 0.700000 Tolerance = +0.000000/-0.000000 PLATED MM Quantity = 16
;T03 Holesize 3. = 1.000000 Tolerance = +0.000000/-0.000000 PLATED MM Quantity = 2
;T04 Holesize 4. = 1.100000 Tolerance = +0.000000/-0.000000 PLATED MM Quantity = 16
;T05 Holesize 5. = 1.200000 Tolerance = +0.000000/-0.000000 PLATED MM Quantity = 5
;T06 Holesize 6. = 2.200000 Tolerance = +0.000000/-0.000000 NON_PLATED MM Quantity = 8
%
G90
T01
X1060000Y-5370000
X980000
X760000Y-5360000
X670000
X-160000
X-2293400Y-5356600
X-2770000Y-5320000
X-2670000
X-2400000Y-5289100
X-1830000Y-5300000
X-1650000Y-5220000
X-1590000Y-4810300
X-1550000Y-4900000
Y-4710000
X-1520000Y-4810000
X-1410000Y-4790000
X-1382700Y-4855000
X-1340000Y-5070000
X-1270000Y-5310000
X-1240000Y-4805000
X-1237700Y-4955000
X-1180000Y-4930000
Y-4830000
X-1155000Y-4765000
X-1130000Y-5310000
Y-4990000
Y-4880000
X-1080000Y-4930000
Y-4830000
X-1030000Y-4760000
X-990000Y-5220000
X-920000Y-5080000
X-870000Y-4855000
X-830000Y-5280000
X-810000Y-4890000
X-790000Y-5220000
X-730000Y-4810000
X-710000Y-4710000
X-690000Y-4900000
X-660000Y-4810000
X-488300Y-5280000
X-420000Y-4845200
X-380000Y-5070000
X-340000Y-4920000
X-310000Y-5290000
X-230000Y-5320000
X-120000Y-4720000
Y-4640000
X-110000Y-5250000
X-60000Y-5330000
X-24800Y-5000000
X0Y-4720000
X0Y-4640000
X80000Y-5240000
X120000Y-4720000
Y-4640000
X175200Y-4992700
X270000Y-5020000
X350000Y-4920000
X422700Y-4646400
X500000Y-4596400
X582000Y-4955700
X622700Y-5150000
X660000Y-4893000
X687300Y-4796000
X780000Y-4878700
X890000Y-4680000
Y-4620000
X1080000Y-4996000
Y-4660000
X1090000Y-4890000
X1180000Y-5117300
X1307000Y-5113000
Y-4802700
X1385600Y-4960000
X1434000Y-5117300
Y-4802700
X1561000Y-4809000
X1640000Y-5300000
Y-5210000
X1790000Y-4587300
X2790000Y-4150000
X2720000Y-3870000
X2640000Y-4150000
X2530000Y-3910000
Y-4000000
X2340000Y-4010000
X2338170Y-4080000
X2310000Y-3930000
X2232700Y-4290000
X2220000Y-3940000
X2171830Y-4080000
X2170000Y-4010000
X1940000Y-3870000
X1910000Y-4230000
X1820000Y-4410000
X1530000Y-4337300
X1435000
Y-4530000
X1430000Y-4180000
X1340000Y-4337300
X1180000Y-4530000
X1034400Y-4552300
X1010000Y-4160000
X926700Y-3960000
Y-4500000
X890000Y-4567300
X840000Y-4170000
Y-4270000
X829000Y-4071700
X780000Y-4220000
X720000Y-4170000
Y-4270000
X610000Y-4470000
X580000Y-3870000
X533000Y-4496400
X510000Y-3820000
X501000Y-4396400
X422700Y-4446400
Y-4546400
X280000Y-3900000
X174600Y-4077600
X124600Y-4143000
X120000Y-4400000
Y-4480000
Y-4560000
X88000Y-4065000
X0Y-4400000
X0Y-4480000
X0Y-4560000
X-120000Y-4400000
R02Y-80000
X-250000Y-3850000
Y-3950000
X-350000Y-4220000
X-430000Y-4495200
X-440000Y-4395200
X-480000Y-4545200
X-530000Y-4400000
X-650000Y-4310000
X-680000Y-3860000
X-710000Y-4310000
X-770000
X-830000Y-4420000
X-872300Y-3825000
X-870000Y-4330000
X-920000Y-4040000
X-990000Y-4180000
X-1060000Y-4350000
X-1080000Y-3900000
X-1130000Y-3850000
Y-3960000
Y-4280000
Y-4350000
Y-4430000
X-1180000Y-3900000
X-1199000Y-4350000
X-1270000Y-4280000
X-1340000Y-4040000
X-1390000Y-3825000
X-1430000Y-4420000
X-1492700Y-4310000
X-1550000Y-3860000
X-1560000Y-4310000
X-1590000Y-4230000
X-1620000Y-4310000
X-1670000Y-4140000
X-1800000
X-1860000Y-4252700
X-1870000Y-4140000
Y-4370000
Y-4437300
X-1900000Y-4310000
X-1940000Y-4140000
X-1950000Y-4370000
Y-4437300
X-1980000Y-3850000
X-2020000Y-4142700
X-2040000Y-4030000
X-2090000Y-4142700
X-2230000Y-4280000
X-2290000Y-4130000
X-2366300Y-3904560
X-2560000Y-4050000
X-2630400Y-4250900
X-2780000Y-4120000
X-2822800Y-4250900
X-2860000Y-4030000
X-2870000Y-3730000
X-2270000Y-3770000
Y-3670000
X-2220000Y-3720000
X-2170000Y-3770000
Y-3670000
X-1980000Y-3710000
X-1920000Y-3600000
X-1860000Y-3570000
X-1800000Y-3600000
X-1600000Y-3760000
X-1550000Y-3650000
X-1530000Y-3760000
X-1430000Y-3390000
Y-3320000
X-1410000Y-3760000
X-1339500Y-3320000
X-1240000Y-3775000
X-1180000Y-3800000
X-1130000Y-3740000
Y-3401000
X-1080000Y-3800000
X-1030000Y-3740000
X-976000Y-3230000
X-930000Y-3330000
X-820000Y-3390000
X-807970Y-3792030
X-710000Y-3760000
X-700000Y-3650000
X-649530Y-3209890
X-640000Y-3760000
X-453850Y-3343000
X-390000Y-3580000
X-312700
X-301000Y-3362000
X-50000Y-3650000
X50000
X280000Y-3800000
X380000Y-3660000
X464680Y-3340000
X504000Y-3513000
X510000Y-3750000
X585000Y-3567000
X599130Y-3502130
X634690Y-3210000
X648000Y-3453000
X685000Y-3506000
X704000Y-3414000
X752700Y-3760000
X847300
X867730Y-3260080
X1009000Y-3220000
X1030000Y-3665000
X1138130Y-3069960
X1220000Y-3530000
X1248840Y-3374120
X1360000Y-3600000
X1490000Y-3530000
X1640000Y-3720000
Y-3640000
Y-3550000
X1980000Y-3690000
X2060000Y-3722700
X2140000
X2305100Y-3130000
X2435100
X2470000Y-3640000
Y-3565000
Y-3410000
X2580000Y-3647300
X2620000Y-3250000
X2675000Y-3370000
X2770000Y-3647300
Y-3552700
X2792820Y-3337180
X2305100Y-2732000
X2155000Y-2597000
X2064070Y-2669950
X1846000Y-2705000
X1739760Y-2892140
X1395000Y-2340430
X1238000Y-3034000
X1129000Y-2480000
X989000Y-2432000
X521830Y-2570000
X351830Y-2700000
X-514330Y-2573940
X-719880Y-2627030
X-1582000Y-2981000
X-1737310Y-2892770
X-1837070Y-2710960
X-2050100Y-2680940
X-2190000Y-2890000
X-2260000
X-2340000
X-2400000Y-2970000
X-2420000Y-2890000
X-2905740Y-1717000
X-2718000Y-1824000
X-2689340Y-2036860
X-2603000Y-2149000
X-1668000Y-2155010
X-1454480Y-2184390
X1501210Y-2151880
X2192140Y-1619000
X2717980Y-2001040
X2743860Y-1785000
X2918900Y-1692160
X2983000Y-1578000
X3280000Y-811000
X3243960Y-938100
X3112880Y-1305300
X3089930Y-1089150
X2513780Y-1051000
X2487770Y-833560
X2219000Y-1403670
X-2167970Y-1480040
X-2355070Y-1372910
X-2454070Y-926780
X-2609900Y-781290
X-3039000Y-1471000
X-3067050Y-1149880
X-3097170Y-1344520
X-3224060Y-1004840
X-3340000Y-500000
X-3261000Y-300000
X-2707000
X-2576000Y-500000
X2608000Y-300000
X2678000Y-500000
X3262000Y-300000
X3339000Y-500000
X3348000Y435000
X3268000Y235000
X2689000Y435000
X2615000Y235000
X-2586000Y435000
X-2714000Y235000
X-3266000
X-3299000Y718000
X-3346000Y435000
X-3263960Y860140
X-3154100Y1205720
X-3119000Y994540
X-2530920Y1003240
X-2501080Y793760
X-2187820Y1454260
X2164000Y1484670
X2349610Y1376610
X2456900Y920250
X2613050Y774890
X3034000Y1477000
X3068980Y1143040
X3093080Y1348760
X3225120Y997680
X2903970Y1723030
X2716900Y1830180
X2685810Y2046240
X2605000Y2148000
X1642610Y2175600
X1432690Y2201190
X-1480180Y2170880
X-2154880Y1665180
X-2682570Y2048570
X-2713090Y1835890
X-2904160Y1719720
X-2979000Y1587000
X-2169000Y2587000
X-2036730Y2692190
X-1833370Y2714770
X-1727370Y2900410
X-1373890Y2356080
X-555000Y2564990
X-385720Y2699060
X481580Y2580080
X687720Y2636050
X1552000Y2998000
X1687530Y2923290
X1785880Y2745080
X1998050Y2722960
X823340Y3274000
X616550Y3215000
X448340Y3345090
X297000Y3361000
X-498550Y3338900
X-668000Y3205770
X-877730Y3259080
X-1046000Y3209000
T02
X-2722000Y-4580000
Y-4834000
X-2468000
Y-4580000
X-2214000
Y-4834000
X-1960000
Y-4580000
X1968000
Y-4834000
X2222000
Y-4580000
X2476000
Y-4834000
X2730000
Y-4580000
T03
X2450000Y-4330000
X2750000
T04
X-2890000Y435000
X-3090000
X-2890000Y235000
X-3090000
X-2890000Y-300000
X-3090000
X-2890000Y-500000
X-3090000
X2870000
X3070000
X2870000Y-300000
X3070000
X2870000Y235000
X3070000
X2870000Y435000
X3070000
T05
X-2720000Y-2460000
X-2680000Y-2770000
Y-3530000
X-1800000Y-3180000
X2310000Y-5230000
T06
X2120000Y-2120000
X0Y-3000000
X-2120000Y-2120000
Y2120000
X-1150000Y2770000
X0Y3000000
X1150000Y2770000
X2120000Y2120000
M30
