G04 ================== begin FILE IDENTIFICATION RECORD ==================*
G04 Layout Name:  D:/TinyTMR/FrontendTMR/PCB/TMR_Tiny_May-15-Copy.brd*
G04 Film Name:    VCC*
G04 File Format:  Gerber RS274X*
G04 File Origin:  Cadence Allegro 25.1-S020*
G04 Origin Date:  Fri May 15 10:26:34 2026*
G04 *
G04 Layer:  VIA CLASS/SIG-3*
G04 Layer:  PIN/SIG-3*
G04 Layer:  ETCH/SIG-3*
G04 Layer:  BOARD GEOMETRY/WB_GUIDE_LINE*
G04 *
G04 Offset:    (0.0000 0.0000)*
G04 Mirror:    No*
G04 Mode:      Positive*
G04 Rotation:  0*
G04 FullContactRelief:  No*
G04 UndefLineWidth:     0.2540*
G04 ================== end FILE IDENTIFICATION RECORD ====================*
%FSLAX25Y25*MOMM*%
%IR0*IPPOS*OFA0.00000B0.00000*MIA0B0*SFA1.00000B1.00000*%
%ADD10C,.4*%
%ADD12C,1.*%
%ADD14C,2.3*%
%ADD11C,1.5*%
%ADD13C,1.8*%
%ADD15C,.1*%
%ADD16C,.2*%
%ADD17C,.3*%
%ADD18C,.18*%
%ADD19C,.127*%
%ADD20C,.254*%
G75*
%LPD*%
G75*
G36*
G01X-3394060Y-201000D02*
X-3343970D01*
G03X0Y-3350000I3343970J201006D01*
G03X3343660Y-206000I0J3350000D01*
G01X3393750D01*
G02X0Y-3400000I-3393750J205996D01*
G02X-3394060Y-201000I0J3400007D01*
G37*
G36*
G01X-3394290Y197000D02*
G02X0Y3400000I3394290J-197002D01*
G02X3394290Y197000I0J-3400002D01*
G01X3344200D01*
G03X0Y3350000I-3344200J-196997D01*
G03X-3344200Y197000I0J-3349997D01*
G01X-3394290D01*
G37*
G36*
G01X-3293880Y-201000D02*
X-3243780D01*
G03X0Y-3250000I3243780J201002D01*
G03X3243460Y-206000I0J3249995D01*
G01X3293570D01*
G02X0Y-3300000I-3293570J206006D01*
G02X-3293880Y-201000I0J3300007D01*
G37*
G36*
G01X-3294120Y197000D02*
G02X0Y3300000I3294120J-197006D01*
G02X3294110Y197000I0J-3299995D01*
G01X3244020D01*
G03X0Y3250000I-3244020J-196996D01*
G03X-3244030Y197000I0J-3250006D01*
G01X-3294120D01*
G37*
G36*
G01X-2742640Y-201000D02*
X-2692500D01*
G03X0Y-2700000I2692500J200991D01*
G03X2692130Y-206000I0J2700000D01*
G01X2742280D01*
G02X0Y-2750000I-2742280J206007D01*
G02X-2742640Y-201000I0J2749995D01*
G37*
G36*
G01X-2742930Y197000D02*
G02X0Y2750000I2742930J-196995D01*
G02X2742930Y197000I0J-2749995D01*
G01X2692800D01*
G03X0Y2700000I-2692800J-196996D01*
G03X-2692800Y197000I0J-2699996D01*
G01X-2742930D01*
G37*
G36*
G01X-2642360Y-201000D02*
X-2592220D01*
G03X0Y-2600000I2592220J201001D01*
G03X2591820Y-206000I0J2599993D01*
G01X2641980D01*
G02X0Y-2650000I-2641980J205999D01*
G02X-2642360Y-201000I0J2649993D01*
G37*
G36*
G01X-2642670Y197000D02*
G02X0Y2650000I2642670J-197003D01*
G02X2642670Y197000I0J-2650003D01*
G01X2592530D01*
G03X0Y2600000I-2592530J-197004D01*
G03X-2592530Y197000I0J-2600004D01*
G01X-2642670D01*
G37*
G54D10*
G01X1248840Y-3374120D02*
X1145880D01*
G03X1090000Y-3430000I0J-55880D01*
G01Y-3509360D01*
G03X1132880Y-3612880I146398J0D01*
G01X1180000Y-3660000D01*
G02Y-3790000I-65000J-65000D01*
G01X1037330Y-3932670D01*
G02X971350Y-3960000I-65980J65979D01*
G01X926700D01*
G01X2470000Y-3410000D02*
Y-3320000D01*
G03X2420000Y-3270000I-50000J0D01*
G01X2345100D01*
G02X2305100Y-3230000I0J40000D01*
G01Y-3130000D01*
X-3340000Y-500000D03*
X-3346000Y435000D03*
X-3039000Y-1471000D03*
X-3067050Y-1149880D03*
X-3097170Y-1344520D03*
X-3224060Y-1004840D03*
X-3261000Y-300000D03*
X-3266000Y235000D03*
X-3299000Y718000D03*
X-3263960Y860140D03*
X-3119000Y994540D03*
X-3154100Y1205720D03*
X-2770000Y-5320000D03*
X-2670000D03*
X-2822800Y-4250900D03*
X-2860000Y-4030000D03*
X-2780000Y-4120000D03*
X-2870000Y-3730000D03*
X-2718000Y-1824000D03*
X-2689340Y-2036860D03*
X-2905740Y-1717000D03*
X-2707000Y-300000D03*
X-2714000Y235000D03*
X-2979000Y1587000D03*
X-2904160Y1719720D03*
X-2682570Y2048570D03*
X-2713090Y1835890D03*
X-2400000Y-5289100D03*
X-2293400Y-5356600D03*
X-2630400Y-4250900D03*
X-2290000Y-4130000D03*
X-2560000Y-4050000D03*
X-2366300Y-3904560D03*
X-2340000Y-2890000D03*
X-2420000D03*
X-2400000Y-2970000D03*
X-2603000Y-2149000D03*
X-2355070Y-1372910D03*
X-2454070Y-926780D03*
X-2609900Y-781290D03*
X-2576000Y-500000D03*
X-2586000Y435000D03*
X-2530920Y1003240D03*
X-2501080Y793760D03*
X-2230000Y-4280000D03*
X-1950000Y-4370000D03*
Y-4437300D03*
X-2090000Y-4142700D03*
X-2020000D03*
X-1940000Y-4140000D03*
X-2040000Y-4030000D03*
X-2220000Y-3720000D03*
X-2270000Y-3670000D03*
X-2170000D03*
X-2270000Y-3770000D03*
X-2170000D03*
X-1980000Y-3710000D03*
Y-3850000D03*
X-2190000Y-2890000D03*
X-2260000D03*
X-2050100Y-2680940D03*
X-2167970Y-1480040D03*
X-2154880Y1665180D03*
X-2187820Y1454260D03*
X-2169000Y2587000D03*
X-2036730Y2692190D03*
X-1830000Y-5300000D03*
X-1650000Y-5220000D03*
X-1620000Y-4310000D03*
X-1900000D03*
X-1860000Y-4252700D03*
X-1870000Y-4370000D03*
Y-4437300D03*
X-1670000Y-4140000D03*
X-1870000D03*
X-1800000D03*
X-1920000Y-3600000D03*
X-1860000Y-3570000D03*
X-1800000Y-3600000D03*
X-1600000Y-3760000D03*
X-1737310Y-2892770D03*
X-1837070Y-2710960D03*
X-1668000Y-2155010D03*
X-1833370Y2714770D03*
X-1727370Y2900410D03*
X-1270000Y-5310000D03*
X-1550000Y-4900000D03*
X-1340000Y-5070000D03*
X-1382700Y-4855000D03*
X-1410000Y-4790000D03*
X-1550000Y-4710000D03*
X-1520000Y-4810000D03*
X-1590000Y-4810300D03*
X-1270000Y-4280000D03*
X-1430000Y-4420000D03*
X-1492700Y-4310000D03*
X-1560000D03*
X-1590000Y-4230000D03*
X-1550000Y-3860000D03*
X-1340000Y-4040000D03*
X-1390000Y-3825000D03*
X-1410000Y-3760000D03*
X-1530000D03*
X-1550000Y-3650000D03*
X-1339500Y-3320000D03*
X-1430000D03*
Y-3390000D03*
X-1582000Y-2981000D03*
X-1454480Y-2184390D03*
X-1373890Y2356080D03*
X-1480180Y2170880D03*
X-1130000Y-5310000D03*
X-1080000Y-4930000D03*
X-1180000D03*
X-1130000Y-4990000D03*
X-1237700Y-4955000D03*
X-990000Y-5220000D03*
X-920000Y-5080000D03*
X-1180000Y-4830000D03*
X-1080000D03*
X-1130000Y-4880000D03*
X-1030000Y-4760000D03*
X-1155000Y-4765000D03*
X-1240000Y-4805000D03*
X-1130000Y-4430000D03*
X-1199000Y-4350000D03*
X-1060000D03*
X-1130000Y-4280000D03*
Y-4350000D03*
X-990000Y-4180000D03*
X-1130000Y-3960000D03*
X-1180000Y-3900000D03*
X-1080000D03*
X-920000Y-4040000D03*
X-1130000Y-3850000D03*
X-1180000Y-3800000D03*
X-1080000D03*
X-1030000Y-3740000D03*
X-1130000D03*
X-1240000Y-3775000D03*
X-1130000Y-3401000D03*
X-930000Y-3330000D03*
X-976000Y-3230000D03*
X-1046000Y3209000D03*
X-830000Y-5280000D03*
X-790000Y-5220000D03*
X-690000Y-4900000D03*
X-810000Y-4890000D03*
X-870000Y-4855000D03*
X-730000Y-4810000D03*
X-660000D03*
X-710000Y-4710000D03*
X-830000Y-4420000D03*
X-770000Y-4310000D03*
X-710000D03*
X-650000D03*
X-870000Y-4330000D03*
X-680000Y-3860000D03*
X-872300Y-3825000D03*
X-807970Y-3792030D03*
X-710000Y-3760000D03*
X-640000D03*
X-700000Y-3650000D03*
X-820000Y-3390000D03*
X-649530Y-3209890D03*
X-719880Y-2627030D03*
X-555000Y2564990D03*
X-877730Y3259080D03*
X-668000Y3205770D03*
X-488300Y-5280000D03*
X-310000Y-5290000D03*
X-230000Y-5320000D03*
X-380000Y-5070000D03*
X-340000Y-4920000D03*
X-420000Y-4845200D03*
X-350000Y-4220000D03*
X-530000Y-4400000D03*
X-440000Y-4395200D03*
X-480000Y-4545200D03*
X-430000Y-4495200D03*
X-250000Y-3950000D03*
X-312700Y-3580000D03*
X-390000D03*
X-250000Y-3850000D03*
X-301000Y-3362000D03*
X-453850Y-3343000D03*
X-514330Y-2573940D03*
X-385720Y2699060D03*
X-498550Y3338900D03*
X-160000Y-5360000D03*
X-110000Y-5250000D03*
X-60000Y-5330000D03*
X80000Y-5240000D03*
X-24800Y-5000000D03*
X0Y-4560000D03*
X-120000D03*
X120000D03*
X-120000Y-4640000D03*
X120000D03*
X0D03*
X120000Y-4720000D03*
X-120000D03*
X0D03*
X-120000Y-4480000D03*
X0D03*
X120000D03*
X0Y-4400000D03*
X-120000D03*
X120000D03*
X124600Y-4143000D03*
X88000Y-4065000D03*
X50000Y-3650000D03*
X-50000D03*
X270000Y-5020000D03*
X350000Y-4920000D03*
X175200Y-4992700D03*
X422700Y-4546400D03*
Y-4646400D03*
Y-4446400D03*
X174600Y-4077600D03*
X280000Y-3900000D03*
X380000Y-3660000D03*
X280000Y-3800000D03*
X464680Y-3340000D03*
X351830Y-2700000D03*
X481580Y2580080D03*
X297000Y3361000D03*
X448340Y3345090D03*
X670000Y-5360000D03*
X760000D03*
X582000Y-4955700D03*
X622700Y-5150000D03*
X500000Y-4596400D03*
X780000Y-4878700D03*
X687300Y-4796000D03*
X660000Y-4893000D03*
X533000Y-4496400D03*
X610000Y-4470000D03*
X780000Y-4220000D03*
X720000Y-4270000D03*
X840000D03*
X501000Y-4396400D03*
X720000Y-4170000D03*
X840000D03*
X580000Y-3870000D03*
X829000Y-4071700D03*
X510000Y-3750000D03*
Y-3820000D03*
X752700Y-3760000D03*
X504000Y-3513000D03*
X585000Y-3567000D03*
X685000Y-3506000D03*
X634690Y-3210000D03*
X704000Y-3414000D03*
X599130Y-3502130D03*
X648000Y-3453000D03*
X521830Y-2570000D03*
X687720Y2636050D03*
X823340Y3274000D03*
X616550Y3215000D03*
X980000Y-5370000D03*
X1060000D03*
X1080000Y-4996000D03*
X1180000Y-5117300D03*
X1034400Y-4552300D03*
X1090000Y-4890000D03*
X1080000Y-4660000D03*
X890000Y-4620000D03*
Y-4567300D03*
Y-4680000D03*
X926700Y-4500000D03*
X1180000Y-4530000D03*
X926700Y-3960000D03*
X1010000Y-4160000D03*
X1030000Y-3665000D03*
X847300Y-3760000D03*
X867730Y-3260080D03*
X1009000Y-3220000D03*
X1138130Y-3069960D03*
X1129000Y-2480000D03*
X989000Y-2432000D03*
X1385600Y-4960000D03*
X1434000Y-5117300D03*
X1307000Y-5113000D03*
X1434000Y-4802700D03*
X1307000D03*
X1530000Y-4337300D03*
X1340000D03*
X1435000D03*
Y-4530000D03*
X1430000Y-4180000D03*
X1360000Y-3600000D03*
X1490000Y-3530000D03*
X1220000D03*
X1248840Y-3374120D03*
X1238000Y-3034000D03*
X1501210Y-2151880D03*
X1395000Y-2340430D03*
X1432690Y2201190D03*
X1640000Y-5300000D03*
Y-5210000D03*
X1561000Y-4809000D03*
X1790000Y-4587300D03*
X1820000Y-4410000D03*
X1640000Y-3550000D03*
Y-3640000D03*
Y-3720000D03*
X1739760Y-2892140D03*
X1846000Y-2705000D03*
X1642610Y2175600D03*
X1785880Y2745080D03*
X1687530Y2923290D03*
X1552000Y2998000D03*
X1910000Y-4230000D03*
X2232700Y-4290000D03*
X2220000Y-3940000D03*
X2170000Y-4010000D03*
X2171830Y-4080000D03*
X1940000Y-3870000D03*
X2140000Y-3722700D03*
X2060000D03*
X1980000Y-3690000D03*
X2064070Y-2669950D03*
X2155000Y-2597000D03*
X2192140Y-1619000D03*
X2219000Y-1403670D03*
X2164000Y1484670D03*
X1998050Y2722960D03*
X2340000Y-4010000D03*
X2338170Y-4080000D03*
X2310000Y-3930000D03*
X2530000Y-4000000D03*
Y-3910000D03*
X2580000Y-3647300D03*
X2470000Y-3640000D03*
Y-3565000D03*
Y-3410000D03*
X2305100Y-3130000D03*
X2435100D03*
X2305100Y-2732000D03*
X2487770Y-833560D03*
X2513780Y-1051000D03*
X2456900Y920250D03*
X2349610Y1376610D03*
X2720000Y-3870000D03*
X2790000Y-4150000D03*
X2640000D03*
X2770000Y-3552700D03*
Y-3647300D03*
X2675000Y-3370000D03*
X2792820Y-3337180D03*
X2620000Y-3250000D03*
X2743860Y-1785000D03*
X2717980Y-2001040D03*
X2918900Y-1692160D03*
X2678000Y-500000D03*
X2608000Y-300000D03*
X2615000Y235000D03*
X2689000Y435000D03*
X2613050Y774890D03*
X2903970Y1723030D03*
X2685810Y2046240D03*
X2716900Y1830180D03*
X2605000Y2148000D03*
X2983000Y-1578000D03*
X3089930Y-1089150D03*
X3112880Y-1305300D03*
X3243960Y-938100D03*
X3262000Y-300000D03*
X3268000Y235000D03*
X3225120Y997680D03*
X3093080Y1348760D03*
X3068980Y1143040D03*
X3034000Y1477000D03*
X3280000Y-811000D03*
X3339000Y-500000D03*
X3348000Y435000D03*
G54D20*
G01X2500000Y0D02*
G03I-2500000J0D01*
G54D11*
X-3090000Y-500000D03*
Y-300000D03*
Y235000D03*
Y435000D03*
X-2890000Y-500000D03*
Y-300000D03*
Y235000D03*
Y435000D03*
X2450000Y-4330000D03*
X2750000D03*
X2870000Y-500000D03*
Y-300000D03*
Y235000D03*
Y435000D03*
X3070000Y-500000D03*
Y-300000D03*
Y235000D03*
Y435000D03*
G54D12*
X-2722000Y-4834000D03*
Y-4580000D03*
X-2468000Y-4834000D03*
Y-4580000D03*
X-2214000Y-4834000D03*
Y-4580000D03*
X-1960000Y-4834000D03*
Y-4580000D03*
X1968000Y-4834000D03*
Y-4580000D03*
X2222000Y-4834000D03*
Y-4580000D03*
X2476000Y-4834000D03*
Y-4580000D03*
X2730000Y-4834000D03*
Y-4580000D03*
G54D13*
X-2680000Y-3530000D03*
Y-2770000D03*
X-2720000Y-2460000D03*
X-1800000Y-3180000D03*
X2310000Y-5230000D03*
G54D14*
X-2120000Y-2120000D03*
Y2120000D03*
X-1150000Y2770000D03*
X0Y-3000000D03*
Y3000000D03*
X1150000Y2770000D03*
X2120000Y-2120000D03*
Y2120000D03*
G54D15*
G01X3000000Y-1800000D02*
G03X-3000000I-3000000J1801179D01*
G01D02*
Y-5500000D01*
X3000000D01*
Y-1800000D01*
G54D16*
G01X-1980000Y-3710000D02*
X-1948000D01*
G02X-1900200Y-3729800I0J-67598D01*
G01X-1492290Y-4137710D01*
G03X-1421570Y-4167000I70720J70731D01*
G01X-1159430D01*
G02X-1088710Y-4196290I0J-100021D01*
G01X-955000Y-4330000D01*
G01X-830000Y-5280000D02*
X-875410Y-5234590D01*
G02Y-5149410I42590J42590D01*
G01X-813000Y-5087000D01*
G03Y-5027000I-30000J30000D01*
G01X-853730Y-4986270D01*
G03X-893000Y-4970000I-39270J-39257D01*
G01X-920000D01*
G02X-970000Y-4920000I0J50000D01*
G01Y-4861430D01*
G02X-940710Y-4790710I100021J0D01*
G01X-860000Y-4710000D01*
G03Y-4650000I-30000J30000D01*
G01X-925710Y-4584290D01*
G02X-955000Y-4513570I70731J70720D01*
G01Y-4330000D01*
G01D02*
X-870000D01*
G01X-160000Y-5360000D02*
Y-5309950D01*
G03X-174110Y-5275890I-48164J0D01*
G01X-175890Y-5274110D01*
G02X-190000Y-5240050I34054J34060D01*
G01Y-4976310D01*
G02X-171400Y-4931400I63518J0D01*
G01X-138600Y-4898600D01*
G02X-93690Y-4880000I44910J-44918D01*
G01X203690D01*
G03X248600Y-4861400I0J63518D01*
G01X291400Y-4818600D01*
G02X336310Y-4800000I44910J-44918D01*
G01X453690D01*
G03X498600Y-4781400I0J63518D01*
G01X571400Y-4708600D01*
G02X616310Y-4690000I44910J-44918D01*
G01X723690D01*
G02X768600Y-4708600I0J-63518D01*
G01X821400Y-4761400D01*
G03X866310Y-4780000I44910J44918D01*
G01X1103690D01*
G03X1148600Y-4761400I0J63518D01*
G01X1171400Y-4738600D01*
G02X1216310Y-4720000I44910J-44918D01*
G01X1324990D01*
G02X1369900Y-4738600I0J-63518D01*
G01X1434000Y-4802700D01*
G01X-60000Y-5330000D02*
X-38600Y-5308600D01*
G03X-20000Y-5263690I-44918J44910D01*
G01Y-5246290D01*
G02X-1390Y-5201370I63506J5D01*
G01X31420Y-5168580D01*
G02X76310Y-5150000I44884J-44924D01*
G01X622700D01*
G01X-110000Y-5250000D02*
Y-5206310D01*
G02X-91400Y-5161400I63518J0D01*
G01X-38600Y-5108600D01*
G02X6310Y-5090000I44910J-44918D01*
G01X460050D01*
G03X494110Y-5075890I0J48164D01*
G01X495890Y-5074110D01*
G02X529950Y-5060000I34060J-34054D01*
G01X883690D01*
G02X928600Y-5078600I0J-63518D01*
G01X948700Y-5098700D01*
G03X993610Y-5117300I44910J44918D01*
G01X1180000D01*
G54D17*
G01X-250000Y-3850000D02*
Y-3750000D01*
G02X-150000Y-3650000I100000J0D01*
G01X-50000D01*
G54D18*
G01X2338170Y-4080000D02*
X2306770Y-4111400D01*
G02X2237720Y-4140000I-69047J69047D01*
G01X1853560D01*
G02X1796270Y-4116270I0J81021D01*
G01X1793730Y-4113730D01*
G03X1736440Y-4090000I-57290J-57291D01*
G01X1313590D01*
G03X1249940Y-4116370I6J-90017D01*
G01X1052680Y-4313630D01*
G02X989030Y-4340000I-63656J63647D01*
G01X660000D01*
G02X620000Y-4300000I0J40000D01*
G01Y-4190000D01*
G03X573000Y-4143000I-47000J0D01*
G01X124600D01*
G01X174600Y-4077600D02*
X515120D01*
G03X578770Y-4051230I-6J90017D01*
G01X633630Y-3996370D01*
G02X697280Y-3970000I63656J-63647D01*
G01X792720D01*
G02X856370Y-3996370I-6J-90017D01*
G01X893630Y-4033630D01*
G03X957280Y-4060000I63656J63647D01*
G01X1113510D01*
G03X1158730Y-4041270I0J63953D01*
G01X1161270Y-4038730D01*
G02X1206490Y-4020000I45220J-45223D01*
G01X1753690D01*
G02X1798600Y-4038600I0J-63518D01*
G01X1801820Y-4041820D01*
G03X1893990Y-4080000I92170J92163D01*
G01X2171830D01*
G01X501000Y-4396400D02*
X621510D01*
G02X646930Y-4406930I0J-35948D01*
G01X649470Y-4409470D01*
G03X674890Y-4420000I25420J25418D01*
G01X1287650D01*
G02X1308730Y-4428730I0J-29816D01*
G01X1311270Y-4431270D01*
G03X1332350Y-4440000I21080J21086D01*
G01X1605420D01*
G02X1669070Y-4466370I-6J-90017D01*
G01X1790000Y-4587300D01*
G54D19*
G01X-2770000Y-5320000D02*
X-2670000D01*
M02*
