G04 ================== begin FILE IDENTIFICATION RECORD ==================*
G04 Layout Name:  OpticalInOut-May-19.brd*
G04 Film Name:    DIMENSION*
G04 File Format:  Gerber RS274X*
G04 File Origin:  Cadence Allegro 25.1-S020*
G04 Origin Date:  Tue May 19 10:06:17 2026*
G04 *
G04 Layer:  MANUFACTURING/PHOTOPLOT_OUTLINE*
G04 Layer:  MANUFACTURING/NO_GLOSS_ALL*
G04 Layer:  MANUFACTURING/NO_GLOSS_TOP*
G04 Layer:  MANUFACTURING/NO_GLOSS_BOTTOM*
G04 Layer:  MANUFACTURING/NO_GLOSS_INTERNAL*
G04 Layer:  MANUFACTURING/NCDRILL_LEGEND*
G04 Layer:  MANUFACTURING/NCDRILL_FIGURE*
G04 Layer:  MANUFACTURING/PROBE_TOP*
G04 Layer:  MANUFACTURING/PROBE_BOTTOM*
G04 Layer:  MANUFACTURING/AUTOSILK_TOP*
G04 Layer:  MANUFACTURING/AUTOSILK_BOTTOM*
G04 Layer:  MANUFACTURING/NO_PROBE_TOP*
G04 Layer:  MANUFACTURING/NO_PROBE_BOTTOM*
G04 Layer:  MANUFACTURING/XSECTION_CHART*
G04 Layer:  MANUFACTURING/NCLEGEND-1-4*
G04 Layer:  BOARD GEOMETRY/DIMENSION*
G04 Layer:  BOARD GEOMETRY/DESIGN_OUTLINE*
G04 *
G04 Offset:    (0.0000 0.0000)*
G04 Mirror:    No*
G04 Mode:      Positive*
G04 Rotation:  0*
G04 FullContactRelief:  No*
G04 UndefLineWidth:     0.2540*
G04 ================== end FILE IDENTIFICATION RECORD ====================*
%FSLAX25Y25*MOMM*%
%IR0*IPPOS*OFA0.00000B0.00000*MIA0B0*SFA1.00000B1.00000*%
%AMMACRO21*
1,1,.254,.6,0.0*
20,1,.254,.6,0.0,0.0,-.6,0.0*
1,1,.254,0.0,-.6*
20,1,.254,0.0,-.6,-.6,0.0,0.0*
1,1,.254,-.6,0.0*
20,1,.254,-.6,0.0,0.0,.6,0.0*
1,1,.254,0.0,.6*
20,1,.254,0.0,.6,.6,0.0,0.0*
1,1,.254,.6,0.0*
%
%ADD21MACRO21*%
%AMMACRO13*
1,1,.254,.15,0.0*
20,1,.254,.15,0.0,-.15,0.0,0.0*
1,1,.254,-.15,0.0*
1,1,.254,0.0,.15*
20,1,.254,0.0,.15,0.0,-.15,0.0*
1,1,.254,0.0,-.15*
%
%ADD13MACRO13*%
%AMMACRO17*
1,1,.254,.35,.35*
20,1,.254,.35,.35,.35,-.35,0.0*
1,1,.254,.35,-.35*
20,1,.254,.35,-.35,-.35,-.35,0.0*
1,1,.254,-.35,-.35*
20,1,.254,-.35,-.35,-.35,.35,0.0*
1,1,.254,-.35,.35*
20,1,.254,-.35,.35,.35,.35,0.0*
1,1,.254,.35,.35*
%
%ADD17MACRO17*%
%AMMACRO23*
1,1,.254,0.0,.5*
20,1,.254,0.0,.5,-.433013,.25,0.0*
1,1,.254,-.433013,.25*
20,1,.254,-.433013,.25,-.433013,-.25,0.0*
1,1,.254,-.433013,-.25*
20,1,.254,-.433013,-.25,0.0,-.5,0.0*
1,1,.254,0.0,-.5*
20,1,.254,0.0,-.5,.433013,-.25,0.0*
1,1,.254,.433013,-.25*
20,1,.254,.433013,-.25,.433013,.25,0.0*
1,1,.254,.433013,.25*
20,1,.254,.433013,.25,0.0,.5,0.0*
1,1,.254,0.0,.5*
%
%ADD23MACRO23*%
%AMMACRO16*
1,1,.254,0.0,.5*
20,1,.254,0.0,.5,.433013,-.25,0.0*
1,1,.254,.433013,-.25*
20,1,.254,.433013,-.25,-.433013,-.25,0.0*
1,1,.254,-.433013,-.25*
20,1,.254,-.433013,-.25,0.0,.5,0.0*
1,1,.254,0.0,.5*
%
%ADD16MACRO16*%
%AMMACRO24*
1,1,.254,0.0,1.*
20,1,.254,0.0,1.,.866025,-.5,0.0*
1,1,.254,.866025,-.5*
20,1,.254,.866025,-.5,-.866025,-.5,0.0*
1,1,.254,-.866025,-.5*
20,1,.254,-.866025,-.5,0.0,1.,0.0*
1,1,.254,0.0,1.*
%
%ADD24MACRO24*%
%AMMACRO14*
1,1,.254,0.0,1.5*
20,1,.254,0.0,1.5,1.299038,-.75,0.0*
1,1,.254,1.299038,-.75*
20,1,.254,1.299038,-.75,-1.299038,-.75,0.0*
1,1,.254,-1.299038,-.75*
20,1,.254,-1.299038,-.75,0.0,1.5,0.0*
1,1,.254,0.0,1.5*
%
%ADD14MACRO14*%
%AMMACRO11*
1,1,.254,-.275,.825*
20,1,.254,-.275,.825,.275,.825,0.0*
1,1,.254,.275,.825*
20,1,.254,.275,.825,.41826,.812466,0.0*
1,1,.254,.41826,.812466*
20,1,.254,.41826,.812466,.557167,.775246,0.0*
1,1,.254,.557167,.775246*
20,1,.254,.557167,.775246,.6875,.714471,0.0*
1,1,.254,.6875,.714471*
20,1,.254,.6875,.714471,.8053,.631987,0.0*
1,1,.254,.8053,.631987*
20,1,.254,.8053,.631987,.906987,.5303,0.0*
1,1,.254,.906987,.5303*
20,1,.254,.906987,.5303,.989471,.4125,0.0*
1,1,.254,.989471,.4125*
20,1,.254,.989471,.4125,1.050246,.282167,0.0*
1,1,.254,1.050246,.282167*
20,1,.254,1.050246,.282167,1.087466,.14326,0.0*
1,1,.254,1.087466,.14326*
20,1,.254,1.087466,.14326,1.1,0.0,0.0*
1,1,.254,1.1,0.0*
20,1,.254,1.1,0.0,1.087466,-.14326,0.0*
1,1,.254,1.087466,-.14326*
20,1,.254,1.087466,-.14326,1.050246,-.282167,0.0*
1,1,.254,1.050246,-.282167*
20,1,.254,1.050246,-.282167,.989471,-.4125,0.0*
1,1,.254,.989471,-.4125*
20,1,.254,.989471,-.4125,.906987,-.5303,0.0*
1,1,.254,.906987,-.5303*
20,1,.254,.906987,-.5303,.8053,-.631987,0.0*
1,1,.254,.8053,-.631987*
20,1,.254,.8053,-.631987,.6875,-.714471,0.0*
1,1,.254,.6875,-.714471*
20,1,.254,.6875,-.714471,.557167,-.775246,0.0*
1,1,.254,.557167,-.775246*
20,1,.254,.557167,-.775246,.41826,-.812466,0.0*
1,1,.254,.41826,-.812466*
20,1,.254,.41826,-.812466,.275,-.825,0.0*
1,1,.254,.275,-.825*
20,1,.254,.275,-.825,-.275,-.825,0.0*
1,1,.254,-.275,-.825*
20,1,.254,-.275,-.825,-.41826,-.812466,0.0*
1,1,.254,-.41826,-.812466*
20,1,.254,-.41826,-.812466,-.557167,-.775246,0.0*
1,1,.254,-.557167,-.775246*
20,1,.254,-.557167,-.775246,-.6875,-.714471,0.0*
1,1,.254,-.6875,-.714471*
20,1,.254,-.6875,-.714471,-.8053,-.631987,0.0*
1,1,.254,-.8053,-.631987*
20,1,.254,-.8053,-.631987,-.906987,-.5303,0.0*
1,1,.254,-.906987,-.5303*
20,1,.254,-.906987,-.5303,-.989471,-.4125,0.0*
1,1,.254,-.989471,-.4125*
20,1,.254,-.989471,-.4125,-1.050246,-.282167,0.0*
1,1,.254,-1.050246,-.282167*
20,1,.254,-1.050246,-.282167,-1.087466,-.14326,0.0*
1,1,.254,-1.087466,-.14326*
20,1,.254,-1.087466,-.14326,-1.1,0.0,0.0*
1,1,.254,-1.1,0.0*
20,1,.254,-1.1,0.0,-1.087466,.14326,0.0*
1,1,.254,-1.087466,.14326*
20,1,.254,-1.087466,.14326,-1.050246,.282167,0.0*
1,1,.254,-1.050246,.282167*
20,1,.254,-1.050246,.282167,-.989471,.4125,0.0*
1,1,.254,-.989471,.4125*
20,1,.254,-.989471,.4125,-.906987,.5303,0.0*
1,1,.254,-.906987,.5303*
20,1,.254,-.906987,.5303,-.8053,.631987,0.0*
1,1,.254,-.8053,.631987*
20,1,.254,-.8053,.631987,-.6875,.714471,0.0*
1,1,.254,-.6875,.714471*
20,1,.254,-.6875,.714471,-.557167,.775246,0.0*
1,1,.254,-.557167,.775246*
20,1,.254,-.557167,.775246,-.41826,.812466,0.0*
1,1,.254,-.41826,.812466*
20,1,.254,-.41826,.812466,-.275,.825,0.0*
1,1,.254,-.275,.825*
%
%ADD11MACRO11*%
%AMMACRO22*
1,1,.254,0.0,.7*
20,1,.254,0.0,.7,.606217,-.35,0.0*
1,1,.254,.606217,-.35*
20,1,.254,.606217,-.35,-.606217,-.35,0.0*
1,1,.254,-.606217,-.35*
20,1,.254,-.606217,-.35,0.0,.7,0.0*
1,1,.254,0.0,.7*
%
%ADD22MACRO22*%
%AMMACRO10*
1,1,.254,0.0,1.15*
20,1,.254,0.0,1.15,.995929,-.575,0.0*
1,1,.254,.995929,-.575*
20,1,.254,.995929,-.575,-.995929,-.575,0.0*
1,1,.254,-.995929,-.575*
20,1,.254,-.995929,-.575,0.0,1.15,0.0*
1,1,.254,0.0,1.15*
%
%ADD10MACRO10*%
%AMMACRO15*
1,1,.254,0.0,.75*
20,1,.254,0.0,.75,.649519,-.375,0.0*
1,1,.254,.649519,-.375*
20,1,.254,.649519,-.375,-.649519,-.375,0.0*
1,1,.254,-.649519,-.375*
20,1,.254,-.649519,-.375,0.0,.75,0.0*
1,1,.254,0.0,.75*
%
%ADD15MACRO15*%
%AMMACRO18*
1,1,.254,0.0,1.7*
20,1,.254,0.0,1.7,1.472243,-.85,0.0*
1,1,.254,1.472243,-.85*
20,1,.254,1.472243,-.85,-1.472243,-.85,0.0*
1,1,.254,-1.472243,-.85*
20,1,.254,-1.472243,-.85,0.0,1.7,0.0*
1,1,.254,0.0,1.7*
%
%ADD18MACRO18*%
%AMMACRO12*
1,1,.254,0.0,.3*
20,1,.254,0.0,.3,.259808,-.15,0.0*
1,1,.254,.259808,-.15*
20,1,.254,.259808,-.15,-.259808,-.15,0.0*
1,1,.254,-.259808,-.15*
20,1,.254,-.259808,-.15,0.0,.3,0.0*
1,1,.254,0.0,.3*
%
%ADD12MACRO12*%
%AMMACRO26*
1,1,.254,.4,0.0*
20,1,.254,.4,0.0,.2,.34641,0.0*
1,1,.254,.2,.34641*
20,1,.254,.2,.34641,-.2,.34641,0.0*
1,1,.254,-.2,.34641*
20,1,.254,-.2,.34641,-.4,0.0,0.0*
1,1,.254,-.4,0.0*
20,1,.254,-.4,0.0,-.2,-.34641,0.0*
1,1,.254,-.2,-.34641*
20,1,.254,-.2,-.34641,.2,-.34641,0.0*
1,1,.254,.2,-.34641*
20,1,.254,.2,-.34641,.4,0.0,0.0*
1,1,.254,.4,0.0*
%
%ADD26MACRO26*%
%AMMACRO20*
1,1,.254,0.0,.9*
20,1,.254,0.0,.9,.779423,-.45,0.0*
1,1,.254,.779423,-.45*
20,1,.254,.779423,-.45,-.779423,-.45,0.0*
1,1,.254,-.779423,-.45*
20,1,.254,-.779423,-.45,0.0,.9,0.0*
1,1,.254,0.0,.9*
%
%ADD20MACRO20*%
%AMMACRO19*
1,1,.254,-1.2375,.4125*
20,1,.254,-1.2375,.4125,-1.2187,.62739,0.0*
1,1,.254,-1.2187,.62739*
20,1,.254,-1.2187,.62739,-1.16287,.83575,0.0*
1,1,.254,-1.16287,.83575*
20,1,.254,-1.16287,.83575,-1.071706,1.03125,0.0*
1,1,.254,-1.071706,1.03125*
20,1,.254,-1.071706,1.03125,-.94798,1.20795,0.0*
1,1,.254,-.94798,1.20795*
20,1,.254,-.94798,1.20795,-.79545,1.36048,0.0*
1,1,.254,-.79545,1.36048*
20,1,.254,-.79545,1.36048,-.61875,1.484206,0.0*
1,1,.254,-.61875,1.484206*
20,1,.254,-.61875,1.484206,-.42325,1.57537,0.0*
1,1,.254,-.42325,1.57537*
20,1,.254,-.42325,1.57537,-.21489,1.6312,0.0*
1,1,.254,-.21489,1.6312*
20,1,.254,-.21489,1.6312,0.0,1.65,0.0*
1,1,.254,0.0,1.65*
20,1,.254,0.0,1.65,.21489,1.6312,0.0*
1,1,.254,.21489,1.6312*
20,1,.254,.21489,1.6312,.42325,1.57537,0.0*
1,1,.254,.42325,1.57537*
20,1,.254,.42325,1.57537,.61875,1.484206,0.0*
1,1,.254,.61875,1.484206*
20,1,.254,.61875,1.484206,.79545,1.36048,0.0*
1,1,.254,.79545,1.36048*
20,1,.254,.79545,1.36048,.94798,1.20795,0.0*
1,1,.254,.94798,1.20795*
20,1,.254,.94798,1.20795,1.071706,1.03125,0.0*
1,1,.254,1.071706,1.03125*
20,1,.254,1.071706,1.03125,1.16287,.83575,0.0*
1,1,.254,1.16287,.83575*
20,1,.254,1.16287,.83575,1.2187,.62739,0.0*
1,1,.254,1.2187,.62739*
20,1,.254,1.2187,.62739,1.2375,.4125,0.0*
1,1,.254,1.2375,.4125*
20,1,.254,1.2375,.4125,1.2375,-.4125,0.0*
1,1,.254,1.2375,-.4125*
20,1,.254,1.2375,-.4125,1.2187,-.62739,0.0*
1,1,.254,1.2187,-.62739*
20,1,.254,1.2187,-.62739,1.16287,-.83575,0.0*
1,1,.254,1.16287,-.83575*
20,1,.254,1.16287,-.83575,1.071706,-1.03125,0.0*
1,1,.254,1.071706,-1.03125*
20,1,.254,1.071706,-1.03125,.94798,-1.20795,0.0*
1,1,.254,.94798,-1.20795*
20,1,.254,.94798,-1.20795,.79545,-1.36048,0.0*
1,1,.254,.79545,-1.36048*
20,1,.254,.79545,-1.36048,.61875,-1.484206,0.0*
1,1,.254,.61875,-1.484206*
20,1,.254,.61875,-1.484206,.42325,-1.57537,0.0*
1,1,.254,.42325,-1.57537*
20,1,.254,.42325,-1.57537,.21489,-1.6312,0.0*
1,1,.254,.21489,-1.6312*
20,1,.254,.21489,-1.6312,0.0,-1.65,0.0*
1,1,.254,0.0,-1.65*
20,1,.254,0.0,-1.65,-.21489,-1.6312,0.0*
1,1,.254,-.21489,-1.6312*
20,1,.254,-.21489,-1.6312,-.42325,-1.57537,0.0*
1,1,.254,-.42325,-1.57537*
20,1,.254,-.42325,-1.57537,-.61875,-1.484206,0.0*
1,1,.254,-.61875,-1.484206*
20,1,.254,-.61875,-1.484206,-.79545,-1.36048,0.0*
1,1,.254,-.79545,-1.36048*
20,1,.254,-.79545,-1.36048,-.94798,-1.20795,0.0*
1,1,.254,-.94798,-1.20795*
20,1,.254,-.94798,-1.20795,-1.071706,-1.03125,0.0*
1,1,.254,-1.071706,-1.03125*
20,1,.254,-1.071706,-1.03125,-1.16287,-.83575,0.0*
1,1,.254,-1.16287,-.83575*
20,1,.254,-1.16287,-.83575,-1.2187,-.62739,0.0*
1,1,.254,-1.2187,-.62739*
20,1,.254,-1.2187,-.62739,-1.2375,-.4125,0.0*
1,1,.254,-1.2375,-.4125*
20,1,.254,-1.2375,-.4125,-1.2375,.4125,0.0*
1,1,.254,-1.2375,.4125*
%
%ADD19MACRO19*%
%AMMACRO25*
1,1,.254,.248528,-.6*
20,1,.254,.248528,-.6,-.248528,-.6,0.0*
1,1,.254,-.248528,-.6*
20,1,.254,-.248528,-.6,-.6,-.248528,0.0*
1,1,.254,-.6,-.248528*
20,1,.254,-.6,-.248528,-.6,.248528,0.0*
1,1,.254,-.6,.248528*
20,1,.254,-.6,.248528,-.248528,.6,0.0*
1,1,.254,-.248528,.6*
20,1,.254,-.248528,.6,.248528,.6,0.0*
1,1,.254,.248528,.6*
20,1,.254,.248528,.6,.6,.248528,0.0*
1,1,.254,.6,.248528*
20,1,.254,.6,.248528,.6,-.248528,0.0*
1,1,.254,.6,-.248528*
20,1,.254,.6,-.248528,.248528,-.6,0.0*
1,1,.254,.248528,-.6*
%
%ADD25MACRO25*%
%ADD27C,.254*%
%ADD28C,.06*%
G75*
%LPD*%
G75*
G36*
G01X36619000Y418450D02*
Y264450D01*
X36682500D01*
Y-4550030D01*
X36619000D01*
Y-4704030D01*
X37000000D01*
Y-4550030D01*
X36936500D01*
Y264450D01*
X37000000D01*
Y418450D01*
X36619000D01*
G37*
G36*
G01X36111000Y-4704010D02*
Y-4550010D01*
X37635000D01*
Y-4704010D01*
X36111000D01*
G37*
G36*
G01Y-4112660D02*
Y-4045780D01*
X37635000D01*
Y-4112660D01*
X36111000D01*
G37*
G36*
G01Y-239780D02*
Y-172900D01*
X37635000D01*
Y-239780D01*
X36111000D01*
G37*
G36*
G01Y264450D02*
Y418450D01*
X37635000D01*
Y264450D01*
X36111000D01*
G37*
G54D10*
X300000Y-3700000D03*
D03*
Y-300000D03*
D03*
X7700000Y-3700000D03*
D03*
Y-300000D03*
D03*
G54D20*
X1620000Y-3800000D03*
D03*
X3120000D03*
D03*
X4620000D03*
D03*
X6130000D03*
D03*
G54D11*
X300000Y-3700000D03*
Y-300000D03*
X7700000Y-3700000D03*
Y-300000D03*
X12741730Y-5342500D03*
G54D12*
X293000Y-2988300D03*
D03*
X520300Y-2856000D03*
D03*
X293000Y-2373700D03*
D03*
X520300Y-2481000D03*
D03*
X293000Y-1618300D03*
D03*
X520300Y-1486000D03*
D03*
Y-1111000D03*
D03*
X293000Y-1003700D03*
D03*
X763200Y-2606000D03*
D03*
X765700Y-2731000D03*
D03*
X863700Y-1713700D03*
D03*
X765700Y-1236000D03*
D03*
X770000Y-1361000D03*
D03*
X1320000Y-3710000D03*
D03*
X1220000Y-2750000D03*
D03*
X1117200Y-2286300D03*
D03*
X1009700Y-1713700D03*
D03*
X1180000Y-1072300D03*
D03*
X1770000Y-3430000D03*
D03*
X1470000D03*
D03*
Y-2940000D03*
D03*
X1770000D03*
D03*
X1540000Y-2300000D03*
D03*
X1790000Y-2320000D03*
D03*
X1588000Y-1911000D03*
D03*
X1583000Y-1525000D03*
D03*
X1584000Y-1606000D03*
D03*
X1500000Y-1445000D03*
D03*
X1551000Y-890000D03*
D03*
X2070000Y-3710000D03*
D03*
X1920000D03*
D03*
X2080000Y-2632700D03*
D03*
X2190000Y-2750000D03*
D03*
X1833280Y-1953280D03*
D03*
X2030000Y-2159100D03*
D03*
X2020000Y-450000D03*
D03*
X2370000Y-2640000D03*
D03*
X2340000Y-2327300D03*
D03*
X2607200Y-2286300D03*
D03*
X2360000Y-1810000D03*
D03*
X2620000Y-737150D03*
D03*
X2560000Y-630000D03*
D03*
X2680000D03*
D03*
X2560000Y-850000D03*
D03*
X2680000D03*
D03*
X2460000Y-1010000D03*
D03*
X2620000Y-360000D03*
D03*
X2355000Y-535000D03*
D03*
X2830000Y-3710000D03*
D03*
X2970000Y-3430000D03*
D03*
Y-2940000D03*
D03*
X2720000Y-2750000D03*
D03*
X3040000Y-2290000D03*
D03*
X2940000Y-1910000D03*
D03*
X2700000Y-1840000D03*
D03*
X2880000Y-530000D03*
D03*
X2740000Y1000000D03*
D03*
X3420000Y-3710000D03*
D03*
X3270000Y-3430000D03*
D03*
Y-2940000D03*
D03*
X3290000Y-2320000D03*
D03*
X3530000Y-2159100D03*
D03*
X3380000Y-1810000D03*
D03*
X3430000Y-1060000D03*
D03*
X3530000Y-1260000D03*
D03*
X3420000Y-550000D03*
D03*
X3570000Y-3710000D03*
D03*
X3580000Y-2632700D03*
D03*
X3870000Y-2640000D03*
D03*
X3670000Y-2750000D03*
D03*
X3840000Y-2330000D03*
D03*
X3950000Y-2050000D03*
D03*
X3762700Y-1605000D03*
D03*
X3837300Y-1700000D03*
D03*
X3800000Y-1130000D03*
D03*
X3975000Y-1140000D03*
D03*
X3850000Y-640000D03*
D03*
Y-790000D03*
D03*
Y-940000D03*
D03*
X3710000Y-1050000D03*
D03*
X3670000Y-865000D03*
D03*
X3975000Y-455000D03*
D03*
X3680000Y-615000D03*
D03*
X3720000Y-460000D03*
D03*
X3740000Y1010000D03*
D03*
X4320000Y-3710000D03*
D03*
X4220000Y-2750000D03*
D03*
X4107200Y-2286300D03*
D03*
X4260000Y-1780000D03*
D03*
X4330000Y-1120000D03*
D03*
X4275000Y-1350000D03*
D03*
X4130000D03*
D03*
X4000000Y-640000D03*
D03*
Y-940000D03*
D03*
Y-790000D03*
D03*
X4315940Y-890000D03*
D03*
X4310000Y-780000D03*
D03*
X4330000Y-1015000D03*
D03*
X4325000Y-465000D03*
D03*
X4320000Y-580000D03*
D03*
X4180000Y-460000D03*
D03*
X4770000Y-3430000D03*
D03*
X4470000D03*
D03*
Y-2940000D03*
D03*
X4770000D03*
D03*
X4540000Y-2300000D03*
D03*
X4770000Y-2320000D03*
D03*
X4700000Y-1910000D03*
D03*
X4470000Y-1260000D03*
D03*
X4420000Y-1390000D03*
D03*
X4770000Y-1030000D03*
D03*
X4570000Y-960000D03*
D03*
X4779000Y-230000D03*
D03*
X4730000Y990000D03*
D03*
X5070000Y-3710000D03*
D03*
X4920000D03*
D03*
X5170000Y-2750000D03*
D03*
X5080000Y-2632700D03*
D03*
X5072800Y-2090900D03*
D03*
X4996000Y-1520000D03*
D03*
X4960000Y-1910000D03*
D03*
X5196000Y-1084000D03*
D03*
X4870000Y-1450000D03*
D03*
X4880000Y-740000D03*
D03*
X4870000Y-610000D03*
D03*
Y-470000D03*
D03*
X5125000Y-585000D03*
D03*
X5370000Y-2640000D03*
D03*
X5340000Y-2330000D03*
D03*
X5607200Y-2286300D03*
D03*
X5540000Y-1410000D03*
D03*
X5650000Y-1070000D03*
D03*
X5460000D03*
D03*
X5580000Y-900000D03*
D03*
X5700000Y-687300D03*
D03*
X5570000Y-650000D03*
D03*
X5300000D03*
D03*
X5550000Y-990000D03*
D03*
X5433000Y-409000D03*
D03*
X5570000Y-387300D03*
D03*
X5300000D03*
D03*
X5530400Y920900D03*
D03*
X5830000Y-3710000D03*
D03*
X5980000Y-3430000D03*
D03*
X5970000Y-2940000D03*
D03*
X5720000Y-2750000D03*
D03*
X6040000Y-2310000D03*
D03*
X6030000Y-1630000D03*
D03*
X6070000Y-1760000D03*
D03*
X5970000D03*
D03*
X5870000D03*
D03*
X5730000Y-1910000D03*
D03*
X6030000Y-1110000D03*
D03*
X5960000Y-1430000D03*
D03*
X6030000Y-1360000D03*
D03*
X6430000Y-3710000D03*
D03*
X6280000Y-3430000D03*
D03*
X6270000Y-2940000D03*
D03*
X6280000Y-2320000D03*
D03*
X6520000Y-2159100D03*
D03*
X6300000Y-1930000D03*
D03*
X6478000Y-1752000D03*
D03*
X6550000Y-1390000D03*
D03*
X6290000Y-1100000D03*
D03*
X6160000Y-1020000D03*
D03*
X6180000Y-890000D03*
D03*
X6490000Y-372700D03*
D03*
Y-587300D03*
D03*
Y-480000D03*
D03*
X6290000Y-372700D03*
D03*
Y-587300D03*
D03*
Y-480000D03*
D03*
X6580000Y-3710000D03*
D03*
X6870000Y-2640000D03*
D03*
X6670000Y-2750000D03*
D03*
X6580000Y-2640000D03*
D03*
X6840000Y-2327300D03*
D03*
X6780000Y-1750000D03*
D03*
X6570000Y-1640000D03*
D03*
X6660000D03*
D03*
X6760000D03*
D03*
X6810000Y-1100000D03*
D03*
X7234300Y-2765000D03*
D03*
Y-2640000D03*
D03*
X7080000Y-1910000D03*
D03*
X7070000Y-1400000D03*
D03*
X7234300Y-1395000D03*
D03*
Y-1270000D03*
D03*
X7090000Y-372700D03*
D03*
Y-587300D03*
D03*
Y-480000D03*
D03*
X7707000Y-2997300D03*
D03*
X7479700Y-2890000D03*
D03*
X7707000Y-2382700D03*
D03*
X7479700Y-2515000D03*
D03*
X7707000Y-1627300D03*
D03*
X7479700Y-1520000D03*
D03*
X7480000Y-1145000D03*
D03*
X7707000Y-1012700D03*
D03*
X7710000Y482700D03*
D03*
Y1080000D03*
D03*
Y710000D03*
D03*
Y890000D03*
D03*
G54D21*
X1620000Y-3800000D03*
X3120000D03*
X4620000D03*
X6130000D03*
X12741730Y-4072500D03*
G54D22*
X2000000Y675000D03*
D03*
Y925000D03*
D03*
X3010000Y675000D03*
D03*
Y925000D03*
D03*
X4010000Y675000D03*
D03*
Y925000D03*
D03*
X5010000Y675000D03*
D03*
Y925000D03*
D03*
G54D13*
X293000Y-2988300D03*
X520300Y-2856000D03*
X293000Y-2373700D03*
X520300Y-2481000D03*
X293000Y-1618300D03*
X520300Y-1486000D03*
Y-1111000D03*
X293000Y-1003700D03*
X763200Y-2606000D03*
X765700Y-2731000D03*
X863700Y-1713700D03*
X765700Y-1236000D03*
X770000Y-1361000D03*
X1320000Y-3710000D03*
X1220000Y-2750000D03*
X1117200Y-2286300D03*
X1009700Y-1713700D03*
X1180000Y-1072300D03*
X1770000Y-3430000D03*
X1470000D03*
Y-2940000D03*
X1770000D03*
X1540000Y-2300000D03*
X1790000Y-2320000D03*
X1588000Y-1911000D03*
X1583000Y-1525000D03*
X1584000Y-1606000D03*
X1500000Y-1445000D03*
X1551000Y-890000D03*
X2070000Y-3710000D03*
X1920000D03*
X2080000Y-2632700D03*
X2190000Y-2750000D03*
X1833280Y-1953280D03*
X2030000Y-2159100D03*
X2020000Y-450000D03*
X2370000Y-2640000D03*
X2340000Y-2327300D03*
X2607200Y-2286300D03*
X2360000Y-1810000D03*
X2620000Y-737150D03*
X2560000Y-630000D03*
X2680000D03*
X2560000Y-850000D03*
X2680000D03*
X2460000Y-1010000D03*
X2620000Y-360000D03*
X2355000Y-535000D03*
X2830000Y-3710000D03*
X2970000Y-3430000D03*
Y-2940000D03*
X2720000Y-2750000D03*
X3040000Y-2290000D03*
X2940000Y-1910000D03*
X2700000Y-1840000D03*
X2880000Y-530000D03*
X2740000Y1000000D03*
X3420000Y-3710000D03*
X3270000Y-3430000D03*
Y-2940000D03*
X3290000Y-2320000D03*
X3530000Y-2159100D03*
X3380000Y-1810000D03*
X3430000Y-1060000D03*
X3530000Y-1260000D03*
X3420000Y-550000D03*
X3570000Y-3710000D03*
X3580000Y-2632700D03*
X3870000Y-2640000D03*
X3670000Y-2750000D03*
X3840000Y-2330000D03*
X3950000Y-2050000D03*
X3762700Y-1605000D03*
X3837300Y-1700000D03*
X3800000Y-1130000D03*
X3975000Y-1140000D03*
X3850000Y-640000D03*
Y-790000D03*
Y-940000D03*
X3710000Y-1050000D03*
X3670000Y-865000D03*
X3975000Y-455000D03*
X3680000Y-615000D03*
X3720000Y-460000D03*
X3740000Y1010000D03*
X4320000Y-3710000D03*
X4220000Y-2750000D03*
X4107200Y-2286300D03*
X4260000Y-1780000D03*
X4330000Y-1120000D03*
X4275000Y-1350000D03*
X4130000D03*
X4000000Y-640000D03*
Y-940000D03*
Y-790000D03*
X4315940Y-890000D03*
X4310000Y-780000D03*
X4330000Y-1015000D03*
X4325000Y-465000D03*
X4320000Y-580000D03*
X4180000Y-460000D03*
X4770000Y-3430000D03*
X4470000D03*
Y-2940000D03*
X4770000D03*
X4540000Y-2300000D03*
X4770000Y-2320000D03*
X4700000Y-1910000D03*
X4470000Y-1260000D03*
X4420000Y-1390000D03*
X4770000Y-1030000D03*
X4570000Y-960000D03*
X4779000Y-230000D03*
X4730000Y990000D03*
X5070000Y-3710000D03*
X4920000D03*
X5170000Y-2750000D03*
X5080000Y-2632700D03*
X5072800Y-2090900D03*
X4996000Y-1520000D03*
X4960000Y-1910000D03*
X5196000Y-1084000D03*
X4870000Y-1450000D03*
X4880000Y-740000D03*
X4870000Y-610000D03*
Y-470000D03*
X5125000Y-585000D03*
X5370000Y-2640000D03*
X5340000Y-2330000D03*
X5607200Y-2286300D03*
X5540000Y-1410000D03*
X5650000Y-1070000D03*
X5460000D03*
X5580000Y-900000D03*
X5700000Y-687300D03*
X5570000Y-650000D03*
X5300000D03*
X5550000Y-990000D03*
X5433000Y-409000D03*
X5570000Y-387300D03*
X5300000D03*
X5530400Y920900D03*
X5830000Y-3710000D03*
X5980000Y-3430000D03*
X5970000Y-2940000D03*
X5720000Y-2750000D03*
X6040000Y-2310000D03*
X6030000Y-1630000D03*
X6070000Y-1760000D03*
X5970000D03*
X5870000D03*
X5730000Y-1910000D03*
X6030000Y-1110000D03*
X5960000Y-1430000D03*
X6030000Y-1360000D03*
X6430000Y-3710000D03*
X6280000Y-3430000D03*
X6270000Y-2940000D03*
X6280000Y-2320000D03*
X6520000Y-2159100D03*
X6300000Y-1930000D03*
X6478000Y-1752000D03*
X6550000Y-1390000D03*
X6290000Y-1100000D03*
X6160000Y-1020000D03*
X6180000Y-890000D03*
X6490000Y-372700D03*
Y-587300D03*
Y-480000D03*
X6290000Y-372700D03*
Y-587300D03*
Y-480000D03*
X6580000Y-3710000D03*
X6870000Y-2640000D03*
X6670000Y-2750000D03*
X6580000Y-2640000D03*
X6840000Y-2327300D03*
X6780000Y-1750000D03*
X6570000Y-1640000D03*
X6660000D03*
X6760000D03*
X6810000Y-1100000D03*
X7234300Y-2765000D03*
Y-2640000D03*
X7080000Y-1910000D03*
X7070000Y-1400000D03*
X7234300Y-1395000D03*
Y-1270000D03*
X7090000Y-372700D03*
Y-587300D03*
Y-480000D03*
X7707000Y-2997300D03*
X7479700Y-2890000D03*
X7707000Y-2382700D03*
X7479700Y-2515000D03*
X7707000Y-1627300D03*
X7479700Y-1520000D03*
X7480000Y-1145000D03*
X7707000Y-1012700D03*
X7710000Y482700D03*
Y1080000D03*
Y710000D03*
Y890000D03*
X12741730Y-897500D03*
G54D14*
X840000Y-320000D03*
D03*
X1630000D03*
D03*
G54D23*
X2000000Y675000D03*
Y925000D03*
X3010000Y675000D03*
Y925000D03*
X4010000Y675000D03*
Y925000D03*
X5010000Y675000D03*
Y925000D03*
X12741730Y-2802500D03*
G54D15*
X840000Y-320000D03*
X1630000D03*
X12741730Y-4707500D03*
G54D24*
X4060000Y1250000D03*
D03*
X5110000Y1210000D03*
D03*
X5950000Y750000D03*
D03*
G54D25*
X4060000Y1250000D03*
X5110000Y1210000D03*
X5950000Y750000D03*
X12741730Y-3437500D03*
G54D16*
X1368000Y-3324000D03*
D03*
Y-3070000D03*
D03*
X1622000Y-3324000D03*
D03*
Y-3070000D03*
D03*
X1876000Y-3324000D03*
D03*
X2130000D03*
D03*
X1876000Y-3070000D03*
D03*
X2130000D03*
D03*
X2868000Y-3324000D03*
D03*
X3122000D03*
D03*
X2868000Y-3070000D03*
D03*
X3122000D03*
D03*
X3376000Y-3324000D03*
D03*
Y-3070000D03*
D03*
X3630000Y-3324000D03*
D03*
Y-3070000D03*
D03*
X4368000Y-3324000D03*
D03*
Y-3070000D03*
D03*
X4622000Y-3324000D03*
D03*
Y-3070000D03*
D03*
X4876000Y-3324000D03*
D03*
X5130000D03*
D03*
X4876000Y-3070000D03*
D03*
X5130000D03*
D03*
X5027500Y-730000D03*
D03*
Y-310000D03*
D03*
X5868000Y-3324000D03*
D03*
X6122000D03*
D03*
X5868000Y-3070000D03*
D03*
X6122000D03*
D03*
X5892500Y-730000D03*
D03*
Y-310000D03*
D03*
X6376000Y-3324000D03*
D03*
Y-3070000D03*
D03*
X6630000Y-3324000D03*
D03*
Y-3070000D03*
D03*
G54D26*
X5027500Y-730000D03*
Y-310000D03*
X5892500Y-730000D03*
Y-310000D03*
X12741730Y-2167500D03*
G54D17*
X1368000Y-3324000D03*
Y-3070000D03*
X1622000Y-3324000D03*
Y-3070000D03*
X1876000Y-3324000D03*
X2130000D03*
X1876000Y-3070000D03*
X2130000D03*
X2868000Y-3324000D03*
X3122000D03*
X2868000Y-3070000D03*
X3122000D03*
X3376000Y-3324000D03*
Y-3070000D03*
X3630000Y-3324000D03*
Y-3070000D03*
X4368000Y-3324000D03*
Y-3070000D03*
X4622000Y-3324000D03*
Y-3070000D03*
X4876000Y-3324000D03*
X5130000D03*
X4876000Y-3070000D03*
X5130000D03*
X5868000Y-3324000D03*
X6122000D03*
X5868000Y-3070000D03*
X6122000D03*
X6376000Y-3324000D03*
Y-3070000D03*
X6630000Y-3324000D03*
Y-3070000D03*
X12741730Y-1532500D03*
G54D27*
G01X0Y1850000D02*
Y5890000D01*
G01X3026290Y5640000D02*
X0D01*
G01X400000Y5702500D02*
X0Y5640000D01*
X400000Y5577500D01*
Y5702500D01*
G01X300000Y-50000D02*
Y4730000D01*
G01X2976290Y4480000D02*
X300000D01*
G01X700000Y4542500D02*
X300000Y4480000D01*
X700000Y4417500D01*
Y4542500D01*
G01X1300000Y1050000D02*
Y3900000D01*
G01X1700000Y3712500D02*
X1300000Y3650000D01*
X1700000Y3587500D01*
Y3712500D01*
G01X3166290Y3650000D02*
X1300000D01*
G01X3435910Y3538860D02*
X3459520Y3512410D01*
X3487080Y3496540D01*
X3522520Y3491250D01*
X3557960Y3501830D01*
X3585510Y3522990D01*
X3605200Y3560040D01*
X3609130Y3602370D01*
X3601260Y3644700D01*
X3581570Y3671170D01*
X3554010Y3692330D01*
X3526460Y3697620D01*
X3498900Y3692330D01*
X3463470Y3671170D01*
X3475280Y3808750D01*
X3581570D01*
G01X3750870Y3554750D02*
X3774480Y3517700D01*
X3805980Y3496540D01*
X3841420Y3491250D01*
X3872920Y3496540D01*
X3904410Y3522990D01*
X3924090Y3554750D01*
X3928030Y3586500D01*
X3920160Y3623530D01*
X3892600Y3650000D01*
X3865040Y3660590D01*
X3829600D01*
G01X3865040D02*
X3888660Y3676460D01*
X3908350Y3702910D01*
X3916220Y3734660D01*
X3908350Y3766420D01*
X3888660Y3792870D01*
X3853230Y3808750D01*
X3817800Y3803460D01*
X3782360Y3782290D01*
G01X3324640Y4321250D02*
X3332520Y4390040D01*
X3344330Y4448240D01*
X3360080Y4501170D01*
X3379760Y4559370D01*
X3411260Y4638750D01*
X3253780D01*
G01X3694720Y4321250D02*
Y4638750D01*
X3549050Y4411210D01*
X3745910D01*
G01X3382520Y5481250D02*
X3410080Y5486540D01*
X3441570Y5502410D01*
X3461260Y5528860D01*
X3469130Y5565920D01*
X3461260Y5602950D01*
X3437640Y5634700D01*
X3402200Y5650590D01*
X3362840D01*
X3339210Y5661170D01*
X3319520Y5687620D01*
X3311650Y5724660D01*
X3323470Y5761710D01*
X3351020Y5788170D01*
X3382520Y5798750D01*
X3414010Y5788170D01*
X3441570Y5761710D01*
X3453390Y5724660D01*
X3445510Y5687620D01*
X3425830Y5661170D01*
X3402200Y5650590D01*
X3362840D01*
X3327400Y5634700D01*
X3303780Y5602950D01*
X3295910Y5565920D01*
X3303780Y5528860D01*
X3323470Y5502410D01*
X3354960Y5486540D01*
X3382520Y5481250D01*
G01X3697480Y5798750D02*
X3665980Y5788170D01*
X3642360Y5761710D01*
X3626610Y5729960D01*
X3614800Y5687620D01*
X3610870Y5640000D01*
X3614800Y5592370D01*
X3626610Y5550040D01*
X3642360Y5518280D01*
X3665980Y5491830D01*
X3697480Y5481250D01*
X3728970Y5491830D01*
X3752600Y5518280D01*
X3768350Y5550040D01*
X3780160Y5592370D01*
X3784090Y5640000D01*
X3780160Y5687620D01*
X3768350Y5729960D01*
X3752600Y5761710D01*
X3728970Y5788170D01*
X3697480Y5798750D01*
G01X4193710Y3650000D02*
X6600000D01*
G01X4003710Y4480000D02*
X7700000D01*
G01X4053710Y5640000D02*
X8000000D01*
G01X6200000Y3587500D02*
X6600000Y3650000D01*
X6200000Y3712500D01*
Y3587500D01*
G01X6600000Y1050000D02*
Y3900000D01*
G01X7300000Y4417500D02*
X7700000Y4480000D01*
X7300000Y4542500D01*
Y4417500D01*
G01X7700000Y-50000D02*
Y4730000D01*
G01X7600000Y5577500D02*
X8000000Y5640000D01*
X7600000Y5702500D01*
Y5577500D01*
G01X8250000Y-4000000D02*
X11320000D01*
G01X7950000Y-3700000D02*
X9810000D01*
G01X7950000Y-300000D02*
X9810000D01*
G01X8000000Y1850000D02*
Y5890000D01*
G01X8250000Y1600000D02*
X11320000D01*
G01X9497500Y-3300000D02*
X9560000Y-3700000D01*
X9622500Y-3300000D01*
X9497500D01*
G01X9315910Y-1985250D02*
X9339520Y-2022300D01*
X9371020Y-2043460D01*
X9406460Y-2048750D01*
X9437960Y-2043460D01*
X9469450Y-2017010D01*
X9489130Y-1985250D01*
X9493070Y-1953500D01*
X9485200Y-1916470D01*
X9457640Y-1890000D01*
X9430080Y-1879410D01*
X9394640D01*
G01X9430080D02*
X9453700Y-1863540D01*
X9473390Y-1837090D01*
X9481260Y-1805340D01*
X9473390Y-1773580D01*
X9453700Y-1747130D01*
X9418270Y-1731250D01*
X9382840Y-1736540D01*
X9347400Y-1757710D01*
G01X9764720Y-2048750D02*
Y-1731250D01*
X9619050Y-1958790D01*
X9815910D01*
G01X9622500Y-700000D02*
X9560000Y-300000D01*
X9497500Y-700000D01*
X9622500D01*
G01X9560000Y-2286870D02*
Y-3700000D01*
G01Y-1493130D02*
Y-300000D01*
G01X10825910Y-1651140D02*
X10849520Y-1677590D01*
X10877080Y-1693460D01*
X10912520Y-1698750D01*
X10947960Y-1688170D01*
X10975510Y-1667010D01*
X10995200Y-1629960D01*
X10999130Y-1587630D01*
X10991260Y-1545300D01*
X10971570Y-1518830D01*
X10944010Y-1497670D01*
X10916460Y-1492380D01*
X10888900Y-1497670D01*
X10853470Y-1518830D01*
X10865280Y-1381250D01*
X10971570D01*
G01X11152670Y-1566470D02*
X11180240Y-1529410D01*
X11203860Y-1508250D01*
X11235360Y-1497670D01*
X11262920Y-1508250D01*
X11282600Y-1529410D01*
X11298350Y-1561170D01*
X11302290Y-1598210D01*
X11298350Y-1629960D01*
X11282600Y-1661720D01*
X11258970Y-1688170D01*
X11231420Y-1698750D01*
X11199920Y-1688170D01*
X11172360Y-1656430D01*
X11156610Y-1608790D01*
X11152670Y-1555880D01*
X11160550Y-1487090D01*
X11172360Y-1450040D01*
X11192040Y-1413000D01*
X11219600Y-1386540D01*
X11247160Y-1381250D01*
X11274720Y-1391830D01*
X11294410Y-1418290D01*
G01X11070000Y-1936870D02*
Y-4000000D01*
G01X11007500Y-3600000D02*
X11070000Y-4000000D01*
X11132500Y-3600000D01*
X11007500D01*
G01X11070000Y-1143130D02*
Y1600000D01*
G01X11132500Y1200000D02*
X11070000Y1600000D01*
X11007500Y1200000D01*
X11132500D01*
G01X11600000Y-6295000D02*
Y1340000D01*
X34434600D01*
Y-6295000D01*
X11600000D01*
G01Y-5660000D02*
X34434600D01*
G01X11600000Y-5025000D02*
X34434600D01*
G01X11600000Y-4390000D02*
X34434600D01*
G01X11600000Y-3755000D02*
X34434600D01*
G01X11600000Y-3120000D02*
X34434600D01*
G01X11600000Y-2485000D02*
X34434600D01*
G01X11600000Y-1850000D02*
X34434600D01*
G01X11600000Y-1215000D02*
X34434600D01*
G01X11600000Y-580000D02*
X34434600D01*
G01X11600000Y55000D02*
X34434600D01*
G01X11600000Y690000D02*
X34434600D01*
G01X11879520Y-421250D02*
Y-103750D01*
X12029140D01*
G01X11974010Y-257200D02*
X11879520D01*
G01X12222050Y-103750D02*
X12316530D01*
G01X12269290D02*
Y-421250D01*
G01X12222050D02*
X12316530D01*
G01X12607870Y-262500D02*
X12686620D01*
Y-357750D01*
X12662990Y-389510D01*
X12635430Y-410670D01*
X12596060Y-421250D01*
X12556690Y-410670D01*
X12529130Y-389510D01*
X12505510Y-357750D01*
X12489760Y-320710D01*
X12481880Y-278380D01*
Y-241330D01*
X12489760Y-209590D01*
X12505510Y-172540D01*
X12529130Y-140790D01*
X12552750Y-119630D01*
X12584250Y-103750D01*
X12611810D01*
X12643300Y-114330D01*
X12666930Y-135500D01*
G01X12812600Y-103750D02*
Y-331290D01*
X12828340Y-378930D01*
X12859840Y-410670D01*
X12899210Y-421250D01*
X12938580Y-410670D01*
X12970080Y-378930D01*
X12985820Y-331290D01*
Y-103750D01*
G01X13135430Y-421250D02*
Y-103750D01*
X13233850D01*
X13265350Y-119630D01*
X13285040Y-140790D01*
X13292910Y-183130D01*
X13285040Y-225460D01*
X13261410Y-251910D01*
X13233850Y-267800D01*
X13135430D01*
G01X13233850D02*
X13292910Y-421250D01*
G01X13607870D02*
X13450390D01*
Y-103750D01*
X13607870D01*
G01X13544880Y-257200D02*
X13450390D01*
G01X13883460Y55000D02*
Y-6295000D01*
G01X14477940Y-421250D02*
Y-103750D01*
X14627560D01*
G01X14572430Y-257200D02*
X14477940D01*
G01X14820470Y-103750D02*
X14914950D01*
G01X14867710D02*
Y-421250D01*
G01X14820470D02*
X14914950D01*
G01X15092120D02*
Y-103750D01*
X15273220Y-421250D01*
Y-103750D01*
G01X15450390D02*
X15544870D01*
G01X15497630D02*
Y-421250D01*
G01X15450390D02*
X15544870D01*
G01X15729910Y-378930D02*
X15761410Y-405380D01*
X15796840Y-421250D01*
X15828340D01*
X15859830Y-405380D01*
X15883460Y-378930D01*
X15895270Y-341870D01*
X15887400Y-304840D01*
X15867710Y-273090D01*
X15832270Y-251910D01*
X15785030Y-241330D01*
X15757470Y-220170D01*
X15745660Y-183130D01*
X15753540Y-146080D01*
X15773220Y-119630D01*
X15800780Y-103750D01*
X15828340D01*
X15855900Y-114330D01*
X15879520Y-140790D01*
G01X16044870Y-421250D02*
Y-103750D01*
G01X16210230D02*
Y-421250D01*
G01Y-262500D02*
X16044870D01*
G01X16521250Y-421250D02*
X16363770D01*
Y-103750D01*
X16521250D01*
G01X16458260Y-257200D02*
X16363770D01*
G01X16670860Y-421250D02*
Y-103750D01*
X16749590D01*
X16781090Y-119630D01*
X16804710Y-140790D01*
X16824400Y-172540D01*
X16840150Y-209590D01*
X16844080Y-262500D01*
X16840150Y-315420D01*
X16824400Y-352460D01*
X16804710Y-384220D01*
X16781090Y-405380D01*
X16749590Y-421250D01*
X16670860D01*
G01X16954320Y-527080D02*
X17190540D01*
G01X17304710Y-378930D02*
X17336210Y-405380D01*
X17371640Y-421250D01*
X17403140D01*
X17434630Y-405380D01*
X17458260Y-378930D01*
X17470070Y-341870D01*
X17462200Y-304840D01*
X17442510Y-273090D01*
X17407070Y-251910D01*
X17359830Y-241330D01*
X17332270Y-220170D01*
X17320460Y-183130D01*
X17328340Y-146080D01*
X17348020Y-119630D01*
X17375580Y-103750D01*
X17403140D01*
X17430700Y-114330D01*
X17454320Y-140790D01*
G01X17655110Y-103750D02*
X17749590D01*
G01X17702350D02*
Y-421250D01*
G01X17655110D02*
X17749590D01*
G01X17942500Y-103750D02*
X18092120D01*
X17942500Y-421250D01*
X18092120D01*
G01X18411010D02*
X18253530D01*
Y-103750D01*
X18411010D01*
G01X18348020Y-257200D02*
X18253530D01*
G01X16040940Y-6072750D02*
X16064550Y-6109800D01*
X16096050Y-6130960D01*
X16131490Y-6136250D01*
X16162990Y-6130960D01*
X16194480Y-6104510D01*
X16214160Y-6072750D01*
X16218100Y-6041000D01*
X16210230Y-6003970D01*
X16182670Y-5977500D01*
X16155110Y-5966910D01*
X16119670D01*
G01X16155110D02*
X16178730Y-5951040D01*
X16198420Y-5924590D01*
X16206290Y-5892840D01*
X16198420Y-5861080D01*
X16178730Y-5834630D01*
X16143300Y-5818750D01*
X16107870Y-5824040D01*
X16072430Y-5845210D01*
G01X16442510Y-6146830D02*
X16434630Y-6141540D01*
Y-6130960D01*
X16442510Y-6125670D01*
X16450390Y-6130960D01*
Y-6141540D01*
X16442510Y-6146830D01*
G01X16670860Y-6072750D02*
X16694470Y-6109800D01*
X16725970Y-6130960D01*
X16761410Y-6136250D01*
X16792910Y-6130960D01*
X16824400Y-6104510D01*
X16844080Y-6072750D01*
X16848020Y-6041000D01*
X16840150Y-6003970D01*
X16812590Y-5977500D01*
X16785030Y-5966910D01*
X16749590D01*
G01X16785030D02*
X16808650Y-5951040D01*
X16828340Y-5924590D01*
X16836210Y-5892840D01*
X16828340Y-5861080D01*
X16808650Y-5834630D01*
X16773220Y-5818750D01*
X16737790Y-5824040D01*
X16702350Y-5845210D01*
G01X16052740Y-5236670D02*
X16076370Y-5204920D01*
X16103930Y-5189040D01*
X16135430Y-5183750D01*
X16174790Y-5194330D01*
X16202360Y-5220790D01*
X16210230Y-5252540D01*
X16206290Y-5284300D01*
X16190540Y-5310750D01*
X16111800Y-5363670D01*
X16076370Y-5400710D01*
X16052740Y-5453640D01*
X16044870Y-5501250D01*
X16210230D01*
G01X16442510Y-5511830D02*
X16434630Y-5506540D01*
Y-5495960D01*
X16442510Y-5490670D01*
X16450390Y-5495960D01*
Y-5506540D01*
X16442510Y-5511830D01*
G01X16682660Y-5236670D02*
X16706290Y-5204920D01*
X16733850Y-5189040D01*
X16765350Y-5183750D01*
X16804710Y-5194330D01*
X16832280Y-5220790D01*
X16840150Y-5252540D01*
X16836210Y-5284300D01*
X16820460Y-5310750D01*
X16741720Y-5363670D01*
X16706290Y-5400710D01*
X16682660Y-5453640D01*
X16674790Y-5501250D01*
X16840150D01*
G01X16127550Y-4866250D02*
Y-4548750D01*
X16080310Y-4612250D01*
G01Y-4866250D02*
X16174790D01*
G01X16442510Y-4876830D02*
X16434630Y-4871540D01*
Y-4860960D01*
X16442510Y-4855670D01*
X16450390Y-4860960D01*
Y-4871540D01*
X16442510Y-4876830D01*
G01X16670860Y-4818640D02*
X16694470Y-4845090D01*
X16722030Y-4860960D01*
X16757470Y-4866250D01*
X16792910Y-4855670D01*
X16820460Y-4834510D01*
X16840150Y-4797460D01*
X16844080Y-4755130D01*
X16836210Y-4712800D01*
X16816520Y-4686330D01*
X16788960Y-4665170D01*
X16761410Y-4659880D01*
X16733850Y-4665170D01*
X16698420Y-4686330D01*
X16710230Y-4548750D01*
X16816520D01*
G01X16127550Y-4231250D02*
Y-3913750D01*
X16080310Y-3977250D01*
G01Y-4231250D02*
X16174790D01*
G01X16442510Y-4241830D02*
X16434630Y-4236540D01*
Y-4225960D01*
X16442510Y-4220670D01*
X16450390Y-4225960D01*
Y-4236540D01*
X16442510Y-4241830D01*
G01X16682660Y-3966670D02*
X16706290Y-3934920D01*
X16733850Y-3919040D01*
X16765350Y-3913750D01*
X16804710Y-3924330D01*
X16832280Y-3950790D01*
X16840150Y-3982540D01*
X16836210Y-4014300D01*
X16820460Y-4040750D01*
X16741720Y-4093670D01*
X16706290Y-4130710D01*
X16682660Y-4183640D01*
X16674790Y-4231250D01*
X16840150D01*
G01X16127550Y-3596250D02*
Y-3278750D01*
X16080310Y-3342250D01*
G01Y-3596250D02*
X16174790D01*
G01X16442510Y-3606830D02*
X16434630Y-3601540D01*
Y-3590960D01*
X16442510Y-3585670D01*
X16450390Y-3590960D01*
Y-3601540D01*
X16442510Y-3606830D01*
G01X16682660Y-3331670D02*
X16706290Y-3299920D01*
X16733850Y-3284040D01*
X16765350Y-3278750D01*
X16804710Y-3289330D01*
X16832280Y-3315790D01*
X16840150Y-3347540D01*
X16836210Y-3379300D01*
X16820460Y-3405750D01*
X16741720Y-3458670D01*
X16706290Y-3495710D01*
X16682660Y-3548640D01*
X16674790Y-3596250D01*
X16840150D01*
G01X16127550Y-2961250D02*
Y-2643750D01*
X16080310Y-2707250D01*
G01Y-2961250D02*
X16174790D01*
G01X16442510Y-2971830D02*
X16434630Y-2966540D01*
Y-2955960D01*
X16442510Y-2950670D01*
X16450390Y-2955960D01*
Y-2966540D01*
X16442510Y-2971830D01*
G01X16757470Y-2643750D02*
X16725970Y-2654330D01*
X16702350Y-2680790D01*
X16686600Y-2712540D01*
X16674790Y-2754880D01*
X16670860Y-2802500D01*
X16674790Y-2850130D01*
X16686600Y-2892460D01*
X16702350Y-2924220D01*
X16725970Y-2950670D01*
X16757470Y-2961250D01*
X16788960Y-2950670D01*
X16812590Y-2924220D01*
X16828340Y-2892460D01*
X16840150Y-2850130D01*
X16844080Y-2802500D01*
X16840150Y-2754880D01*
X16828340Y-2712540D01*
X16812590Y-2680790D01*
X16788960Y-2654330D01*
X16757470Y-2643750D01*
G01X16127550Y-2008750D02*
X16096050Y-2019330D01*
X16072430Y-2045790D01*
X16056680Y-2077540D01*
X16044870Y-2119880D01*
X16040940Y-2167500D01*
X16044870Y-2215130D01*
X16056680Y-2257460D01*
X16072430Y-2289220D01*
X16096050Y-2315670D01*
X16127550Y-2326250D01*
X16159040Y-2315670D01*
X16182670Y-2289220D01*
X16198420Y-2257460D01*
X16210230Y-2215130D01*
X16214160Y-2167500D01*
X16210230Y-2119880D01*
X16198420Y-2077540D01*
X16182670Y-2045790D01*
X16159040Y-2019330D01*
X16127550Y-2008750D01*
G01X16442510Y-2336830D02*
X16434630Y-2331540D01*
Y-2320960D01*
X16442510Y-2315670D01*
X16450390Y-2320960D01*
Y-2331540D01*
X16442510Y-2336830D01*
G01X16757470Y-2326250D02*
X16785030Y-2320960D01*
X16816520Y-2305090D01*
X16836210Y-2278640D01*
X16844080Y-2241580D01*
X16836210Y-2204550D01*
X16812590Y-2172800D01*
X16777150Y-2156910D01*
X16737790D01*
X16714160Y-2146330D01*
X16694470Y-2119880D01*
X16686600Y-2082840D01*
X16698420Y-2045790D01*
X16725970Y-2019330D01*
X16757470Y-2008750D01*
X16788960Y-2019330D01*
X16816520Y-2045790D01*
X16828340Y-2082840D01*
X16820460Y-2119880D01*
X16800780Y-2146330D01*
X16777150Y-2156910D01*
X16737790D01*
X16702350Y-2172800D01*
X16678730Y-2204550D01*
X16670860Y-2241580D01*
X16678730Y-2278640D01*
X16698420Y-2305090D01*
X16729910Y-2320960D01*
X16757470Y-2326250D01*
G01X16127550Y-1373750D02*
X16096050Y-1384330D01*
X16072430Y-1410790D01*
X16056680Y-1442540D01*
X16044870Y-1484880D01*
X16040940Y-1532500D01*
X16044870Y-1580130D01*
X16056680Y-1622460D01*
X16072430Y-1654220D01*
X16096050Y-1680670D01*
X16127550Y-1691250D01*
X16159040Y-1680670D01*
X16182670Y-1654220D01*
X16198420Y-1622460D01*
X16210230Y-1580130D01*
X16214160Y-1532500D01*
X16210230Y-1484880D01*
X16198420Y-1442540D01*
X16182670Y-1410790D01*
X16159040Y-1384330D01*
X16127550Y-1373750D01*
G01X16442510Y-1701830D02*
X16434630Y-1696540D01*
Y-1685960D01*
X16442510Y-1680670D01*
X16450390Y-1685960D01*
Y-1696540D01*
X16442510Y-1701830D01*
G01X16749590Y-1691250D02*
X16757470Y-1622460D01*
X16769280Y-1564260D01*
X16785030Y-1511330D01*
X16804710Y-1453130D01*
X16836210Y-1373750D01*
X16678730D01*
G01X16127550Y-738750D02*
X16096050Y-749330D01*
X16072430Y-775790D01*
X16056680Y-807540D01*
X16044870Y-849880D01*
X16040940Y-897500D01*
X16044870Y-945130D01*
X16056680Y-987460D01*
X16072430Y-1019220D01*
X16096050Y-1045670D01*
X16127550Y-1056250D01*
X16159040Y-1045670D01*
X16182670Y-1019220D01*
X16198420Y-987460D01*
X16210230Y-945130D01*
X16214160Y-897500D01*
X16210230Y-849880D01*
X16198420Y-807540D01*
X16182670Y-775790D01*
X16159040Y-749330D01*
X16127550Y-738750D01*
G01X16442510Y-1066830D02*
X16434630Y-1061540D01*
Y-1050960D01*
X16442510Y-1045670D01*
X16450390Y-1050960D01*
Y-1061540D01*
X16442510Y-1066830D01*
G01X16670860Y-992750D02*
X16694470Y-1029800D01*
X16725970Y-1050960D01*
X16761410Y-1056250D01*
X16792910Y-1050960D01*
X16824400Y-1024510D01*
X16844080Y-992750D01*
X16848020Y-961000D01*
X16840150Y-923970D01*
X16812590Y-897500D01*
X16785030Y-886910D01*
X16749590D01*
G01X16785030D02*
X16808650Y-871040D01*
X16828340Y-844590D01*
X16836210Y-812840D01*
X16828340Y-781080D01*
X16808650Y-754630D01*
X16773220Y-738750D01*
X16737790Y-744040D01*
X16702350Y-765210D01*
G01X18666910Y213750D02*
X18765340Y531250D01*
X18863770Y213750D01*
G01X18828330Y324870D02*
X18702340D01*
G01X19001560Y531250D02*
Y213750D01*
X19159040D01*
G01X19316520Y531250D02*
Y213750D01*
X19474000D01*
G01X19938570Y531250D02*
Y303710D01*
X19954310Y256070D01*
X19985810Y224330D01*
X20025180Y213750D01*
X20064550Y224330D01*
X20096050Y256070D01*
X20111790Y303710D01*
Y531250D01*
G01X20249590Y213750D02*
Y531250D01*
X20430690Y213750D01*
Y531250D01*
G01X20607860D02*
X20702340D01*
G01X20655100D02*
Y213750D01*
G01X20607860D02*
X20702340D01*
G01X20970060Y531250D02*
Y213750D01*
G01X20879510Y531250D02*
X21060610D01*
G01X21202340Y256070D02*
X21233840Y229620D01*
X21269270Y213750D01*
X21300770D01*
X21332260Y229620D01*
X21355890Y256070D01*
X21367700Y293130D01*
X21359830Y330160D01*
X21340140Y361910D01*
X21304700Y383090D01*
X21257460Y393670D01*
X21229900Y414830D01*
X21218090Y451870D01*
X21225970Y488920D01*
X21245650Y515370D01*
X21273210Y531250D01*
X21300770D01*
X21328330Y520670D01*
X21351950Y494210D01*
G01X21816510Y213750D02*
X21914940Y531250D01*
X22013370Y213750D01*
G01X21977930Y324870D02*
X21851940D01*
G01X22151160Y213750D02*
Y531250D01*
X22249580D01*
X22281080Y515370D01*
X22300770Y494210D01*
X22308640Y451870D01*
X22300770Y409540D01*
X22277140Y383090D01*
X22249580Y367200D01*
X22151160D01*
G01X22249580D02*
X22308640Y213750D01*
G01X22623600D02*
X22466120D01*
Y531250D01*
X22623600D01*
G01X22560610Y377800D02*
X22466120D01*
G01X23127540Y531250D02*
X23222020D01*
G01X23174780D02*
Y213750D01*
G01X23127540D02*
X23222020D01*
G01X23399190D02*
Y531250D01*
X23580290Y213750D01*
Y531250D01*
G01X24017290Y213750D02*
Y531250D01*
X24119660Y266670D01*
X24222030Y531250D01*
Y213750D01*
G01X24387380Y531250D02*
X24481860D01*
G01X24434620D02*
Y213750D01*
G01X24387380D02*
X24481860D01*
G01X24670840Y531250D02*
Y213750D01*
X24828320D01*
G01X24985800Y531250D02*
Y213750D01*
X25143280D01*
G01X25332260Y531250D02*
X25426740D01*
G01X25379500D02*
Y213750D01*
G01X25332260D02*
X25426740D01*
G01X25592090D02*
Y531250D01*
X25694460Y266670D01*
X25796830Y531250D01*
Y213750D01*
G01X26088160D02*
X25930680D01*
Y531250D01*
X26088160D01*
G01X26025170Y377800D02*
X25930680D01*
G01X26324380Y531250D02*
Y213750D01*
G01X26233830Y531250D02*
X26414930D01*
G01X26718080Y213750D02*
X26560600D01*
Y531250D01*
X26718080D01*
G01X26655090Y377800D02*
X26560600D01*
G01X26875560Y213750D02*
Y531250D01*
X26973980D01*
X27005480Y515370D01*
X27025170Y494210D01*
X27033040Y451870D01*
X27025170Y409540D01*
X27001540Y383090D01*
X26973980Y367200D01*
X26875560D01*
G01X26973980D02*
X27033040Y213750D01*
G01X27186580Y256070D02*
X27218080Y229620D01*
X27253510Y213750D01*
X27285010D01*
X27316500Y229620D01*
X27340130Y256070D01*
X27351940Y293130D01*
X27344070Y330160D01*
X27324380Y361910D01*
X27288940Y383090D01*
X27241700Y393670D01*
X27214140Y414830D01*
X27202330Y451870D01*
X27210210Y488920D01*
X27229890Y515370D01*
X27257450Y531250D01*
X27285010D01*
X27312570Y520670D01*
X27336190Y494210D01*
G01X18993690Y863750D02*
Y1181250D01*
X19072420D01*
X19103920Y1165370D01*
X19127540Y1144210D01*
X19147230Y1112460D01*
X19162980Y1075410D01*
X19166910Y1022500D01*
X19162980Y969580D01*
X19147230Y932540D01*
X19127540Y900780D01*
X19103920Y879620D01*
X19072420Y863750D01*
X18993690D01*
G01X19316520D02*
Y1181250D01*
X19414940D01*
X19446440Y1165370D01*
X19466130Y1144210D01*
X19474000Y1101870D01*
X19466130Y1059540D01*
X19442500Y1033090D01*
X19414940Y1017200D01*
X19316520D01*
G01X19414940D02*
X19474000Y863750D01*
G01X19662980Y1181250D02*
X19757460D01*
G01X19710220D02*
Y863750D01*
G01X19662980D02*
X19757460D01*
G01X19946440Y1181250D02*
Y863750D01*
X20103920D01*
G01X20261400Y1181250D02*
Y863750D01*
X20418880D01*
G01X21056670Y1154790D02*
X21033050Y1170670D01*
X21005500Y1181250D01*
X20974000D01*
X20938560Y1165370D01*
X20911010Y1138920D01*
X20891320Y1107160D01*
X20875570Y1054250D01*
X20871630Y1006620D01*
X20879510Y959000D01*
X20891320Y927250D01*
X20914940Y895490D01*
X20942500Y874330D01*
X20970060Y863750D01*
X20997620D01*
X21025180Y874330D01*
X21048800Y890200D01*
X21068490Y911360D01*
G01X21202340Y863750D02*
Y1181250D01*
G01X21367700D02*
Y863750D01*
G01Y1022500D02*
X21202340D01*
G01X21501550Y863750D02*
X21599980Y1181250D01*
X21698410Y863750D01*
G01X21662970Y974870D02*
X21536980D01*
G01X21836200Y863750D02*
Y1181250D01*
X21934620D01*
X21966120Y1165370D01*
X21985810Y1144210D01*
X21993680Y1101870D01*
X21985810Y1059540D01*
X21962180Y1033090D01*
X21934620Y1017200D01*
X21836200D01*
G01X21934620D02*
X21993680Y863750D01*
G01X22229900Y1181250D02*
Y863750D01*
G01X22139350Y1181250D02*
X22320450D01*
G01X22544860Y853170D02*
X22536980Y858460D01*
Y869040D01*
X22544860Y874330D01*
X22552740Y869040D01*
Y858460D01*
X22544860Y853170D01*
G01Y996030D02*
X22536980Y1001330D01*
Y1011910D01*
X22544860Y1017200D01*
X22552740Y1011910D01*
Y1001330D01*
X22544860Y996030D01*
G01X23174780Y1181250D02*
Y863750D01*
G01X23084230Y1181250D02*
X23265330D01*
G01X23489740Y863750D02*
X23458240Y869040D01*
X23430690Y890200D01*
X23407060Y921960D01*
X23391310Y959000D01*
X23383440Y1001330D01*
Y1043670D01*
X23391310Y1086000D01*
X23407060Y1123040D01*
X23430690Y1154790D01*
X23458240Y1175960D01*
X23489740Y1181250D01*
X23521230Y1175960D01*
X23548790Y1154790D01*
X23572420Y1123040D01*
X23588170Y1086000D01*
X23596040Y1043670D01*
Y1001330D01*
X23588170Y959000D01*
X23572420Y921960D01*
X23548790Y890200D01*
X23521230Y869040D01*
X23489740Y863750D01*
G01X23725960D02*
Y1181250D01*
X23820450D01*
X23851940Y1165370D01*
X23875570Y1128330D01*
X23883440Y1086000D01*
X23875570Y1043670D01*
X23855880Y1011910D01*
X23820450Y996030D01*
X23725960D01*
G01X24434620Y1181250D02*
Y863750D01*
G01X24379500Y1075410D02*
X24489740D01*
G01X24749580Y863750D02*
X24725960Y869040D01*
X24702340Y890200D01*
X24686580Y927250D01*
X24678710Y969580D01*
X24686580Y1011910D01*
X24702340Y1048960D01*
X24725960Y1070120D01*
X24749580Y1075410D01*
X24773200Y1070120D01*
X24796820Y1048960D01*
X24812570Y1011910D01*
X24816510Y969580D01*
X24812570Y927250D01*
X24796820Y890200D01*
X24773200Y869040D01*
X24749580Y863750D01*
G01X25410990Y1033090D02*
X25426740Y1048960D01*
X25438550Y1075410D01*
X25446430Y1112460D01*
X25438550Y1144210D01*
X25422810Y1165370D01*
X25395250Y1181250D01*
X25288950D01*
Y863750D01*
X25418870D01*
X25446430Y884910D01*
X25462180Y916670D01*
X25470050Y953710D01*
X25462180Y990740D01*
X25438550Y1022500D01*
X25410990Y1033090D01*
X25288950D01*
G01X25694460Y863750D02*
X25662960Y869040D01*
X25635410Y890200D01*
X25611780Y921960D01*
X25596030Y959000D01*
X25588160Y1001330D01*
Y1043670D01*
X25596030Y1086000D01*
X25611780Y1123040D01*
X25635410Y1154790D01*
X25662960Y1175960D01*
X25694460Y1181250D01*
X25725950Y1175960D01*
X25753510Y1154790D01*
X25777140Y1123040D01*
X25792890Y1086000D01*
X25800760Y1043670D01*
Y1001330D01*
X25792890Y959000D01*
X25777140Y921960D01*
X25753510Y890200D01*
X25725950Y869040D01*
X25694460Y863750D01*
G01X26009420Y1181250D02*
Y863750D01*
G01X25918870Y1181250D02*
X26099970D01*
G01X26324380D02*
Y863750D01*
G01X26233830Y1181250D02*
X26414930D01*
G01X26639340Y863750D02*
X26607840Y869040D01*
X26580290Y890200D01*
X26556660Y921960D01*
X26540910Y959000D01*
X26533040Y1001330D01*
Y1043670D01*
X26540910Y1086000D01*
X26556660Y1123040D01*
X26580290Y1154790D01*
X26607840Y1175960D01*
X26639340Y1181250D01*
X26670830Y1175960D01*
X26698390Y1154790D01*
X26722020Y1123040D01*
X26737770Y1086000D01*
X26745640Y1043670D01*
Y1001330D01*
X26737770Y959000D01*
X26722020Y921960D01*
X26698390Y890200D01*
X26670830Y869040D01*
X26639340Y863750D01*
G01X26851930D02*
Y1181250D01*
X26954300Y916670D01*
X27056670Y1181250D01*
Y863750D01*
G01X19001560Y55000D02*
Y-6295000D01*
G01X19741720Y-421250D02*
Y-103750D01*
X19820450D01*
X19851950Y-119630D01*
X19875570Y-140790D01*
X19895260Y-172540D01*
X19911010Y-209590D01*
X19914940Y-262500D01*
X19911010Y-315420D01*
X19895260Y-352460D01*
X19875570Y-384220D01*
X19851950Y-405380D01*
X19820450Y-421250D01*
X19741720D01*
G01X20064550D02*
Y-103750D01*
X20162970D01*
X20194470Y-119630D01*
X20214160Y-140790D01*
X20222030Y-183130D01*
X20214160Y-225460D01*
X20190530Y-251910D01*
X20162970Y-267800D01*
X20064550D01*
G01X20162970D02*
X20222030Y-421250D01*
G01X20411010Y-103750D02*
X20505490D01*
G01X20458250D02*
Y-421250D01*
G01X20411010D02*
X20505490D01*
G01X20694470Y-103750D02*
Y-421250D01*
X20851950D01*
G01X21009430Y-103750D02*
Y-421250D01*
X21166910D01*
G01X21481870D02*
X21324390D01*
Y-103750D01*
X21481870D01*
G01X21418880Y-257200D02*
X21324390D01*
G01X21631480Y-421250D02*
Y-103750D01*
X21710210D01*
X21741710Y-119630D01*
X21765330Y-140790D01*
X21785020Y-172540D01*
X21800770Y-209590D01*
X21804700Y-262500D01*
X21800770Y-315420D01*
X21785020Y-352460D01*
X21765330Y-384220D01*
X21741710Y-405380D01*
X21710210Y-421250D01*
X21631480D01*
G01X21914940Y-527080D02*
X22151160D01*
G01X22265330Y-378930D02*
X22296830Y-405380D01*
X22332260Y-421250D01*
X22363760D01*
X22395250Y-405380D01*
X22418880Y-378930D01*
X22430690Y-341870D01*
X22422820Y-304840D01*
X22403130Y-273090D01*
X22367690Y-251910D01*
X22320450Y-241330D01*
X22292890Y-220170D01*
X22281080Y-183130D01*
X22288960Y-146080D01*
X22308640Y-119630D01*
X22336200Y-103750D01*
X22363760D01*
X22391320Y-114330D01*
X22414940Y-140790D01*
G01X22615730Y-103750D02*
X22710210D01*
G01X22662970D02*
Y-421250D01*
G01X22615730D02*
X22710210D01*
G01X22903120Y-103750D02*
X23052740D01*
X22903120Y-421250D01*
X23052740D01*
G01X23371630D02*
X23214150D01*
Y-103750D01*
X23371630D01*
G01X23308640Y-257200D02*
X23214150D01*
G01X21509430Y-6030420D02*
X21611790D01*
G01X21509430Y-5395420D02*
X21611790D01*
G01X21509430Y-4760420D02*
X21611790D01*
G01X21509430Y-4125420D02*
X21611790D01*
G01X21509430Y-3490420D02*
X21611790D01*
G01X21509430Y-2855420D02*
X21611790D01*
G01X21509430Y-2220420D02*
X21611790D01*
G01X21509430Y-1585420D02*
X21611790D01*
G01X21509430Y-950420D02*
X21611790D01*
G01X24119660Y55000D02*
Y-6295000D01*
G01X24225960Y-6136250D02*
Y-5818750D01*
X24407060Y-6136250D01*
Y-5818750D01*
G01X24631470Y-6136250D02*
X24599970Y-6130960D01*
X24572420Y-6109800D01*
X24548790Y-6078040D01*
X24533040Y-6041000D01*
X24525170Y-5998670D01*
Y-5956330D01*
X24533040Y-5914000D01*
X24548790Y-5876960D01*
X24572420Y-5845210D01*
X24599970Y-5824040D01*
X24631470Y-5818750D01*
X24662960Y-5824040D01*
X24690520Y-5845210D01*
X24714150Y-5876960D01*
X24729900Y-5914000D01*
X24737770Y-5956330D01*
Y-5998670D01*
X24729900Y-6041000D01*
X24714150Y-6078040D01*
X24690520Y-6109800D01*
X24662960Y-6130960D01*
X24631470Y-6136250D01*
G01X24855880D02*
Y-5818750D01*
X25036980Y-6136250D01*
Y-5818750D01*
G01X25210210Y-6030420D02*
X25312570D01*
G01X25497610Y-6136250D02*
Y-5818750D01*
X25592100D01*
X25623590Y-5834630D01*
X25647220Y-5871670D01*
X25655090Y-5914000D01*
X25647220Y-5956330D01*
X25627530Y-5988090D01*
X25592100Y-6003970D01*
X25497610D01*
G01X25812570Y-5818750D02*
Y-6136250D01*
X25970050D01*
G01X26107840D02*
X26206270Y-5818750D01*
X26304700Y-6136250D01*
G01X26269260Y-6025130D02*
X26143270D01*
G01X26521230Y-5818750D02*
Y-6136250D01*
G01X26430680Y-5818750D02*
X26611780D01*
G01X26914930Y-6136250D02*
X26757450D01*
Y-5818750D01*
X26914930D01*
G01X26851940Y-5972200D02*
X26757450D01*
G01X27064540Y-6136250D02*
Y-5818750D01*
X27143270D01*
X27174770Y-5834630D01*
X27198390Y-5855790D01*
X27218080Y-5887540D01*
X27233830Y-5924590D01*
X27237760Y-5977500D01*
X27233830Y-6030420D01*
X27218080Y-6067460D01*
X27198390Y-6099220D01*
X27174770Y-6120380D01*
X27143270Y-6136250D01*
X27064540D01*
G01X24225960Y-5501250D02*
Y-5183750D01*
X24407060Y-5501250D01*
Y-5183750D01*
G01X24631470Y-5501250D02*
X24599970Y-5495960D01*
X24572420Y-5474800D01*
X24548790Y-5443040D01*
X24533040Y-5406000D01*
X24525170Y-5363670D01*
Y-5321330D01*
X24533040Y-5279000D01*
X24548790Y-5241960D01*
X24572420Y-5210210D01*
X24599970Y-5189040D01*
X24631470Y-5183750D01*
X24662960Y-5189040D01*
X24690520Y-5210210D01*
X24714150Y-5241960D01*
X24729900Y-5279000D01*
X24737770Y-5321330D01*
Y-5363670D01*
X24729900Y-5406000D01*
X24714150Y-5443040D01*
X24690520Y-5474800D01*
X24662960Y-5495960D01*
X24631470Y-5501250D01*
G01X24855880D02*
Y-5183750D01*
X25036980Y-5501250D01*
Y-5183750D01*
G01X25210210Y-5395420D02*
X25312570D01*
G01X25497610Y-5501250D02*
Y-5183750D01*
X25592100D01*
X25623590Y-5199630D01*
X25647220Y-5236670D01*
X25655090Y-5279000D01*
X25647220Y-5321330D01*
X25627530Y-5353090D01*
X25592100Y-5368970D01*
X25497610D01*
G01X25812570Y-5183750D02*
Y-5501250D01*
X25970050D01*
G01X26107840D02*
X26206270Y-5183750D01*
X26304700Y-5501250D01*
G01X26269260Y-5390130D02*
X26143270D01*
G01X26521230Y-5183750D02*
Y-5501250D01*
G01X26430680Y-5183750D02*
X26611780D01*
G01X26914930Y-5501250D02*
X26757450D01*
Y-5183750D01*
X26914930D01*
G01X26851940Y-5337200D02*
X26757450D01*
G01X27064540Y-5501250D02*
Y-5183750D01*
X27143270D01*
X27174770Y-5199630D01*
X27198390Y-5220790D01*
X27218080Y-5252540D01*
X27233830Y-5289590D01*
X27237760Y-5342500D01*
X27233830Y-5395420D01*
X27218080Y-5432460D01*
X27198390Y-5464220D01*
X27174770Y-5485380D01*
X27143270Y-5501250D01*
X27064540D01*
G01X24867690Y-4866250D02*
Y-4548750D01*
X24962180D01*
X24993670Y-4564630D01*
X25017300Y-4601670D01*
X25025170Y-4644000D01*
X25017300Y-4686330D01*
X24997610Y-4718090D01*
X24962180Y-4733970D01*
X24867690D01*
G01X25182650Y-4548750D02*
Y-4866250D01*
X25340130D01*
G01X25477920D02*
X25576350Y-4548750D01*
X25674780Y-4866250D01*
G01X25639340Y-4755130D02*
X25513350D01*
G01X25891310Y-4548750D02*
Y-4866250D01*
G01X25800760Y-4548750D02*
X25981860D01*
G01X26285010Y-4866250D02*
X26127530D01*
Y-4548750D01*
X26285010D01*
G01X26222020Y-4702200D02*
X26127530D01*
G01X26434620Y-4866250D02*
Y-4548750D01*
X26513350D01*
X26544850Y-4564630D01*
X26568470Y-4585790D01*
X26588160Y-4617540D01*
X26603910Y-4654590D01*
X26607840Y-4707500D01*
X26603910Y-4760420D01*
X26588160Y-4797460D01*
X26568470Y-4829220D01*
X26544850Y-4850380D01*
X26513350Y-4866250D01*
X26434620D01*
G01X24867690Y-4231250D02*
Y-3913750D01*
X24962180D01*
X24993670Y-3929630D01*
X25017300Y-3966670D01*
X25025170Y-4009000D01*
X25017300Y-4051330D01*
X24997610Y-4083090D01*
X24962180Y-4098970D01*
X24867690D01*
G01X25182650Y-3913750D02*
Y-4231250D01*
X25340130D01*
G01X25477920D02*
X25576350Y-3913750D01*
X25674780Y-4231250D01*
G01X25639340Y-4120130D02*
X25513350D01*
G01X25891310Y-3913750D02*
Y-4231250D01*
G01X25800760Y-3913750D02*
X25981860D01*
G01X26285010Y-4231250D02*
X26127530D01*
Y-3913750D01*
X26285010D01*
G01X26222020Y-4067200D02*
X26127530D01*
G01X26434620Y-4231250D02*
Y-3913750D01*
X26513350D01*
X26544850Y-3929630D01*
X26568470Y-3950790D01*
X26588160Y-3982540D01*
X26603910Y-4019590D01*
X26607840Y-4072500D01*
X26603910Y-4125420D01*
X26588160Y-4162460D01*
X26568470Y-4194220D01*
X26544850Y-4215380D01*
X26513350Y-4231250D01*
X26434620D01*
G01X24867690Y-3596250D02*
Y-3278750D01*
X24962180D01*
X24993670Y-3294630D01*
X25017300Y-3331670D01*
X25025170Y-3374000D01*
X25017300Y-3416330D01*
X24997610Y-3448090D01*
X24962180Y-3463970D01*
X24867690D01*
G01X25182650Y-3278750D02*
Y-3596250D01*
X25340130D01*
G01X25477920D02*
X25576350Y-3278750D01*
X25674780Y-3596250D01*
G01X25639340Y-3485130D02*
X25513350D01*
G01X25891310Y-3278750D02*
Y-3596250D01*
G01X25800760Y-3278750D02*
X25981860D01*
G01X26285010Y-3596250D02*
X26127530D01*
Y-3278750D01*
X26285010D01*
G01X26222020Y-3432200D02*
X26127530D01*
G01X26434620Y-3596250D02*
Y-3278750D01*
X26513350D01*
X26544850Y-3294630D01*
X26568470Y-3315790D01*
X26588160Y-3347540D01*
X26603910Y-3384590D01*
X26607840Y-3437500D01*
X26603910Y-3490420D01*
X26588160Y-3527460D01*
X26568470Y-3559220D01*
X26544850Y-3580380D01*
X26513350Y-3596250D01*
X26434620D01*
G01X24867690Y-2961250D02*
Y-2643750D01*
X24962180D01*
X24993670Y-2659630D01*
X25017300Y-2696670D01*
X25025170Y-2739000D01*
X25017300Y-2781330D01*
X24997610Y-2813090D01*
X24962180Y-2828970D01*
X24867690D01*
G01X25182650Y-2643750D02*
Y-2961250D01*
X25340130D01*
G01X25477920D02*
X25576350Y-2643750D01*
X25674780Y-2961250D01*
G01X25639340Y-2850130D02*
X25513350D01*
G01X25891310Y-2643750D02*
Y-2961250D01*
G01X25800760Y-2643750D02*
X25981860D01*
G01X26285010Y-2961250D02*
X26127530D01*
Y-2643750D01*
X26285010D01*
G01X26222020Y-2797200D02*
X26127530D01*
G01X26434620Y-2961250D02*
Y-2643750D01*
X26513350D01*
X26544850Y-2659630D01*
X26568470Y-2680790D01*
X26588160Y-2712540D01*
X26603910Y-2749590D01*
X26607840Y-2802500D01*
X26603910Y-2855420D01*
X26588160Y-2892460D01*
X26568470Y-2924220D01*
X26544850Y-2945380D01*
X26513350Y-2961250D01*
X26434620D01*
G01X24867690Y-2326250D02*
Y-2008750D01*
X24962180D01*
X24993670Y-2024630D01*
X25017300Y-2061670D01*
X25025170Y-2104000D01*
X25017300Y-2146330D01*
X24997610Y-2178090D01*
X24962180Y-2193970D01*
X24867690D01*
G01X25182650Y-2008750D02*
Y-2326250D01*
X25340130D01*
G01X25477920D02*
X25576350Y-2008750D01*
X25674780Y-2326250D01*
G01X25639340Y-2215130D02*
X25513350D01*
G01X25891310Y-2008750D02*
Y-2326250D01*
G01X25800760Y-2008750D02*
X25981860D01*
G01X26285010Y-2326250D02*
X26127530D01*
Y-2008750D01*
X26285010D01*
G01X26222020Y-2162200D02*
X26127530D01*
G01X26434620Y-2326250D02*
Y-2008750D01*
X26513350D01*
X26544850Y-2024630D01*
X26568470Y-2045790D01*
X26588160Y-2077540D01*
X26603910Y-2114590D01*
X26607840Y-2167500D01*
X26603910Y-2220420D01*
X26588160Y-2257460D01*
X26568470Y-2289220D01*
X26544850Y-2310380D01*
X26513350Y-2326250D01*
X26434620D01*
G01X24867690Y-1691250D02*
Y-1373750D01*
X24962180D01*
X24993670Y-1389630D01*
X25017300Y-1426670D01*
X25025170Y-1469000D01*
X25017300Y-1511330D01*
X24997610Y-1543090D01*
X24962180Y-1558970D01*
X24867690D01*
G01X25182650Y-1373750D02*
Y-1691250D01*
X25340130D01*
G01X25477920D02*
X25576350Y-1373750D01*
X25674780Y-1691250D01*
G01X25639340Y-1580130D02*
X25513350D01*
G01X25891310Y-1373750D02*
Y-1691250D01*
G01X25800760Y-1373750D02*
X25981860D01*
G01X26285010Y-1691250D02*
X26127530D01*
Y-1373750D01*
X26285010D01*
G01X26222020Y-1527200D02*
X26127530D01*
G01X26434620Y-1691250D02*
Y-1373750D01*
X26513350D01*
X26544850Y-1389630D01*
X26568470Y-1410790D01*
X26588160Y-1442540D01*
X26603910Y-1479590D01*
X26607840Y-1532500D01*
X26603910Y-1585420D01*
X26588160Y-1622460D01*
X26568470Y-1654220D01*
X26544850Y-1675380D01*
X26513350Y-1691250D01*
X26434620D01*
G01X24867690Y-1056250D02*
Y-738750D01*
X24962180D01*
X24993670Y-754630D01*
X25017300Y-791670D01*
X25025170Y-834000D01*
X25017300Y-876330D01*
X24997610Y-908090D01*
X24962180Y-923970D01*
X24867690D01*
G01X25182650Y-738750D02*
Y-1056250D01*
X25340130D01*
G01X25477920D02*
X25576350Y-738750D01*
X25674780Y-1056250D01*
G01X25639340Y-945130D02*
X25513350D01*
G01X25891310Y-738750D02*
Y-1056250D01*
G01X25800760Y-738750D02*
X25981860D01*
G01X26285010Y-1056250D02*
X26127530D01*
Y-738750D01*
X26285010D01*
G01X26222020Y-892200D02*
X26127530D01*
G01X26434620Y-1056250D02*
Y-738750D01*
X26513350D01*
X26544850Y-754630D01*
X26568470Y-775790D01*
X26588160Y-807540D01*
X26603910Y-844590D01*
X26607840Y-897500D01*
X26603910Y-950420D01*
X26588160Y-987460D01*
X26568470Y-1019220D01*
X26544850Y-1040380D01*
X26513350Y-1056250D01*
X26434620D01*
G01X24867690Y-421250D02*
Y-103750D01*
X24962180D01*
X24993670Y-119630D01*
X25017300Y-156670D01*
X25025170Y-199000D01*
X25017300Y-241330D01*
X24997610Y-273090D01*
X24962180Y-288970D01*
X24867690D01*
G01X25182650Y-103750D02*
Y-421250D01*
X25340130D01*
G01X25477920D02*
X25576350Y-103750D01*
X25674780Y-421250D01*
G01X25639340Y-310130D02*
X25513350D01*
G01X25891310Y-103750D02*
Y-421250D01*
G01X25800760Y-103750D02*
X25981860D01*
G01X26285010Y-421250D02*
X26127530D01*
Y-103750D01*
X26285010D01*
G01X26222020Y-257200D02*
X26127530D01*
G01X26434620Y-421250D02*
Y-103750D01*
X26513350D01*
X26544850Y-119630D01*
X26568470Y-140790D01*
X26588160Y-172540D01*
X26603910Y-209590D01*
X26607840Y-262500D01*
X26603910Y-315420D01*
X26588160Y-352460D01*
X26568470Y-384220D01*
X26544850Y-405380D01*
X26513350Y-421250D01*
X26434620D01*
G01X27348000Y55000D02*
Y-6295000D01*
G01X28241700Y-421250D02*
Y-103750D01*
X28422800Y-421250D01*
Y-103750D01*
G01X28647210Y-421250D02*
X28615710Y-415960D01*
X28588160Y-394800D01*
X28564530Y-363040D01*
X28548780Y-326000D01*
X28540910Y-283670D01*
Y-241330D01*
X28548780Y-199000D01*
X28564530Y-161960D01*
X28588160Y-130210D01*
X28615710Y-109040D01*
X28647210Y-103750D01*
X28678700Y-109040D01*
X28706260Y-130210D01*
X28729890Y-161960D01*
X28745640Y-199000D01*
X28753510Y-241330D01*
Y-283670D01*
X28745640Y-326000D01*
X28729890Y-363040D01*
X28706260Y-394800D01*
X28678700Y-415960D01*
X28647210Y-421250D01*
G01X28871620D02*
Y-103750D01*
X29052720Y-421250D01*
Y-103750D01*
G01X29194450Y-378930D02*
X29225950Y-405380D01*
X29261380Y-421250D01*
X29292880D01*
X29324370Y-405380D01*
X29348000Y-378930D01*
X29359810Y-341870D01*
X29351940Y-304840D01*
X29332250Y-273090D01*
X29296810Y-251910D01*
X29249570Y-241330D01*
X29222010Y-220170D01*
X29210200Y-183130D01*
X29218080Y-146080D01*
X29237760Y-119630D01*
X29265320Y-103750D01*
X29292880D01*
X29320440Y-114330D01*
X29344060Y-140790D01*
G01X29592090Y-103750D02*
Y-421250D01*
G01X29501540Y-103750D02*
X29682640D01*
G01X29808620Y-421250D02*
X29907050Y-103750D01*
X30005480Y-421250D01*
G01X29970040Y-310130D02*
X29844050D01*
G01X30131460Y-421250D02*
Y-103750D01*
X30312560Y-421250D01*
Y-103750D01*
G01X30450360Y-421250D02*
Y-103750D01*
X30529090D01*
X30560590Y-119630D01*
X30584210Y-140790D01*
X30603900Y-172540D01*
X30619650Y-209590D01*
X30623580Y-262500D01*
X30619650Y-315420D01*
X30603900Y-352460D01*
X30584210Y-384220D01*
X30560590Y-405380D01*
X30529090Y-421250D01*
X30450360D01*
G01X30753500D02*
X30851930Y-103750D01*
X30950360Y-421250D01*
G01X30914920Y-310130D02*
X30788930D01*
G01X31088150Y-421250D02*
Y-103750D01*
X31186570D01*
X31218070Y-119630D01*
X31237760Y-140790D01*
X31245630Y-183130D01*
X31237760Y-225460D01*
X31214130Y-251910D01*
X31186570Y-267800D01*
X31088150D01*
G01X31186570D02*
X31245630Y-421250D01*
G01X31395240D02*
Y-103750D01*
X31473970D01*
X31505470Y-119630D01*
X31529090Y-140790D01*
X31548780Y-172540D01*
X31564530Y-209590D01*
X31568460Y-262500D01*
X31564530Y-315420D01*
X31548780Y-352460D01*
X31529090Y-384220D01*
X31505470Y-405380D01*
X31473970Y-421250D01*
X31395240D01*
G01X29509410Y-2283930D02*
X29540910Y-2310380D01*
X29576340Y-2326250D01*
X29607840D01*
X29639330Y-2310380D01*
X29662960Y-2283930D01*
X29674770Y-2246870D01*
X29666900Y-2209840D01*
X29647210Y-2178090D01*
X29611770Y-2156910D01*
X29564530Y-2146330D01*
X29536970Y-2125170D01*
X29525160Y-2088130D01*
X29533040Y-2051080D01*
X29552720Y-2024630D01*
X29580280Y-2008750D01*
X29607840D01*
X29635400Y-2019330D01*
X29659020Y-2045790D01*
G01X29907050Y-2326250D02*
X29875550Y-2320960D01*
X29848000Y-2299800D01*
X29824370Y-2268040D01*
X29808620Y-2231000D01*
X29800750Y-2188670D01*
Y-2146330D01*
X29808620Y-2104000D01*
X29824370Y-2066960D01*
X29848000Y-2035210D01*
X29875550Y-2014040D01*
X29907050Y-2008750D01*
X29938540Y-2014040D01*
X29966100Y-2035210D01*
X29989730Y-2066960D01*
X30005480Y-2104000D01*
X30013350Y-2146330D01*
Y-2188670D01*
X30005480Y-2231000D01*
X29989730Y-2268040D01*
X29966100Y-2299800D01*
X29938540Y-2320960D01*
X29907050Y-2326250D01*
G01X29938540Y-2241580D02*
X29985790Y-2326250D01*
G01X30170830Y-2220420D02*
X30273190D01*
G01X29855870Y-6030420D02*
X29958230D01*
G01X29855870Y-5395420D02*
X29958230D01*
G01X29855870Y-4760420D02*
X29958230D01*
G01X29855870Y-4125420D02*
X29958230D01*
G01X29855870Y-3490420D02*
X29958230D01*
G01X29855870Y-2855420D02*
X29958230D01*
G01X29855870Y-1585420D02*
X29958230D01*
G01X29855870Y-950420D02*
X29958230D01*
G01X32466100Y55000D02*
Y-6295000D01*
G01X33206260Y-1627750D02*
X33229870Y-1664800D01*
X33261370Y-1685960D01*
X33296810Y-1691250D01*
X33328310Y-1685960D01*
X33359800Y-1659510D01*
X33379480Y-1627750D01*
X33383420Y-1596000D01*
X33375550Y-1558970D01*
X33347990Y-1532500D01*
X33320430Y-1521910D01*
X33284990D01*
G01X33320430D02*
X33344050Y-1506040D01*
X33363740Y-1479590D01*
X33371610Y-1447840D01*
X33363740Y-1416080D01*
X33344050Y-1389630D01*
X33308620Y-1373750D01*
X33273190Y-1379040D01*
X33237750Y-1400210D01*
G01X33533020Y-1426670D02*
X33556650Y-1394920D01*
X33584210Y-1379040D01*
X33615710Y-1373750D01*
X33655070Y-1384330D01*
X33682640Y-1410790D01*
X33690510Y-1442540D01*
X33686570Y-1474300D01*
X33670820Y-1500750D01*
X33592080Y-1553670D01*
X33556650Y-1590710D01*
X33533020Y-1643640D01*
X33525150Y-1691250D01*
X33690510D01*
G01X33060580Y-791670D02*
X33084210Y-759920D01*
X33111770Y-744040D01*
X33143270Y-738750D01*
X33182630Y-749330D01*
X33210200Y-775790D01*
X33218070Y-807540D01*
X33214130Y-839300D01*
X33198380Y-865750D01*
X33119640Y-918670D01*
X33084210Y-955710D01*
X33060580Y-1008640D01*
X33052710Y-1056250D01*
X33218070D01*
G01X33450350Y-738750D02*
X33418850Y-749330D01*
X33395230Y-775790D01*
X33379480Y-807540D01*
X33367670Y-849880D01*
X33363740Y-897500D01*
X33367670Y-945130D01*
X33379480Y-987460D01*
X33395230Y-1019220D01*
X33418850Y-1045670D01*
X33450350Y-1056250D01*
X33481840Y-1045670D01*
X33505470Y-1019220D01*
X33521220Y-987460D01*
X33533030Y-945130D01*
X33536960Y-897500D01*
X33533030Y-849880D01*
X33521220Y-807540D01*
X33505470Y-775790D01*
X33481840Y-749330D01*
X33450350Y-738750D01*
G01X33678700Y-992750D02*
X33702310Y-1029800D01*
X33733810Y-1050960D01*
X33769250Y-1056250D01*
X33800750Y-1050960D01*
X33832240Y-1024510D01*
X33851920Y-992750D01*
X33855860Y-961000D01*
X33847990Y-923970D01*
X33820430Y-897500D01*
X33792870Y-886910D01*
X33757430D01*
G01X33792870D02*
X33816490Y-871040D01*
X33836180Y-844590D01*
X33844050Y-812840D01*
X33836180Y-781080D01*
X33816490Y-754630D01*
X33781060Y-738750D01*
X33745630Y-744040D01*
X33710190Y-765210D01*
G01X33135390Y-421250D02*
X33103890Y-415960D01*
X33076340Y-394800D01*
X33052710Y-363040D01*
X33036960Y-326000D01*
X33029090Y-283670D01*
Y-241330D01*
X33036960Y-199000D01*
X33052710Y-161960D01*
X33076340Y-130210D01*
X33103890Y-109040D01*
X33135390Y-103750D01*
X33166880Y-109040D01*
X33194440Y-130210D01*
X33218070Y-161960D01*
X33233820Y-199000D01*
X33241690Y-241330D01*
Y-283670D01*
X33233820Y-326000D01*
X33218070Y-363040D01*
X33194440Y-394800D01*
X33166880Y-415960D01*
X33135390Y-421250D01*
G01X33166880Y-336580D02*
X33214130Y-421250D01*
G01X33450350Y-103750D02*
Y-421250D01*
G01X33359800Y-103750D02*
X33540900D01*
G01X33765310Y-421250D02*
Y-278380D01*
X33686570Y-103750D01*
G01X33844050D02*
X33765310Y-278380D01*
G01X33375540Y-5871670D02*
X33399170Y-5839920D01*
X33426730Y-5824040D01*
X33458230Y-5818750D01*
X33497590Y-5829330D01*
X33525160Y-5855790D01*
X33533030Y-5887540D01*
X33529090Y-5919300D01*
X33513340Y-5945750D01*
X33434600Y-5998670D01*
X33399170Y-6035710D01*
X33375540Y-6088640D01*
X33367670Y-6136250D01*
X33533030D01*
G01X33497590Y-5501250D02*
Y-5183750D01*
X33351920Y-5411290D01*
X33548780D01*
G01X33375540Y-4601670D02*
X33399170Y-4569920D01*
X33426730Y-4554040D01*
X33458230Y-4548750D01*
X33497590Y-4559330D01*
X33525160Y-4585790D01*
X33533030Y-4617540D01*
X33529090Y-4649300D01*
X33513340Y-4675750D01*
X33434600Y-4728670D01*
X33399170Y-4765710D01*
X33375540Y-4818640D01*
X33367670Y-4866250D01*
X33533030D01*
G01X33497590Y-4231250D02*
Y-3913750D01*
X33351920Y-4141290D01*
X33548780D01*
G01X33363740Y-3532750D02*
X33387350Y-3569800D01*
X33418850Y-3590960D01*
X33454290Y-3596250D01*
X33485790Y-3590960D01*
X33517280Y-3564510D01*
X33536960Y-3532750D01*
X33540900Y-3501000D01*
X33533030Y-3463970D01*
X33505470Y-3437500D01*
X33477910Y-3426910D01*
X33442470D01*
G01X33477910D02*
X33501530Y-3411040D01*
X33521220Y-3384590D01*
X33529090Y-3352840D01*
X33521220Y-3321080D01*
X33501530Y-3294630D01*
X33466100Y-3278750D01*
X33430670Y-3284040D01*
X33395230Y-3305210D01*
G01X33450350Y-2961250D02*
X33477910Y-2955960D01*
X33509400Y-2940090D01*
X33529090Y-2913640D01*
X33536960Y-2876580D01*
X33529090Y-2839550D01*
X33505470Y-2807800D01*
X33470030Y-2791910D01*
X33430670D01*
X33407040Y-2781330D01*
X33387350Y-2754880D01*
X33379480Y-2717840D01*
X33391300Y-2680790D01*
X33418850Y-2654330D01*
X33450350Y-2643750D01*
X33481840Y-2654330D01*
X33509400Y-2680790D01*
X33521220Y-2717840D01*
X33513340Y-2754880D01*
X33493660Y-2781330D01*
X33470030Y-2791910D01*
X33430670D01*
X33395230Y-2807800D01*
X33371610Y-2839550D01*
X33363740Y-2876580D01*
X33371610Y-2913640D01*
X33391300Y-2940090D01*
X33422790Y-2955960D01*
X33450350Y-2961250D01*
G01X33497590Y-2326250D02*
Y-2008750D01*
X33351920Y-2236290D01*
X33548780D01*
G01X36111000Y-4550010D02*
Y-4112660D01*
X37635000D01*
Y-4550010D01*
X36111000D01*
G01Y-4045780D02*
Y-239780D01*
X37635000D01*
Y-4045780D01*
X36111000D01*
G01Y-172900D02*
Y264450D01*
X37635000D01*
Y-172900D01*
X36111000D01*
G01X40430000Y-3120000D02*
X44276000D01*
G01X40430000Y-2940010D02*
X44276000D01*
G01X40430000Y-3120000D02*
Y-780130D01*
G01Y-2760020D02*
X44276000D01*
G01X40430000Y-2580030D02*
X44276000D01*
G01X40430000Y-2400040D02*
X44276000D01*
G01X40430000Y-2220050D02*
X44276000D01*
G01X40430000Y-2040060D02*
X44276000D01*
G01X40430000Y-1860070D02*
X44276000D01*
G01X40430000Y-1680080D02*
X44276000D01*
G01X40430000Y-1500090D02*
X44276000D01*
G01X40430000Y-1320100D02*
X44276000D01*
G01X40430000Y-1140110D02*
X44276000D01*
G01X40430000Y-960120D02*
X44276000D01*
G01X40430000Y-780130D02*
X44276000D01*
G01X40640000Y-2940010D02*
Y-1140110D01*
G01X41200000Y-2940010D02*
Y-1140110D01*
G01X42040000Y-2940010D02*
Y-1140110D01*
G01X42740000Y-3120000D02*
Y-1140110D01*
G01X43510000Y-3120000D02*
Y-1140110D01*
G01X44276000Y-3120000D02*
Y-780130D01*
G54D18*
X1300000Y800000D03*
D03*
X6600000D03*
D03*
G54D28*
G01X35976000Y-5073670D02*
Y-4973670D01*
X35996000D01*
X36004000Y-4978670D01*
X36010000Y-4985340D01*
X36015000Y-4995340D01*
X36019000Y-5007010D01*
X36020000Y-5023670D01*
X36019000Y-5040340D01*
X36015000Y-5052000D01*
X36010000Y-5062010D01*
X36004000Y-5068670D01*
X35996000Y-5073670D01*
X35976000D01*
G01X36088000D02*
X36048000D01*
Y-4973670D01*
X36088000D01*
G01X36072000Y-5022000D02*
X36048000D01*
G01X36117000Y-5060340D02*
X36125000Y-5068670D01*
X36134000Y-5073670D01*
X36142000D01*
X36150000Y-5068670D01*
X36156000Y-5060340D01*
X36159000Y-5048670D01*
X36157000Y-5037010D01*
X36152000Y-5027000D01*
X36143000Y-5020340D01*
X36131000Y-5017000D01*
X36124000Y-5010340D01*
X36121000Y-4998670D01*
X36123000Y-4987000D01*
X36128000Y-4978670D01*
X36135000Y-4973670D01*
X36142000D01*
X36149000Y-4977000D01*
X36155000Y-4985340D01*
G01X36196000Y-4973670D02*
X36220000D01*
G01X36208000D02*
Y-5073670D01*
G01X36196000D02*
X36220000D01*
G01X36284000Y-5023670D02*
X36304000D01*
Y-5053670D01*
X36298000Y-5063670D01*
X36291000Y-5070340D01*
X36281000Y-5073670D01*
X36271000Y-5070340D01*
X36264000Y-5063670D01*
X36258000Y-5053670D01*
X36254000Y-5042000D01*
X36252000Y-5028670D01*
Y-5017000D01*
X36254000Y-5007010D01*
X36258000Y-4995340D01*
X36264000Y-4985340D01*
X36270000Y-4978670D01*
X36278000Y-4973670D01*
X36285000D01*
X36293000Y-4977000D01*
X36299000Y-4983670D01*
G01X36325000Y-5073670D02*
Y-4973670D01*
X36371000Y-5073670D01*
Y-4973670D01*
G01X36510000Y-4982000D02*
X36504000Y-4977000D01*
X36497000Y-4973670D01*
X36489000D01*
X36480000Y-4978670D01*
X36473000Y-4987000D01*
X36468000Y-4997000D01*
X36464000Y-5013670D01*
X36463000Y-5028670D01*
X36465000Y-5043670D01*
X36468000Y-5053670D01*
X36474000Y-5063670D01*
X36481000Y-5070340D01*
X36488000Y-5073670D01*
X36495000D01*
X36502000Y-5070340D01*
X36508000Y-5065340D01*
X36513000Y-5058670D01*
G01X36538000Y-5073670D02*
Y-4973670D01*
X36563000D01*
X36571000Y-4978670D01*
X36576000Y-4985340D01*
X36578000Y-4998670D01*
X36576000Y-5012000D01*
X36570000Y-5020340D01*
X36563000Y-5025340D01*
X36538000D01*
G01X36563000D02*
X36578000Y-5073670D01*
G01X36628000D02*
X36620000Y-5072000D01*
X36613000Y-5065340D01*
X36607000Y-5055340D01*
X36603000Y-5043670D01*
X36601000Y-5030340D01*
Y-5017000D01*
X36603000Y-5003670D01*
X36607000Y-4992000D01*
X36613000Y-4982000D01*
X36620000Y-4975340D01*
X36628000Y-4973670D01*
X36636000Y-4975340D01*
X36643000Y-4982000D01*
X36649000Y-4992000D01*
X36653000Y-5003670D01*
X36655000Y-5017000D01*
Y-5030340D01*
X36653000Y-5043670D01*
X36649000Y-5055340D01*
X36643000Y-5065340D01*
X36636000Y-5072000D01*
X36628000Y-5073670D01*
G01X36677000Y-5060340D02*
X36685000Y-5068670D01*
X36694000Y-5073670D01*
X36702000D01*
X36710000Y-5068670D01*
X36716000Y-5060340D01*
X36719000Y-5048670D01*
X36717000Y-5037010D01*
X36712000Y-5027000D01*
X36703000Y-5020340D01*
X36691000Y-5017000D01*
X36684000Y-5010340D01*
X36681000Y-4998670D01*
X36683000Y-4987000D01*
X36688000Y-4978670D01*
X36695000Y-4973670D01*
X36702000D01*
X36709000Y-4977000D01*
X36715000Y-4985340D01*
G01X36747000Y-5060340D02*
X36755000Y-5068670D01*
X36764000Y-5073670D01*
X36772000D01*
X36780000Y-5068670D01*
X36786000Y-5060340D01*
X36789000Y-5048670D01*
X36787000Y-5037010D01*
X36782000Y-5027000D01*
X36773000Y-5020340D01*
X36761000Y-5017000D01*
X36754000Y-5010340D01*
X36751000Y-4998670D01*
X36753000Y-4987000D01*
X36758000Y-4978670D01*
X36765000Y-4973670D01*
X36772000D01*
X36779000Y-4977000D01*
X36785000Y-4985340D01*
G01X36887000Y-5060340D02*
X36895000Y-5068670D01*
X36904000Y-5073670D01*
X36912000D01*
X36920000Y-5068670D01*
X36926000Y-5060340D01*
X36929000Y-5048670D01*
X36927000Y-5037010D01*
X36922000Y-5027000D01*
X36913000Y-5020340D01*
X36901000Y-5017000D01*
X36894000Y-5010340D01*
X36891000Y-4998670D01*
X36893000Y-4987000D01*
X36898000Y-4978670D01*
X36905000Y-4973670D01*
X36912000D01*
X36919000Y-4977000D01*
X36925000Y-4985340D01*
G01X36998000Y-5073670D02*
X36958000D01*
Y-4973670D01*
X36998000D01*
G01X36982000Y-5022000D02*
X36958000D01*
G01X37070000Y-4982000D02*
X37064000Y-4977000D01*
X37057000Y-4973670D01*
X37049000D01*
X37040000Y-4978670D01*
X37033000Y-4987000D01*
X37028000Y-4997000D01*
X37024000Y-5013670D01*
X37023000Y-5028670D01*
X37025000Y-5043670D01*
X37028000Y-5053670D01*
X37034000Y-5063670D01*
X37041000Y-5070340D01*
X37048000Y-5073670D01*
X37055000D01*
X37062000Y-5070340D01*
X37068000Y-5065340D01*
X37073000Y-5058670D01*
G01X37118000Y-4973670D02*
Y-5073670D01*
G01X37095000Y-4973670D02*
X37141000D01*
G01X37176000D02*
X37200000D01*
G01X37188000D02*
Y-5073670D01*
G01X37176000D02*
X37200000D01*
G01X37258000D02*
X37250000Y-5072000D01*
X37243000Y-5065340D01*
X37237000Y-5055340D01*
X37233000Y-5043670D01*
X37231000Y-5030340D01*
Y-5017000D01*
X37233000Y-5003670D01*
X37237000Y-4992000D01*
X37243000Y-4982000D01*
X37250000Y-4975340D01*
X37258000Y-4973670D01*
X37266000Y-4975340D01*
X37273000Y-4982000D01*
X37279000Y-4992000D01*
X37283000Y-5003670D01*
X37285000Y-5017000D01*
Y-5030340D01*
X37283000Y-5043670D01*
X37279000Y-5055340D01*
X37273000Y-5065340D01*
X37266000Y-5072000D01*
X37258000Y-5073670D01*
G01X37305000D02*
Y-4973670D01*
X37351000Y-5073670D01*
Y-4973670D01*
G01X37490000Y-4982000D02*
X37484000Y-4977000D01*
X37477000Y-4973670D01*
X37469000D01*
X37460000Y-4978670D01*
X37453000Y-4987000D01*
X37448000Y-4997000D01*
X37444000Y-5013670D01*
X37443000Y-5028670D01*
X37445000Y-5043670D01*
X37448000Y-5053670D01*
X37454000Y-5063670D01*
X37461000Y-5070340D01*
X37468000Y-5073670D01*
X37475000D01*
X37482000Y-5070340D01*
X37488000Y-5065340D01*
X37493000Y-5058670D01*
G01X37517000Y-5073670D02*
Y-4973670D01*
G01X37559000D02*
Y-5073670D01*
G01Y-5023670D02*
X37517000D01*
G01X37583000Y-5073670D02*
X37608000Y-4973670D01*
X37633000Y-5073670D01*
G01X37624000Y-5038670D02*
X37592000D01*
G01X37658000Y-5073670D02*
Y-4973670D01*
X37683000D01*
X37691000Y-4978670D01*
X37696000Y-4985340D01*
X37698000Y-4998670D01*
X37696000Y-5012000D01*
X37690000Y-5020340D01*
X37683000Y-5025340D01*
X37658000D01*
G01X37683000D02*
X37698000Y-5073670D01*
G01X37748000Y-4973670D02*
Y-5073670D01*
G01X37725000Y-4973670D02*
X37771000D01*
G01X35933000Y-5107000D02*
X35993000D01*
G01X36003000D02*
X36063000D01*
G01X36073000D02*
X36133000D01*
G01X36143000D02*
X36203000D01*
G01X36213000D02*
X36273000D01*
G01X36283000D02*
X36343000D01*
G01X36353000D02*
X36413000D01*
G01X36423000D02*
X36483000D01*
G01X36493000D02*
X36553000D01*
G01X36563000D02*
X36623000D01*
G01X36633000D02*
X36693000D01*
G01X36703000D02*
X36763000D01*
G01X36773000D02*
X36833000D01*
G01X36843000D02*
X36903000D01*
G01X36913000D02*
X36973000D01*
G01X36983000D02*
X37043000D01*
G01X37053000D02*
X37113000D01*
G01X37123000D02*
X37183000D01*
G01X37193000D02*
X37253000D01*
G01X37263000D02*
X37323000D01*
G01X37333000D02*
X37393000D01*
G01X37403000D02*
X37463000D01*
G01X37473000D02*
X37533000D01*
G01X37543000D02*
X37603000D01*
G01X37613000D02*
X37673000D01*
G01X37683000D02*
X37743000D01*
G01X37753000D02*
X37813000D01*
G01X36033000Y-5153670D02*
Y-5253670D01*
G01X36010000Y-5153670D02*
X36056000D01*
G01X36103000Y-5253670D02*
X36095000Y-5252000D01*
X36088000Y-5245340D01*
X36082000Y-5235340D01*
X36078000Y-5223670D01*
X36076000Y-5210340D01*
Y-5197000D01*
X36078000Y-5183670D01*
X36082000Y-5172000D01*
X36088000Y-5162000D01*
X36095000Y-5155340D01*
X36103000Y-5153670D01*
X36111000Y-5155340D01*
X36118000Y-5162000D01*
X36124000Y-5172000D01*
X36128000Y-5183670D01*
X36130000Y-5197000D01*
Y-5210340D01*
X36128000Y-5223670D01*
X36124000Y-5235340D01*
X36118000Y-5245340D01*
X36111000Y-5252000D01*
X36103000Y-5253670D01*
G01X36173000Y-5153670D02*
Y-5253670D01*
G01X36150000Y-5153670D02*
X36196000D01*
G01X36218000Y-5253670D02*
X36243000Y-5153670D01*
X36268000Y-5253670D01*
G01X36259000Y-5218670D02*
X36227000D01*
G01X36293000Y-5153670D02*
Y-5253670D01*
X36333000D01*
G01X36453000Y-5153670D02*
Y-5253670D01*
G01X36430000Y-5153670D02*
X36476000D01*
G01X36502000Y-5253670D02*
Y-5153670D01*
G01X36544000D02*
Y-5253670D01*
G01Y-5203670D02*
X36502000D01*
G01X36581000Y-5153670D02*
X36605000D01*
G01X36593000D02*
Y-5253670D01*
G01X36581000D02*
X36605000D01*
G01X36685000Y-5162000D02*
X36679000Y-5157000D01*
X36672000Y-5153670D01*
X36664000D01*
X36655000Y-5158670D01*
X36648000Y-5167000D01*
X36643000Y-5177000D01*
X36639000Y-5193670D01*
X36638000Y-5208670D01*
X36640000Y-5223670D01*
X36643000Y-5233670D01*
X36649000Y-5243670D01*
X36656000Y-5250340D01*
X36663000Y-5253670D01*
X36670000D01*
X36677000Y-5250340D01*
X36683000Y-5245340D01*
X36688000Y-5238670D01*
G01X36711000Y-5253670D02*
Y-5153670D01*
G01X36749000D02*
X36711000Y-5215340D01*
G01X36755000Y-5253670D02*
X36728000Y-5187010D01*
G01X36780000Y-5253670D02*
Y-5153670D01*
X36826000Y-5253670D01*
Y-5153670D01*
G01X36893000Y-5253670D02*
X36853000D01*
Y-5153670D01*
X36893000D01*
G01X36877000Y-5202000D02*
X36853000D01*
G01X36922000Y-5240340D02*
X36930000Y-5248670D01*
X36939000Y-5253670D01*
X36947000D01*
X36955000Y-5248670D01*
X36961000Y-5240340D01*
X36964000Y-5228670D01*
X36962000Y-5217010D01*
X36957000Y-5207000D01*
X36948000Y-5200340D01*
X36936000Y-5197000D01*
X36929000Y-5190340D01*
X36926000Y-5178670D01*
X36928000Y-5167000D01*
X36933000Y-5158670D01*
X36940000Y-5153670D01*
X36947000D01*
X36954000Y-5157000D01*
X36960000Y-5165340D01*
G01X36992000Y-5240340D02*
X37000000Y-5248670D01*
X37009000Y-5253670D01*
X37017000D01*
X37025000Y-5248670D01*
X37031000Y-5240340D01*
X37034000Y-5228670D01*
X37032000Y-5217010D01*
X37027000Y-5207000D01*
X37018000Y-5200340D01*
X37006000Y-5197000D01*
X36999000Y-5190340D01*
X36996000Y-5178670D01*
X36998000Y-5167000D01*
X37003000Y-5158670D01*
X37010000Y-5153670D01*
X37017000D01*
X37024000Y-5157000D01*
X37030000Y-5165340D01*
G01X37153000Y-5253670D02*
Y-5153670D01*
X37141000Y-5173670D01*
G01Y-5253670D02*
X37165000D01*
G01X37223000Y-5257000D02*
X37221000Y-5255340D01*
Y-5252000D01*
X37223000Y-5250340D01*
X37225000Y-5252000D01*
Y-5255340D01*
X37223000Y-5257000D01*
G01X37293000Y-5253670D02*
Y-5153670D01*
X37281000Y-5173670D01*
G01Y-5253670D02*
X37305000D01*
G01X37344000Y-5212010D02*
X37351000Y-5200340D01*
X37357000Y-5193670D01*
X37365000Y-5190340D01*
X37372000Y-5193670D01*
X37377000Y-5200340D01*
X37381000Y-5210340D01*
X37382000Y-5222000D01*
X37381000Y-5232000D01*
X37377000Y-5242010D01*
X37371000Y-5250340D01*
X37364000Y-5253670D01*
X37356000Y-5250340D01*
X37349000Y-5240340D01*
X37345000Y-5225340D01*
X37344000Y-5208670D01*
X37346000Y-5187010D01*
X37349000Y-5175340D01*
X37354000Y-5163670D01*
X37361000Y-5155340D01*
X37368000Y-5153670D01*
X37375000Y-5157000D01*
X37380000Y-5165340D01*
G01X37445000Y-5253670D02*
Y-5153670D01*
X37408000Y-5225340D01*
X37458000D01*
G01X37484000Y-5170340D02*
X37490000Y-5160340D01*
X37497000Y-5155340D01*
X37505000Y-5153670D01*
X37515000Y-5157000D01*
X37522000Y-5165340D01*
X37524000Y-5175340D01*
X37523000Y-5185340D01*
X37519000Y-5193670D01*
X37499000Y-5210340D01*
X37490000Y-5222000D01*
X37484000Y-5238670D01*
X37482000Y-5253670D01*
X37524000D01*
G01X37617000D02*
Y-5153670D01*
X37643000Y-5237000D01*
X37669000Y-5153670D01*
Y-5253670D01*
G01X37687000D02*
Y-5153670D01*
X37713000Y-5237000D01*
X37739000Y-5153670D01*
Y-5253670D01*
G01X36809500Y548450D02*
X36709500D01*
X36729500Y536450D01*
G01X36809500D02*
Y560450D01*
G01X36776170Y605450D02*
Y631450D01*
G01X36809500Y700450D02*
X36709500D01*
X36781170Y663450D01*
Y713450D01*
G01X37715000Y-4583340D02*
Y-4683340D01*
X37755000D01*
G01X37817000D02*
Y-4583340D01*
X37780000Y-4655010D01*
X37830000D01*
G01X37953000Y-4630010D02*
X37957000Y-4625010D01*
X37960000Y-4616680D01*
X37962000Y-4605010D01*
X37960000Y-4595010D01*
X37956000Y-4588340D01*
X37949000Y-4583340D01*
X37922000D01*
Y-4683340D01*
X37955000D01*
X37962000Y-4676670D01*
X37966000Y-4666670D01*
X37968000Y-4655010D01*
X37966000Y-4643340D01*
X37960000Y-4633340D01*
X37953000Y-4630010D01*
X37922000D01*
G01X38015000Y-4683340D02*
X38007000Y-4681670D01*
X38000000Y-4675010D01*
X37994000Y-4665010D01*
X37990000Y-4653340D01*
X37988000Y-4640010D01*
Y-4626670D01*
X37990000Y-4613340D01*
X37994000Y-4601670D01*
X38000000Y-4591670D01*
X38007000Y-4585010D01*
X38015000Y-4583340D01*
X38023000Y-4585010D01*
X38030000Y-4591670D01*
X38036000Y-4601670D01*
X38040000Y-4613340D01*
X38042000Y-4626670D01*
Y-4640010D01*
X38040000Y-4653340D01*
X38036000Y-4665010D01*
X38030000Y-4675010D01*
X38023000Y-4681670D01*
X38015000Y-4683340D01*
G01X38085000Y-4583340D02*
Y-4683340D01*
G01X38062000Y-4583340D02*
X38108000D01*
G01X38155000D02*
Y-4683340D01*
G01X38132000Y-4583340D02*
X38178000D01*
G01X38225000Y-4683340D02*
X38217000Y-4681670D01*
X38210000Y-4675010D01*
X38204000Y-4665010D01*
X38200000Y-4653340D01*
X38198000Y-4640010D01*
Y-4626670D01*
X38200000Y-4613340D01*
X38204000Y-4601670D01*
X38210000Y-4591670D01*
X38217000Y-4585010D01*
X38225000Y-4583340D01*
X38233000Y-4585010D01*
X38240000Y-4591670D01*
X38246000Y-4601670D01*
X38250000Y-4613340D01*
X38252000Y-4626670D01*
Y-4640010D01*
X38250000Y-4653340D01*
X38246000Y-4665010D01*
X38240000Y-4675010D01*
X38233000Y-4681670D01*
X38225000Y-4683340D01*
G01X38269000D02*
Y-4583340D01*
X38295000Y-4666670D01*
X38321000Y-4583340D01*
Y-4683340D01*
G01X38457000Y-4591670D02*
X38451000Y-4586670D01*
X38444000Y-4583340D01*
X38436000D01*
X38427000Y-4588340D01*
X38420000Y-4596670D01*
X38415000Y-4606670D01*
X38411000Y-4623340D01*
X38410000Y-4638340D01*
X38412000Y-4653340D01*
X38415000Y-4663340D01*
X38421000Y-4673340D01*
X38428000Y-4680010D01*
X38435000Y-4683340D01*
X38442000D01*
X38449000Y-4680010D01*
X38455000Y-4675010D01*
X38460000Y-4668340D01*
G01X38505000Y-4683340D02*
X38497000Y-4681670D01*
X38490000Y-4675010D01*
X38484000Y-4665010D01*
X38480000Y-4653340D01*
X38478000Y-4640010D01*
Y-4626670D01*
X38480000Y-4613340D01*
X38484000Y-4601670D01*
X38490000Y-4591670D01*
X38497000Y-4585010D01*
X38505000Y-4583340D01*
X38513000Y-4585010D01*
X38520000Y-4591670D01*
X38526000Y-4601670D01*
X38530000Y-4613340D01*
X38532000Y-4626670D01*
Y-4640010D01*
X38530000Y-4653340D01*
X38526000Y-4665010D01*
X38520000Y-4675010D01*
X38513000Y-4681670D01*
X38505000Y-4683340D01*
G01X38552000D02*
Y-4583340D01*
X38598000Y-4683340D01*
Y-4583340D01*
G01X38623000Y-4683340D02*
Y-4583340D01*
X38643000D01*
X38651000Y-4588340D01*
X38657000Y-4595010D01*
X38662000Y-4605010D01*
X38666000Y-4616680D01*
X38667000Y-4633340D01*
X38666000Y-4650010D01*
X38662000Y-4661670D01*
X38657000Y-4671680D01*
X38651000Y-4678340D01*
X38643000Y-4683340D01*
X38623000D01*
G01X38693000Y-4583340D02*
Y-4655010D01*
X38697000Y-4670010D01*
X38705000Y-4680010D01*
X38715000Y-4683340D01*
X38725000Y-4680010D01*
X38733000Y-4670010D01*
X38737000Y-4655010D01*
Y-4583340D01*
G01X38807000Y-4591670D02*
X38801000Y-4586670D01*
X38794000Y-4583340D01*
X38786000D01*
X38777000Y-4588340D01*
X38770000Y-4596670D01*
X38765000Y-4606670D01*
X38761000Y-4623340D01*
X38760000Y-4638340D01*
X38762000Y-4653340D01*
X38765000Y-4663340D01*
X38771000Y-4673340D01*
X38778000Y-4680010D01*
X38785000Y-4683340D01*
X38792000D01*
X38799000Y-4680010D01*
X38805000Y-4675010D01*
X38810000Y-4668340D01*
G01X38855000Y-4583340D02*
Y-4683340D01*
G01X38832000Y-4583340D02*
X38878000D01*
G01X38925000Y-4683340D02*
X38917000Y-4681670D01*
X38910000Y-4675010D01*
X38904000Y-4665010D01*
X38900000Y-4653340D01*
X38898000Y-4640010D01*
Y-4626670D01*
X38900000Y-4613340D01*
X38904000Y-4601670D01*
X38910000Y-4591670D01*
X38917000Y-4585010D01*
X38925000Y-4583340D01*
X38933000Y-4585010D01*
X38940000Y-4591670D01*
X38946000Y-4601670D01*
X38950000Y-4613340D01*
X38952000Y-4626670D01*
Y-4640010D01*
X38950000Y-4653340D01*
X38946000Y-4665010D01*
X38940000Y-4675010D01*
X38933000Y-4681670D01*
X38925000Y-4683340D01*
G01X38975000D02*
Y-4583340D01*
X39000000D01*
X39008000Y-4588340D01*
X39013000Y-4595010D01*
X39015000Y-4608340D01*
X39013000Y-4621670D01*
X39007000Y-4630010D01*
X39000000Y-4635010D01*
X38975000D01*
G01X39000000D02*
X39015000Y-4683340D01*
G01X37853000Y-4840670D02*
X37897000Y-4767340D01*
G01X37875000Y-4754010D02*
Y-4854010D01*
G01X37897000Y-4840670D02*
X37853000Y-4767340D01*
G01X37845000Y-4804010D02*
X37905000D01*
G01X38064000Y-4824010D02*
X38072000Y-4832340D01*
X38081000Y-4837340D01*
X38089000D01*
X38097000Y-4832340D01*
X38103000Y-4824010D01*
X38106000Y-4812340D01*
X38104000Y-4800680D01*
X38099000Y-4790670D01*
X38090000Y-4784010D01*
X38078000Y-4780670D01*
X38071000Y-4774010D01*
X38068000Y-4762340D01*
X38070000Y-4750670D01*
X38075000Y-4742340D01*
X38082000Y-4737340D01*
X38089000D01*
X38096000Y-4740670D01*
X38102000Y-4749010D01*
G01X38133000Y-4737340D02*
Y-4809010D01*
X38137000Y-4824010D01*
X38145000Y-4834010D01*
X38155000Y-4837340D01*
X38165000Y-4834010D01*
X38173000Y-4824010D01*
X38177000Y-4809010D01*
Y-4737340D01*
G01X38205000Y-4837340D02*
Y-4737340D01*
X38230000D01*
X38238000Y-4742340D01*
X38243000Y-4749010D01*
X38245000Y-4762340D01*
X38243000Y-4775670D01*
X38237000Y-4784010D01*
X38230000Y-4789010D01*
X38205000D01*
G01X38230000D02*
X38245000Y-4837340D01*
G01X38276000D02*
Y-4737340D01*
X38314000D01*
G01X38300000Y-4785670D02*
X38276000D01*
G01X38340000Y-4837340D02*
X38365000Y-4737340D01*
X38390000Y-4837340D01*
G01X38381000Y-4802340D02*
X38349000D01*
G01X38457000Y-4745670D02*
X38451000Y-4740670D01*
X38444000Y-4737340D01*
X38436000D01*
X38427000Y-4742340D01*
X38420000Y-4750670D01*
X38415000Y-4760670D01*
X38411000Y-4777340D01*
X38410000Y-4792340D01*
X38412000Y-4807340D01*
X38415000Y-4817340D01*
X38421000Y-4827340D01*
X38428000Y-4834010D01*
X38435000Y-4837340D01*
X38442000D01*
X38449000Y-4834010D01*
X38455000Y-4829010D01*
X38460000Y-4822340D01*
G01X38525000Y-4837340D02*
X38485000D01*
Y-4737340D01*
X38525000D01*
G01X38509000Y-4785670D02*
X38485000D01*
G01X37715000Y-4079110D02*
Y-4179110D01*
X37755000D01*
G01X37783000Y-4159110D02*
X37789000Y-4170780D01*
X37797000Y-4177440D01*
X37806000Y-4179110D01*
X37814000Y-4177440D01*
X37822000Y-4169110D01*
X37827000Y-4159110D01*
X37828000Y-4149110D01*
X37826000Y-4137450D01*
X37819000Y-4129110D01*
X37812000Y-4125780D01*
X37803000D01*
G01X37812000D02*
X37818000Y-4120780D01*
X37823000Y-4112450D01*
X37825000Y-4102440D01*
X37823000Y-4092440D01*
X37818000Y-4084110D01*
X37809000Y-4079110D01*
X37800000Y-4080780D01*
X37791000Y-4087440D01*
G01X37920000Y-4079110D02*
X37945000Y-4179110D01*
X37970000Y-4079110D01*
G01X38037000Y-4087440D02*
X38031000Y-4082440D01*
X38024000Y-4079110D01*
X38016000D01*
X38007000Y-4084110D01*
X38000000Y-4092440D01*
X37995000Y-4102440D01*
X37991000Y-4119110D01*
X37990000Y-4134110D01*
X37992000Y-4149110D01*
X37995000Y-4159110D01*
X38001000Y-4169110D01*
X38008000Y-4175780D01*
X38015000Y-4179110D01*
X38022000D01*
X38029000Y-4175780D01*
X38035000Y-4170780D01*
X38040000Y-4164110D01*
G01X38107000Y-4087440D02*
X38101000Y-4082440D01*
X38094000Y-4079110D01*
X38086000D01*
X38077000Y-4084110D01*
X38070000Y-4092440D01*
X38065000Y-4102440D01*
X38061000Y-4119110D01*
X38060000Y-4134110D01*
X38062000Y-4149110D01*
X38065000Y-4159110D01*
X38071000Y-4169110D01*
X38078000Y-4175780D01*
X38085000Y-4179110D01*
X38092000D01*
X38099000Y-4175780D01*
X38105000Y-4170780D01*
X38110000Y-4164110D01*
G01X38247000Y-4087440D02*
X38241000Y-4082440D01*
X38234000Y-4079110D01*
X38226000D01*
X38217000Y-4084110D01*
X38210000Y-4092440D01*
X38205000Y-4102440D01*
X38201000Y-4119110D01*
X38200000Y-4134110D01*
X38202000Y-4149110D01*
X38205000Y-4159110D01*
X38211000Y-4169110D01*
X38218000Y-4175780D01*
X38225000Y-4179110D01*
X38232000D01*
X38239000Y-4175780D01*
X38245000Y-4170780D01*
X38250000Y-4164110D01*
G01X38295000Y-4179110D02*
X38287000Y-4177440D01*
X38280000Y-4170780D01*
X38274000Y-4160780D01*
X38270000Y-4149110D01*
X38268000Y-4135780D01*
Y-4122440D01*
X38270000Y-4109110D01*
X38274000Y-4097440D01*
X38280000Y-4087440D01*
X38287000Y-4080780D01*
X38295000Y-4079110D01*
X38303000Y-4080780D01*
X38310000Y-4087440D01*
X38316000Y-4097440D01*
X38320000Y-4109110D01*
X38322000Y-4122440D01*
Y-4135780D01*
X38320000Y-4149110D01*
X38316000Y-4160780D01*
X38310000Y-4170780D01*
X38303000Y-4177440D01*
X38295000Y-4179110D01*
G01X38342000D02*
Y-4079110D01*
X38388000Y-4179110D01*
Y-4079110D01*
G01X38413000Y-4179110D02*
Y-4079110D01*
X38433000D01*
X38441000Y-4084110D01*
X38447000Y-4090780D01*
X38452000Y-4100780D01*
X38456000Y-4112450D01*
X38457000Y-4129110D01*
X38456000Y-4145780D01*
X38452000Y-4157440D01*
X38447000Y-4167450D01*
X38441000Y-4174110D01*
X38433000Y-4179110D01*
X38413000D01*
G01X38483000Y-4079110D02*
Y-4150780D01*
X38487000Y-4165780D01*
X38495000Y-4175780D01*
X38505000Y-4179110D01*
X38515000Y-4175780D01*
X38523000Y-4165780D01*
X38527000Y-4150780D01*
Y-4079110D01*
G01X38597000Y-4087440D02*
X38591000Y-4082440D01*
X38584000Y-4079110D01*
X38576000D01*
X38567000Y-4084110D01*
X38560000Y-4092440D01*
X38555000Y-4102440D01*
X38551000Y-4119110D01*
X38550000Y-4134110D01*
X38552000Y-4149110D01*
X38555000Y-4159110D01*
X38561000Y-4169110D01*
X38568000Y-4175780D01*
X38575000Y-4179110D01*
X38582000D01*
X38589000Y-4175780D01*
X38595000Y-4170780D01*
X38600000Y-4164110D01*
G01X38645000Y-4079110D02*
Y-4179110D01*
G01X38622000Y-4079110D02*
X38668000D01*
G01X38715000Y-4179110D02*
X38707000Y-4177440D01*
X38700000Y-4170780D01*
X38694000Y-4160780D01*
X38690000Y-4149110D01*
X38688000Y-4135780D01*
Y-4122440D01*
X38690000Y-4109110D01*
X38694000Y-4097440D01*
X38700000Y-4087440D01*
X38707000Y-4080780D01*
X38715000Y-4079110D01*
X38723000Y-4080780D01*
X38730000Y-4087440D01*
X38736000Y-4097440D01*
X38740000Y-4109110D01*
X38742000Y-4122440D01*
Y-4135780D01*
X38740000Y-4149110D01*
X38736000Y-4160780D01*
X38730000Y-4170780D01*
X38723000Y-4177440D01*
X38715000Y-4179110D01*
G01X38765000D02*
Y-4079110D01*
X38790000D01*
X38798000Y-4084110D01*
X38803000Y-4090780D01*
X38805000Y-4104110D01*
X38803000Y-4117440D01*
X38797000Y-4125780D01*
X38790000Y-4130780D01*
X38765000D01*
G01X38790000D02*
X38805000Y-4179110D01*
G01X37853000Y-4334660D02*
X37897000Y-4261330D01*
G01X37875000Y-4248000D02*
Y-4348000D01*
G01X37897000Y-4334660D02*
X37853000Y-4261330D01*
G01X37845000Y-4298000D02*
X37905000D01*
G01X38063000Y-4331330D02*
Y-4231330D01*
X38083000D01*
X38091000Y-4236330D01*
X38097000Y-4243000D01*
X38102000Y-4253000D01*
X38106000Y-4264670D01*
X38107000Y-4281330D01*
X38106000Y-4298000D01*
X38102000Y-4309660D01*
X38097000Y-4319670D01*
X38091000Y-4326330D01*
X38083000Y-4331330D01*
X38063000D01*
G01X38143000Y-4231330D02*
X38167000D01*
G01X38155000D02*
Y-4331330D01*
G01X38143000D02*
X38167000D01*
G01X38245000D02*
X38205000D01*
Y-4231330D01*
X38245000D01*
G01X38229000Y-4279660D02*
X38205000D01*
G01X38275000Y-4231330D02*
Y-4331330D01*
X38315000D01*
G01X38385000D02*
X38345000D01*
Y-4231330D01*
X38385000D01*
G01X38369000Y-4279660D02*
X38345000D01*
G01X38457000Y-4239660D02*
X38451000Y-4234660D01*
X38444000Y-4231330D01*
X38436000D01*
X38427000Y-4236330D01*
X38420000Y-4244660D01*
X38415000Y-4254660D01*
X38411000Y-4271330D01*
X38410000Y-4286330D01*
X38412000Y-4301330D01*
X38415000Y-4311330D01*
X38421000Y-4321330D01*
X38428000Y-4328000D01*
X38435000Y-4331330D01*
X38442000D01*
X38449000Y-4328000D01*
X38455000Y-4323000D01*
X38460000Y-4316330D01*
G01X38505000Y-4231330D02*
Y-4331330D01*
G01X38482000Y-4231330D02*
X38528000D01*
G01X38555000Y-4331330D02*
Y-4231330D01*
X38580000D01*
X38588000Y-4236330D01*
X38593000Y-4243000D01*
X38595000Y-4256330D01*
X38593000Y-4269660D01*
X38587000Y-4278000D01*
X38580000Y-4283000D01*
X38555000D01*
G01X38580000D02*
X38595000Y-4331330D01*
G01X38633000Y-4231330D02*
X38657000D01*
G01X38645000D02*
Y-4331330D01*
G01X38633000D02*
X38657000D01*
G01X38737000Y-4239660D02*
X38731000Y-4234660D01*
X38724000Y-4231330D01*
X38716000D01*
X38707000Y-4236330D01*
X38700000Y-4244660D01*
X38695000Y-4254660D01*
X38691000Y-4271330D01*
X38690000Y-4286330D01*
X38692000Y-4301330D01*
X38695000Y-4311330D01*
X38701000Y-4321330D01*
X38708000Y-4328000D01*
X38715000Y-4331330D01*
X38722000D01*
X38729000Y-4328000D01*
X38735000Y-4323000D01*
X38740000Y-4316330D01*
G01X37853000Y-2146110D02*
X37897000Y-2072780D01*
G01X37875000Y-2059450D02*
Y-2159450D01*
G01X37897000Y-2146110D02*
X37853000Y-2072780D01*
G01X37845000Y-2109450D02*
X37905000D01*
G01X38063000Y-2142780D02*
Y-2042780D01*
X38083000D01*
X38091000Y-2047780D01*
X38097000Y-2054450D01*
X38102000Y-2064450D01*
X38106000Y-2076120D01*
X38107000Y-2092780D01*
X38106000Y-2109450D01*
X38102000Y-2121110D01*
X38097000Y-2131120D01*
X38091000Y-2137780D01*
X38083000Y-2142780D01*
X38063000D01*
G01X38143000Y-2042780D02*
X38167000D01*
G01X38155000D02*
Y-2142780D01*
G01X38143000D02*
X38167000D01*
G01X38245000D02*
X38205000D01*
Y-2042780D01*
X38245000D01*
G01X38229000Y-2091110D02*
X38205000D01*
G01X38275000Y-2042780D02*
Y-2142780D01*
X38315000D01*
G01X38385000D02*
X38345000D01*
Y-2042780D01*
X38385000D01*
G01X38369000Y-2091110D02*
X38345000D01*
G01X38457000Y-2051110D02*
X38451000Y-2046110D01*
X38444000Y-2042780D01*
X38436000D01*
X38427000Y-2047780D01*
X38420000Y-2056110D01*
X38415000Y-2066110D01*
X38411000Y-2082780D01*
X38410000Y-2097780D01*
X38412000Y-2112780D01*
X38415000Y-2122780D01*
X38421000Y-2132780D01*
X38428000Y-2139450D01*
X38435000Y-2142780D01*
X38442000D01*
X38449000Y-2139450D01*
X38455000Y-2134450D01*
X38460000Y-2127780D01*
G01X38505000Y-2042780D02*
Y-2142780D01*
G01X38482000Y-2042780D02*
X38528000D01*
G01X38555000Y-2142780D02*
Y-2042780D01*
X38580000D01*
X38588000Y-2047780D01*
X38593000Y-2054450D01*
X38595000Y-2067780D01*
X38593000Y-2081110D01*
X38587000Y-2089450D01*
X38580000Y-2094450D01*
X38555000D01*
G01X38580000D02*
X38595000Y-2142780D01*
G01X38633000Y-2042780D02*
X38657000D01*
G01X38645000D02*
Y-2142780D01*
G01X38633000D02*
X38657000D01*
G01X38737000Y-2051110D02*
X38731000Y-2046110D01*
X38724000Y-2042780D01*
X38716000D01*
X38707000Y-2047780D01*
X38700000Y-2056110D01*
X38695000Y-2066110D01*
X38691000Y-2082780D01*
X38690000Y-2097780D01*
X38692000Y-2112780D01*
X38695000Y-2122780D01*
X38701000Y-2132780D01*
X38708000Y-2139450D01*
X38715000Y-2142780D01*
X38722000D01*
X38729000Y-2139450D01*
X38735000Y-2134450D01*
X38740000Y-2127780D01*
G01X37715000Y-206230D02*
Y-306230D01*
X37755000D01*
G01X37786000Y-222900D02*
X37792000Y-212900D01*
X37799000Y-207900D01*
X37807000Y-206230D01*
X37817000Y-209560D01*
X37824000Y-217900D01*
X37826000Y-227900D01*
X37825000Y-237900D01*
X37821000Y-246230D01*
X37801000Y-262900D01*
X37792000Y-274560D01*
X37786000Y-291230D01*
X37784000Y-306230D01*
X37826000D01*
G01X37951000Y-256230D02*
X37971000D01*
Y-286230D01*
X37965000Y-296230D01*
X37958000Y-302900D01*
X37948000Y-306230D01*
X37938000Y-302900D01*
X37931000Y-296230D01*
X37925000Y-286230D01*
X37921000Y-274560D01*
X37919000Y-261230D01*
Y-249560D01*
X37921000Y-239570D01*
X37925000Y-227900D01*
X37931000Y-217900D01*
X37937000Y-211230D01*
X37945000Y-206230D01*
X37952000D01*
X37960000Y-209560D01*
X37966000Y-216230D01*
G01X37992000Y-306230D02*
Y-206230D01*
X38038000Y-306230D01*
Y-206230D01*
G01X38063000Y-306230D02*
Y-206230D01*
X38083000D01*
X38091000Y-211230D01*
X38097000Y-217900D01*
X38102000Y-227900D01*
X38106000Y-239570D01*
X38107000Y-256230D01*
X38106000Y-272900D01*
X38102000Y-284560D01*
X38097000Y-294570D01*
X38091000Y-301230D01*
X38083000Y-306230D01*
X38063000D01*
G01X38247000Y-214560D02*
X38241000Y-209560D01*
X38234000Y-206230D01*
X38226000D01*
X38217000Y-211230D01*
X38210000Y-219560D01*
X38205000Y-229560D01*
X38201000Y-246230D01*
X38200000Y-261230D01*
X38202000Y-276230D01*
X38205000Y-286230D01*
X38211000Y-296230D01*
X38218000Y-302900D01*
X38225000Y-306230D01*
X38232000D01*
X38239000Y-302900D01*
X38245000Y-297900D01*
X38250000Y-291230D01*
G01X38295000Y-306230D02*
X38287000Y-304560D01*
X38280000Y-297900D01*
X38274000Y-287900D01*
X38270000Y-276230D01*
X38268000Y-262900D01*
Y-249560D01*
X38270000Y-236230D01*
X38274000Y-224560D01*
X38280000Y-214560D01*
X38287000Y-207900D01*
X38295000Y-206230D01*
X38303000Y-207900D01*
X38310000Y-214560D01*
X38316000Y-224560D01*
X38320000Y-236230D01*
X38322000Y-249560D01*
Y-262900D01*
X38320000Y-276230D01*
X38316000Y-287900D01*
X38310000Y-297900D01*
X38303000Y-304560D01*
X38295000Y-306230D01*
G01X38342000D02*
Y-206230D01*
X38388000Y-306230D01*
Y-206230D01*
G01X38413000Y-306230D02*
Y-206230D01*
X38433000D01*
X38441000Y-211230D01*
X38447000Y-217900D01*
X38452000Y-227900D01*
X38456000Y-239570D01*
X38457000Y-256230D01*
X38456000Y-272900D01*
X38452000Y-284560D01*
X38447000Y-294570D01*
X38441000Y-301230D01*
X38433000Y-306230D01*
X38413000D01*
G01X38483000Y-206230D02*
Y-277900D01*
X38487000Y-292900D01*
X38495000Y-302900D01*
X38505000Y-306230D01*
X38515000Y-302900D01*
X38523000Y-292900D01*
X38527000Y-277900D01*
Y-206230D01*
G01X38597000Y-214560D02*
X38591000Y-209560D01*
X38584000Y-206230D01*
X38576000D01*
X38567000Y-211230D01*
X38560000Y-219560D01*
X38555000Y-229560D01*
X38551000Y-246230D01*
X38550000Y-261230D01*
X38552000Y-276230D01*
X38555000Y-286230D01*
X38561000Y-296230D01*
X38568000Y-302900D01*
X38575000Y-306230D01*
X38582000D01*
X38589000Y-302900D01*
X38595000Y-297900D01*
X38600000Y-291230D01*
G01X38645000Y-206230D02*
Y-306230D01*
G01X38622000Y-206230D02*
X38668000D01*
G01X38715000Y-306230D02*
X38707000Y-304560D01*
X38700000Y-297900D01*
X38694000Y-287900D01*
X38690000Y-276230D01*
X38688000Y-262900D01*
Y-249560D01*
X38690000Y-236230D01*
X38694000Y-224560D01*
X38700000Y-214560D01*
X38707000Y-207900D01*
X38715000Y-206230D01*
X38723000Y-207900D01*
X38730000Y-214560D01*
X38736000Y-224560D01*
X38740000Y-236230D01*
X38742000Y-249560D01*
Y-262900D01*
X38740000Y-276230D01*
X38736000Y-287900D01*
X38730000Y-297900D01*
X38723000Y-304560D01*
X38715000Y-306230D01*
G01X38765000D02*
Y-206230D01*
X38790000D01*
X38798000Y-211230D01*
X38803000Y-217900D01*
X38805000Y-231230D01*
X38803000Y-244560D01*
X38797000Y-252900D01*
X38790000Y-257900D01*
X38765000D01*
G01X38790000D02*
X38805000Y-306230D01*
G01X37853000Y42450D02*
X37897000Y115780D01*
G01X37875000Y129110D02*
Y29110D01*
G01X37897000Y42450D02*
X37853000Y115780D01*
G01X37845000Y79110D02*
X37905000D01*
G01X38063000Y45780D02*
Y145780D01*
X38083000D01*
X38091000Y140780D01*
X38097000Y134110D01*
X38102000Y124110D01*
X38106000Y112440D01*
X38107000Y95780D01*
X38106000Y79110D01*
X38102000Y67450D01*
X38097000Y57440D01*
X38091000Y50780D01*
X38083000Y45780D01*
X38063000D01*
G01X38143000Y145780D02*
X38167000D01*
G01X38155000D02*
Y45780D01*
G01X38143000D02*
X38167000D01*
G01X38245000D02*
X38205000D01*
Y145780D01*
X38245000D01*
G01X38229000Y97450D02*
X38205000D01*
G01X38275000Y145780D02*
Y45780D01*
X38315000D01*
G01X38385000D02*
X38345000D01*
Y145780D01*
X38385000D01*
G01X38369000Y97450D02*
X38345000D01*
G01X38457000Y137450D02*
X38451000Y142450D01*
X38444000Y145780D01*
X38436000D01*
X38427000Y140780D01*
X38420000Y132450D01*
X38415000Y122450D01*
X38411000Y105780D01*
X38410000Y90780D01*
X38412000Y75780D01*
X38415000Y65780D01*
X38421000Y55780D01*
X38428000Y49110D01*
X38435000Y45780D01*
X38442000D01*
X38449000Y49110D01*
X38455000Y54110D01*
X38460000Y60780D01*
G01X38505000Y145780D02*
Y45780D01*
G01X38482000Y145780D02*
X38528000D01*
G01X38555000Y45780D02*
Y145780D01*
X38580000D01*
X38588000Y140780D01*
X38593000Y134110D01*
X38595000Y120780D01*
X38593000Y107450D01*
X38587000Y99110D01*
X38580000Y94110D01*
X38555000D01*
G01X38580000D02*
X38595000Y45780D01*
G01X38633000Y145780D02*
X38657000D01*
G01X38645000D02*
Y45780D01*
G01X38633000D02*
X38657000D01*
G01X38737000Y137450D02*
X38731000Y142450D01*
X38724000Y145780D01*
X38716000D01*
X38707000Y140780D01*
X38700000Y132450D01*
X38695000Y122450D01*
X38691000Y105780D01*
X38690000Y90780D01*
X38692000Y75780D01*
X38695000Y65780D01*
X38701000Y55780D01*
X38708000Y49110D01*
X38715000Y45780D01*
X38722000D01*
X38729000Y49110D01*
X38735000Y54110D01*
X38740000Y60780D01*
G01X37853000Y448450D02*
X37897000Y521780D01*
G01X37875000Y535110D02*
Y435110D01*
G01X37897000Y448450D02*
X37853000Y521780D01*
G01X37845000Y485110D02*
X37905000D01*
G01X38064000Y465110D02*
X38072000Y456780D01*
X38081000Y451780D01*
X38089000D01*
X38097000Y456780D01*
X38103000Y465110D01*
X38106000Y476780D01*
X38104000Y488440D01*
X38099000Y498450D01*
X38090000Y505110D01*
X38078000Y508450D01*
X38071000Y515110D01*
X38068000Y526780D01*
X38070000Y538450D01*
X38075000Y546780D01*
X38082000Y551780D01*
X38089000D01*
X38096000Y548450D01*
X38102000Y540110D01*
G01X38133000Y551780D02*
Y480110D01*
X38137000Y465110D01*
X38145000Y455110D01*
X38155000Y451780D01*
X38165000Y455110D01*
X38173000Y465110D01*
X38177000Y480110D01*
Y551780D01*
G01X38205000Y451780D02*
Y551780D01*
X38230000D01*
X38238000Y546780D01*
X38243000Y540110D01*
X38245000Y526780D01*
X38243000Y513450D01*
X38237000Y505110D01*
X38230000Y500110D01*
X38205000D01*
G01X38230000D02*
X38245000Y451780D01*
G01X38276000D02*
Y551780D01*
X38314000D01*
G01X38300000Y503450D02*
X38276000D01*
G01X38340000Y451780D02*
X38365000Y551780D01*
X38390000Y451780D01*
G01X38381000Y486780D02*
X38349000D01*
G01X38457000Y543450D02*
X38451000Y548450D01*
X38444000Y551780D01*
X38436000D01*
X38427000Y546780D01*
X38420000Y538450D01*
X38415000Y528450D01*
X38411000Y511780D01*
X38410000Y496780D01*
X38412000Y481780D01*
X38415000Y471780D01*
X38421000Y461780D01*
X38428000Y455110D01*
X38435000Y451780D01*
X38442000D01*
X38449000Y455110D01*
X38455000Y460110D01*
X38460000Y466780D01*
G01X38525000Y451780D02*
X38485000D01*
Y551780D01*
X38525000D01*
G01X38509000Y503450D02*
X38485000D01*
G01X37715000Y385120D02*
Y285120D01*
X37755000D01*
G01X37805000D02*
Y385120D01*
X37793000Y365120D01*
G01Y285120D02*
X37817000D01*
G01X37945000Y385120D02*
Y285120D01*
G01X37922000Y385120D02*
X37968000D01*
G01X38015000Y285120D02*
X38007000Y286790D01*
X38000000Y293450D01*
X37994000Y303450D01*
X37990000Y315120D01*
X37988000Y328450D01*
Y341790D01*
X37990000Y355120D01*
X37994000Y366790D01*
X38000000Y376790D01*
X38007000Y383450D01*
X38015000Y385120D01*
X38023000Y383450D01*
X38030000Y376790D01*
X38036000Y366790D01*
X38040000Y355120D01*
X38042000Y341790D01*
Y328450D01*
X38040000Y315120D01*
X38036000Y303450D01*
X38030000Y293450D01*
X38023000Y286790D01*
X38015000Y285120D01*
G01X38065000D02*
Y385120D01*
X38089000D01*
X38097000Y380120D01*
X38103000Y368450D01*
X38105000Y355120D01*
X38103000Y341790D01*
X38098000Y331790D01*
X38089000Y326780D01*
X38065000D01*
G01X38247000Y376790D02*
X38241000Y381790D01*
X38234000Y385120D01*
X38226000D01*
X38217000Y380120D01*
X38210000Y371790D01*
X38205000Y361790D01*
X38201000Y345120D01*
X38200000Y330120D01*
X38202000Y315120D01*
X38205000Y305120D01*
X38211000Y295120D01*
X38218000Y288450D01*
X38225000Y285120D01*
X38232000D01*
X38239000Y288450D01*
X38245000Y293450D01*
X38250000Y300120D01*
G01X38295000Y285120D02*
X38287000Y286790D01*
X38280000Y293450D01*
X38274000Y303450D01*
X38270000Y315120D01*
X38268000Y328450D01*
Y341790D01*
X38270000Y355120D01*
X38274000Y366790D01*
X38280000Y376790D01*
X38287000Y383450D01*
X38295000Y385120D01*
X38303000Y383450D01*
X38310000Y376790D01*
X38316000Y366790D01*
X38320000Y355120D01*
X38322000Y341790D01*
Y328450D01*
X38320000Y315120D01*
X38316000Y303450D01*
X38310000Y293450D01*
X38303000Y286790D01*
X38295000Y285120D01*
G01X38342000D02*
Y385120D01*
X38388000Y285120D01*
Y385120D01*
G01X38413000Y285120D02*
Y385120D01*
X38433000D01*
X38441000Y380120D01*
X38447000Y373450D01*
X38452000Y363450D01*
X38456000Y351780D01*
X38457000Y335120D01*
X38456000Y318450D01*
X38452000Y306790D01*
X38447000Y296780D01*
X38441000Y290120D01*
X38433000Y285120D01*
X38413000D01*
G01X38483000Y385120D02*
Y313450D01*
X38487000Y298450D01*
X38495000Y288450D01*
X38505000Y285120D01*
X38515000Y288450D01*
X38523000Y298450D01*
X38527000Y313450D01*
Y385120D01*
G01X38597000Y376790D02*
X38591000Y381790D01*
X38584000Y385120D01*
X38576000D01*
X38567000Y380120D01*
X38560000Y371790D01*
X38555000Y361790D01*
X38551000Y345120D01*
X38550000Y330120D01*
X38552000Y315120D01*
X38555000Y305120D01*
X38561000Y295120D01*
X38568000Y288450D01*
X38575000Y285120D01*
X38582000D01*
X38589000Y288450D01*
X38595000Y293450D01*
X38600000Y300120D01*
G01X38645000Y385120D02*
Y285120D01*
G01X38622000Y385120D02*
X38668000D01*
G01X38715000Y285120D02*
X38707000Y286790D01*
X38700000Y293450D01*
X38694000Y303450D01*
X38690000Y315120D01*
X38688000Y328450D01*
Y341790D01*
X38690000Y355120D01*
X38694000Y366790D01*
X38700000Y376790D01*
X38707000Y383450D01*
X38715000Y385120D01*
X38723000Y383450D01*
X38730000Y376790D01*
X38736000Y366790D01*
X38740000Y355120D01*
X38742000Y341790D01*
Y328450D01*
X38740000Y315120D01*
X38736000Y303450D01*
X38730000Y293450D01*
X38723000Y286790D01*
X38715000Y285120D01*
G01X38765000D02*
Y385120D01*
X38790000D01*
X38798000Y380120D01*
X38803000Y373450D01*
X38805000Y360120D01*
X38803000Y346790D01*
X38797000Y338450D01*
X38790000Y333450D01*
X38765000D01*
G01X38790000D02*
X38805000Y285120D01*
G01X40545000Y-2723690D02*
Y-2623690D01*
X40508000Y-2695360D01*
X40558000D01*
G01X40751000Y-2670360D02*
X40755000Y-2665360D01*
X40758000Y-2657030D01*
X40760000Y-2645360D01*
X40758000Y-2635360D01*
X40754000Y-2628690D01*
X40747000Y-2623690D01*
X40720000D01*
Y-2723690D01*
X40753000D01*
X40760000Y-2717020D01*
X40764000Y-2707020D01*
X40766000Y-2695360D01*
X40764000Y-2683690D01*
X40758000Y-2673690D01*
X40751000Y-2670360D01*
X40720000D01*
G01X40813000Y-2723690D02*
X40805000Y-2722020D01*
X40798000Y-2715360D01*
X40792000Y-2705360D01*
X40788000Y-2693690D01*
X40786000Y-2680360D01*
Y-2667020D01*
X40788000Y-2653690D01*
X40792000Y-2642020D01*
X40798000Y-2632020D01*
X40805000Y-2625360D01*
X40813000Y-2623690D01*
X40821000Y-2625360D01*
X40828000Y-2632020D01*
X40834000Y-2642020D01*
X40838000Y-2653690D01*
X40840000Y-2667020D01*
Y-2680360D01*
X40838000Y-2693690D01*
X40834000Y-2705360D01*
X40828000Y-2715360D01*
X40821000Y-2722020D01*
X40813000Y-2723690D01*
G01X40883000Y-2623690D02*
Y-2723690D01*
G01X40860000Y-2623690D02*
X40906000D01*
G01X40953000D02*
Y-2723690D01*
G01X40930000Y-2623690D02*
X40976000D01*
G01X41023000Y-2723690D02*
X41015000Y-2722020D01*
X41008000Y-2715360D01*
X41002000Y-2705360D01*
X40998000Y-2693690D01*
X40996000Y-2680360D01*
Y-2667020D01*
X40998000Y-2653690D01*
X41002000Y-2642020D01*
X41008000Y-2632020D01*
X41015000Y-2625360D01*
X41023000Y-2623690D01*
X41031000Y-2625360D01*
X41038000Y-2632020D01*
X41044000Y-2642020D01*
X41048000Y-2653690D01*
X41050000Y-2667020D01*
Y-2680360D01*
X41048000Y-2693690D01*
X41044000Y-2705360D01*
X41038000Y-2715360D01*
X41031000Y-2722020D01*
X41023000Y-2723690D01*
G01X41067000D02*
Y-2623690D01*
X41093000Y-2707020D01*
X41119000Y-2623690D01*
Y-2723690D01*
G01X40511000Y-2343710D02*
X40517000Y-2355380D01*
X40525000Y-2362040D01*
X40534000Y-2363710D01*
X40542000Y-2362040D01*
X40550000Y-2353710D01*
X40555000Y-2343710D01*
X40556000Y-2333710D01*
X40554000Y-2322050D01*
X40547000Y-2313710D01*
X40540000Y-2310380D01*
X40531000D01*
G01X40540000D02*
X40546000Y-2305380D01*
X40551000Y-2297050D01*
X40553000Y-2287040D01*
X40551000Y-2277040D01*
X40546000Y-2268710D01*
X40537000Y-2263710D01*
X40528000Y-2265380D01*
X40519000Y-2272040D01*
G01X40928000Y-2263710D02*
X40953000Y-2363710D01*
X40978000Y-2263710D01*
G01X41045000Y-2272040D02*
X41039000Y-2267040D01*
X41032000Y-2263710D01*
X41024000D01*
X41015000Y-2268710D01*
X41008000Y-2277040D01*
X41003000Y-2287040D01*
X40999000Y-2303710D01*
X40998000Y-2318710D01*
X41000000Y-2333710D01*
X41003000Y-2343710D01*
X41009000Y-2353710D01*
X41016000Y-2360380D01*
X41023000Y-2363710D01*
X41030000D01*
X41037000Y-2360380D01*
X41043000Y-2355380D01*
X41048000Y-2348710D01*
G01X41115000Y-2272040D02*
X41109000Y-2267040D01*
X41102000Y-2263710D01*
X41094000D01*
X41085000Y-2268710D01*
X41078000Y-2277040D01*
X41073000Y-2287040D01*
X41069000Y-2303710D01*
X41068000Y-2318710D01*
X41070000Y-2333710D01*
X41073000Y-2343710D01*
X41079000Y-2353710D01*
X41086000Y-2360380D01*
X41093000Y-2363710D01*
X41100000D01*
X41107000Y-2360380D01*
X41113000Y-2355380D01*
X41118000Y-2348710D01*
G01X40514000Y-1920400D02*
X40520000Y-1910400D01*
X40527000Y-1905400D01*
X40535000Y-1903730D01*
X40545000Y-1907060D01*
X40552000Y-1915400D01*
X40554000Y-1925400D01*
X40553000Y-1935400D01*
X40549000Y-1943730D01*
X40529000Y-1960400D01*
X40520000Y-1972060D01*
X40514000Y-1988730D01*
X40512000Y-2003730D01*
X40554000D01*
G01X40959000Y-1953730D02*
X40979000D01*
Y-1983730D01*
X40973000Y-1993730D01*
X40966000Y-2000400D01*
X40956000Y-2003730D01*
X40946000Y-2000400D01*
X40939000Y-1993730D01*
X40933000Y-1983730D01*
X40929000Y-1972060D01*
X40927000Y-1958730D01*
Y-1947060D01*
X40929000Y-1937070D01*
X40933000Y-1925400D01*
X40939000Y-1915400D01*
X40945000Y-1908730D01*
X40953000Y-1903730D01*
X40960000D01*
X40968000Y-1907060D01*
X40974000Y-1913730D01*
G01X41000000Y-2003730D02*
Y-1903730D01*
X41046000Y-2003730D01*
Y-1903730D01*
G01X41071000Y-2003730D02*
Y-1903730D01*
X41091000D01*
X41099000Y-1908730D01*
X41105000Y-1915400D01*
X41110000Y-1925400D01*
X41114000Y-1937070D01*
X41115000Y-1953730D01*
X41114000Y-1970400D01*
X41110000Y-1982060D01*
X41105000Y-1992070D01*
X41099000Y-1998730D01*
X41091000Y-2003730D01*
X41071000D01*
G01X40533000Y-1643750D02*
Y-1543750D01*
X40521000Y-1563750D01*
G01Y-1643750D02*
X40545000D01*
G01X40953000Y-1543750D02*
Y-1643750D01*
G01X40930000Y-1543750D02*
X40976000D01*
G01X41023000Y-1643750D02*
X41015000Y-1642080D01*
X41008000Y-1635420D01*
X41002000Y-1625420D01*
X40998000Y-1613750D01*
X40996000Y-1600420D01*
Y-1587080D01*
X40998000Y-1573750D01*
X41002000Y-1562080D01*
X41008000Y-1552080D01*
X41015000Y-1545420D01*
X41023000Y-1543750D01*
X41031000Y-1545420D01*
X41038000Y-1552080D01*
X41044000Y-1562080D01*
X41048000Y-1573750D01*
X41050000Y-1587080D01*
Y-1600420D01*
X41048000Y-1613750D01*
X41044000Y-1625420D01*
X41038000Y-1635420D01*
X41031000Y-1642080D01*
X41023000Y-1643750D01*
G01X41073000D02*
Y-1543750D01*
X41097000D01*
X41105000Y-1548750D01*
X41111000Y-1560420D01*
X41113000Y-1573750D01*
X41111000Y-1587080D01*
X41106000Y-1597080D01*
X41097000Y-1602090D01*
X41073000D01*
G01X40513000Y-1317100D02*
X40533000Y-1183770D01*
G01X40553000D02*
X40533000Y-1317100D01*
G01X40503000Y-1267100D02*
X40563000D01*
G01Y-1233770D02*
X40503000D01*
G01X40860000Y-1283770D02*
Y-1183770D01*
X40906000Y-1283770D01*
Y-1183770D01*
G01X40928000Y-1283770D02*
X40953000Y-1183770D01*
X40978000Y-1283770D01*
G01X40969000Y-1248770D02*
X40937000D01*
G01X40997000Y-1283770D02*
Y-1183770D01*
X41023000Y-1267100D01*
X41049000Y-1183770D01*
Y-1283770D01*
G01X41113000D02*
X41073000D01*
Y-1183770D01*
X41113000D01*
G01X41097000Y-1232100D02*
X41073000D01*
G01X41395000Y-2632020D02*
X41389000Y-2627020D01*
X41382000Y-2623690D01*
X41374000D01*
X41365000Y-2628690D01*
X41358000Y-2637020D01*
X41353000Y-2647020D01*
X41349000Y-2663690D01*
X41348000Y-2678690D01*
X41350000Y-2693690D01*
X41353000Y-2703690D01*
X41359000Y-2713690D01*
X41366000Y-2720360D01*
X41373000Y-2723690D01*
X41380000D01*
X41387000Y-2720360D01*
X41393000Y-2715360D01*
X41398000Y-2708690D01*
G01X41443000Y-2723690D02*
X41435000Y-2722020D01*
X41428000Y-2715360D01*
X41422000Y-2705360D01*
X41418000Y-2693690D01*
X41416000Y-2680360D01*
Y-2667020D01*
X41418000Y-2653690D01*
X41422000Y-2642020D01*
X41428000Y-2632020D01*
X41435000Y-2625360D01*
X41443000Y-2623690D01*
X41451000Y-2625360D01*
X41458000Y-2632020D01*
X41464000Y-2642020D01*
X41468000Y-2653690D01*
X41470000Y-2667020D01*
Y-2680360D01*
X41468000Y-2693690D01*
X41464000Y-2705360D01*
X41458000Y-2715360D01*
X41451000Y-2722020D01*
X41443000Y-2723690D01*
G01X41490000D02*
Y-2623690D01*
X41536000Y-2723690D01*
Y-2623690D01*
G01X41561000Y-2723690D02*
Y-2623690D01*
X41581000D01*
X41589000Y-2628690D01*
X41595000Y-2635360D01*
X41600000Y-2645360D01*
X41604000Y-2657030D01*
X41605000Y-2673690D01*
X41604000Y-2690360D01*
X41600000Y-2702020D01*
X41595000Y-2712030D01*
X41589000Y-2718690D01*
X41581000Y-2723690D01*
X41561000D01*
G01X41631000Y-2623690D02*
Y-2695360D01*
X41635000Y-2710360D01*
X41643000Y-2720360D01*
X41653000Y-2723690D01*
X41663000Y-2720360D01*
X41671000Y-2710360D01*
X41675000Y-2695360D01*
Y-2623690D01*
G01X41745000Y-2632020D02*
X41739000Y-2627020D01*
X41732000Y-2623690D01*
X41724000D01*
X41715000Y-2628690D01*
X41708000Y-2637020D01*
X41703000Y-2647020D01*
X41699000Y-2663690D01*
X41698000Y-2678690D01*
X41700000Y-2693690D01*
X41703000Y-2703690D01*
X41709000Y-2713690D01*
X41716000Y-2720360D01*
X41723000Y-2723690D01*
X41730000D01*
X41737000Y-2720360D01*
X41743000Y-2715360D01*
X41748000Y-2708690D01*
G01X41793000Y-2623690D02*
Y-2723690D01*
G01X41770000Y-2623690D02*
X41816000D01*
G01X41863000Y-2723690D02*
X41855000Y-2722020D01*
X41848000Y-2715360D01*
X41842000Y-2705360D01*
X41838000Y-2693690D01*
X41836000Y-2680360D01*
Y-2667020D01*
X41838000Y-2653690D01*
X41842000Y-2642020D01*
X41848000Y-2632020D01*
X41855000Y-2625360D01*
X41863000Y-2623690D01*
X41871000Y-2625360D01*
X41878000Y-2632020D01*
X41884000Y-2642020D01*
X41888000Y-2653690D01*
X41890000Y-2667020D01*
Y-2680360D01*
X41888000Y-2693690D01*
X41884000Y-2705360D01*
X41878000Y-2715360D01*
X41871000Y-2722020D01*
X41863000Y-2723690D01*
G01X41913000D02*
Y-2623690D01*
X41938000D01*
X41946000Y-2628690D01*
X41951000Y-2635360D01*
X41953000Y-2648690D01*
X41951000Y-2662020D01*
X41945000Y-2670360D01*
X41938000Y-2675360D01*
X41913000D01*
G01X41938000D02*
X41953000Y-2723690D01*
G01X41281000Y-2543700D02*
Y-2443700D01*
X41301000D01*
X41309000Y-2448700D01*
X41315000Y-2455370D01*
X41320000Y-2465370D01*
X41324000Y-2477040D01*
X41325000Y-2493700D01*
X41324000Y-2510370D01*
X41320000Y-2522030D01*
X41315000Y-2532040D01*
X41309000Y-2538700D01*
X41301000Y-2543700D01*
X41281000D01*
G01X41361000Y-2443700D02*
X41385000D01*
G01X41373000D02*
Y-2543700D01*
G01X41361000D02*
X41385000D01*
G01X41463000D02*
X41423000D01*
Y-2443700D01*
X41463000D01*
G01X41447000Y-2492030D02*
X41423000D01*
G01X41493000Y-2443700D02*
Y-2543700D01*
X41533000D01*
G01X41603000D02*
X41563000D01*
Y-2443700D01*
X41603000D01*
G01X41587000Y-2492030D02*
X41563000D01*
G01X41675000Y-2452030D02*
X41669000Y-2447030D01*
X41662000Y-2443700D01*
X41654000D01*
X41645000Y-2448700D01*
X41638000Y-2457030D01*
X41633000Y-2467030D01*
X41629000Y-2483700D01*
X41628000Y-2498700D01*
X41630000Y-2513700D01*
X41633000Y-2523700D01*
X41639000Y-2533700D01*
X41646000Y-2540370D01*
X41653000Y-2543700D01*
X41660000D01*
X41667000Y-2540370D01*
X41673000Y-2535370D01*
X41678000Y-2528700D01*
G01X41723000Y-2443700D02*
Y-2543700D01*
G01X41700000Y-2443700D02*
X41746000D01*
G01X41773000Y-2543700D02*
Y-2443700D01*
X41798000D01*
X41806000Y-2448700D01*
X41811000Y-2455370D01*
X41813000Y-2468700D01*
X41811000Y-2482030D01*
X41805000Y-2490370D01*
X41798000Y-2495370D01*
X41773000D01*
G01X41798000D02*
X41813000Y-2543700D01*
G01X41851000Y-2443700D02*
X41875000D01*
G01X41863000D02*
Y-2543700D01*
G01X41851000D02*
X41875000D01*
G01X41955000Y-2452030D02*
X41949000Y-2447030D01*
X41942000Y-2443700D01*
X41934000D01*
X41925000Y-2448700D01*
X41918000Y-2457030D01*
X41913000Y-2467030D01*
X41909000Y-2483700D01*
X41908000Y-2498700D01*
X41910000Y-2513700D01*
X41913000Y-2523700D01*
X41919000Y-2533700D01*
X41926000Y-2540370D01*
X41933000Y-2543700D01*
X41940000D01*
X41947000Y-2540370D01*
X41953000Y-2535370D01*
X41958000Y-2528700D01*
G01X41395000Y-2272040D02*
X41389000Y-2267040D01*
X41382000Y-2263710D01*
X41374000D01*
X41365000Y-2268710D01*
X41358000Y-2277040D01*
X41353000Y-2287040D01*
X41349000Y-2303710D01*
X41348000Y-2318710D01*
X41350000Y-2333710D01*
X41353000Y-2343710D01*
X41359000Y-2353710D01*
X41366000Y-2360380D01*
X41373000Y-2363710D01*
X41380000D01*
X41387000Y-2360380D01*
X41393000Y-2355380D01*
X41398000Y-2348710D01*
G01X41443000Y-2363710D02*
X41435000Y-2362040D01*
X41428000Y-2355380D01*
X41422000Y-2345380D01*
X41418000Y-2333710D01*
X41416000Y-2320380D01*
Y-2307040D01*
X41418000Y-2293710D01*
X41422000Y-2282040D01*
X41428000Y-2272040D01*
X41435000Y-2265380D01*
X41443000Y-2263710D01*
X41451000Y-2265380D01*
X41458000Y-2272040D01*
X41464000Y-2282040D01*
X41468000Y-2293710D01*
X41470000Y-2307040D01*
Y-2320380D01*
X41468000Y-2333710D01*
X41464000Y-2345380D01*
X41458000Y-2355380D01*
X41451000Y-2362040D01*
X41443000Y-2363710D01*
G01X41490000D02*
Y-2263710D01*
X41536000Y-2363710D01*
Y-2263710D01*
G01X41561000Y-2363710D02*
Y-2263710D01*
X41581000D01*
X41589000Y-2268710D01*
X41595000Y-2275380D01*
X41600000Y-2285380D01*
X41604000Y-2297050D01*
X41605000Y-2313710D01*
X41604000Y-2330380D01*
X41600000Y-2342040D01*
X41595000Y-2352050D01*
X41589000Y-2358710D01*
X41581000Y-2363710D01*
X41561000D01*
G01X41631000Y-2263710D02*
Y-2335380D01*
X41635000Y-2350380D01*
X41643000Y-2360380D01*
X41653000Y-2363710D01*
X41663000Y-2360380D01*
X41671000Y-2350380D01*
X41675000Y-2335380D01*
Y-2263710D01*
G01X41745000Y-2272040D02*
X41739000Y-2267040D01*
X41732000Y-2263710D01*
X41724000D01*
X41715000Y-2268710D01*
X41708000Y-2277040D01*
X41703000Y-2287040D01*
X41699000Y-2303710D01*
X41698000Y-2318710D01*
X41700000Y-2333710D01*
X41703000Y-2343710D01*
X41709000Y-2353710D01*
X41716000Y-2360380D01*
X41723000Y-2363710D01*
X41730000D01*
X41737000Y-2360380D01*
X41743000Y-2355380D01*
X41748000Y-2348710D01*
G01X41793000Y-2263710D02*
Y-2363710D01*
G01X41770000Y-2263710D02*
X41816000D01*
G01X41863000Y-2363710D02*
X41855000Y-2362040D01*
X41848000Y-2355380D01*
X41842000Y-2345380D01*
X41838000Y-2333710D01*
X41836000Y-2320380D01*
Y-2307040D01*
X41838000Y-2293710D01*
X41842000Y-2282040D01*
X41848000Y-2272040D01*
X41855000Y-2265380D01*
X41863000Y-2263710D01*
X41871000Y-2265380D01*
X41878000Y-2272040D01*
X41884000Y-2282040D01*
X41888000Y-2293710D01*
X41890000Y-2307040D01*
Y-2320380D01*
X41888000Y-2333710D01*
X41884000Y-2345380D01*
X41878000Y-2355380D01*
X41871000Y-2362040D01*
X41863000Y-2363710D01*
G01X41913000D02*
Y-2263710D01*
X41938000D01*
X41946000Y-2268710D01*
X41951000Y-2275380D01*
X41953000Y-2288710D01*
X41951000Y-2302040D01*
X41945000Y-2310380D01*
X41938000Y-2315380D01*
X41913000D01*
G01X41938000D02*
X41953000Y-2363710D01*
G01X41281000Y-2183720D02*
Y-2083720D01*
X41301000D01*
X41309000Y-2088720D01*
X41315000Y-2095390D01*
X41320000Y-2105390D01*
X41324000Y-2117060D01*
X41325000Y-2133720D01*
X41324000Y-2150390D01*
X41320000Y-2162050D01*
X41315000Y-2172060D01*
X41309000Y-2178720D01*
X41301000Y-2183720D01*
X41281000D01*
G01X41361000Y-2083720D02*
X41385000D01*
G01X41373000D02*
Y-2183720D01*
G01X41361000D02*
X41385000D01*
G01X41463000D02*
X41423000D01*
Y-2083720D01*
X41463000D01*
G01X41447000Y-2132050D02*
X41423000D01*
G01X41493000Y-2083720D02*
Y-2183720D01*
X41533000D01*
G01X41603000D02*
X41563000D01*
Y-2083720D01*
X41603000D01*
G01X41587000Y-2132050D02*
X41563000D01*
G01X41675000Y-2092050D02*
X41669000Y-2087050D01*
X41662000Y-2083720D01*
X41654000D01*
X41645000Y-2088720D01*
X41638000Y-2097050D01*
X41633000Y-2107050D01*
X41629000Y-2123720D01*
X41628000Y-2138720D01*
X41630000Y-2153720D01*
X41633000Y-2163720D01*
X41639000Y-2173720D01*
X41646000Y-2180390D01*
X41653000Y-2183720D01*
X41660000D01*
X41667000Y-2180390D01*
X41673000Y-2175390D01*
X41678000Y-2168720D01*
G01X41723000Y-2083720D02*
Y-2183720D01*
G01X41700000Y-2083720D02*
X41746000D01*
G01X41773000Y-2183720D02*
Y-2083720D01*
X41798000D01*
X41806000Y-2088720D01*
X41811000Y-2095390D01*
X41813000Y-2108720D01*
X41811000Y-2122050D01*
X41805000Y-2130390D01*
X41798000Y-2135390D01*
X41773000D01*
G01X41798000D02*
X41813000Y-2183720D01*
G01X41851000Y-2083720D02*
X41875000D01*
G01X41863000D02*
Y-2183720D01*
G01X41851000D02*
X41875000D01*
G01X41955000Y-2092050D02*
X41949000Y-2087050D01*
X41942000Y-2083720D01*
X41934000D01*
X41925000Y-2088720D01*
X41918000Y-2097050D01*
X41913000Y-2107050D01*
X41909000Y-2123720D01*
X41908000Y-2138720D01*
X41910000Y-2153720D01*
X41913000Y-2163720D01*
X41919000Y-2173720D01*
X41926000Y-2180390D01*
X41933000Y-2183720D01*
X41940000D01*
X41947000Y-2180390D01*
X41953000Y-2175390D01*
X41958000Y-2168720D01*
G01X41395000Y-1912060D02*
X41389000Y-1907060D01*
X41382000Y-1903730D01*
X41374000D01*
X41365000Y-1908730D01*
X41358000Y-1917060D01*
X41353000Y-1927060D01*
X41349000Y-1943730D01*
X41348000Y-1958730D01*
X41350000Y-1973730D01*
X41353000Y-1983730D01*
X41359000Y-1993730D01*
X41366000Y-2000400D01*
X41373000Y-2003730D01*
X41380000D01*
X41387000Y-2000400D01*
X41393000Y-1995400D01*
X41398000Y-1988730D01*
G01X41443000Y-2003730D02*
X41435000Y-2002060D01*
X41428000Y-1995400D01*
X41422000Y-1985400D01*
X41418000Y-1973730D01*
X41416000Y-1960400D01*
Y-1947060D01*
X41418000Y-1933730D01*
X41422000Y-1922060D01*
X41428000Y-1912060D01*
X41435000Y-1905400D01*
X41443000Y-1903730D01*
X41451000Y-1905400D01*
X41458000Y-1912060D01*
X41464000Y-1922060D01*
X41468000Y-1933730D01*
X41470000Y-1947060D01*
Y-1960400D01*
X41468000Y-1973730D01*
X41464000Y-1985400D01*
X41458000Y-1995400D01*
X41451000Y-2002060D01*
X41443000Y-2003730D01*
G01X41490000D02*
Y-1903730D01*
X41536000Y-2003730D01*
Y-1903730D01*
G01X41561000Y-2003730D02*
Y-1903730D01*
X41581000D01*
X41589000Y-1908730D01*
X41595000Y-1915400D01*
X41600000Y-1925400D01*
X41604000Y-1937070D01*
X41605000Y-1953730D01*
X41604000Y-1970400D01*
X41600000Y-1982060D01*
X41595000Y-1992070D01*
X41589000Y-1998730D01*
X41581000Y-2003730D01*
X41561000D01*
G01X41631000Y-1903730D02*
Y-1975400D01*
X41635000Y-1990400D01*
X41643000Y-2000400D01*
X41653000Y-2003730D01*
X41663000Y-2000400D01*
X41671000Y-1990400D01*
X41675000Y-1975400D01*
Y-1903730D01*
G01X41745000Y-1912060D02*
X41739000Y-1907060D01*
X41732000Y-1903730D01*
X41724000D01*
X41715000Y-1908730D01*
X41708000Y-1917060D01*
X41703000Y-1927060D01*
X41699000Y-1943730D01*
X41698000Y-1958730D01*
X41700000Y-1973730D01*
X41703000Y-1983730D01*
X41709000Y-1993730D01*
X41716000Y-2000400D01*
X41723000Y-2003730D01*
X41730000D01*
X41737000Y-2000400D01*
X41743000Y-1995400D01*
X41748000Y-1988730D01*
G01X41793000Y-1903730D02*
Y-2003730D01*
G01X41770000Y-1903730D02*
X41816000D01*
G01X41863000Y-2003730D02*
X41855000Y-2002060D01*
X41848000Y-1995400D01*
X41842000Y-1985400D01*
X41838000Y-1973730D01*
X41836000Y-1960400D01*
Y-1947060D01*
X41838000Y-1933730D01*
X41842000Y-1922060D01*
X41848000Y-1912060D01*
X41855000Y-1905400D01*
X41863000Y-1903730D01*
X41871000Y-1905400D01*
X41878000Y-1912060D01*
X41884000Y-1922060D01*
X41888000Y-1933730D01*
X41890000Y-1947060D01*
Y-1960400D01*
X41888000Y-1973730D01*
X41884000Y-1985400D01*
X41878000Y-1995400D01*
X41871000Y-2002060D01*
X41863000Y-2003730D01*
G01X41913000D02*
Y-1903730D01*
X41938000D01*
X41946000Y-1908730D01*
X41951000Y-1915400D01*
X41953000Y-1928730D01*
X41951000Y-1942060D01*
X41945000Y-1950400D01*
X41938000Y-1955400D01*
X41913000D01*
G01X41938000D02*
X41953000Y-2003730D01*
G01X41281000Y-1823740D02*
Y-1723740D01*
X41301000D01*
X41309000Y-1728740D01*
X41315000Y-1735410D01*
X41320000Y-1745410D01*
X41324000Y-1757080D01*
X41325000Y-1773740D01*
X41324000Y-1790410D01*
X41320000Y-1802070D01*
X41315000Y-1812080D01*
X41309000Y-1818740D01*
X41301000Y-1823740D01*
X41281000D01*
G01X41361000Y-1723740D02*
X41385000D01*
G01X41373000D02*
Y-1823740D01*
G01X41361000D02*
X41385000D01*
G01X41463000D02*
X41423000D01*
Y-1723740D01*
X41463000D01*
G01X41447000Y-1772070D02*
X41423000D01*
G01X41493000Y-1723740D02*
Y-1823740D01*
X41533000D01*
G01X41603000D02*
X41563000D01*
Y-1723740D01*
X41603000D01*
G01X41587000Y-1772070D02*
X41563000D01*
G01X41675000Y-1732070D02*
X41669000Y-1727070D01*
X41662000Y-1723740D01*
X41654000D01*
X41645000Y-1728740D01*
X41638000Y-1737070D01*
X41633000Y-1747070D01*
X41629000Y-1763740D01*
X41628000Y-1778740D01*
X41630000Y-1793740D01*
X41633000Y-1803740D01*
X41639000Y-1813740D01*
X41646000Y-1820410D01*
X41653000Y-1823740D01*
X41660000D01*
X41667000Y-1820410D01*
X41673000Y-1815410D01*
X41678000Y-1808740D01*
G01X41723000Y-1723740D02*
Y-1823740D01*
G01X41700000Y-1723740D02*
X41746000D01*
G01X41773000Y-1823740D02*
Y-1723740D01*
X41798000D01*
X41806000Y-1728740D01*
X41811000Y-1735410D01*
X41813000Y-1748740D01*
X41811000Y-1762070D01*
X41805000Y-1770410D01*
X41798000Y-1775410D01*
X41773000D01*
G01X41798000D02*
X41813000Y-1823740D01*
G01X41851000Y-1723740D02*
X41875000D01*
G01X41863000D02*
Y-1823740D01*
G01X41851000D02*
X41875000D01*
G01X41955000Y-1732070D02*
X41949000Y-1727070D01*
X41942000Y-1723740D01*
X41934000D01*
X41925000Y-1728740D01*
X41918000Y-1737070D01*
X41913000Y-1747070D01*
X41909000Y-1763740D01*
X41908000Y-1778740D01*
X41910000Y-1793740D01*
X41913000Y-1803740D01*
X41919000Y-1813740D01*
X41926000Y-1820410D01*
X41933000Y-1823740D01*
X41940000D01*
X41947000Y-1820410D01*
X41953000Y-1815410D01*
X41958000Y-1808740D01*
G01X41395000Y-1552080D02*
X41389000Y-1547080D01*
X41382000Y-1543750D01*
X41374000D01*
X41365000Y-1548750D01*
X41358000Y-1557080D01*
X41353000Y-1567080D01*
X41349000Y-1583750D01*
X41348000Y-1598750D01*
X41350000Y-1613750D01*
X41353000Y-1623750D01*
X41359000Y-1633750D01*
X41366000Y-1640420D01*
X41373000Y-1643750D01*
X41380000D01*
X41387000Y-1640420D01*
X41393000Y-1635420D01*
X41398000Y-1628750D01*
G01X41443000Y-1643750D02*
X41435000Y-1642080D01*
X41428000Y-1635420D01*
X41422000Y-1625420D01*
X41418000Y-1613750D01*
X41416000Y-1600420D01*
Y-1587080D01*
X41418000Y-1573750D01*
X41422000Y-1562080D01*
X41428000Y-1552080D01*
X41435000Y-1545420D01*
X41443000Y-1543750D01*
X41451000Y-1545420D01*
X41458000Y-1552080D01*
X41464000Y-1562080D01*
X41468000Y-1573750D01*
X41470000Y-1587080D01*
Y-1600420D01*
X41468000Y-1613750D01*
X41464000Y-1625420D01*
X41458000Y-1635420D01*
X41451000Y-1642080D01*
X41443000Y-1643750D01*
G01X41490000D02*
Y-1543750D01*
X41536000Y-1643750D01*
Y-1543750D01*
G01X41561000Y-1643750D02*
Y-1543750D01*
X41581000D01*
X41589000Y-1548750D01*
X41595000Y-1555420D01*
X41600000Y-1565420D01*
X41604000Y-1577090D01*
X41605000Y-1593750D01*
X41604000Y-1610420D01*
X41600000Y-1622080D01*
X41595000Y-1632090D01*
X41589000Y-1638750D01*
X41581000Y-1643750D01*
X41561000D01*
G01X41631000Y-1543750D02*
Y-1615420D01*
X41635000Y-1630420D01*
X41643000Y-1640420D01*
X41653000Y-1643750D01*
X41663000Y-1640420D01*
X41671000Y-1630420D01*
X41675000Y-1615420D01*
Y-1543750D01*
G01X41745000Y-1552080D02*
X41739000Y-1547080D01*
X41732000Y-1543750D01*
X41724000D01*
X41715000Y-1548750D01*
X41708000Y-1557080D01*
X41703000Y-1567080D01*
X41699000Y-1583750D01*
X41698000Y-1598750D01*
X41700000Y-1613750D01*
X41703000Y-1623750D01*
X41709000Y-1633750D01*
X41716000Y-1640420D01*
X41723000Y-1643750D01*
X41730000D01*
X41737000Y-1640420D01*
X41743000Y-1635420D01*
X41748000Y-1628750D01*
G01X41793000Y-1543750D02*
Y-1643750D01*
G01X41770000Y-1543750D02*
X41816000D01*
G01X41863000Y-1643750D02*
X41855000Y-1642080D01*
X41848000Y-1635420D01*
X41842000Y-1625420D01*
X41838000Y-1613750D01*
X41836000Y-1600420D01*
Y-1587080D01*
X41838000Y-1573750D01*
X41842000Y-1562080D01*
X41848000Y-1552080D01*
X41855000Y-1545420D01*
X41863000Y-1543750D01*
X41871000Y-1545420D01*
X41878000Y-1552080D01*
X41884000Y-1562080D01*
X41888000Y-1573750D01*
X41890000Y-1587080D01*
Y-1600420D01*
X41888000Y-1613750D01*
X41884000Y-1625420D01*
X41878000Y-1635420D01*
X41871000Y-1642080D01*
X41863000Y-1643750D01*
G01X41913000D02*
Y-1543750D01*
X41938000D01*
X41946000Y-1548750D01*
X41951000Y-1555420D01*
X41953000Y-1568750D01*
X41951000Y-1582080D01*
X41945000Y-1590420D01*
X41938000Y-1595420D01*
X41913000D01*
G01X41938000D02*
X41953000Y-1643750D01*
G01X41653000Y-2983670D02*
Y-3083670D01*
G01X41630000Y-2983670D02*
X41676000D01*
G01X41723000Y-3083670D02*
X41715000Y-3082000D01*
X41708000Y-3075340D01*
X41702000Y-3065340D01*
X41698000Y-3053670D01*
X41696000Y-3040340D01*
Y-3027000D01*
X41698000Y-3013670D01*
X41702000Y-3002000D01*
X41708000Y-2992000D01*
X41715000Y-2985340D01*
X41723000Y-2983670D01*
X41731000Y-2985340D01*
X41738000Y-2992000D01*
X41744000Y-3002000D01*
X41748000Y-3013670D01*
X41750000Y-3027000D01*
Y-3040340D01*
X41748000Y-3053670D01*
X41744000Y-3065340D01*
X41738000Y-3075340D01*
X41731000Y-3082000D01*
X41723000Y-3083670D01*
G01X41793000Y-2983670D02*
Y-3083670D01*
G01X41770000Y-2983670D02*
X41816000D01*
G01X41838000Y-3083670D02*
X41863000Y-2983670D01*
X41888000Y-3083670D01*
G01X41879000Y-3048670D02*
X41847000D01*
G01X41913000Y-2983670D02*
Y-3083670D01*
X41953000D01*
G01X42073000Y-2983670D02*
Y-3083670D01*
G01X42050000Y-2983670D02*
X42096000D01*
G01X42122000Y-3083670D02*
Y-2983670D01*
G01X42164000D02*
Y-3083670D01*
G01Y-3033670D02*
X42122000D01*
G01X42201000Y-2983670D02*
X42225000D01*
G01X42213000D02*
Y-3083670D01*
G01X42201000D02*
X42225000D01*
G01X42305000Y-2992000D02*
X42299000Y-2987000D01*
X42292000Y-2983670D01*
X42284000D01*
X42275000Y-2988670D01*
X42268000Y-2997000D01*
X42263000Y-3007000D01*
X42259000Y-3023670D01*
X42258000Y-3038670D01*
X42260000Y-3053670D01*
X42263000Y-3063670D01*
X42269000Y-3073670D01*
X42276000Y-3080340D01*
X42283000Y-3083670D01*
X42290000D01*
X42297000Y-3080340D01*
X42303000Y-3075340D01*
X42308000Y-3068670D01*
G01X42331000Y-3083670D02*
Y-2983670D01*
G01X42369000D02*
X42331000Y-3045340D01*
G01X42375000Y-3083670D02*
X42348000Y-3017010D01*
G01X42400000Y-3083670D02*
Y-2983670D01*
X42446000Y-3083670D01*
Y-2983670D01*
G01X42513000Y-3083670D02*
X42473000D01*
Y-2983670D01*
X42513000D01*
G01X42497000Y-3032000D02*
X42473000D01*
G01X42542000Y-3070340D02*
X42550000Y-3078670D01*
X42559000Y-3083670D01*
X42567000D01*
X42575000Y-3078670D01*
X42581000Y-3070340D01*
X42584000Y-3058670D01*
X42582000Y-3047010D01*
X42577000Y-3037000D01*
X42568000Y-3030340D01*
X42556000Y-3027000D01*
X42549000Y-3020340D01*
X42546000Y-3008670D01*
X42548000Y-2997000D01*
X42553000Y-2988670D01*
X42560000Y-2983670D01*
X42567000D01*
X42574000Y-2987000D01*
X42580000Y-2995340D01*
G01X42612000Y-3070340D02*
X42620000Y-3078670D01*
X42629000Y-3083670D01*
X42637000D01*
X42645000Y-3078670D01*
X42651000Y-3070340D01*
X42654000Y-3058670D01*
X42652000Y-3047010D01*
X42647000Y-3037000D01*
X42638000Y-3030340D01*
X42626000Y-3027000D01*
X42619000Y-3020340D01*
X42616000Y-3008670D01*
X42618000Y-2997000D01*
X42623000Y-2988670D01*
X42630000Y-2983670D01*
X42637000D01*
X42644000Y-2987000D01*
X42650000Y-2995340D01*
G01X41492000Y-2890350D02*
X41500000Y-2898680D01*
X41509000Y-2903680D01*
X41517000D01*
X41525000Y-2898680D01*
X41531000Y-2890350D01*
X41534000Y-2878680D01*
X41532000Y-2867020D01*
X41527000Y-2857010D01*
X41518000Y-2850350D01*
X41506000Y-2847010D01*
X41499000Y-2840350D01*
X41496000Y-2828680D01*
X41498000Y-2817010D01*
X41503000Y-2808680D01*
X41510000Y-2803680D01*
X41517000D01*
X41524000Y-2807010D01*
X41530000Y-2815350D01*
G01X41561000Y-2803680D02*
Y-2875350D01*
X41565000Y-2890350D01*
X41573000Y-2900350D01*
X41583000Y-2903680D01*
X41593000Y-2900350D01*
X41601000Y-2890350D01*
X41605000Y-2875350D01*
Y-2803680D01*
G01X41633000Y-2903680D02*
Y-2803680D01*
X41658000D01*
X41666000Y-2808680D01*
X41671000Y-2815350D01*
X41673000Y-2828680D01*
X41671000Y-2842010D01*
X41665000Y-2850350D01*
X41658000Y-2855350D01*
X41633000D01*
G01X41658000D02*
X41673000Y-2903680D01*
G01X41704000D02*
Y-2803680D01*
X41742000D01*
G01X41728000Y-2852010D02*
X41704000D01*
G01X41768000Y-2903680D02*
X41793000Y-2803680D01*
X41818000Y-2903680D01*
G01X41809000Y-2868680D02*
X41777000D01*
G01X41885000Y-2812010D02*
X41879000Y-2807010D01*
X41872000Y-2803680D01*
X41864000D01*
X41855000Y-2808680D01*
X41848000Y-2817010D01*
X41843000Y-2827010D01*
X41839000Y-2843680D01*
X41838000Y-2858680D01*
X41840000Y-2873680D01*
X41843000Y-2883680D01*
X41849000Y-2893680D01*
X41856000Y-2900350D01*
X41863000Y-2903680D01*
X41870000D01*
X41877000Y-2900350D01*
X41883000Y-2895350D01*
X41888000Y-2888680D01*
G01X41953000Y-2903680D02*
X41913000D01*
Y-2803680D01*
X41953000D01*
G01X41937000Y-2852010D02*
X41913000D01*
G01X41492000Y-1450430D02*
X41500000Y-1458760D01*
X41509000Y-1463760D01*
X41517000D01*
X41525000Y-1458760D01*
X41531000Y-1450430D01*
X41534000Y-1438760D01*
X41532000Y-1427100D01*
X41527000Y-1417090D01*
X41518000Y-1410430D01*
X41506000Y-1407090D01*
X41499000Y-1400430D01*
X41496000Y-1388760D01*
X41498000Y-1377090D01*
X41503000Y-1368760D01*
X41510000Y-1363760D01*
X41517000D01*
X41524000Y-1367090D01*
X41530000Y-1375430D01*
G01X41561000Y-1363760D02*
Y-1435430D01*
X41565000Y-1450430D01*
X41573000Y-1460430D01*
X41583000Y-1463760D01*
X41593000Y-1460430D01*
X41601000Y-1450430D01*
X41605000Y-1435430D01*
Y-1363760D01*
G01X41633000Y-1463760D02*
Y-1363760D01*
X41658000D01*
X41666000Y-1368760D01*
X41671000Y-1375430D01*
X41673000Y-1388760D01*
X41671000Y-1402090D01*
X41665000Y-1410430D01*
X41658000Y-1415430D01*
X41633000D01*
G01X41658000D02*
X41673000Y-1463760D01*
G01X41704000D02*
Y-1363760D01*
X41742000D01*
G01X41728000Y-1412090D02*
X41704000D01*
G01X41768000Y-1463760D02*
X41793000Y-1363760D01*
X41818000Y-1463760D01*
G01X41809000Y-1428760D02*
X41777000D01*
G01X41885000Y-1372090D02*
X41879000Y-1367090D01*
X41872000Y-1363760D01*
X41864000D01*
X41855000Y-1368760D01*
X41848000Y-1377090D01*
X41843000Y-1387090D01*
X41839000Y-1403760D01*
X41838000Y-1418760D01*
X41840000Y-1433760D01*
X41843000Y-1443760D01*
X41849000Y-1453760D01*
X41856000Y-1460430D01*
X41863000Y-1463760D01*
X41870000D01*
X41877000Y-1460430D01*
X41883000Y-1455430D01*
X41888000Y-1448760D01*
G01X41953000Y-1463760D02*
X41913000D01*
Y-1363760D01*
X41953000D01*
G01X41937000Y-1412090D02*
X41913000D01*
G01X41723000Y-1183770D02*
Y-1283770D01*
G01X41700000Y-1183770D02*
X41746000D01*
G01X41793000Y-1283770D02*
Y-1238770D01*
X41773000Y-1183770D01*
G01X41813000D02*
X41793000Y-1238770D01*
G01X41843000Y-1283770D02*
Y-1183770D01*
X41867000D01*
X41875000Y-1188770D01*
X41881000Y-1200440D01*
X41883000Y-1213770D01*
X41881000Y-1227100D01*
X41876000Y-1237100D01*
X41867000Y-1242110D01*
X41843000D01*
G01X41953000Y-1283770D02*
X41913000D01*
Y-1183770D01*
X41953000D01*
G01X41937000Y-1232100D02*
X41913000D01*
G01X41661000Y-1003780D02*
Y-1075450D01*
X41665000Y-1090450D01*
X41673000Y-1100450D01*
X41683000Y-1103780D01*
X41693000Y-1100450D01*
X41701000Y-1090450D01*
X41705000Y-1075450D01*
Y-1003780D01*
G01X41736000Y-1103780D02*
Y-1037120D01*
G01Y-1053780D02*
X41740000Y-1045450D01*
X41746000Y-1038780D01*
X41754000Y-1037120D01*
X41761000Y-1038780D01*
X41767000Y-1045450D01*
X41770000Y-1057110D01*
Y-1103780D01*
G01X41823000Y-1037120D02*
Y-1103780D01*
G01Y-1010450D02*
X41821000Y-1008780D01*
Y-1005450D01*
X41823000Y-1003780D01*
X41825000Y-1005450D01*
Y-1008780D01*
X41823000Y-1010450D01*
G01X41893000Y-1003780D02*
Y-1103780D01*
G01X41879000Y-1037120D02*
X41907000D01*
G01X42020000Y-1085450D02*
X42046000D01*
G01Y-1055450D02*
X42020000D01*
G01X42147000Y-1103780D02*
Y-1003780D01*
X42173000Y-1087110D01*
X42199000Y-1003780D01*
Y-1103780D01*
G01X42243000Y-1037120D02*
Y-1103780D01*
G01Y-1010450D02*
X42241000Y-1008780D01*
Y-1005450D01*
X42243000Y-1003780D01*
X42245000Y-1005450D01*
Y-1008780D01*
X42243000Y-1010450D01*
G01X42313000Y-1103780D02*
Y-1003780D01*
G01X42383000Y-1103780D02*
Y-1003780D01*
G01X42453000Y-1037120D02*
Y-1103780D01*
G01Y-1010450D02*
X42451000Y-1008780D01*
Y-1005450D01*
X42453000Y-1003780D01*
X42455000Y-1005450D01*
Y-1008780D01*
X42453000Y-1010450D01*
G01X42493000Y-1103780D02*
Y-1037120D01*
G01Y-1055450D02*
X42496000Y-1047110D01*
X42501000Y-1040450D01*
X42508000Y-1037120D01*
X42515000Y-1040450D01*
X42520000Y-1047110D01*
X42523000Y-1055450D01*
Y-1103780D01*
G01Y-1055450D02*
X42526000Y-1047110D01*
X42531000Y-1040450D01*
X42538000Y-1037120D01*
X42545000Y-1040450D01*
X42550000Y-1047110D01*
X42553000Y-1057110D01*
Y-1103780D01*
G01X42578000Y-1058780D02*
X42610000D01*
X42607000Y-1047110D01*
X42602000Y-1040450D01*
X42595000Y-1037120D01*
X42588000Y-1038780D01*
X42582000Y-1043780D01*
X42578000Y-1055450D01*
X42576000Y-1065450D01*
Y-1075450D01*
X42578000Y-1085450D01*
X42583000Y-1095450D01*
X42589000Y-1102110D01*
X42596000Y-1103780D01*
X42603000Y-1100450D01*
X42610000Y-1090450D01*
G01X42663000Y-1003780D02*
Y-1103780D01*
G01X42649000Y-1037120D02*
X42677000D01*
G01X42718000Y-1058780D02*
X42750000D01*
X42747000Y-1047110D01*
X42742000Y-1040450D01*
X42735000Y-1037120D01*
X42728000Y-1038780D01*
X42722000Y-1043780D01*
X42718000Y-1055450D01*
X42716000Y-1065450D01*
Y-1075450D01*
X42718000Y-1085450D01*
X42723000Y-1095450D01*
X42729000Y-1102110D01*
X42736000Y-1103780D01*
X42743000Y-1100450D01*
X42750000Y-1090450D01*
G01X42789000Y-1103780D02*
Y-1037120D01*
G01Y-1050450D02*
X42794000Y-1043780D01*
X42799000Y-1038780D01*
X42806000Y-1037120D01*
X42811000Y-1038780D01*
X42817000Y-1043780D01*
G01X42117000Y-1283770D02*
Y-1183770D01*
X42143000Y-1267100D01*
X42169000Y-1183770D01*
Y-1283770D01*
G01X42188000D02*
X42213000Y-1183770D01*
X42238000Y-1283770D01*
G01X42229000Y-1248770D02*
X42197000D01*
G01X42283000Y-1183770D02*
Y-1283770D01*
G01X42260000Y-1183770D02*
X42306000D01*
G01X42373000Y-1283770D02*
X42333000D01*
Y-1183770D01*
X42373000D01*
G01X42357000Y-1232100D02*
X42333000D01*
G01X42403000Y-1283770D02*
Y-1183770D01*
X42428000D01*
X42436000Y-1188770D01*
X42441000Y-1195440D01*
X42443000Y-1208770D01*
X42441000Y-1222100D01*
X42435000Y-1230440D01*
X42428000Y-1235440D01*
X42403000D01*
G01X42428000D02*
X42443000Y-1283770D01*
G01X42481000Y-1183770D02*
X42505000D01*
G01X42493000D02*
Y-1283770D01*
G01X42481000D02*
X42505000D01*
G01X42538000D02*
X42563000Y-1183770D01*
X42588000Y-1283770D01*
G01X42579000Y-1248770D02*
X42547000D01*
G01X42613000Y-1183770D02*
Y-1283770D01*
X42653000D01*
G01X41802000Y-910460D02*
X41810000Y-918790D01*
X41819000Y-923790D01*
X41827000D01*
X41835000Y-918790D01*
X41841000Y-910460D01*
X41844000Y-898790D01*
X41842000Y-887130D01*
X41837000Y-877120D01*
X41828000Y-870460D01*
X41816000Y-867120D01*
X41809000Y-860460D01*
X41806000Y-848790D01*
X41808000Y-837120D01*
X41813000Y-828790D01*
X41820000Y-823790D01*
X41827000D01*
X41834000Y-827120D01*
X41840000Y-835460D01*
G01X41893000Y-823790D02*
Y-923790D01*
G01X41870000Y-823790D02*
X41916000D01*
G01X41938000Y-923790D02*
X41963000Y-823790D01*
X41988000Y-923790D01*
G01X41979000Y-888790D02*
X41947000D01*
G01X42055000Y-832120D02*
X42049000Y-827120D01*
X42042000Y-823790D01*
X42034000D01*
X42025000Y-828790D01*
X42018000Y-837120D01*
X42013000Y-847120D01*
X42009000Y-863790D01*
X42008000Y-878790D01*
X42010000Y-893790D01*
X42013000Y-903790D01*
X42019000Y-913790D01*
X42026000Y-920460D01*
X42033000Y-923790D01*
X42040000D01*
X42047000Y-920460D01*
X42053000Y-915460D01*
X42058000Y-908790D01*
G01X42081000Y-923790D02*
Y-823790D01*
G01X42119000D02*
X42081000Y-885460D01*
G01X42125000Y-923790D02*
X42098000Y-857130D01*
G01X42151000Y-823790D02*
Y-895460D01*
X42155000Y-910460D01*
X42163000Y-920460D01*
X42173000Y-923790D01*
X42183000Y-920460D01*
X42191000Y-910460D01*
X42195000Y-895460D01*
Y-823790D01*
G01X42223000Y-923790D02*
Y-823790D01*
X42247000D01*
X42255000Y-828790D01*
X42261000Y-840460D01*
X42263000Y-853790D01*
X42261000Y-867120D01*
X42256000Y-877120D01*
X42247000Y-882130D01*
X42223000D01*
G01X42383000Y-823790D02*
Y-923790D01*
G01X42360000Y-823790D02*
X42406000D01*
G01X42428000Y-923790D02*
X42453000Y-823790D01*
X42478000Y-923790D01*
G01X42469000Y-888790D02*
X42437000D01*
G01X42531000Y-870460D02*
X42535000Y-865460D01*
X42538000Y-857130D01*
X42540000Y-845460D01*
X42538000Y-835460D01*
X42534000Y-828790D01*
X42527000Y-823790D01*
X42500000D01*
Y-923790D01*
X42533000D01*
X42540000Y-917120D01*
X42544000Y-907120D01*
X42546000Y-895460D01*
X42544000Y-883790D01*
X42538000Y-873790D01*
X42531000Y-870460D01*
X42500000D01*
G01X42573000Y-823790D02*
Y-923790D01*
X42613000D01*
G01X42683000D02*
X42643000D01*
Y-823790D01*
X42683000D01*
G01X42667000Y-872120D02*
X42643000D01*
G01X42468000Y-2903680D02*
X42493000Y-2803680D01*
X42518000Y-2903680D01*
G01X42509000Y-2868680D02*
X42477000D01*
G01X42551000Y-2803680D02*
X42575000D01*
G01X42563000D02*
Y-2903680D01*
G01X42551000D02*
X42575000D01*
G01X42613000D02*
Y-2803680D01*
X42638000D01*
X42646000Y-2808680D01*
X42651000Y-2815350D01*
X42653000Y-2828680D01*
X42651000Y-2842010D01*
X42645000Y-2850350D01*
X42638000Y-2855350D01*
X42613000D01*
G01X42638000D02*
X42653000Y-2903680D01*
G01X42305000Y-2632020D02*
X42299000Y-2627020D01*
X42292000Y-2623690D01*
X42284000D01*
X42275000Y-2628690D01*
X42268000Y-2637020D01*
X42263000Y-2647020D01*
X42259000Y-2663690D01*
X42258000Y-2678690D01*
X42260000Y-2693690D01*
X42263000Y-2703690D01*
X42269000Y-2713690D01*
X42276000Y-2720360D01*
X42283000Y-2723690D01*
X42290000D01*
X42297000Y-2720360D01*
X42303000Y-2715360D01*
X42308000Y-2708690D01*
G01X42353000Y-2723690D02*
X42345000Y-2722020D01*
X42338000Y-2715360D01*
X42332000Y-2705360D01*
X42328000Y-2693690D01*
X42326000Y-2680360D01*
Y-2667020D01*
X42328000Y-2653690D01*
X42332000Y-2642020D01*
X42338000Y-2632020D01*
X42345000Y-2625360D01*
X42353000Y-2623690D01*
X42361000Y-2625360D01*
X42368000Y-2632020D01*
X42374000Y-2642020D01*
X42378000Y-2653690D01*
X42380000Y-2667020D01*
Y-2680360D01*
X42378000Y-2693690D01*
X42374000Y-2705360D01*
X42368000Y-2715360D01*
X42361000Y-2722020D01*
X42353000Y-2723690D01*
G01X42403000D02*
Y-2623690D01*
X42427000D01*
X42435000Y-2628690D01*
X42441000Y-2640360D01*
X42443000Y-2653690D01*
X42441000Y-2667020D01*
X42436000Y-2677020D01*
X42427000Y-2682030D01*
X42403000D01*
G01X42473000Y-2723690D02*
Y-2623690D01*
X42497000D01*
X42505000Y-2628690D01*
X42511000Y-2640360D01*
X42513000Y-2653690D01*
X42511000Y-2667020D01*
X42506000Y-2677020D01*
X42497000Y-2682030D01*
X42473000D01*
G01X42583000Y-2723690D02*
X42543000D01*
Y-2623690D01*
X42583000D01*
G01X42567000Y-2672020D02*
X42543000D01*
G01X42613000Y-2723690D02*
Y-2623690D01*
X42638000D01*
X42646000Y-2628690D01*
X42651000Y-2635360D01*
X42653000Y-2648690D01*
X42651000Y-2662020D01*
X42645000Y-2670360D01*
X42638000Y-2675360D01*
X42613000D01*
G01X42638000D02*
X42653000Y-2723690D01*
G01X42404000Y-2543700D02*
Y-2443700D01*
X42442000D01*
G01X42428000Y-2492030D02*
X42404000D01*
G01X42473000Y-2543700D02*
Y-2443700D01*
X42498000D01*
X42506000Y-2448700D01*
X42511000Y-2455370D01*
X42513000Y-2468700D01*
X42511000Y-2482030D01*
X42505000Y-2490370D01*
X42498000Y-2495370D01*
X42473000D01*
G01X42498000D02*
X42513000Y-2543700D01*
G01X42550000Y-2510370D02*
X42576000D01*
G01X42645000Y-2543700D02*
Y-2443700D01*
X42608000Y-2515370D01*
X42658000D01*
G01X42305000Y-2272040D02*
X42299000Y-2267040D01*
X42292000Y-2263710D01*
X42284000D01*
X42275000Y-2268710D01*
X42268000Y-2277040D01*
X42263000Y-2287040D01*
X42259000Y-2303710D01*
X42258000Y-2318710D01*
X42260000Y-2333710D01*
X42263000Y-2343710D01*
X42269000Y-2353710D01*
X42276000Y-2360380D01*
X42283000Y-2363710D01*
X42290000D01*
X42297000Y-2360380D01*
X42303000Y-2355380D01*
X42308000Y-2348710D01*
G01X42353000Y-2363710D02*
X42345000Y-2362040D01*
X42338000Y-2355380D01*
X42332000Y-2345380D01*
X42328000Y-2333710D01*
X42326000Y-2320380D01*
Y-2307040D01*
X42328000Y-2293710D01*
X42332000Y-2282040D01*
X42338000Y-2272040D01*
X42345000Y-2265380D01*
X42353000Y-2263710D01*
X42361000Y-2265380D01*
X42368000Y-2272040D01*
X42374000Y-2282040D01*
X42378000Y-2293710D01*
X42380000Y-2307040D01*
Y-2320380D01*
X42378000Y-2333710D01*
X42374000Y-2345380D01*
X42368000Y-2355380D01*
X42361000Y-2362040D01*
X42353000Y-2363710D01*
G01X42403000D02*
Y-2263710D01*
X42427000D01*
X42435000Y-2268710D01*
X42441000Y-2280380D01*
X42443000Y-2293710D01*
X42441000Y-2307040D01*
X42436000Y-2317040D01*
X42427000Y-2322050D01*
X42403000D01*
G01X42473000Y-2363710D02*
Y-2263710D01*
X42497000D01*
X42505000Y-2268710D01*
X42511000Y-2280380D01*
X42513000Y-2293710D01*
X42511000Y-2307040D01*
X42506000Y-2317040D01*
X42497000Y-2322050D01*
X42473000D01*
G01X42583000Y-2363710D02*
X42543000D01*
Y-2263710D01*
X42583000D01*
G01X42567000Y-2312040D02*
X42543000D01*
G01X42613000Y-2363710D02*
Y-2263710D01*
X42638000D01*
X42646000Y-2268710D01*
X42651000Y-2275380D01*
X42653000Y-2288710D01*
X42651000Y-2302040D01*
X42645000Y-2310380D01*
X42638000Y-2315380D01*
X42613000D01*
G01X42638000D02*
X42653000Y-2363710D01*
G01X42404000Y-2183720D02*
Y-2083720D01*
X42442000D01*
G01X42428000Y-2132050D02*
X42404000D01*
G01X42473000Y-2183720D02*
Y-2083720D01*
X42498000D01*
X42506000Y-2088720D01*
X42511000Y-2095390D01*
X42513000Y-2108720D01*
X42511000Y-2122050D01*
X42505000Y-2130390D01*
X42498000Y-2135390D01*
X42473000D01*
G01X42498000D02*
X42513000Y-2183720D01*
G01X42550000Y-2150390D02*
X42576000D01*
G01X42645000Y-2183720D02*
Y-2083720D01*
X42608000Y-2155390D01*
X42658000D01*
G01X42305000Y-1912060D02*
X42299000Y-1907060D01*
X42292000Y-1903730D01*
X42284000D01*
X42275000Y-1908730D01*
X42268000Y-1917060D01*
X42263000Y-1927060D01*
X42259000Y-1943730D01*
X42258000Y-1958730D01*
X42260000Y-1973730D01*
X42263000Y-1983730D01*
X42269000Y-1993730D01*
X42276000Y-2000400D01*
X42283000Y-2003730D01*
X42290000D01*
X42297000Y-2000400D01*
X42303000Y-1995400D01*
X42308000Y-1988730D01*
G01X42353000Y-2003730D02*
X42345000Y-2002060D01*
X42338000Y-1995400D01*
X42332000Y-1985400D01*
X42328000Y-1973730D01*
X42326000Y-1960400D01*
Y-1947060D01*
X42328000Y-1933730D01*
X42332000Y-1922060D01*
X42338000Y-1912060D01*
X42345000Y-1905400D01*
X42353000Y-1903730D01*
X42361000Y-1905400D01*
X42368000Y-1912060D01*
X42374000Y-1922060D01*
X42378000Y-1933730D01*
X42380000Y-1947060D01*
Y-1960400D01*
X42378000Y-1973730D01*
X42374000Y-1985400D01*
X42368000Y-1995400D01*
X42361000Y-2002060D01*
X42353000Y-2003730D01*
G01X42403000D02*
Y-1903730D01*
X42427000D01*
X42435000Y-1908730D01*
X42441000Y-1920400D01*
X42443000Y-1933730D01*
X42441000Y-1947060D01*
X42436000Y-1957060D01*
X42427000Y-1962070D01*
X42403000D01*
G01X42473000Y-2003730D02*
Y-1903730D01*
X42497000D01*
X42505000Y-1908730D01*
X42511000Y-1920400D01*
X42513000Y-1933730D01*
X42511000Y-1947060D01*
X42506000Y-1957060D01*
X42497000Y-1962070D01*
X42473000D01*
G01X42583000Y-2003730D02*
X42543000D01*
Y-1903730D01*
X42583000D01*
G01X42567000Y-1952060D02*
X42543000D01*
G01X42613000Y-2003730D02*
Y-1903730D01*
X42638000D01*
X42646000Y-1908730D01*
X42651000Y-1915400D01*
X42653000Y-1928730D01*
X42651000Y-1942060D01*
X42645000Y-1950400D01*
X42638000Y-1955400D01*
X42613000D01*
G01X42638000D02*
X42653000Y-2003730D01*
G01X42404000Y-1823740D02*
Y-1723740D01*
X42442000D01*
G01X42428000Y-1772070D02*
X42404000D01*
G01X42473000Y-1823740D02*
Y-1723740D01*
X42498000D01*
X42506000Y-1728740D01*
X42511000Y-1735410D01*
X42513000Y-1748740D01*
X42511000Y-1762070D01*
X42505000Y-1770410D01*
X42498000Y-1775410D01*
X42473000D01*
G01X42498000D02*
X42513000Y-1823740D01*
G01X42550000Y-1790410D02*
X42576000D01*
G01X42645000Y-1823740D02*
Y-1723740D01*
X42608000Y-1795410D01*
X42658000D01*
G01X42305000Y-1552080D02*
X42299000Y-1547080D01*
X42292000Y-1543750D01*
X42284000D01*
X42275000Y-1548750D01*
X42268000Y-1557080D01*
X42263000Y-1567080D01*
X42259000Y-1583750D01*
X42258000Y-1598750D01*
X42260000Y-1613750D01*
X42263000Y-1623750D01*
X42269000Y-1633750D01*
X42276000Y-1640420D01*
X42283000Y-1643750D01*
X42290000D01*
X42297000Y-1640420D01*
X42303000Y-1635420D01*
X42308000Y-1628750D01*
G01X42353000Y-1643750D02*
X42345000Y-1642080D01*
X42338000Y-1635420D01*
X42332000Y-1625420D01*
X42328000Y-1613750D01*
X42326000Y-1600420D01*
Y-1587080D01*
X42328000Y-1573750D01*
X42332000Y-1562080D01*
X42338000Y-1552080D01*
X42345000Y-1545420D01*
X42353000Y-1543750D01*
X42361000Y-1545420D01*
X42368000Y-1552080D01*
X42374000Y-1562080D01*
X42378000Y-1573750D01*
X42380000Y-1587080D01*
Y-1600420D01*
X42378000Y-1613750D01*
X42374000Y-1625420D01*
X42368000Y-1635420D01*
X42361000Y-1642080D01*
X42353000Y-1643750D01*
G01X42403000D02*
Y-1543750D01*
X42427000D01*
X42435000Y-1548750D01*
X42441000Y-1560420D01*
X42443000Y-1573750D01*
X42441000Y-1587080D01*
X42436000Y-1597080D01*
X42427000Y-1602090D01*
X42403000D01*
G01X42473000Y-1643750D02*
Y-1543750D01*
X42497000D01*
X42505000Y-1548750D01*
X42511000Y-1560420D01*
X42513000Y-1573750D01*
X42511000Y-1587080D01*
X42506000Y-1597080D01*
X42497000Y-1602090D01*
X42473000D01*
G01X42583000Y-1643750D02*
X42543000D01*
Y-1543750D01*
X42583000D01*
G01X42567000Y-1592080D02*
X42543000D01*
G01X42613000Y-1643750D02*
Y-1543750D01*
X42638000D01*
X42646000Y-1548750D01*
X42651000Y-1555420D01*
X42653000Y-1568750D01*
X42651000Y-1582080D01*
X42645000Y-1590420D01*
X42638000Y-1595420D01*
X42613000D01*
G01X42638000D02*
X42653000Y-1643750D01*
G01X42468000Y-1463760D02*
X42493000Y-1363760D01*
X42518000Y-1463760D01*
G01X42509000Y-1428760D02*
X42477000D01*
G01X42551000Y-1363760D02*
X42575000D01*
G01X42563000D02*
Y-1463760D01*
G01X42551000D02*
X42575000D01*
G01X42613000D02*
Y-1363760D01*
X42638000D01*
X42646000Y-1368760D01*
X42651000Y-1375430D01*
X42653000Y-1388760D01*
X42651000Y-1402090D01*
X42645000Y-1410430D01*
X42638000Y-1415430D01*
X42613000D01*
G01X42638000D02*
X42653000Y-1463760D01*
G01X43053000Y-3083670D02*
Y-2983670D01*
X43041000Y-3003670D01*
G01Y-3083670D02*
X43065000D01*
G01X43123000Y-3087000D02*
X43121000Y-3085340D01*
Y-3082000D01*
X43123000Y-3080340D01*
X43125000Y-3082000D01*
Y-3085340D01*
X43123000Y-3087000D01*
G01X43193000Y-3083670D02*
Y-2983670D01*
X43181000Y-3003670D01*
G01Y-3083670D02*
X43205000D01*
G01X43244000Y-3042010D02*
X43251000Y-3030340D01*
X43257000Y-3023670D01*
X43265000Y-3020340D01*
X43272000Y-3023670D01*
X43277000Y-3030340D01*
X43281000Y-3040340D01*
X43282000Y-3052000D01*
X43281000Y-3062000D01*
X43277000Y-3072010D01*
X43271000Y-3080340D01*
X43264000Y-3083670D01*
X43256000Y-3080340D01*
X43249000Y-3070340D01*
X43245000Y-3055340D01*
X43244000Y-3038670D01*
X43246000Y-3017010D01*
X43249000Y-3005340D01*
X43254000Y-2993670D01*
X43261000Y-2985340D01*
X43268000Y-2983670D01*
X43275000Y-2987000D01*
X43280000Y-2995340D01*
G01X43345000Y-3083670D02*
Y-2983670D01*
X43308000Y-3055340D01*
X43358000D01*
G01X43384000Y-3000340D02*
X43390000Y-2990340D01*
X43397000Y-2985340D01*
X43405000Y-2983670D01*
X43415000Y-2987000D01*
X43422000Y-2995340D01*
X43424000Y-3005340D01*
X43423000Y-3015340D01*
X43419000Y-3023670D01*
X43399000Y-3040340D01*
X43390000Y-3052000D01*
X43384000Y-3068670D01*
X43382000Y-3083670D01*
X43424000D01*
G01X43053000Y-2443700D02*
X43045000Y-2447030D01*
X43039000Y-2455370D01*
X43035000Y-2465370D01*
X43032000Y-2478700D01*
X43031000Y-2493700D01*
X43032000Y-2508700D01*
X43035000Y-2522030D01*
X43039000Y-2532040D01*
X43045000Y-2540370D01*
X43053000Y-2543700D01*
X43061000Y-2540370D01*
X43067000Y-2532040D01*
X43071000Y-2522030D01*
X43074000Y-2508700D01*
X43075000Y-2493700D01*
X43074000Y-2478700D01*
X43071000Y-2465370D01*
X43067000Y-2455370D01*
X43061000Y-2447030D01*
X43053000Y-2443700D01*
G01X43123000Y-2547030D02*
X43121000Y-2545370D01*
Y-2542030D01*
X43123000Y-2540370D01*
X43125000Y-2542030D01*
Y-2545370D01*
X43123000Y-2547030D01*
G01X43193000Y-2443700D02*
X43185000Y-2447030D01*
X43179000Y-2455370D01*
X43175000Y-2465370D01*
X43172000Y-2478700D01*
X43171000Y-2493700D01*
X43172000Y-2508700D01*
X43175000Y-2522030D01*
X43179000Y-2532040D01*
X43185000Y-2540370D01*
X43193000Y-2543700D01*
X43201000Y-2540370D01*
X43207000Y-2532040D01*
X43211000Y-2522030D01*
X43214000Y-2508700D01*
X43215000Y-2493700D01*
X43214000Y-2478700D01*
X43211000Y-2465370D01*
X43207000Y-2455370D01*
X43201000Y-2447030D01*
X43193000Y-2443700D01*
G01X43246000Y-2532040D02*
X43253000Y-2540370D01*
X43261000Y-2543700D01*
X43269000Y-2540370D01*
X43276000Y-2530370D01*
X43281000Y-2515370D01*
X43283000Y-2500370D01*
Y-2482030D01*
X43281000Y-2467030D01*
X43276000Y-2453700D01*
X43270000Y-2447030D01*
X43263000Y-2443700D01*
X43255000Y-2447030D01*
X43249000Y-2453700D01*
X43245000Y-2463700D01*
X43243000Y-2477040D01*
X43245000Y-2488700D01*
X43250000Y-2500370D01*
X43256000Y-2507040D01*
X43263000Y-2508700D01*
X43271000Y-2505370D01*
X43277000Y-2497030D01*
X43283000Y-2482030D01*
G01X43316000Y-2532040D02*
X43323000Y-2540370D01*
X43331000Y-2543700D01*
X43339000Y-2540370D01*
X43346000Y-2530370D01*
X43351000Y-2515370D01*
X43353000Y-2500370D01*
Y-2482030D01*
X43351000Y-2467030D01*
X43346000Y-2453700D01*
X43340000Y-2447030D01*
X43333000Y-2443700D01*
X43325000Y-2447030D01*
X43319000Y-2453700D01*
X43315000Y-2463700D01*
X43313000Y-2477040D01*
X43315000Y-2488700D01*
X43320000Y-2500370D01*
X43326000Y-2507040D01*
X43333000Y-2508700D01*
X43341000Y-2505370D01*
X43347000Y-2497030D01*
X43353000Y-2482030D01*
G01X43415000Y-2543700D02*
Y-2443700D01*
X43378000Y-2515370D01*
X43428000D01*
G01X43053000Y-2263710D02*
X43045000Y-2267040D01*
X43039000Y-2275380D01*
X43035000Y-2285380D01*
X43032000Y-2298710D01*
X43031000Y-2313710D01*
X43032000Y-2328710D01*
X43035000Y-2342040D01*
X43039000Y-2352050D01*
X43045000Y-2360380D01*
X43053000Y-2363710D01*
X43061000Y-2360380D01*
X43067000Y-2352050D01*
X43071000Y-2342040D01*
X43074000Y-2328710D01*
X43075000Y-2313710D01*
X43074000Y-2298710D01*
X43071000Y-2285380D01*
X43067000Y-2275380D01*
X43061000Y-2267040D01*
X43053000Y-2263710D01*
G01X43123000Y-2367040D02*
X43121000Y-2365380D01*
Y-2362040D01*
X43123000Y-2360380D01*
X43125000Y-2362040D01*
Y-2365380D01*
X43123000Y-2367040D01*
G01X43193000Y-2263710D02*
X43185000Y-2267040D01*
X43179000Y-2275380D01*
X43175000Y-2285380D01*
X43172000Y-2298710D01*
X43171000Y-2313710D01*
X43172000Y-2328710D01*
X43175000Y-2342040D01*
X43179000Y-2352050D01*
X43185000Y-2360380D01*
X43193000Y-2363710D01*
X43201000Y-2360380D01*
X43207000Y-2352050D01*
X43211000Y-2342040D01*
X43214000Y-2328710D01*
X43215000Y-2313710D01*
X43214000Y-2298710D01*
X43211000Y-2285380D01*
X43207000Y-2275380D01*
X43201000Y-2267040D01*
X43193000Y-2263710D01*
G01X43263000Y-2363710D02*
Y-2263710D01*
X43251000Y-2283710D01*
G01Y-2363710D02*
X43275000D01*
G01X43311000Y-2348710D02*
X43317000Y-2357040D01*
X43324000Y-2362040D01*
X43333000Y-2363710D01*
X43342000Y-2360380D01*
X43349000Y-2353710D01*
X43354000Y-2342040D01*
X43355000Y-2328710D01*
X43353000Y-2315380D01*
X43348000Y-2307040D01*
X43341000Y-2300380D01*
X43334000Y-2298710D01*
X43327000Y-2300380D01*
X43318000Y-2307040D01*
X43321000Y-2263710D01*
X43348000D01*
G01X43384000Y-2280380D02*
X43390000Y-2270380D01*
X43397000Y-2265380D01*
X43405000Y-2263710D01*
X43415000Y-2267040D01*
X43422000Y-2275380D01*
X43424000Y-2285380D01*
X43423000Y-2295380D01*
X43419000Y-2303710D01*
X43399000Y-2320380D01*
X43390000Y-2332040D01*
X43384000Y-2348710D01*
X43382000Y-2363710D01*
X43424000D01*
G01X43053000Y-1903730D02*
X43045000Y-1907060D01*
X43039000Y-1915400D01*
X43035000Y-1925400D01*
X43032000Y-1938730D01*
X43031000Y-1953730D01*
X43032000Y-1968730D01*
X43035000Y-1982060D01*
X43039000Y-1992070D01*
X43045000Y-2000400D01*
X43053000Y-2003730D01*
X43061000Y-2000400D01*
X43067000Y-1992070D01*
X43071000Y-1982060D01*
X43074000Y-1968730D01*
X43075000Y-1953730D01*
X43074000Y-1938730D01*
X43071000Y-1925400D01*
X43067000Y-1915400D01*
X43061000Y-1907060D01*
X43053000Y-1903730D01*
G01X43123000Y-2007060D02*
X43121000Y-2005400D01*
Y-2002060D01*
X43123000Y-2000400D01*
X43125000Y-2002060D01*
Y-2005400D01*
X43123000Y-2007060D01*
G01X43193000Y-1903730D02*
X43185000Y-1907060D01*
X43179000Y-1915400D01*
X43175000Y-1925400D01*
X43172000Y-1938730D01*
X43171000Y-1953730D01*
X43172000Y-1968730D01*
X43175000Y-1982060D01*
X43179000Y-1992070D01*
X43185000Y-2000400D01*
X43193000Y-2003730D01*
X43201000Y-2000400D01*
X43207000Y-1992070D01*
X43211000Y-1982060D01*
X43214000Y-1968730D01*
X43215000Y-1953730D01*
X43214000Y-1938730D01*
X43211000Y-1925400D01*
X43207000Y-1915400D01*
X43201000Y-1907060D01*
X43193000Y-1903730D01*
G01X43263000Y-2003730D02*
Y-1903730D01*
X43251000Y-1923730D01*
G01Y-2003730D02*
X43275000D01*
G01X43311000Y-1988730D02*
X43317000Y-1997060D01*
X43324000Y-2002060D01*
X43333000Y-2003730D01*
X43342000Y-2000400D01*
X43349000Y-1993730D01*
X43354000Y-1982060D01*
X43355000Y-1968730D01*
X43353000Y-1955400D01*
X43348000Y-1947060D01*
X43341000Y-1940400D01*
X43334000Y-1938730D01*
X43327000Y-1940400D01*
X43318000Y-1947060D01*
X43321000Y-1903730D01*
X43348000D01*
G01X43384000Y-1920400D02*
X43390000Y-1910400D01*
X43397000Y-1905400D01*
X43405000Y-1903730D01*
X43415000Y-1907060D01*
X43422000Y-1915400D01*
X43424000Y-1925400D01*
X43423000Y-1935400D01*
X43419000Y-1943730D01*
X43399000Y-1960400D01*
X43390000Y-1972060D01*
X43384000Y-1988730D01*
X43382000Y-2003730D01*
X43424000D01*
G01X43053000Y-1723740D02*
X43045000Y-1727070D01*
X43039000Y-1735410D01*
X43035000Y-1745410D01*
X43032000Y-1758740D01*
X43031000Y-1773740D01*
X43032000Y-1788740D01*
X43035000Y-1802070D01*
X43039000Y-1812080D01*
X43045000Y-1820410D01*
X43053000Y-1823740D01*
X43061000Y-1820410D01*
X43067000Y-1812080D01*
X43071000Y-1802070D01*
X43074000Y-1788740D01*
X43075000Y-1773740D01*
X43074000Y-1758740D01*
X43071000Y-1745410D01*
X43067000Y-1735410D01*
X43061000Y-1727070D01*
X43053000Y-1723740D01*
G01X43123000Y-1827070D02*
X43121000Y-1825410D01*
Y-1822070D01*
X43123000Y-1820410D01*
X43125000Y-1822070D01*
Y-1825410D01*
X43123000Y-1827070D01*
G01X43193000Y-1723740D02*
X43185000Y-1727070D01*
X43179000Y-1735410D01*
X43175000Y-1745410D01*
X43172000Y-1758740D01*
X43171000Y-1773740D01*
X43172000Y-1788740D01*
X43175000Y-1802070D01*
X43179000Y-1812080D01*
X43185000Y-1820410D01*
X43193000Y-1823740D01*
X43201000Y-1820410D01*
X43207000Y-1812080D01*
X43211000Y-1802070D01*
X43214000Y-1788740D01*
X43215000Y-1773740D01*
X43214000Y-1758740D01*
X43211000Y-1745410D01*
X43207000Y-1735410D01*
X43201000Y-1727070D01*
X43193000Y-1723740D01*
G01X43246000Y-1812080D02*
X43253000Y-1820410D01*
X43261000Y-1823740D01*
X43269000Y-1820410D01*
X43276000Y-1810410D01*
X43281000Y-1795410D01*
X43283000Y-1780410D01*
Y-1762070D01*
X43281000Y-1747070D01*
X43276000Y-1733740D01*
X43270000Y-1727070D01*
X43263000Y-1723740D01*
X43255000Y-1727070D01*
X43249000Y-1733740D01*
X43245000Y-1743740D01*
X43243000Y-1757080D01*
X43245000Y-1768740D01*
X43250000Y-1780410D01*
X43256000Y-1787080D01*
X43263000Y-1788740D01*
X43271000Y-1785410D01*
X43277000Y-1777070D01*
X43283000Y-1762070D01*
G01X43316000Y-1812080D02*
X43323000Y-1820410D01*
X43331000Y-1823740D01*
X43339000Y-1820410D01*
X43346000Y-1810410D01*
X43351000Y-1795410D01*
X43353000Y-1780410D01*
Y-1762070D01*
X43351000Y-1747070D01*
X43346000Y-1733740D01*
X43340000Y-1727070D01*
X43333000Y-1723740D01*
X43325000Y-1727070D01*
X43319000Y-1733740D01*
X43315000Y-1743740D01*
X43313000Y-1757080D01*
X43315000Y-1768740D01*
X43320000Y-1780410D01*
X43326000Y-1787080D01*
X43333000Y-1788740D01*
X43341000Y-1785410D01*
X43347000Y-1777070D01*
X43353000Y-1762070D01*
G01X43415000Y-1823740D02*
Y-1723740D01*
X43378000Y-1795410D01*
X43428000D01*
G01X42843000Y-1183770D02*
Y-1283770D01*
G01X42820000Y-1183770D02*
X42866000D01*
G01X42892000Y-1283770D02*
Y-1183770D01*
G01X42934000D02*
Y-1283770D01*
G01Y-1233770D02*
X42892000D01*
G01X42971000Y-1183770D02*
X42995000D01*
G01X42983000D02*
Y-1283770D01*
G01X42971000D02*
X42995000D01*
G01X43075000Y-1192100D02*
X43069000Y-1187100D01*
X43062000Y-1183770D01*
X43054000D01*
X43045000Y-1188770D01*
X43038000Y-1197100D01*
X43033000Y-1207100D01*
X43029000Y-1223770D01*
X43028000Y-1238770D01*
X43030000Y-1253770D01*
X43033000Y-1263770D01*
X43039000Y-1273770D01*
X43046000Y-1280440D01*
X43053000Y-1283770D01*
X43060000D01*
X43067000Y-1280440D01*
X43073000Y-1275440D01*
X43078000Y-1268770D01*
G01X43101000Y-1283770D02*
Y-1183770D01*
G01X43139000D02*
X43101000Y-1245440D01*
G01X43145000Y-1283770D02*
X43118000Y-1217110D01*
G01X43170000Y-1283770D02*
Y-1183770D01*
X43216000Y-1283770D01*
Y-1183770D01*
G01X43283000Y-1283770D02*
X43243000D01*
Y-1183770D01*
X43283000D01*
G01X43267000Y-1232100D02*
X43243000D01*
G01X43312000Y-1270440D02*
X43320000Y-1278770D01*
X43329000Y-1283770D01*
X43337000D01*
X43345000Y-1278770D01*
X43351000Y-1270440D01*
X43354000Y-1258770D01*
X43352000Y-1247110D01*
X43347000Y-1237100D01*
X43338000Y-1230440D01*
X43326000Y-1227100D01*
X43319000Y-1220440D01*
X43316000Y-1208770D01*
X43318000Y-1197100D01*
X43323000Y-1188770D01*
X43330000Y-1183770D01*
X43337000D01*
X43344000Y-1187100D01*
X43350000Y-1195440D01*
G01X43382000Y-1270440D02*
X43390000Y-1278770D01*
X43399000Y-1283770D01*
X43407000D01*
X43415000Y-1278770D01*
X43421000Y-1270440D01*
X43424000Y-1258770D01*
X43422000Y-1247110D01*
X43417000Y-1237100D01*
X43408000Y-1230440D01*
X43396000Y-1227100D01*
X43389000Y-1220440D01*
X43386000Y-1208770D01*
X43388000Y-1197100D01*
X43393000Y-1188770D01*
X43400000Y-1183770D01*
X43407000D01*
X43414000Y-1187100D01*
X43420000Y-1195440D01*
G01X43403000Y-2803680D02*
X43395000Y-2807010D01*
X43389000Y-2815350D01*
X43385000Y-2825350D01*
X43382000Y-2838680D01*
X43381000Y-2853680D01*
X43382000Y-2868680D01*
X43385000Y-2882010D01*
X43389000Y-2892020D01*
X43395000Y-2900350D01*
X43403000Y-2903680D01*
X43411000Y-2900350D01*
X43417000Y-2892020D01*
X43421000Y-2882010D01*
X43424000Y-2868680D01*
X43425000Y-2853680D01*
X43424000Y-2838680D01*
X43421000Y-2825350D01*
X43417000Y-2815350D01*
X43411000Y-2807010D01*
X43403000Y-2803680D01*
G01X43123000Y-2623690D02*
X43115000Y-2627020D01*
X43109000Y-2635360D01*
X43105000Y-2645360D01*
X43102000Y-2658690D01*
X43101000Y-2673690D01*
X43102000Y-2688690D01*
X43105000Y-2702020D01*
X43109000Y-2712030D01*
X43115000Y-2720360D01*
X43123000Y-2723690D01*
X43131000Y-2720360D01*
X43137000Y-2712030D01*
X43141000Y-2702020D01*
X43144000Y-2688690D01*
X43145000Y-2673690D01*
X43144000Y-2658690D01*
X43141000Y-2645360D01*
X43137000Y-2635360D01*
X43131000Y-2627020D01*
X43123000Y-2623690D01*
G01X43193000Y-2727020D02*
X43191000Y-2725360D01*
Y-2722020D01*
X43193000Y-2720360D01*
X43195000Y-2722020D01*
Y-2725360D01*
X43193000Y-2727020D01*
G01X43263000Y-2623690D02*
X43255000Y-2627020D01*
X43249000Y-2635360D01*
X43245000Y-2645360D01*
X43242000Y-2658690D01*
X43241000Y-2673690D01*
X43242000Y-2688690D01*
X43245000Y-2702020D01*
X43249000Y-2712030D01*
X43255000Y-2720360D01*
X43263000Y-2723690D01*
X43271000Y-2720360D01*
X43277000Y-2712030D01*
X43281000Y-2702020D01*
X43284000Y-2688690D01*
X43285000Y-2673690D01*
X43284000Y-2658690D01*
X43281000Y-2645360D01*
X43277000Y-2635360D01*
X43271000Y-2627020D01*
X43263000Y-2623690D01*
G01X43311000Y-2703690D02*
X43317000Y-2715360D01*
X43325000Y-2722020D01*
X43334000Y-2723690D01*
X43342000Y-2722020D01*
X43350000Y-2713690D01*
X43355000Y-2703690D01*
X43356000Y-2693690D01*
X43354000Y-2682030D01*
X43347000Y-2673690D01*
X43340000Y-2670360D01*
X43331000D01*
G01X43340000D02*
X43346000Y-2665360D01*
X43351000Y-2657030D01*
X43353000Y-2647020D01*
X43351000Y-2637020D01*
X43346000Y-2628690D01*
X43337000Y-2623690D01*
X43328000Y-2625360D01*
X43319000Y-2632020D01*
G01X43381000Y-2708690D02*
X43387000Y-2717020D01*
X43394000Y-2722020D01*
X43403000Y-2723690D01*
X43412000Y-2720360D01*
X43419000Y-2713690D01*
X43424000Y-2702020D01*
X43425000Y-2688690D01*
X43423000Y-2675360D01*
X43418000Y-2667020D01*
X43411000Y-2660360D01*
X43404000Y-2658690D01*
X43397000Y-2660360D01*
X43388000Y-2667020D01*
X43391000Y-2623690D01*
X43418000D01*
G01X43123000Y-2083720D02*
X43115000Y-2087050D01*
X43109000Y-2095390D01*
X43105000Y-2105390D01*
X43102000Y-2118720D01*
X43101000Y-2133720D01*
X43102000Y-2148720D01*
X43105000Y-2162050D01*
X43109000Y-2172060D01*
X43115000Y-2180390D01*
X43123000Y-2183720D01*
X43131000Y-2180390D01*
X43137000Y-2172060D01*
X43141000Y-2162050D01*
X43144000Y-2148720D01*
X43145000Y-2133720D01*
X43144000Y-2118720D01*
X43141000Y-2105390D01*
X43137000Y-2095390D01*
X43131000Y-2087050D01*
X43123000Y-2083720D01*
G01X43193000Y-2187050D02*
X43191000Y-2185390D01*
Y-2182050D01*
X43193000Y-2180390D01*
X43195000Y-2182050D01*
Y-2185390D01*
X43193000Y-2187050D01*
G01X43263000Y-2183720D02*
X43270000Y-2182050D01*
X43278000Y-2177050D01*
X43283000Y-2168720D01*
X43285000Y-2157050D01*
X43283000Y-2145390D01*
X43277000Y-2135390D01*
X43268000Y-2130390D01*
X43258000D01*
X43252000Y-2127050D01*
X43247000Y-2118720D01*
X43245000Y-2107050D01*
X43248000Y-2095390D01*
X43255000Y-2087050D01*
X43263000Y-2083720D01*
X43271000Y-2087050D01*
X43278000Y-2095390D01*
X43281000Y-2107050D01*
X43279000Y-2118720D01*
X43274000Y-2127050D01*
X43268000Y-2130390D01*
X43258000D01*
X43249000Y-2135390D01*
X43243000Y-2145390D01*
X43241000Y-2157050D01*
X43243000Y-2168720D01*
X43248000Y-2177050D01*
X43256000Y-2182050D01*
X43263000Y-2183720D01*
G01X43314000Y-2142060D02*
X43321000Y-2130390D01*
X43327000Y-2123720D01*
X43335000Y-2120390D01*
X43342000Y-2123720D01*
X43347000Y-2130390D01*
X43351000Y-2140390D01*
X43352000Y-2152050D01*
X43351000Y-2162050D01*
X43347000Y-2172060D01*
X43341000Y-2180390D01*
X43334000Y-2183720D01*
X43326000Y-2180390D01*
X43319000Y-2170390D01*
X43315000Y-2155390D01*
X43314000Y-2138720D01*
X43316000Y-2117060D01*
X43319000Y-2105390D01*
X43324000Y-2093720D01*
X43331000Y-2085390D01*
X43338000Y-2083720D01*
X43345000Y-2087050D01*
X43350000Y-2095390D01*
G01X43381000Y-2168720D02*
X43387000Y-2177050D01*
X43394000Y-2182050D01*
X43403000Y-2183720D01*
X43412000Y-2180390D01*
X43419000Y-2173720D01*
X43424000Y-2162050D01*
X43425000Y-2148720D01*
X43423000Y-2135390D01*
X43418000Y-2127050D01*
X43411000Y-2120390D01*
X43404000Y-2118720D01*
X43397000Y-2120390D01*
X43388000Y-2127050D01*
X43391000Y-2083720D01*
X43418000D01*
G01X43123000Y-1543750D02*
X43115000Y-1547080D01*
X43109000Y-1555420D01*
X43105000Y-1565420D01*
X43102000Y-1578750D01*
X43101000Y-1593750D01*
X43102000Y-1608750D01*
X43105000Y-1622080D01*
X43109000Y-1632090D01*
X43115000Y-1640420D01*
X43123000Y-1643750D01*
X43131000Y-1640420D01*
X43137000Y-1632090D01*
X43141000Y-1622080D01*
X43144000Y-1608750D01*
X43145000Y-1593750D01*
X43144000Y-1578750D01*
X43141000Y-1565420D01*
X43137000Y-1555420D01*
X43131000Y-1547080D01*
X43123000Y-1543750D01*
G01X43193000Y-1647080D02*
X43191000Y-1645420D01*
Y-1642080D01*
X43193000Y-1640420D01*
X43195000Y-1642080D01*
Y-1645420D01*
X43193000Y-1647080D01*
G01X43263000Y-1543750D02*
X43255000Y-1547080D01*
X43249000Y-1555420D01*
X43245000Y-1565420D01*
X43242000Y-1578750D01*
X43241000Y-1593750D01*
X43242000Y-1608750D01*
X43245000Y-1622080D01*
X43249000Y-1632090D01*
X43255000Y-1640420D01*
X43263000Y-1643750D01*
X43271000Y-1640420D01*
X43277000Y-1632090D01*
X43281000Y-1622080D01*
X43284000Y-1608750D01*
X43285000Y-1593750D01*
X43284000Y-1578750D01*
X43281000Y-1565420D01*
X43277000Y-1555420D01*
X43271000Y-1547080D01*
X43263000Y-1543750D01*
G01X43311000Y-1623750D02*
X43317000Y-1635420D01*
X43325000Y-1642080D01*
X43334000Y-1643750D01*
X43342000Y-1642080D01*
X43350000Y-1633750D01*
X43355000Y-1623750D01*
X43356000Y-1613750D01*
X43354000Y-1602090D01*
X43347000Y-1593750D01*
X43340000Y-1590420D01*
X43331000D01*
G01X43340000D02*
X43346000Y-1585420D01*
X43351000Y-1577090D01*
X43353000Y-1567080D01*
X43351000Y-1557080D01*
X43346000Y-1548750D01*
X43337000Y-1543750D01*
X43328000Y-1545420D01*
X43319000Y-1552080D01*
G01X43381000Y-1628750D02*
X43387000Y-1637080D01*
X43394000Y-1642080D01*
X43403000Y-1643750D01*
X43412000Y-1640420D01*
X43419000Y-1633750D01*
X43424000Y-1622080D01*
X43425000Y-1608750D01*
X43423000Y-1595420D01*
X43418000Y-1587080D01*
X43411000Y-1580420D01*
X43404000Y-1578750D01*
X43397000Y-1580420D01*
X43388000Y-1587080D01*
X43391000Y-1543750D01*
X43418000D01*
G01X43403000Y-1363760D02*
X43395000Y-1367090D01*
X43389000Y-1375430D01*
X43385000Y-1385430D01*
X43382000Y-1398760D01*
X43381000Y-1413760D01*
X43382000Y-1428760D01*
X43385000Y-1442090D01*
X43389000Y-1452100D01*
X43395000Y-1460430D01*
X43403000Y-1463760D01*
X43411000Y-1460430D01*
X43417000Y-1452100D01*
X43421000Y-1442090D01*
X43424000Y-1428760D01*
X43425000Y-1413760D01*
X43424000Y-1398760D01*
X43421000Y-1385430D01*
X43417000Y-1375430D01*
X43411000Y-1367090D01*
X43403000Y-1363760D01*
G01X43882000Y-2870350D02*
X43906000D01*
G01X43893000Y-2848680D02*
Y-2892020D01*
G01X43963000Y-2803680D02*
X43955000Y-2807010D01*
X43949000Y-2815350D01*
X43945000Y-2825350D01*
X43942000Y-2838680D01*
X43941000Y-2853680D01*
X43942000Y-2868680D01*
X43945000Y-2882010D01*
X43949000Y-2892020D01*
X43955000Y-2900350D01*
X43963000Y-2903680D01*
X43971000Y-2900350D01*
X43977000Y-2892020D01*
X43981000Y-2882010D01*
X43984000Y-2868680D01*
X43985000Y-2853680D01*
X43984000Y-2838680D01*
X43981000Y-2825350D01*
X43977000Y-2815350D01*
X43971000Y-2807010D01*
X43963000Y-2803680D01*
G01X44015000Y-2907010D02*
X44051000Y-2803680D01*
G01X44090000Y-2870350D02*
X44116000D01*
G01X44173000Y-2803680D02*
X44165000Y-2807010D01*
X44159000Y-2815350D01*
X44155000Y-2825350D01*
X44152000Y-2838680D01*
X44151000Y-2853680D01*
X44152000Y-2868680D01*
X44155000Y-2882010D01*
X44159000Y-2892020D01*
X44165000Y-2900350D01*
X44173000Y-2903680D01*
X44181000Y-2900350D01*
X44187000Y-2892020D01*
X44191000Y-2882010D01*
X44194000Y-2868680D01*
X44195000Y-2853680D01*
X44194000Y-2838680D01*
X44191000Y-2825350D01*
X44187000Y-2815350D01*
X44181000Y-2807010D01*
X44173000Y-2803680D01*
G01X43882000Y-2690360D02*
X43906000D01*
G01X43893000Y-2668690D02*
Y-2712030D01*
G01X43963000Y-2623690D02*
X43955000Y-2627020D01*
X43949000Y-2635360D01*
X43945000Y-2645360D01*
X43942000Y-2658690D01*
X43941000Y-2673690D01*
X43942000Y-2688690D01*
X43945000Y-2702020D01*
X43949000Y-2712030D01*
X43955000Y-2720360D01*
X43963000Y-2723690D01*
X43971000Y-2720360D01*
X43977000Y-2712030D01*
X43981000Y-2702020D01*
X43984000Y-2688690D01*
X43985000Y-2673690D01*
X43984000Y-2658690D01*
X43981000Y-2645360D01*
X43977000Y-2635360D01*
X43971000Y-2627020D01*
X43963000Y-2623690D01*
G01X44015000Y-2727020D02*
X44051000Y-2623690D01*
G01X44090000Y-2690360D02*
X44116000D01*
G01X44173000Y-2623690D02*
X44165000Y-2627020D01*
X44159000Y-2635360D01*
X44155000Y-2645360D01*
X44152000Y-2658690D01*
X44151000Y-2673690D01*
X44152000Y-2688690D01*
X44155000Y-2702020D01*
X44159000Y-2712030D01*
X44165000Y-2720360D01*
X44173000Y-2723690D01*
X44181000Y-2720360D01*
X44187000Y-2712030D01*
X44191000Y-2702020D01*
X44194000Y-2688690D01*
X44195000Y-2673690D01*
X44194000Y-2658690D01*
X44191000Y-2645360D01*
X44187000Y-2635360D01*
X44181000Y-2627020D01*
X44173000Y-2623690D01*
G01X43882000Y-2510370D02*
X43906000D01*
G01X43893000Y-2488700D02*
Y-2532040D01*
G01X43963000Y-2443700D02*
X43955000Y-2447030D01*
X43949000Y-2455370D01*
X43945000Y-2465370D01*
X43942000Y-2478700D01*
X43941000Y-2493700D01*
X43942000Y-2508700D01*
X43945000Y-2522030D01*
X43949000Y-2532040D01*
X43955000Y-2540370D01*
X43963000Y-2543700D01*
X43971000Y-2540370D01*
X43977000Y-2532040D01*
X43981000Y-2522030D01*
X43984000Y-2508700D01*
X43985000Y-2493700D01*
X43984000Y-2478700D01*
X43981000Y-2465370D01*
X43977000Y-2455370D01*
X43971000Y-2447030D01*
X43963000Y-2443700D01*
G01X44015000Y-2547030D02*
X44051000Y-2443700D01*
G01X44090000Y-2510370D02*
X44116000D01*
G01X44173000Y-2443700D02*
X44165000Y-2447030D01*
X44159000Y-2455370D01*
X44155000Y-2465370D01*
X44152000Y-2478700D01*
X44151000Y-2493700D01*
X44152000Y-2508700D01*
X44155000Y-2522030D01*
X44159000Y-2532040D01*
X44165000Y-2540370D01*
X44173000Y-2543700D01*
X44181000Y-2540370D01*
X44187000Y-2532040D01*
X44191000Y-2522030D01*
X44194000Y-2508700D01*
X44195000Y-2493700D01*
X44194000Y-2478700D01*
X44191000Y-2465370D01*
X44187000Y-2455370D01*
X44181000Y-2447030D01*
X44173000Y-2443700D01*
G01X43882000Y-2330380D02*
X43906000D01*
G01X43893000Y-2308710D02*
Y-2352050D01*
G01X43963000Y-2263710D02*
X43955000Y-2267040D01*
X43949000Y-2275380D01*
X43945000Y-2285380D01*
X43942000Y-2298710D01*
X43941000Y-2313710D01*
X43942000Y-2328710D01*
X43945000Y-2342040D01*
X43949000Y-2352050D01*
X43955000Y-2360380D01*
X43963000Y-2363710D01*
X43971000Y-2360380D01*
X43977000Y-2352050D01*
X43981000Y-2342040D01*
X43984000Y-2328710D01*
X43985000Y-2313710D01*
X43984000Y-2298710D01*
X43981000Y-2285380D01*
X43977000Y-2275380D01*
X43971000Y-2267040D01*
X43963000Y-2263710D01*
G01X44015000Y-2367040D02*
X44051000Y-2263710D01*
G01X44090000Y-2330380D02*
X44116000D01*
G01X44173000Y-2263710D02*
X44165000Y-2267040D01*
X44159000Y-2275380D01*
X44155000Y-2285380D01*
X44152000Y-2298710D01*
X44151000Y-2313710D01*
X44152000Y-2328710D01*
X44155000Y-2342040D01*
X44159000Y-2352050D01*
X44165000Y-2360380D01*
X44173000Y-2363710D01*
X44181000Y-2360380D01*
X44187000Y-2352050D01*
X44191000Y-2342040D01*
X44194000Y-2328710D01*
X44195000Y-2313710D01*
X44194000Y-2298710D01*
X44191000Y-2285380D01*
X44187000Y-2275380D01*
X44181000Y-2267040D01*
X44173000Y-2263710D01*
G01X43882000Y-2150390D02*
X43906000D01*
G01X43893000Y-2128720D02*
Y-2172060D01*
G01X43963000Y-2083720D02*
X43955000Y-2087050D01*
X43949000Y-2095390D01*
X43945000Y-2105390D01*
X43942000Y-2118720D01*
X43941000Y-2133720D01*
X43942000Y-2148720D01*
X43945000Y-2162050D01*
X43949000Y-2172060D01*
X43955000Y-2180390D01*
X43963000Y-2183720D01*
X43971000Y-2180390D01*
X43977000Y-2172060D01*
X43981000Y-2162050D01*
X43984000Y-2148720D01*
X43985000Y-2133720D01*
X43984000Y-2118720D01*
X43981000Y-2105390D01*
X43977000Y-2095390D01*
X43971000Y-2087050D01*
X43963000Y-2083720D01*
G01X44015000Y-2187050D02*
X44051000Y-2083720D01*
G01X44090000Y-2150390D02*
X44116000D01*
G01X44173000Y-2083720D02*
X44165000Y-2087050D01*
X44159000Y-2095390D01*
X44155000Y-2105390D01*
X44152000Y-2118720D01*
X44151000Y-2133720D01*
X44152000Y-2148720D01*
X44155000Y-2162050D01*
X44159000Y-2172060D01*
X44165000Y-2180390D01*
X44173000Y-2183720D01*
X44181000Y-2180390D01*
X44187000Y-2172060D01*
X44191000Y-2162050D01*
X44194000Y-2148720D01*
X44195000Y-2133720D01*
X44194000Y-2118720D01*
X44191000Y-2105390D01*
X44187000Y-2095390D01*
X44181000Y-2087050D01*
X44173000Y-2083720D01*
G01X43882000Y-1970400D02*
X43906000D01*
G01X43893000Y-1948730D02*
Y-1992070D01*
G01X43963000Y-1903730D02*
X43955000Y-1907060D01*
X43949000Y-1915400D01*
X43945000Y-1925400D01*
X43942000Y-1938730D01*
X43941000Y-1953730D01*
X43942000Y-1968730D01*
X43945000Y-1982060D01*
X43949000Y-1992070D01*
X43955000Y-2000400D01*
X43963000Y-2003730D01*
X43971000Y-2000400D01*
X43977000Y-1992070D01*
X43981000Y-1982060D01*
X43984000Y-1968730D01*
X43985000Y-1953730D01*
X43984000Y-1938730D01*
X43981000Y-1925400D01*
X43977000Y-1915400D01*
X43971000Y-1907060D01*
X43963000Y-1903730D01*
G01X44015000Y-2007060D02*
X44051000Y-1903730D01*
G01X44090000Y-1970400D02*
X44116000D01*
G01X44173000Y-1903730D02*
X44165000Y-1907060D01*
X44159000Y-1915400D01*
X44155000Y-1925400D01*
X44152000Y-1938730D01*
X44151000Y-1953730D01*
X44152000Y-1968730D01*
X44155000Y-1982060D01*
X44159000Y-1992070D01*
X44165000Y-2000400D01*
X44173000Y-2003730D01*
X44181000Y-2000400D01*
X44187000Y-1992070D01*
X44191000Y-1982060D01*
X44194000Y-1968730D01*
X44195000Y-1953730D01*
X44194000Y-1938730D01*
X44191000Y-1925400D01*
X44187000Y-1915400D01*
X44181000Y-1907060D01*
X44173000Y-1903730D01*
G01X43882000Y-1790410D02*
X43906000D01*
G01X43893000Y-1768740D02*
Y-1812080D01*
G01X43963000Y-1723740D02*
X43955000Y-1727070D01*
X43949000Y-1735410D01*
X43945000Y-1745410D01*
X43942000Y-1758740D01*
X43941000Y-1773740D01*
X43942000Y-1788740D01*
X43945000Y-1802070D01*
X43949000Y-1812080D01*
X43955000Y-1820410D01*
X43963000Y-1823740D01*
X43971000Y-1820410D01*
X43977000Y-1812080D01*
X43981000Y-1802070D01*
X43984000Y-1788740D01*
X43985000Y-1773740D01*
X43984000Y-1758740D01*
X43981000Y-1745410D01*
X43977000Y-1735410D01*
X43971000Y-1727070D01*
X43963000Y-1723740D01*
G01X44015000Y-1827070D02*
X44051000Y-1723740D01*
G01X44090000Y-1790410D02*
X44116000D01*
G01X44173000Y-1723740D02*
X44165000Y-1727070D01*
X44159000Y-1735410D01*
X44155000Y-1745410D01*
X44152000Y-1758740D01*
X44151000Y-1773740D01*
X44152000Y-1788740D01*
X44155000Y-1802070D01*
X44159000Y-1812080D01*
X44165000Y-1820410D01*
X44173000Y-1823740D01*
X44181000Y-1820410D01*
X44187000Y-1812080D01*
X44191000Y-1802070D01*
X44194000Y-1788740D01*
X44195000Y-1773740D01*
X44194000Y-1758740D01*
X44191000Y-1745410D01*
X44187000Y-1735410D01*
X44181000Y-1727070D01*
X44173000Y-1723740D01*
G01X43882000Y-1610420D02*
X43906000D01*
G01X43893000Y-1588750D02*
Y-1632090D01*
G01X43963000Y-1543750D02*
X43955000Y-1547080D01*
X43949000Y-1555420D01*
X43945000Y-1565420D01*
X43942000Y-1578750D01*
X43941000Y-1593750D01*
X43942000Y-1608750D01*
X43945000Y-1622080D01*
X43949000Y-1632090D01*
X43955000Y-1640420D01*
X43963000Y-1643750D01*
X43971000Y-1640420D01*
X43977000Y-1632090D01*
X43981000Y-1622080D01*
X43984000Y-1608750D01*
X43985000Y-1593750D01*
X43984000Y-1578750D01*
X43981000Y-1565420D01*
X43977000Y-1555420D01*
X43971000Y-1547080D01*
X43963000Y-1543750D01*
G01X44015000Y-1647080D02*
X44051000Y-1543750D01*
G01X44090000Y-1610420D02*
X44116000D01*
G01X44173000Y-1543750D02*
X44165000Y-1547080D01*
X44159000Y-1555420D01*
X44155000Y-1565420D01*
X44152000Y-1578750D01*
X44151000Y-1593750D01*
X44152000Y-1608750D01*
X44155000Y-1622080D01*
X44159000Y-1632090D01*
X44165000Y-1640420D01*
X44173000Y-1643750D01*
X44181000Y-1640420D01*
X44187000Y-1632090D01*
X44191000Y-1622080D01*
X44194000Y-1608750D01*
X44195000Y-1593750D01*
X44194000Y-1578750D01*
X44191000Y-1565420D01*
X44187000Y-1555420D01*
X44181000Y-1547080D01*
X44173000Y-1543750D01*
G01X43882000Y-1430430D02*
X43906000D01*
G01X43893000Y-1408760D02*
Y-1452100D01*
G01X43963000Y-1363760D02*
X43955000Y-1367090D01*
X43949000Y-1375430D01*
X43945000Y-1385430D01*
X43942000Y-1398760D01*
X43941000Y-1413760D01*
X43942000Y-1428760D01*
X43945000Y-1442090D01*
X43949000Y-1452100D01*
X43955000Y-1460430D01*
X43963000Y-1463760D01*
X43971000Y-1460430D01*
X43977000Y-1452100D01*
X43981000Y-1442090D01*
X43984000Y-1428760D01*
X43985000Y-1413760D01*
X43984000Y-1398760D01*
X43981000Y-1385430D01*
X43977000Y-1375430D01*
X43971000Y-1367090D01*
X43963000Y-1363760D01*
G01X44015000Y-1467090D02*
X44051000Y-1363760D01*
G01X44090000Y-1430430D02*
X44116000D01*
G01X44173000Y-1363760D02*
X44165000Y-1367090D01*
X44159000Y-1375430D01*
X44155000Y-1385430D01*
X44152000Y-1398760D01*
X44151000Y-1413760D01*
X44152000Y-1428760D01*
X44155000Y-1442090D01*
X44159000Y-1452100D01*
X44165000Y-1460430D01*
X44173000Y-1463760D01*
X44181000Y-1460430D01*
X44187000Y-1452100D01*
X44191000Y-1442090D01*
X44194000Y-1428760D01*
X44195000Y-1413760D01*
X44194000Y-1398760D01*
X44191000Y-1385430D01*
X44187000Y-1375430D01*
X44181000Y-1367090D01*
X44173000Y-1363760D01*
G01X43613000Y-1183770D02*
Y-1283770D01*
G01X43590000Y-1183770D02*
X43636000D01*
G01X43683000Y-1283770D02*
X43675000Y-1282100D01*
X43668000Y-1275440D01*
X43662000Y-1265440D01*
X43658000Y-1253770D01*
X43656000Y-1240440D01*
Y-1227100D01*
X43658000Y-1213770D01*
X43662000Y-1202100D01*
X43668000Y-1192100D01*
X43675000Y-1185440D01*
X43683000Y-1183770D01*
X43691000Y-1185440D01*
X43698000Y-1192100D01*
X43704000Y-1202100D01*
X43708000Y-1213770D01*
X43710000Y-1227100D01*
Y-1240440D01*
X43708000Y-1253770D01*
X43704000Y-1265440D01*
X43698000Y-1275440D01*
X43691000Y-1282100D01*
X43683000Y-1283770D01*
G01X43733000Y-1183770D02*
Y-1283770D01*
X43773000D01*
G01X43843000D02*
X43803000D01*
Y-1183770D01*
X43843000D01*
G01X43827000Y-1232100D02*
X43803000D01*
G01X43873000Y-1283770D02*
Y-1183770D01*
X43898000D01*
X43906000Y-1188770D01*
X43911000Y-1195440D01*
X43913000Y-1208770D01*
X43911000Y-1222100D01*
X43905000Y-1230440D01*
X43898000Y-1235440D01*
X43873000D01*
G01X43898000D02*
X43913000Y-1283770D01*
G01X43938000D02*
X43963000Y-1183770D01*
X43988000Y-1283770D01*
G01X43979000Y-1248770D02*
X43947000D01*
G01X44010000Y-1283770D02*
Y-1183770D01*
X44056000Y-1283770D01*
Y-1183770D01*
G01X44125000Y-1192100D02*
X44119000Y-1187100D01*
X44112000Y-1183770D01*
X44104000D01*
X44095000Y-1188770D01*
X44088000Y-1197100D01*
X44083000Y-1207100D01*
X44079000Y-1223770D01*
X44078000Y-1238770D01*
X44080000Y-1253770D01*
X44083000Y-1263770D01*
X44089000Y-1273770D01*
X44096000Y-1280440D01*
X44103000Y-1283770D01*
X44110000D01*
X44117000Y-1280440D01*
X44123000Y-1275440D01*
X44128000Y-1268770D01*
G01X44193000Y-1283770D02*
X44153000D01*
Y-1183770D01*
X44193000D01*
G01X44177000Y-1232100D02*
X44153000D01*
G54D19*
X1300000Y800000D03*
X6600000D03*
X12741730Y-5977500D03*
M02*
