G04 ================== begin FILE IDENTIFICATION RECORD ==================*
G04 Layout Name:  OpticalInOut-May-19.brd*
G04 Film Name:    GND*
G04 File Format:  Gerber RS274X*
G04 File Origin:  Cadence Allegro 25.1-S020*
G04 Origin Date:  Tue May 19 10:06:17 2026*
G04 *
G04 Layer:  VIA CLASS/GND*
G04 Layer:  PIN/GND*
G04 Layer:  ETCH/GND*
G04 Layer:  BOARD GEOMETRY/OUTLINE*
G04 Layer:  BOARD GEOMETRY/DESIGN_OUTLINE*
G04 *
G04 Offset:    (0.0000 0.0000)*
G04 Mirror:    No*
G04 Mode:      Positive*
G04 Rotation:  0*
G04 FullContactRelief:  No*
G04 UndefLineWidth:     0.2540*
G04 ================== end FILE IDENTIFICATION RECORD ====================*
%FSLAX25Y25*MOMM*%
%IR0*IPPOS*OFA0.00000B0.00000*MIA0B0*SFA1.00000B1.00000*%
%ADD11C,.6*%
%AMMACRO18*
4,1,40,-.1667,-.75,
.1667,-.75,
.224577,-.744936,
.280695,-.7299,
.33335,-.705346,
.380941,-.672023,
.422023,-.630941,
.455346,-.58335,
.4799,-.530695,
.494936,-.474577,
.5,-.4167,
.5,.4167,
.494936,.474577,
.4799,.530695,
.455346,.58335,
.422023,.630941,
.380941,.672023,
.33335,.705346,
.280695,.7299,
.224577,.744936,
.1667,.75,
-.1667,.75,
-.224577,.744936,
-.280695,.7299,
-.33335,.705346,
-.380941,.672023,
-.422023,.630941,
-.455346,.58335,
-.4799,.530695,
-.494936,.474577,
-.5,.4167,
-.5,-.4167,
-.494936,-.474577,
-.4799,-.530695,
-.455346,-.58335,
-.422023,-.630941,
-.380941,-.672023,
-.33335,-.705346,
-.280695,-.7299,
-.224577,-.744936,
-.1667,-.75,
0.0*
%
%ADD18MACRO18*%
%ADD13C,1.*%
%ADD17C,2.*%
%ADD12C,3.*%
%ADD16C,1.4*%
%ADD10C,2.3*%
%ADD14C,3.4*%
%ADD15C,1.8*%
%ADD19C,.1*%
%ADD20C,.127*%
%ADD26C,2.2004*%
%ADD21C,3.1004*%
%ADD22C,1.4004*%
%ADD25C,4.2004*%
%ADD24C,1.8004*%
%ADD27C,2.8004*%
%ADD23C,3.2544*%
G75*
%LPD*%
G75*
G36*
G01X4735230Y-3889990D02*
G02X4726880Y-3874040I-2J10160D01*
G03X4750020Y-3800000I-106881J74040D01*
G03X4489980I-130020J0D01*
G03X4513120Y-3874040I130021J0D01*
G02X4504770Y-3889990I-8348J-5790D01*
G01X3235230D01*
G02X3226880Y-3874040I-2J10160D01*
G03X3250020Y-3800000I-106881J74040D01*
G03X2989980I-130020J0D01*
G03X3013120Y-3874040I130021J0D01*
G02X3004770Y-3889990I-8348J-5790D01*
G01X1735230D01*
G02X1726880Y-3874040I-2J10160D01*
G03X1750020Y-3800000I-106881J74040D01*
G03X1489980I-130020J0D01*
G03X1513120Y-3874040I130021J0D01*
G02X1504770Y-3889990I-8348J-5790D01*
G01X110010D01*
Y-110010D01*
X1360000D01*
Y-590000D01*
X1890000D01*
Y-110010D01*
X7889990D01*
Y-3889990D01*
X6245230D01*
G02X6236880Y-3874040I-2J10160D01*
G03X6260020Y-3800000I-106881J74040D01*
G03X5999980I-130020J0D01*
G03X6023120Y-3874040I130021J0D01*
G02X6014770Y-3889990I-8348J-5790D01*
G01X4735230D01*
G37*
G36*
G01X7890000Y1490000D02*
Y110000D01*
X110000D01*
Y1490000D01*
X7890000D01*
G37*
%LPC*%
G75*
G36*
G01X4193310Y-1379900D02*
G02X4130000Y-1420020I-63310J29892D01*
G02Y-1279980I0J70020D01*
G02X4193310Y-1320100I0J-70012D01*
G03X4211690I9190J4342D01*
G02X4275000Y-1279980I63310J-29892D01*
G02Y-1420020I0J-70020D01*
G02X4211690Y-1379900I0J70012D01*
G03X4193310I-9190J-4342D01*
G37*
G36*
G01X7037960Y-433150D02*
G03Y-419550I-7546J6800D01*
G02X7019980Y-372700I52048J46850D01*
G02X7160020I70020J0D01*
G02X7142040Y-419550I-70028J0D01*
G03Y-433150I7546J-6800D01*
G02Y-526850I-52048J-46850D01*
G03Y-540450I7546J-6800D01*
G02X7160020Y-587300I-52048J-46850D01*
G02X7019980I-70020J0D01*
G02X7037960Y-540450I70028J0D01*
G03Y-526850I-7546J6800D01*
G02Y-433150I52048J46850D01*
G37*
G36*
G01X5632860Y-707180D02*
G03X5616390Y-702450I-9742J-2881D01*
G02X5570000Y-720020I-46390J52457D01*
G02Y-579980I0J70020D01*
G02X5637140Y-630120I0J-70022D01*
G03X5653610Y-634850I9742J2881D01*
G02X5700000Y-617280I46390J-52457D01*
G02Y-757320I0J-70020D01*
G02X5632860Y-707180I0J70022D01*
G37*
G36*
G01X6129140Y-957150D02*
G03X6131680Y-940670I-4472J9125D01*
G02X6109980Y-890000I48308J50670D01*
G02X6250020I70020J0D01*
G02X6210860Y-952850I-70016J0D01*
G03X6208320Y-969330I4472J-9125D01*
G02X6230020Y-1020000I-48308J-50670D01*
G02X6089980I-70020J0D01*
G02X6129140Y-957150I70016J0D01*
G37*
G36*
G01X5479980Y-990370D02*
Y-990000D01*
G02X5516140Y-928710I70022J0D01*
G02X5509980Y-900000I63858J28717D01*
G02X5650020I70020J0D01*
G02X5613860Y-961290I-70022J0D01*
G02X5620020Y-990000I-63858J-28717D01*
G02X5619990Y-992020I-70020J30D01*
G03X5632660Y-1002160I10155J-296D01*
G02X5650000Y-999980I17336J-67841D01*
G02X5579980Y-1070000I0J-70020D01*
G02X5580010Y-1067980I70020J-30D01*
G03X5567340Y-1057840I-10155J296D01*
G02X5550000Y-1060020I-17336J67841D01*
G02X5541420Y-1059490I19J70019D01*
G03X5530020Y-1069630I-1240J-10084D01*
G01Y-1070000D01*
G02X5460000Y-999980I-70020J0D01*
G02X5468580Y-1000510I-19J-70019D01*
G03X5479980Y-990370I1240J10084D01*
G37*
G36*
G01X724330Y-1307930D02*
G03X723780Y-1292090I-6629J7699D01*
G02X695680Y-1236000I41930J56090D01*
G02X835720I70020J0D01*
G02X811370Y-1289070I-70007J0D01*
G03X811920Y-1304910I6629J-7699D01*
G02X840020Y-1361000I-41930J-56090D01*
G02X699980I-70020J0D01*
G02X724330Y-1307930I70007J0D01*
G37*
G36*
G01X4409450Y-1320780D02*
G03X4415780Y-1304310I-1537J10042D01*
G02X4399980Y-1260000I54232J44310D01*
G02X4540020I70020J0D01*
G02X4480550Y-1329220I-70019J0D01*
G03X4474220Y-1345690I1537J-10042D01*
G02X4490020Y-1390000I-54232J-44310D01*
G02X4349980I-70020J0D01*
G02X4409450Y-1320780I70019J0D01*
G37*
G36*
G01X7190440Y-1340420D02*
G03Y-1324580I-6365J7920D01*
G02X7164280Y-1270000I43858J54580D01*
G02X7304320I70020J0D01*
G02X7278160Y-1324580I-70018J0D01*
G03Y-1340420I6365J-7920D01*
G02X7304320Y-1395000I-43858J-54580D01*
G02X7164280I-70020J0D01*
G02X7190440Y-1340420I70018J0D01*
G37*
G36*
G01X5950540Y-1350540D02*
G02X6030000Y-1279980I79460J-9461D01*
G02X6110020Y-1360000I0J-80020D01*
G02X6039460Y-1439460I-80021J0D01*
G02X5960000Y-1510020I-79460J9461D01*
G02X5879980Y-1430000I0J80020D01*
G02X5950540Y-1350540I80021J0D01*
G37*
G36*
G01X6615000Y-1693650D02*
G02X6570000Y-1710020I-44995J53652D01*
G02Y-1569980I0J70020D01*
G02X6615000Y-1586350I5J-70022D01*
G02X6660000Y-1569980I44995J-53652D01*
G02X6706620Y-1587750I6J-70022D01*
G03X6713380I3380J3786D01*
G02X6760000Y-1569980I46614J-52252D01*
G02Y-1710020I0J-70020D01*
G02X6713380Y-1692250I-6J70022D01*
G03X6706620I-3380J-3786D01*
G02X6660000Y-1710020I-46614J52252D01*
G02X6615000Y-1693650I-5J70022D01*
G37*
G36*
G01X944920Y-1760680D02*
G03X928480I-8220J-5967D01*
G02X863700Y-1793720I-64780J46986D01*
G02Y-1633680I0J80020D01*
G02X928480Y-1666720I0J-80026D01*
G03X944920I8220J5967D01*
G02X1009700Y-1633680I64780J-46986D01*
G02Y-1793720I0J-80020D01*
G02X944920Y-1760680I0J80026D01*
G37*
G36*
G01X5916620Y-1707750D02*
G03X5923380I3380J3786D01*
G02X5970000Y-1689980I46614J-52252D01*
G02X6016620Y-1707750I6J-70022D01*
G03X6023380I3380J3786D01*
G02X6070000Y-1689980I46614J-52252D01*
G02Y-1830020I0J-70020D01*
G02X6023380Y-1812250I-6J70022D01*
G03X6016620I-3380J-3786D01*
G02X5970000Y-1830020I-46614J52252D01*
G02X5923380Y-1812250I-6J70022D01*
G03X5916620I-3380J-3786D01*
G02X5870000Y-1830020I-46614J52252D01*
G02Y-1689980I0J70020D01*
G02X5916620Y-1707750I6J-70022D01*
G37*
G36*
G01X720770Y-2677300D02*
G03X720450Y-2661460I-6519J7792D01*
G02X693180Y-2606000I42761J55460D01*
G02X833220I70020J0D01*
G02X808130Y-2659700I-70012J0D01*
G03X808450Y-2675540I6519J-7792D01*
G02X835720Y-2731000I-42761J-55460D01*
G02X695680I-70020J0D01*
G02X720770Y-2677300I70012J0D01*
G37*
G36*
G01X7190440Y-2710420D02*
G03Y-2694580I-6365J7920D01*
G02X7164280Y-2640000I43858J54580D01*
G02X7304320I70020J0D01*
G02X7278160Y-2694580I-70018J0D01*
G03Y-2710420I6365J-7920D01*
G02X7304320Y-2765000I-43858J-54580D01*
G02X7164280I-70020J0D01*
G02X7190440Y-2710420I70018J0D01*
G37*
G36*
G01X4964780Y-771670D02*
Y-688330D01*
G02X5010830Y-642280I46050J0D01*
G01X5044170D01*
G02X5090220Y-688330I0J-46050D01*
G01Y-771670D01*
G02X5044170Y-817720I-46050J0D01*
G01X5010830D01*
G02X4964780Y-771670I0J46050D01*
G37*
G36*
G01X5829780D02*
Y-688330D01*
G02X5875830Y-642280I46050J0D01*
G01X5909170D01*
G02X5955220Y-688330I0J-46050D01*
G01Y-771670D01*
G02X5909170Y-817720I-46050J0D01*
G01X5875830D01*
G02X5829780Y-771670I0J46050D01*
G37*
G36*
G01X4964780Y-351670D02*
Y-268330D01*
G02X5010830Y-222280I46050J0D01*
G01X5044170D01*
G02X5090220Y-268330I0J-46050D01*
G01Y-351670D01*
G02X5044170Y-397720I-46050J0D01*
G01X5010830D01*
G02X4964780Y-351670I0J46050D01*
G37*
G36*
G01X5829780D02*
Y-268330D01*
G02X5875830Y-222280I46050J0D01*
G01X5909170D01*
G02X5955220Y-268330I0J-46050D01*
G01Y-351670D01*
G02X5909170Y-397720I-46050J0D01*
G01X5875830D01*
G02X5829780Y-351670I0J46050D01*
G37*
G54D26*
X2000000Y675000D03*
X3010000D03*
X4010000D03*
X5010000D03*
X2000000Y925000D03*
X3010000D03*
X4010000D03*
X5010000D03*
G54D21*
X7700000Y-300000D03*
X300000D03*
X7700000Y-3700000D03*
X300000D03*
G54D22*
X5125000Y-585000D03*
X4779000Y-230000D03*
X4180000Y-460000D03*
X4320000Y-580000D03*
X3720000Y-460000D03*
X3680000Y-615000D03*
X2880000Y-530000D03*
X2355000Y-535000D03*
X2020000Y-450000D03*
X5300000Y-650000D03*
X4880000Y-740000D03*
X4570000Y-960000D03*
X4330000Y-1015000D03*
X4310000Y-780000D03*
X3670000Y-865000D03*
X3710000Y-1050000D03*
X2460000Y-1010000D03*
X3975000Y-1140000D03*
X3530000Y-1260000D03*
X520300Y-1111000D03*
X7479700Y-1520000D03*
X5730000Y-1910000D03*
X4960000D03*
X4700000D03*
X4260000Y-1780000D03*
X3837300Y-1700000D03*
X3380000Y-1810000D03*
X2700000Y-1840000D03*
X2940000Y-1910000D03*
X2360000Y-1810000D03*
X6840000Y-2327300D03*
X6300000Y-1930000D03*
X6280000Y-2320000D03*
X6040000Y-2310000D03*
X5340000Y-2330000D03*
X4540000Y-2300000D03*
X3950000Y-2050000D03*
X3840000Y-2330000D03*
X3290000Y-2320000D03*
X3040000Y-2290000D03*
X2340000Y-2327300D03*
X1833280Y-1953280D03*
X1588000Y-1911000D03*
X1790000Y-2320000D03*
X1540000Y-2300000D03*
X6580000Y-2640000D03*
X5080000Y-2632700D03*
X3580000D03*
X2080000D03*
X520300Y-2481000D03*
X7479700Y-2890000D03*
X4770000Y-2320000D03*
G54D25*
X1300000Y800000D03*
X6600000D03*
G54D24*
X6630000Y-3070000D03*
X6376000D03*
X6122000D03*
X5868000D03*
X5130000D03*
X4876000D03*
X4622000D03*
X4368000D03*
X3630000D03*
X3376000D03*
X3122000D03*
X2868000D03*
X2130000D03*
X1876000D03*
X1622000D03*
X1368000D03*
X6630000Y-3324000D03*
X6376000D03*
X6122000D03*
X5868000D03*
X5130000D03*
X4876000D03*
X4622000D03*
X4368000D03*
X3630000D03*
X3376000D03*
X3122000D03*
X2868000D03*
X2130000D03*
X1876000D03*
X1622000D03*
X1368000D03*
G54D27*
X5950000Y750000D03*
X4060000Y1250000D03*
X5110000Y1210000D03*
G54D23*
X840000Y-320000D03*
%LPD*%
G75*
G54D10*
X300000Y-3700000D03*
Y-300000D03*
X7700000Y-3700000D03*
Y-300000D03*
G54D20*
G01X840000Y-487800D02*
Y-320000D01*
G01D02*
Y-152200D01*
G01X672200Y-320000D02*
X840000D01*
G01D02*
X1007800D01*
G01X5027500Y-822800D02*
Y-730000D01*
G01D02*
Y-637200D01*
G01X4959700Y-730000D02*
X5027500D01*
G01D02*
X5095300D01*
G01X5027500Y-402800D02*
Y-310000D01*
G01D02*
Y-217200D01*
G01X4959700Y-310000D02*
X5027500D01*
G01D02*
X5095300D01*
G01X5892500Y-822800D02*
Y-730000D01*
G01D02*
Y-637200D01*
G01X5824700Y-730000D02*
X5892500D01*
G01D02*
X5960300D01*
G01X5892500Y-402800D02*
Y-310000D01*
G01D02*
Y-217200D01*
G01X5824700Y-310000D02*
X5892500D01*
G01D02*
X5960300D01*
G54D11*
X293000Y-2988300D03*
X520300Y-2856000D03*
X293000Y-2373700D03*
X520300Y-2481000D03*
X293000Y-1618300D03*
X520300Y-1486000D03*
Y-1111000D03*
X293000Y-1003700D03*
X763200Y-2606000D03*
X765700Y-2731000D03*
X863700Y-1713700D03*
X765700Y-1236000D03*
X770000Y-1361000D03*
X1320000Y-3710000D03*
X1220000Y-2750000D03*
X1117200Y-2286300D03*
X1009700Y-1713700D03*
X1180000Y-1072300D03*
X1770000Y-3430000D03*
X1470000D03*
Y-2940000D03*
X1770000D03*
X1540000Y-2300000D03*
X1790000Y-2320000D03*
X1588000Y-1911000D03*
X1583000Y-1525000D03*
X1584000Y-1606000D03*
X1500000Y-1445000D03*
X1551000Y-890000D03*
X2070000Y-3710000D03*
X1920000D03*
X2080000Y-2632700D03*
X2190000Y-2750000D03*
X1833280Y-1953280D03*
X2030000Y-2159100D03*
X2020000Y-450000D03*
X2370000Y-2640000D03*
X2340000Y-2327300D03*
X2607200Y-2286300D03*
X2360000Y-1810000D03*
X2620000Y-737150D03*
X2560000Y-630000D03*
X2680000D03*
X2560000Y-850000D03*
X2680000D03*
X2460000Y-1010000D03*
X2620000Y-360000D03*
X2355000Y-535000D03*
X2830000Y-3710000D03*
X2970000Y-3430000D03*
Y-2940000D03*
X2720000Y-2750000D03*
X3040000Y-2290000D03*
X2940000Y-1910000D03*
X2700000Y-1840000D03*
X2880000Y-530000D03*
X2740000Y1000000D03*
X3420000Y-3710000D03*
X3270000Y-3430000D03*
Y-2940000D03*
X3290000Y-2320000D03*
X3530000Y-2159100D03*
X3380000Y-1810000D03*
X3430000Y-1060000D03*
X3530000Y-1260000D03*
X3420000Y-550000D03*
X3570000Y-3710000D03*
X3580000Y-2632700D03*
X3870000Y-2640000D03*
X3670000Y-2750000D03*
X3840000Y-2330000D03*
X3950000Y-2050000D03*
X3762700Y-1605000D03*
X3837300Y-1700000D03*
X3800000Y-1130000D03*
X3975000Y-1140000D03*
X3850000Y-640000D03*
Y-790000D03*
Y-940000D03*
X3710000Y-1050000D03*
X3670000Y-865000D03*
X3975000Y-455000D03*
X3680000Y-615000D03*
X3720000Y-460000D03*
X3740000Y1010000D03*
X4320000Y-3710000D03*
X4220000Y-2750000D03*
X4107200Y-2286300D03*
X4260000Y-1780000D03*
X4330000Y-1120000D03*
X4275000Y-1350000D03*
X4130000D03*
X4000000Y-640000D03*
Y-940000D03*
Y-790000D03*
X4315940Y-890000D03*
X4310000Y-780000D03*
X4330000Y-1015000D03*
X4325000Y-465000D03*
X4320000Y-580000D03*
X4180000Y-460000D03*
X4770000Y-3430000D03*
X4470000D03*
Y-2940000D03*
X4770000D03*
X4540000Y-2300000D03*
X4770000Y-2320000D03*
X4700000Y-1910000D03*
X4470000Y-1260000D03*
X4420000Y-1390000D03*
X4770000Y-1030000D03*
X4570000Y-960000D03*
X4779000Y-230000D03*
X4730000Y990000D03*
X5070000Y-3710000D03*
X4920000D03*
X5170000Y-2750000D03*
X5080000Y-2632700D03*
X5072800Y-2090900D03*
X4996000Y-1520000D03*
X4960000Y-1910000D03*
X5196000Y-1084000D03*
X4870000Y-1450000D03*
X4880000Y-740000D03*
X4870000Y-610000D03*
Y-470000D03*
X5125000Y-585000D03*
X5370000Y-2640000D03*
X5340000Y-2330000D03*
X5607200Y-2286300D03*
X5540000Y-1410000D03*
X5650000Y-1070000D03*
X5460000D03*
X5580000Y-900000D03*
X5700000Y-687300D03*
X5570000Y-650000D03*
X5300000D03*
X5550000Y-990000D03*
X5433000Y-409000D03*
X5570000Y-387300D03*
X5300000D03*
X5530400Y920900D03*
X5830000Y-3710000D03*
X5980000Y-3430000D03*
X5970000Y-2940000D03*
X5720000Y-2750000D03*
X6040000Y-2310000D03*
X6030000Y-1630000D03*
X6070000Y-1760000D03*
X5970000D03*
X5870000D03*
X5730000Y-1910000D03*
X6030000Y-1110000D03*
X5960000Y-1430000D03*
X6030000Y-1360000D03*
X6430000Y-3710000D03*
X6280000Y-3430000D03*
X6270000Y-2940000D03*
X6280000Y-2320000D03*
X6520000Y-2159100D03*
X6300000Y-1930000D03*
X6478000Y-1752000D03*
X6550000Y-1390000D03*
X6290000Y-1100000D03*
X6160000Y-1020000D03*
X6180000Y-890000D03*
X6490000Y-372700D03*
Y-587300D03*
Y-480000D03*
X6290000Y-372700D03*
Y-587300D03*
Y-480000D03*
X6580000Y-3710000D03*
X6870000Y-2640000D03*
X6670000Y-2750000D03*
X6580000Y-2640000D03*
X6840000Y-2327300D03*
X6780000Y-1750000D03*
X6570000Y-1640000D03*
X6660000D03*
X6760000D03*
X6810000Y-1100000D03*
X7234300Y-2765000D03*
Y-2640000D03*
X7080000Y-1910000D03*
X7070000Y-1400000D03*
X7234300Y-1395000D03*
Y-1270000D03*
X7090000Y-372700D03*
Y-587300D03*
Y-480000D03*
X7707000Y-2997300D03*
X7479700Y-2890000D03*
X7707000Y-2382700D03*
X7479700Y-2515000D03*
X7707000Y-1627300D03*
X7479700Y-1520000D03*
X7480000Y-1145000D03*
X7707000Y-1012700D03*
X7710000Y482700D03*
Y1080000D03*
Y710000D03*
Y890000D03*
G54D12*
X840000Y-320000D03*
X1630000D03*
G54D13*
X1368000Y-3324000D03*
Y-3070000D03*
X1622000Y-3324000D03*
Y-3070000D03*
X1876000Y-3324000D03*
X2130000D03*
X1876000Y-3070000D03*
X2130000D03*
X2868000Y-3324000D03*
X3122000D03*
X2868000Y-3070000D03*
X3122000D03*
X3376000Y-3324000D03*
Y-3070000D03*
X3630000Y-3324000D03*
Y-3070000D03*
X4368000Y-3324000D03*
Y-3070000D03*
X4622000Y-3324000D03*
Y-3070000D03*
X4876000Y-3324000D03*
X5130000D03*
X4876000Y-3070000D03*
X5130000D03*
X5868000Y-3324000D03*
X6122000D03*
X5868000Y-3070000D03*
X6122000D03*
X6376000Y-3324000D03*
Y-3070000D03*
X6630000Y-3324000D03*
Y-3070000D03*
G54D14*
X1300000Y800000D03*
X6600000D03*
G54D15*
X1620000Y-3800000D03*
X3120000D03*
X4620000D03*
X6130000D03*
G54D16*
X2000000Y675000D03*
Y925000D03*
X3010000Y675000D03*
Y925000D03*
X4010000Y675000D03*
Y925000D03*
X5010000Y675000D03*
Y925000D03*
G54D17*
X4060000Y1250000D03*
X5110000Y1210000D03*
X5950000Y750000D03*
G54D18*
X5027500Y-730000D03*
Y-310000D03*
X5892500Y-730000D03*
Y-310000D03*
G54D19*
G01X-2000000Y0D02*
X10000000D01*
G01X0D02*
Y1600000D01*
X8000000D01*
Y-4000000D01*
X0D01*
Y0D01*
M02*
