M48
METRIC,TZ
T01C.3
T02C.7
T03C.8
T04C1.
T05C1.2
T06C1.5
T07C2.2
T08C3.3
;LEADER: 12 
;HEADER: 
;CODE  : ASCII 
;FILE  : OpticalInOut-May-19-1-4.drl for board Z:/MyManjaro/HDisk/MyGithub/TinyCircularTMR/OpticalRx/PCB/#Taaacrw06640.tmp ... layers TOP and BOTTOM
;T01 Holesize 1. = 0.300000 Tolerance = +0.000000/-0.000000 PLATED MM Quantity = 203
;T02 Holesize 2. = 0.700000 Tolerance = +0.000000/-0.000000 PLATED MM Quantity = 32
;T04 Holesize 3. = 1.000000 Tolerance = +0.000000/-0.000000 PLATED MM Quantity = 8
;T05 Holesize 4. = 1.200000 Tolerance = +0.000000/-0.000000 PLATED MM Quantity = 7
;T06 Holesize 5. = 1.500000 Tolerance = +0.000000/-0.000000 PLATED MM Quantity = 2
;T07 Holesize 6. = 2.200000 Tolerance = +0.000000/-0.000000 NON_PLATED MM Quantity = 4
;T08 Holesize 7. = 3.300000 Tolerance = +0.000000/-0.000000 NON_PLATED MM Quantity = 2
%
G90
T01
X1320000Y-3710000
X1470000Y-3430000
X1770000
X1920000Y-3710000
X2070000
X2830000
X2970000Y-3430000
X3270000
X3420000Y-3710000
X3570000
X4320000
X4470000Y-3430000
X4770000
X4920000Y-3710000
X5070000
X5830000
X5980000Y-3430000
X6280000
X6430000Y-3710000
X6580000
X7707000Y-2382700
Y-2997300
X7479700Y-2515000
Y-2890000
X7234300Y-2640000
Y-2765000
X6870000Y-2640000
X6840000Y-2327300
X6670000Y-2750000
X6580000Y-2640000
X6280000Y-2320000
X6270000Y-2940000
X6040000Y-2310000
X5970000Y-2940000
X5720000Y-2750000
X5370000Y-2640000
X5340000Y-2330000
X5170000Y-2750000
X5080000Y-2632700
X4770000Y-2320000
Y-2940000
X4540000Y-2300000
X4470000Y-2940000
X4220000Y-2750000
X3870000Y-2640000
X3840000Y-2330000
X3670000Y-2750000
X3580000Y-2632700
X3290000Y-2320000
X3270000Y-2940000
X3040000Y-2290000
X2970000Y-2940000
X2720000Y-2750000
X2370000Y-2640000
X2340000Y-2327300
X2190000Y-2750000
X2080000Y-2632700
X1790000Y-2320000
X1770000Y-2940000
X1540000Y-2300000
X1470000Y-2940000
X1220000Y-2750000
X765700Y-2731000
X763200Y-2606000
X520300Y-2481000
Y-2856000
X293000Y-2373700
Y-2988300
Y-1618300
X863700Y-1713700
X1009700
X1117200Y-2286300
X1584000Y-1606000
X1588000Y-1911000
X1833280Y-1953280
X2030000Y-2159100
X2360000Y-1810000
X2607200Y-2286300
X2700000Y-1840000
X2940000Y-1910000
X3380000Y-1810000
X3530000Y-2159100
X3762700Y-1605000
X3837300Y-1700000
X3950000Y-2050000
X4107200Y-2286300
X4260000Y-1780000
X4700000Y-1910000
X4960000
X5072800Y-2090900
X5607200Y-2286300
X5730000Y-1910000
X5870000Y-1760000
X5970000
X6030000Y-1630000
X6070000Y-1760000
X6300000Y-1930000
X6478000Y-1752000
X6520000Y-2159100
X6570000Y-1640000
X6660000
X6760000
X6780000Y-1750000
X7080000Y-1910000
X7707000Y-1627300
Y-1012700
X7480000Y-1145000
X7479700Y-1520000
X7234300Y-1270000
Y-1395000
X7070000Y-1400000
X6810000Y-1100000
X6550000Y-1390000
X6290000Y-1100000
X6180000Y-890000
X6160000Y-1020000
X6030000Y-1110000
Y-1360000
X5960000Y-1430000
X5650000Y-1070000
X5580000Y-900000
X5550000Y-990000
X5540000Y-1410000
X5460000Y-1070000
X5196000Y-1084000
X4996000Y-1520000
X4870000Y-1450000
X4770000Y-1030000
X4570000Y-960000
X4470000Y-1260000
X4420000Y-1390000
X4330000Y-1015000
Y-1120000
X4315940Y-890000
X4310000Y-780000
X4275000Y-1350000
X4130000
X4000000Y-790000
Y-940000
X3975000Y-1140000
X3850000Y-790000
Y-940000
X3800000Y-1130000
X3710000Y-1050000
X3670000Y-865000
X3530000Y-1260000
X3430000Y-1060000
X2680000Y-850000
X2560000
X2460000Y-1010000
X1583000Y-1525000
X1551000Y-890000
X1500000Y-1445000
X1180000Y-1072300
X770000Y-1361000
X765700Y-1236000
X520300Y-1111000
Y-1486000
X293000Y-1003700
X2020000Y-450000
X2355000Y-535000
X2560000Y-630000
X2620000Y-737150
Y-360000
X2680000Y-630000
X2880000Y-530000
X3420000Y-550000
X3680000Y-615000
X3720000Y-460000
X3850000Y-640000
X3975000Y-455000
X4000000Y-640000
X4180000Y-460000
X4320000Y-580000
X4325000Y-465000
X4779000Y-230000
X4870000Y-610000
Y-470000
X4880000Y-740000
X5125000Y-585000
X5300000Y-650000
Y-387300
X5433000Y-409000
X5570000Y-650000
Y-387300
X5700000Y-687300
X6290000Y-587300
R02Y107300
X6490000Y-587300
R02Y107300
X7090000Y-587300
R02Y107300
X7710000Y482700
Y710000
Y1080000
Y890000
X5530400Y920900
X4730000Y990000
X3740000Y1010000
X2740000Y1000000
T02
X1368000Y-3070000
Y-3324000
X1622000
Y-3070000
X1876000
Y-3324000
X2130000
Y-3070000
X2868000
Y-3324000
X3122000
Y-3070000
X3376000
Y-3324000
X3630000
Y-3070000
X4368000
Y-3324000
X4622000
Y-3070000
X4876000
Y-3324000
X5130000
Y-3070000
X5868000
Y-3324000
X6122000
Y-3070000
X6376000
Y-3324000
X6630000
Y-3070000
T04
X2000000Y675000
Y925000
X3010000
Y675000
X4010000
Y925000
X5010000
Y675000
T05
X1620000Y-3800000
R02X1500000
X6130000
X5950000Y750000
X5110000Y1210000
X4060000Y1250000
T06
X840000Y-320000
X1630000
T07
X300000Y-300000
Y-3700000
X7700000
Y-300000
T08
X1300000Y800000
X6600000
M30
