G04 ================== begin FILE IDENTIFICATION RECORD ==================*
G04 Layout Name:  OpticalInOut-May-19.brd*
G04 Film Name:    PASTEMASK_TOP*
G04 File Format:  Gerber RS274X*
G04 File Origin:  Cadence Allegro 25.1-S020*
G04 Origin Date:  Tue May 19 10:06:17 2026*
G04 *
G04 Layer:  VIA CLASS/PASTEMASK_TOP*
G04 Layer:  PIN/PASTEMASK_TOP*
G04 Layer:  DRC ERROR CLASS/PASTEMASK_TOP*
G04 Layer:  BOARD GEOMETRY/DESIGN_OUTLINE*
G04 *
G04 Offset:    (0.0000 0.0000)*
G04 Mirror:    No*
G04 Mode:      Positive*
G04 Rotation:  0*
G04 FullContactRelief:  No*
G04 UndefLineWidth:     0.2540*
G04 ================== end FILE IDENTIFICATION RECORD ====================*
%FSLAX25Y25*MOMM*%
%IR0*IPPOS*OFA0.00000B0.00000*MIA0B0*SFA1.00000B1.00000*%
%ADD36R,.3X1.*%
%ADD34R,.5X1.*%
%ADD20R,.6X1.2*%
%ADD13R,1.X.9*%
%ADD38R,.8X2.*%
%ADD11R,1.6X.8*%
%ADD18R,1.27X.51*%
%AMMACRO33*
4,1,40,-.1667,-.75,
.1667,-.75,
.224577,-.744936,
.280695,-.7299,
.33335,-.705346,
.380941,-.672023,
.422023,-.630941,
.455346,-.58335,
.4799,-.530695,
.494936,-.474577,
.5,-.4167,
.5,.4167,
.494936,.474577,
.4799,.530695,
.455346,.58335,
.422023,.630941,
.380941,.672023,
.33335,.705346,
.280695,.7299,
.224577,.744936,
.1667,.75,
-.1667,.75,
-.224577,.744936,
-.280695,.7299,
-.33335,.705346,
-.380941,.672023,
-.422023,.630941,
-.455346,.58335,
-.4799,.530695,
-.494936,.474577,
-.5,.4167,
-.5,-.4167,
-.494936,-.474577,
-.4799,-.530695,
-.455346,-.58335,
-.422023,-.630941,
-.380941,-.672023,
-.33335,-.705346,
-.280695,-.7299,
-.224577,-.744936,
-.1667,-.75,
0.0*
%
%ADD33MACRO33*%
%ADD32R,1.X1.2*%
%ADD10R,3.X2.*%
%ADD27R,2.X3.*%
%ADD35R,1.4X1.2*%
%ADD22R,1.6X1.5*%
%ADD19R,1.5X1.6*%
%ADD16C,1.*%
%ADD31C,2.*%
%ADD15C,3.*%
%ADD37R,.5X.8*%
%ADD23C,1.4*%
%ADD14R,.8X.6*%
%ADD28R,.8X.25*%
%ADD17R,.6X.8*%
%ADD29R,.25X.8*%
%ADD24R,.9X.8*%
%ADD12R,.55X.6*%
%ADD21C,1.8*%
%ADD30R,4.X4.*%
%ADD26R,.68X.28*%
%ADD25R,.28X.68*%
%LPD*%
G75*
G54D10*
X293000Y-3131000D03*
Y-2231000D03*
Y-1761000D03*
Y-861000D03*
X7707000Y-3140000D03*
Y-2240000D03*
Y-1770000D03*
Y-870000D03*
G54D11*
X643000Y-2856000D03*
Y-2731000D03*
Y-2606000D03*
Y-2481000D03*
Y-1486000D03*
Y-1361000D03*
Y-1236000D03*
Y-1111000D03*
X7357000Y-2765000D03*
Y-2890000D03*
Y-2515000D03*
Y-2640000D03*
Y-1520000D03*
Y-1145000D03*
Y-1270000D03*
Y-1395000D03*
G54D20*
X1370000Y-1175000D03*
X1275000D03*
X1180000D03*
X1370000Y-910000D03*
X1275000D03*
X1180000D03*
G54D30*
X4000000Y-790000D03*
G54D21*
X1620000Y-3800000D03*
X3120000D03*
X4620000D03*
X6130000D03*
G54D12*
X939500Y-1699500D03*
Y-1340500D03*
G54D31*
X4060000Y1250000D03*
X5110000Y1210000D03*
X5950000Y750000D03*
G54D22*
X1700000Y-1560000D03*
Y-1280000D03*
G54D13*
X940000Y-1040000D03*
Y-1200000D03*
G54D14*
Y-890000D03*
Y-790000D03*
X1150000Y-630000D03*
Y-730000D03*
X1470000Y-2430000D03*
Y-2530000D03*
X1780000Y-2528000D03*
Y-2428000D03*
X1630000Y-2528000D03*
Y-2428000D03*
X1550000Y-1100000D03*
X1551000Y-710000D03*
Y-810000D03*
X1550000Y-1000000D03*
X1930000Y-2528000D03*
Y-2428000D03*
X2510000Y-2450000D03*
Y-2550000D03*
X2340000Y-2260000D03*
Y-2160000D03*
X2950000Y-2429000D03*
Y-2529000D03*
X3120000Y-2528000D03*
Y-2428000D03*
X3280000Y-2528000D03*
Y-2428000D03*
X3440000Y-2528000D03*
Y-2428000D03*
X3840000Y-2260000D03*
Y-2160000D03*
X4050000Y-2460000D03*
Y-2560000D03*
X4460000Y-2429000D03*
Y-2529000D03*
X4770000Y-2528000D03*
Y-2428000D03*
X4620000Y-2528000D03*
Y-2428000D03*
X4770000Y-1350000D03*
Y-1450000D03*
Y-1200000D03*
Y-1100000D03*
X4930000Y-2528000D03*
Y-2428000D03*
X5340000Y-2260000D03*
Y-2160000D03*
X5960000Y-2430000D03*
Y-2530000D03*
X6120000Y-2528000D03*
Y-2428000D03*
X6030000Y-1540000D03*
Y-1440000D03*
Y-1298000D03*
Y-1198000D03*
X6280000Y-2528000D03*
Y-2428000D03*
X6430000Y-2528000D03*
Y-2428000D03*
X6380000Y-1652000D03*
Y-1752000D03*
X6200000Y-1651500D03*
Y-1751500D03*
X6550000Y-1200000D03*
Y-1300000D03*
X6840000Y-2260000D03*
Y-2160000D03*
X6880000Y-1750000D03*
Y-1650000D03*
X7070000Y-1200000D03*
Y-1300000D03*
G54D23*
X2000000Y675000D03*
Y925000D03*
X3010000Y675000D03*
Y925000D03*
X4010000Y675000D03*
Y925000D03*
X5010000Y675000D03*
Y925000D03*
G54D32*
X4996000Y-1400000D03*
Y-1200000D03*
X5196000Y-1400000D03*
Y-1200000D03*
G54D24*
X2340000Y-2410000D03*
Y-2550000D03*
X3840000Y-2410000D03*
Y-2550000D03*
X5340000Y-2410000D03*
Y-2550000D03*
X6840000Y-2410000D03*
Y-2550000D03*
G54D15*
X840000Y-320000D03*
X1630000D03*
G54D33*
X5027500Y-730000D03*
Y-310000D03*
X5892500Y-730000D03*
Y-310000D03*
G54D25*
X2545000Y-952950D03*
Y-521450D03*
X2695000Y-952950D03*
Y-521450D03*
G54D16*
X1368000Y-3324000D03*
Y-3070000D03*
X1622000Y-3324000D03*
Y-3070000D03*
X1876000Y-3324000D03*
X2130000D03*
X1876000Y-3070000D03*
X2130000D03*
X2868000Y-3324000D03*
X3122000D03*
X2868000Y-3070000D03*
X3122000D03*
X3376000Y-3324000D03*
Y-3070000D03*
X3630000Y-3324000D03*
Y-3070000D03*
X4368000Y-3324000D03*
Y-3070000D03*
X4622000Y-3324000D03*
Y-3070000D03*
X4876000Y-3324000D03*
X5130000D03*
X4876000Y-3070000D03*
X5130000D03*
X5868000Y-3324000D03*
X6122000D03*
X5868000Y-3070000D03*
X6122000D03*
X6376000Y-3324000D03*
Y-3070000D03*
X6630000Y-3324000D03*
Y-3070000D03*
G54D34*
X5140000Y-780000D03*
X5220000D03*
X5700000D03*
X5780000D03*
G54D26*
X2450000Y-912150D03*
Y-862150D03*
Y-812150D03*
Y-762150D03*
Y-712150D03*
Y-662150D03*
Y-612150D03*
Y-562150D03*
X2790000Y-912150D03*
Y-862150D03*
Y-812150D03*
Y-762150D03*
Y-712150D03*
Y-662150D03*
Y-612150D03*
Y-562150D03*
G54D17*
X1310000Y-2550000D03*
X1210000D03*
X1310000Y-2410000D03*
X1210000D03*
X1350000Y-1911000D03*
X1390000Y-1370000D03*
X1290000Y-720000D03*
X1390000D03*
X1450000Y-1911000D03*
X1490000Y-1370000D03*
X2180000Y-2550000D03*
X2080000D03*
X2180000Y-2410000D03*
X2080000D03*
X2260000Y-1911000D03*
X2110000D03*
X2010000D03*
X2669500Y-2550000D03*
X2670000Y-2410000D03*
X2360000Y-1911000D03*
X2769500Y-2550000D03*
X2770000Y-2410000D03*
X3040000Y-1911000D03*
X3380000D03*
X3280000D03*
X3140000D03*
X3680000Y-2550000D03*
X3580000D03*
X3680000Y-2410000D03*
X3580000D03*
X3950000Y-1700000D03*
X4300000Y-2550000D03*
X4200000D03*
X4300000Y-2410000D03*
X4200000D03*
X4260000Y-1910000D03*
X4360000D03*
X4050000Y-1700000D03*
X4510000Y-1910000D03*
X4610000D03*
X4680000Y-610000D03*
X4780000D03*
X4680500Y-470000D03*
X4780500D03*
X4779000Y-330000D03*
X4679000D03*
X5180000Y-2550000D03*
X5080000D03*
X5180000Y-2410000D03*
X5080000D03*
X5050000Y-1910000D03*
X5150000D03*
X5679500Y-2550000D03*
X5680000Y-2410000D03*
X5779500Y-2550000D03*
X5780000Y-2410000D03*
X5830000Y-1910000D03*
X5930000D03*
X6100000D03*
X5870000Y-1600000D03*
X5770000D03*
X6200000Y-1910000D03*
X6680000Y-2550000D03*
X6580000D03*
X6680000Y-2410000D03*
X6580000D03*
X6870000Y-1910000D03*
X6990000D03*
X6700000D03*
X6600000D03*
G54D35*
X5650000Y-1410000D03*
Y-1190000D03*
X5430000Y-1410000D03*
Y-1190000D03*
X5860000Y-1400000D03*
Y-1200000D03*
G54D27*
X2620000Y-737150D03*
G54D18*
X1223400Y-2286300D03*
Y-2094800D03*
X1715830Y-2188500D03*
X1494170Y-2188700D03*
X1986600Y-2090900D03*
Y-2282400D03*
X2713400Y-2286300D03*
Y-2094800D03*
X2984170Y-2188700D03*
X3496600Y-2090900D03*
Y-2282400D03*
X3225830Y-2188500D03*
X4213400Y-2286300D03*
Y-2094800D03*
X4484170Y-2188700D03*
X4695830Y-2188500D03*
X4966600Y-2090900D03*
Y-2282400D03*
X5713400Y-2286300D03*
Y-2094800D03*
X5984170Y-2188700D03*
X6476600Y-2090900D03*
Y-2282400D03*
X6205830Y-2188500D03*
G54D36*
X5285000Y-780000D03*
X5335000D03*
X5385000D03*
X5435000D03*
X5485000D03*
X5535000D03*
X5585000D03*
X5635000D03*
G54D28*
X3550000Y-1065000D03*
Y-1115000D03*
Y-1165000D03*
Y-665000D03*
Y-715000D03*
Y-765000D03*
Y-815000D03*
Y-865000D03*
Y-915000D03*
Y-965000D03*
Y-1015000D03*
Y-415000D03*
Y-465000D03*
Y-515000D03*
Y-565000D03*
Y-615000D03*
X4450000Y-1065000D03*
Y-1115000D03*
Y-1165000D03*
Y-665000D03*
Y-715000D03*
Y-765000D03*
Y-815000D03*
Y-865000D03*
Y-915000D03*
Y-965000D03*
Y-1015000D03*
Y-415000D03*
Y-465000D03*
Y-515000D03*
Y-565000D03*
Y-615000D03*
G54D37*
X6195000Y-1470000D03*
X6385000D03*
X6195000Y-1210000D03*
X6290000D03*
X6385000D03*
X6715000Y-1470000D03*
X6905000D03*
X6715000Y-1210000D03*
X6810000D03*
X6905000D03*
G54D19*
X1190000Y-1560000D03*
X1470000D03*
G54D29*
X3625000Y-1240000D03*
X3675000D03*
X3725000D03*
X3775000D03*
X3825000D03*
X3875000D03*
X3925000D03*
X3625000Y-340000D03*
X3675000D03*
X3725000D03*
X3775000D03*
X3825000D03*
X3875000D03*
X3925000D03*
X3975000Y-1240000D03*
X4025000D03*
X4075000D03*
X4125000D03*
X4175000D03*
X4225000D03*
X4275000D03*
X4325000D03*
X4375000D03*
X3975000Y-340000D03*
X4025000D03*
X4075000D03*
X4125000D03*
X4175000D03*
X4225000D03*
X4275000D03*
X4325000D03*
X4375000D03*
G54D38*
X6290000Y-730000D03*
X6490000D03*
X6290000Y-230000D03*
X6490000D03*
X6690000Y-730000D03*
X6890000D03*
X6690000Y-230000D03*
X6890000D03*
X7090000Y-730000D03*
Y-230000D03*
M02*
