G04 ================== begin FILE IDENTIFICATION RECORD ==================*
G04 Layout Name:  OpticalInOut-May-19.brd*
G04 Film Name:    SOLDERMASK_BOTTOM*
G04 File Format:  Gerber RS274X*
G04 File Origin:  Cadence Allegro 25.1-S020*
G04 Origin Date:  Tue May 19 10:06:17 2026*
G04 *
G04 Layer:  VIA CLASS/SOLDERMASK_BOTTOM*
G04 Layer:  PIN/SOLDERMASK_BOTTOM*
G04 Layer:  PACKAGE GEOMETRY/SOLDERMASK_BOTTOM*
G04 Layer:  DRC ERROR CLASS/SOLDERMASK_BOTTOM*
G04 Layer:  BOARD GEOMETRY/DESIGN_OUTLINE*
G04 *
G04 Offset:    (0.0000 0.0000)*
G04 Mirror:    No*
G04 Mode:      Positive*
G04 Rotation:  0*
G04 FullContactRelief:  No*
G04 UndefLineWidth:     0.2540*
G04 ================== end FILE IDENTIFICATION RECORD ====================*
%FSLAX25Y25*MOMM*%
%IR0*IPPOS*OFA0.00000B0.00000*MIA0B0*SFA1.00000B1.00000*%
%ADD16R,1.1X.6*%
%ADD19R,1.7X.9*%
%ADD15R,1.37X.61*%
%ADD20R,3.1X2.1*%
%AMMACRO18*
4,1,40,-.1833,-.8,
.1833,-.8,
.246977,-.794429,
.308719,-.777885,
.36665,-.750872,
.41901,-.714208,
.464208,-.66901,
.500872,-.61665,
.527885,-.558719,
.544429,-.496977,
.55,-.4333,
.55,.4333,
.544429,.496977,
.527885,.558719,
.500872,.61665,
.464208,.66901,
.41901,.714208,
.36665,.750872,
.308719,.777885,
.246977,.794429,
.1833,.8,
-.1833,.8,
-.246977,.794429,
-.308719,.777885,
-.36665,.750872,
-.41901,.714208,
-.464208,.66901,
-.500872,.61665,
-.527885,.558719,
-.544429,.496977,
-.55,.4333,
-.55,-.4333,
-.544429,-.496977,
-.527885,-.558719,
-.500872,-.61665,
-.464208,-.66901,
-.41901,-.714208,
-.36665,-.750872,
-.308719,-.777885,
-.246977,-.794429,
-.1833,-.8,
0.0*
%
%ADD18MACRO18*%
%ADD10C,1.1*%
%ADD17C,2.1*%
%ADD14C,1.5*%
%ADD11R,.9X.7*%
%ADD13R,.7X.9*%
%ADD12C,1.9*%
%LPD*%
G75*
G54D10*
X1368000Y-3324000D03*
Y-3070000D03*
X1622000Y-3324000D03*
Y-3070000D03*
X1876000Y-3324000D03*
X2130000D03*
X1876000Y-3070000D03*
X2130000D03*
X2868000Y-3324000D03*
X3122000D03*
X2868000Y-3070000D03*
X3122000D03*
X3376000Y-3324000D03*
Y-3070000D03*
X3630000Y-3324000D03*
Y-3070000D03*
X4368000Y-3324000D03*
Y-3070000D03*
X4622000Y-3324000D03*
Y-3070000D03*
X4876000Y-3324000D03*
X5130000D03*
X4876000Y-3070000D03*
X5130000D03*
X5868000Y-3324000D03*
X6122000D03*
X5868000Y-3070000D03*
X6122000D03*
X6376000Y-3324000D03*
Y-3070000D03*
X6630000Y-3324000D03*
Y-3070000D03*
G54D11*
X1320000Y-3620000D03*
Y-3520000D03*
Y-2850000D03*
Y-2750000D03*
X1470000Y-3619500D03*
Y-3519500D03*
X1621000Y-3620000D03*
Y-3520000D03*
X1770000Y-3620000D03*
Y-3520000D03*
Y-2848500D03*
X1470000Y-2850500D03*
X1620000Y-2850000D03*
X1770000Y-2748500D03*
X1470000Y-2750500D03*
X1620000Y-2600000D03*
Y-2500000D03*
Y-2750000D03*
X1920000Y-3620000D03*
Y-3520000D03*
X2070000Y-3620000D03*
Y-3520000D03*
X1930000Y-2850000D03*
X2090000D03*
X1930000Y-2750000D03*
X2090000D03*
X2310000Y-2850000D03*
Y-2750000D03*
X2480000Y600000D03*
Y700000D03*
X2970000Y-3619500D03*
Y-3519500D03*
X2830000Y-3620000D03*
Y-3520000D03*
X3120000Y-3620000D03*
Y-3520000D03*
X2970000Y-2848500D03*
X3120000Y-2850000D03*
X2820000D03*
X2970000Y-2748500D03*
X3120000Y-2600000D03*
Y-2500000D03*
Y-2750000D03*
X2820000D03*
X3420000Y-3620000D03*
Y-3520000D03*
X3270000Y-3620000D03*
Y-3520000D03*
Y-2850500D03*
X3420000Y-2850000D03*
X3270000Y-2750500D03*
X3420000Y-2750000D03*
X3350000Y-1560000D03*
Y-1660000D03*
X3490000Y-1560000D03*
Y-1660000D03*
X3550000Y-910000D03*
Y-1010000D03*
Y-600000D03*
Y-500000D03*
X3570000Y-3620000D03*
Y-3520000D03*
Y-2850000D03*
X3800000D03*
X3570000Y-2750000D03*
X3800000D03*
Y1180000D03*
Y1280000D03*
X4320000Y-3620000D03*
Y-3520000D03*
Y-2850000D03*
Y-2750000D03*
X4290000Y-1650000D03*
Y-1550000D03*
X4470000Y-3619500D03*
Y-3519500D03*
X4620000Y-3620000D03*
Y-3520000D03*
X4770000Y-3620000D03*
Y-3520000D03*
X4470000Y-2848500D03*
X4770000Y-2850500D03*
X4620000Y-2850000D03*
X4470000Y-2748500D03*
X4770000Y-2750500D03*
X4620000Y-2600000D03*
Y-2500000D03*
Y-2750000D03*
X4440000Y-820000D03*
Y-920000D03*
X4450000Y-690000D03*
Y-590000D03*
X4820000Y1180000D03*
Y1280000D03*
X4920000Y-3620000D03*
Y-3520000D03*
X5070000Y-3620000D03*
Y-3520000D03*
X4920000Y-2850000D03*
X5070000D03*
X4920000Y-2750000D03*
X5070000D03*
X5290000Y-2850000D03*
Y-2750000D03*
X5300000Y-460000D03*
Y-560000D03*
X5570000Y-460000D03*
Y-560000D03*
X5980000Y-3619500D03*
Y-3519500D03*
X6130000Y-3620000D03*
Y-3520000D03*
X5830000Y-3620000D03*
Y-3520000D03*
X5970000Y-2848500D03*
X6120000Y-2850000D03*
X5820000D03*
X5970000Y-2748500D03*
X6120000Y-2600000D03*
Y-2500000D03*
Y-2750000D03*
X5820000D03*
X5850000Y1080000D03*
Y980000D03*
X6430000Y-3620000D03*
Y-3520000D03*
X6280000Y-3620000D03*
Y-3520000D03*
X6270000Y-2850500D03*
X6420000Y-2850000D03*
X6570000D03*
X6270000Y-2750500D03*
X6420000Y-2750000D03*
X6570000D03*
X6580000Y-3620000D03*
Y-3520000D03*
X6790000Y-2850000D03*
Y-2750000D03*
G54D20*
X7710000Y340000D03*
Y1240000D03*
G54D12*
X1620000Y-3800000D03*
X3120000D03*
X4620000D03*
X6130000D03*
G54D13*
X2140000Y-360000D03*
X2240000D03*
X2140000Y-510000D03*
X2240000D03*
X2000000Y340000D03*
X2100000D03*
X2490000Y-360000D03*
X2390000D03*
X2750000D03*
X2850000D03*
X3010000Y340000D03*
X3110000D03*
X3310000Y-1240000D03*
X3410000D03*
X3920000Y-1220000D03*
X3820000D03*
X3790000Y-360000D03*
X3890000D03*
X4110000Y-1220000D03*
X4210000D03*
X4200000Y-850000D03*
X4100000D03*
X4210000Y-610000D03*
X4110000D03*
X4210000Y-1000000D03*
X4110000D03*
X4210000Y-360000D03*
X4310000D03*
X4010000Y340000D03*
X4110000D03*
X4640000Y-1300000D03*
X4740000D03*
X4520000Y-1090000D03*
X4620000D03*
X4600000Y-770000D03*
X4700000D03*
X4660000Y-930000D03*
X4760000D03*
X5010000Y340000D03*
X5110000D03*
G54D14*
X2000000Y675000D03*
Y925000D03*
X3010000Y675000D03*
Y925000D03*
X4010000Y675000D03*
Y925000D03*
X5010000Y675000D03*
Y925000D03*
G54D15*
X2626600Y930900D03*
X2355830Y1028500D03*
X2626600Y1122400D03*
X3355830Y1028500D03*
X3626600Y930900D03*
Y1122400D03*
X4345830Y1018500D03*
X4616600Y920900D03*
Y1112400D03*
X5636600Y920900D03*
X5365830Y1018500D03*
X5636600Y1112400D03*
G54D16*
X3930000Y-1510000D03*
X3670000D03*
X3930000Y-1605000D03*
X3670000D03*
X3930000Y-1700000D03*
X3670000D03*
G54D17*
X4060000Y1250000D03*
X5110000Y1210000D03*
X5950000Y750000D03*
G54D18*
X5027500Y-730000D03*
Y-310000D03*
X5892500Y-730000D03*
Y-310000D03*
G54D19*
X7360000Y615000D03*
Y740000D03*
Y865000D03*
Y990000D03*
M02*
