G04 ================== begin FILE IDENTIFICATION RECORD ==================*
G04 Layout Name:  OpticalInOut-May-19.brd*
G04 Film Name:    TOP*
G04 File Format:  Gerber RS274X*
G04 File Origin:  Cadence Allegro 25.1-S020*
G04 Origin Date:  Tue May 19 10:06:17 2026*
G04 *
G04 Layer:  VIA CLASS/TOP*
G04 Layer:  PIN/TOP*
G04 Layer:  ETCH/TOP*
G04 Layer:  BOARD GEOMETRY/OUTLINE*
G04 Layer:  BOARD GEOMETRY/DESIGN_OUTLINE*
G04 *
G04 Offset:    (0.0000 0.0000)*
G04 Mirror:    No*
G04 Mode:      Positive*
G04 Rotation:  0*
G04 FullContactRelief:  No*
G04 UndefLineWidth:     0.2540*
G04 ================== end FILE IDENTIFICATION RECORD ====================*
%FSLAX25Y25*MOMM*%
%IR0*IPPOS*OFA0.00000B0.00000*MIA0B0*SFA1.00000B1.00000*%
%ADD39R,.3X1.*%
%ADD37R,.5X1.*%
%ADD22R,.6X1.2*%
%ADD15R,1.X.9*%
%ADD41R,.8X2.*%
%ADD13R,1.6X.8*%
%ADD20R,1.27X.51*%
%ADD12C,.6*%
%AMMACRO36*
4,1,40,-.1667,-.75,
.1667,-.75,
.224577,-.744936,
.280695,-.7299,
.33335,-.705346,
.380941,-.672023,
.422023,-.630941,
.455346,-.58335,
.4799,-.530695,
.494936,-.474577,
.5,-.4167,
.5,.4167,
.494936,.474577,
.4799,.530695,
.455346,.58335,
.422023,.630941,
.380941,.672023,
.33335,.705346,
.280695,.7299,
.224577,.744936,
.1667,.75,
-.1667,.75,
-.224577,.744936,
-.280695,.7299,
-.33335,.705346,
-.380941,.672023,
-.422023,.630941,
-.455346,.58335,
-.4799,.530695,
-.494936,.474577,
-.5,.4167,
-.5,-.4167,
-.494936,-.474577,
-.4799,-.530695,
-.455346,-.58335,
-.422023,-.630941,
-.380941,-.672023,
-.33335,-.705346,
-.280695,-.7299,
-.224577,-.744936,
-.1667,-.75,
0.0*
%
%ADD36MACRO36*%
%ADD35R,1.X1.2*%
%ADD11R,3.X2.*%
%ADD30R,2.X3.*%
%ADD38R,1.4X1.2*%
%ADD25R,1.6X1.5*%
%ADD21R,1.5X1.6*%
%ADD18C,1.*%
%ADD34C,2.*%
%ADD17C,3.*%
%ADD40R,.5X.8*%
%ADD26C,1.4*%
%ADD16R,.8X.6*%
%ADD10C,2.3*%
%ADD31R,.8X.25*%
%ADD19R,.6X.8*%
%ADD32R,.25X.8*%
%ADD23C,3.4*%
%ADD27R,.9X.8*%
%ADD14R,.55X.6*%
%ADD24C,1.8*%
%ADD33R,4.X4.*%
%ADD29R,.68X.28*%
%ADD28R,.28X.68*%
%ADD42C,.1*%
%ADD43C,.2*%
%ADD44C,.3*%
%ADD45C,.4*%
%ADD46C,.22*%
%ADD47C,.5*%
%ADD48C,.25*%
%ADD49C,.8*%
%ADD50C,.35*%
%ADD51C,.18*%
G75*
%LPD*%
G75*
G36*
G01X821000Y-1671000D02*
X1051000D01*
Y-1757000D01*
X821000D01*
Y-1671000D01*
G37*
G36*
G01X1510000Y-1070000D02*
X1620000D01*
X1740000Y-1190000D01*
X1790000D01*
Y-1360000D01*
X1620000D01*
Y-1250000D01*
X1420000D01*
Y-1420000D01*
X1340000D01*
Y-1115000D01*
X1510000D01*
Y-1070000D01*
G37*
G36*
G01X1460000Y-1329000D02*
X1537000D01*
Y-1457000D01*
X1555000Y-1475000D01*
X1565000Y-1485000D01*
X1602000D01*
X1785000D01*
Y-1645000D01*
X1395000D01*
Y-1475000D01*
X1459000D01*
X1460000Y-1474000D01*
Y-1329000D01*
G37*
G36*
G01X5820000Y-1720000D02*
X6250000D01*
Y-1800000D01*
X5820000D01*
Y-1720000D01*
G37*
G36*
G01X6940000Y-1680000D02*
Y-1600000D01*
X6530000D01*
Y-1680000D01*
X6940000D01*
G37*
G54D10*
X300000Y-3700000D03*
Y-300000D03*
X7700000Y-3700000D03*
Y-300000D03*
G54D11*
X293000Y-3131000D03*
Y-2231000D03*
Y-1761000D03*
Y-861000D03*
X7707000Y-3140000D03*
Y-2240000D03*
Y-1770000D03*
Y-870000D03*
G54D20*
X1223400Y-2286300D03*
Y-2094800D03*
X1715830Y-2188500D03*
X1494170Y-2188700D03*
X1986600Y-2090900D03*
Y-2282400D03*
X2713400Y-2286300D03*
Y-2094800D03*
X2984170Y-2188700D03*
X3496600Y-2090900D03*
Y-2282400D03*
X3225830Y-2188500D03*
X4213400Y-2286300D03*
Y-2094800D03*
X4484170Y-2188700D03*
X4695830Y-2188500D03*
X4966600Y-2090900D03*
Y-2282400D03*
X5713400Y-2286300D03*
Y-2094800D03*
X5984170Y-2188700D03*
X6476600Y-2090900D03*
Y-2282400D03*
X6205830Y-2188500D03*
G54D21*
X1190000Y-1560000D03*
X1470000D03*
G54D30*
X2620000Y-737150D03*
G54D12*
G01X293000Y-3131000D02*
Y-2988300D01*
G01X643000Y-2856000D02*
X520300D01*
G01X293000Y-2231000D02*
Y-2373700D01*
G01X643000Y-2481000D02*
X520300D01*
G01X293000Y-1761000D02*
Y-1618300D01*
G01X643000Y-1486000D02*
X520300D01*
G01X643000Y-1111000D02*
X520300D01*
G01X293000Y-861000D02*
Y-1003700D01*
G01X1700000Y-1280000D02*
Y-653500D01*
G03X1669240Y-579240I-105018J0D01*
G01X1660760Y-570760D01*
G02X1630000Y-496500I74258J74260D01*
G01Y-320000D01*
G01X4770000Y-1450000D02*
X4870000D01*
G01X4996000Y-1400000D02*
Y-1520000D01*
G01X5196000Y-1200000D02*
Y-1084000D01*
G01X5430000Y-1410000D02*
X5540000D01*
G01D02*
X5650000D01*
G01X7357000Y-2890000D02*
X7479700D01*
G01X7357000Y-2515000D02*
X7479700D01*
G01X7357000Y-1520000D02*
X7479700D01*
G01X7357000Y-1145000D02*
X7480000D01*
G01X7707000Y-3140000D02*
Y-2997300D01*
G01Y-2240000D02*
Y-2382700D01*
G01Y-1770000D02*
Y-1627300D01*
G01Y-870000D02*
Y-1012700D01*
X293000Y-2988300D03*
X520300Y-2856000D03*
X293000Y-2373700D03*
X520300Y-2481000D03*
X293000Y-1618300D03*
X520300Y-1486000D03*
Y-1111000D03*
X293000Y-1003700D03*
X763200Y-2606000D03*
X765700Y-2731000D03*
X863700Y-1713700D03*
X765700Y-1236000D03*
X770000Y-1361000D03*
X1320000Y-3710000D03*
X1220000Y-2750000D03*
X1117200Y-2286300D03*
X1009700Y-1713700D03*
X1180000Y-1072300D03*
X1770000Y-3430000D03*
X1470000D03*
Y-2940000D03*
X1770000D03*
X1540000Y-2300000D03*
X1790000Y-2320000D03*
X1588000Y-1911000D03*
X1583000Y-1525000D03*
X1584000Y-1606000D03*
X1500000Y-1445000D03*
X1551000Y-890000D03*
X2070000Y-3710000D03*
X1920000D03*
X2080000Y-2632700D03*
X2190000Y-2750000D03*
X1833280Y-1953280D03*
X2030000Y-2159100D03*
X2020000Y-450000D03*
X2370000Y-2640000D03*
X2340000Y-2327300D03*
X2607200Y-2286300D03*
X2360000Y-1810000D03*
X2620000Y-737150D03*
X2560000Y-630000D03*
X2680000D03*
X2560000Y-850000D03*
X2680000D03*
X2460000Y-1010000D03*
X2620000Y-360000D03*
X2355000Y-535000D03*
X2830000Y-3710000D03*
X2970000Y-3430000D03*
Y-2940000D03*
X2720000Y-2750000D03*
X3040000Y-2290000D03*
X2940000Y-1910000D03*
X2700000Y-1840000D03*
X2880000Y-530000D03*
X2740000Y1000000D03*
X3420000Y-3710000D03*
X3270000Y-3430000D03*
Y-2940000D03*
X3290000Y-2320000D03*
X3530000Y-2159100D03*
X3380000Y-1810000D03*
X3430000Y-1060000D03*
X3530000Y-1260000D03*
X3420000Y-550000D03*
X3570000Y-3710000D03*
X3580000Y-2632700D03*
X3870000Y-2640000D03*
X3670000Y-2750000D03*
X3840000Y-2330000D03*
X3950000Y-2050000D03*
X3762700Y-1605000D03*
X3837300Y-1700000D03*
X3800000Y-1130000D03*
X3975000Y-1140000D03*
X3850000Y-640000D03*
Y-790000D03*
Y-940000D03*
X3710000Y-1050000D03*
X3670000Y-865000D03*
X3975000Y-455000D03*
X3680000Y-615000D03*
X3720000Y-460000D03*
X3740000Y1010000D03*
X4320000Y-3710000D03*
X4220000Y-2750000D03*
X4107200Y-2286300D03*
X4260000Y-1780000D03*
X4330000Y-1120000D03*
X4275000Y-1350000D03*
X4130000D03*
X4000000Y-640000D03*
Y-940000D03*
Y-790000D03*
X4315940Y-890000D03*
X4310000Y-780000D03*
X4330000Y-1015000D03*
X4325000Y-465000D03*
X4320000Y-580000D03*
X4180000Y-460000D03*
X4770000Y-3430000D03*
X4470000D03*
Y-2940000D03*
X4770000D03*
X4540000Y-2300000D03*
X4770000Y-2320000D03*
X4700000Y-1910000D03*
X4470000Y-1260000D03*
X4420000Y-1390000D03*
X4770000Y-1030000D03*
X4570000Y-960000D03*
X4779000Y-230000D03*
X4730000Y990000D03*
X5070000Y-3710000D03*
X4920000D03*
X5170000Y-2750000D03*
X5080000Y-2632700D03*
X5072800Y-2090900D03*
X4996000Y-1520000D03*
X4960000Y-1910000D03*
X5196000Y-1084000D03*
X4870000Y-1450000D03*
X4880000Y-740000D03*
X4870000Y-610000D03*
Y-470000D03*
X5125000Y-585000D03*
X5370000Y-2640000D03*
X5340000Y-2330000D03*
X5607200Y-2286300D03*
X5540000Y-1410000D03*
X5650000Y-1070000D03*
X5460000D03*
X5580000Y-900000D03*
X5700000Y-687300D03*
X5570000Y-650000D03*
X5300000D03*
X5550000Y-990000D03*
X5433000Y-409000D03*
X5570000Y-387300D03*
X5300000D03*
X5530400Y920900D03*
X5830000Y-3710000D03*
X5980000Y-3430000D03*
X5970000Y-2940000D03*
X5720000Y-2750000D03*
X6040000Y-2310000D03*
X6030000Y-1630000D03*
X6070000Y-1760000D03*
X5970000D03*
X5870000D03*
X5730000Y-1910000D03*
X6030000Y-1110000D03*
X5960000Y-1430000D03*
X6030000Y-1360000D03*
X6430000Y-3710000D03*
X6280000Y-3430000D03*
X6270000Y-2940000D03*
X6280000Y-2320000D03*
X6520000Y-2159100D03*
X6300000Y-1930000D03*
X6478000Y-1752000D03*
X6550000Y-1390000D03*
X6290000Y-1100000D03*
X6160000Y-1020000D03*
X6180000Y-890000D03*
X6490000Y-372700D03*
Y-587300D03*
Y-480000D03*
X6290000Y-372700D03*
Y-587300D03*
Y-480000D03*
X6580000Y-3710000D03*
X6870000Y-2640000D03*
X6670000Y-2750000D03*
X6580000Y-2640000D03*
X6840000Y-2327300D03*
X6780000Y-1750000D03*
X6570000Y-1640000D03*
X6660000D03*
X6760000D03*
X6810000Y-1100000D03*
X7234300Y-2765000D03*
Y-2640000D03*
X7080000Y-1910000D03*
X7070000Y-1400000D03*
X7234300Y-1395000D03*
Y-1270000D03*
X7090000Y-372700D03*
Y-587300D03*
Y-480000D03*
X7707000Y-2997300D03*
X7479700Y-2890000D03*
X7707000Y-2382700D03*
X7479700Y-2515000D03*
X7707000Y-1627300D03*
X7479700Y-1520000D03*
X7480000Y-1145000D03*
X7707000Y-1012700D03*
X7710000Y482700D03*
Y1080000D03*
Y710000D03*
Y890000D03*
G54D31*
X3550000Y-1065000D03*
Y-1115000D03*
Y-1165000D03*
Y-665000D03*
Y-715000D03*
Y-765000D03*
Y-815000D03*
Y-865000D03*
Y-915000D03*
Y-965000D03*
Y-1015000D03*
Y-415000D03*
Y-465000D03*
Y-515000D03*
Y-565000D03*
Y-615000D03*
X4450000Y-1065000D03*
Y-1115000D03*
Y-1165000D03*
Y-665000D03*
Y-715000D03*
Y-765000D03*
Y-815000D03*
Y-865000D03*
Y-915000D03*
Y-965000D03*
Y-1015000D03*
Y-415000D03*
Y-465000D03*
Y-515000D03*
Y-565000D03*
Y-615000D03*
G54D40*
X6195000Y-1470000D03*
X6385000D03*
X6195000Y-1210000D03*
X6290000D03*
X6385000D03*
X6715000Y-1470000D03*
X6905000D03*
X6715000Y-1210000D03*
X6810000D03*
X6905000D03*
G54D13*
X643000Y-2856000D03*
Y-2731000D03*
Y-2606000D03*
Y-2481000D03*
Y-1486000D03*
Y-1361000D03*
Y-1236000D03*
Y-1111000D03*
X7357000Y-2765000D03*
Y-2890000D03*
Y-2515000D03*
Y-2640000D03*
Y-1520000D03*
Y-1145000D03*
Y-1270000D03*
Y-1395000D03*
G54D22*
X1370000Y-1175000D03*
X1275000D03*
X1180000D03*
X1370000Y-910000D03*
X1275000D03*
X1180000D03*
G54D50*
G01X940000Y-1200000D02*
X887610D01*
G02X820000Y-1132390I0J67610D01*
G01Y-728620D01*
G02X868620Y-680000I48620J0D01*
G01X1007640D01*
G02X1062880Y-702880I0J-78124D01*
G01X1070900Y-710900D01*
G03X1117000Y-730000I46106J46098D01*
G01X1150000D01*
G01X1275000Y-1175000D02*
Y-1270420D01*
G02X1215420Y-1330000I-59580J0D01*
G01X1115000D01*
G02X1060000Y-1275000I0J55000D01*
G01Y-1080000D01*
G03X1020000Y-1040000I-40000J0D01*
G01X940000D01*
G01X1550000Y-1000000D02*
X1480000D01*
X1450000Y-1030000D01*
X1307300D01*
X1275000Y-997700D01*
Y-910000D01*
G01X5196000Y-1084000D02*
X5135800D01*
X5121800Y-1070000D01*
X4859060D01*
X4829060Y-1100000D01*
X4770000D01*
G54D14*
X939500Y-1699500D03*
Y-1340500D03*
G54D23*
X1300000Y800000D03*
X6600000D03*
G54D32*
X3625000Y-1240000D03*
X3675000D03*
X3725000D03*
X3775000D03*
X3825000D03*
X3875000D03*
X3925000D03*
X3625000Y-340000D03*
X3675000D03*
X3725000D03*
X3775000D03*
X3825000D03*
X3875000D03*
X3925000D03*
X3975000Y-1240000D03*
X4025000D03*
X4075000D03*
X4125000D03*
X4175000D03*
X4225000D03*
X4275000D03*
X4325000D03*
X4375000D03*
X3975000Y-340000D03*
X4025000D03*
X4075000D03*
X4125000D03*
X4175000D03*
X4225000D03*
X4275000D03*
X4325000D03*
X4375000D03*
G54D41*
X6290000Y-730000D03*
X6490000D03*
X6290000Y-230000D03*
X6490000D03*
X6690000Y-730000D03*
X6890000D03*
X6690000Y-230000D03*
X6890000D03*
X7090000Y-730000D03*
Y-230000D03*
G54D51*
G01X3875000Y-340000D02*
Y-291810D01*
G03X3866510Y-271310I-28995J0D01*
G01X3863690Y-268490D01*
G03X3843190Y-260000I-20500J-20505D01*
G01X3531430D01*
G03X3460710Y-289290I0J-100021D01*
G01X3067140Y-682860D01*
G02X2996420Y-712150I-70720J70731D01*
G01X2790000D01*
G01Y-662150D02*
X2956420D01*
G03X3027140Y-632860I0J100021D01*
G01X3420710Y-239290D01*
G02X3491430Y-210000I70720J-70731D01*
G01X3880000D01*
G02X3925000Y-255000I0J-45000D01*
G01Y-340000D01*
G01X4375000D02*
Y-308470D01*
G03X4355530Y-261470I-66463J0D01*
G01X4283350Y-189290D01*
G03X4212640Y-160000I-70712J-70712D01*
G01X3431420D01*
G03X3360710Y-189290I2J-100002D01*
G01X2967140Y-582860D01*
G02X2896420Y-612150I-70720J70731D01*
G01X2790000D01*
G01X2695000Y-521450D02*
Y-478930D01*
G02X2733930Y-440000I38930J0D01*
G01X2968570D01*
G03X3039290Y-410710I0J100021D01*
G01X3294370Y-155630D01*
G02X3308170Y-144330I63671J-63681D01*
G01X3324220Y-133650D01*
G02X3369390Y-120000I45165J-67896D01*
G01X4300610D01*
G02X4345780Y-133650I0J-81562D01*
G01X4361830Y-144330D01*
G02X4375630Y-155630I-49875J-74986D01*
G01X4510000Y-290000D01*
G02Y-382500I-46250J-46250D01*
G01X4485810Y-406690D01*
G02X4465750Y-415000I-20060J20057D01*
G01X4450000D01*
G54D42*
G01X-2000000Y0D02*
X10000000D01*
G01X0D02*
Y1600000D01*
X8000000D01*
Y-4000000D01*
X0D01*
Y0D01*
G54D33*
X4000000Y-790000D03*
G54D24*
X1620000Y-3800000D03*
X3120000D03*
X4620000D03*
X6130000D03*
G54D15*
X940000Y-1040000D03*
Y-1200000D03*
G54D43*
G01X2545000Y-521450D02*
Y-467250D01*
G03X2489750Y-412000I-55250J0D01*
G01X2389430D01*
G03X2318710Y-441290I0J-100021D01*
G01X2249300Y-510700D01*
G02X2178570Y-540000I-70730J70721D01*
G01X2075570D01*
G03X1980710Y-579290I5J-134169D01*
G01X1904280Y-655720D01*
G03X1874990Y-726440I70731J-70720D01*
G01Y-1683580D01*
G02X1845700Y-1754300I-100021J0D01*
G01X1718290Y-1881710D01*
G02X1647570Y-1911000I-70720J70731D01*
G01X1588000D01*
G01X2450000Y-612150D02*
X2178280D01*
G03X2013340Y-680470I0J-233261D01*
G01X2013310Y-680500D01*
G03X1944990Y-845440I164941J-164940D01*
G01Y-1404560D01*
G03X1974280Y-1475280I100021J0D01*
G01X2028710Y-1529710D01*
G03X2099430Y-1559000I70720J70731D01*
G01X2260000D01*
G02X2360000Y-1659000I0J-100000D01*
G01Y-1810000D01*
G01X2450000Y-662150D02*
X2224280D01*
G03X2072770Y-724910I0J-214261D01*
G01X2072760Y-724920D01*
G03X2010000Y-876430I151501J-151510D01*
G01Y-1277850D01*
G03X2068090Y-1418090I198328J0D01*
G01X2086710Y-1436710D01*
G03X2157430Y-1466000I70720J70731D01*
G01X2425570D01*
G02X2496290Y-1495290I0J-100021D01*
G01X2670710Y-1669710D01*
G02X2700000Y-1740430I-70731J-70720D01*
G01Y-1840000D01*
G01X2450000Y-712150D02*
X2269280D01*
G03X2135460Y-767580I0J-189250D01*
G01X2135430Y-767610D01*
G03X2080000Y-901430I133820J-133820D01*
G01Y-1215570D01*
G03X2109290Y-1286290I100021J0D01*
G01X2180710Y-1357710D01*
G03X2251430Y-1387000I70720J70731D01*
G01X2527570D01*
G02X2598290Y-1416290I0J-100021D01*
G01X2872710Y-1690710D01*
G03X2943430Y-1720000I70720J70731D01*
G01X3248570D01*
G02X3319290Y-1749290I0J-100021D01*
G01X3380000Y-1810000D01*
G01X3950000Y-2050000D02*
X3741430D01*
G02X3670710Y-2020710I0J100021D01*
G01X3500270Y-1850270D01*
G02X3490000Y-1825480I24784J24790D01*
G01Y-1823480D01*
G03X3306520Y-1640000I-183480J0D01*
G01X3029420D01*
G02X2958700Y-1610710I0J100021D01*
G01X2697280Y-1349290D01*
G03X2626560Y-1320000I-70720J-70731D01*
G01X2354740D01*
G02X2211250Y-1260560I5J202928D01*
G01X2211240D01*
X2169290Y-1218610D01*
G02X2140000Y-1147890I70731J70720D01*
G01Y-926430D01*
G02X2188740Y-808760I166412J0D01*
G01X2188760Y-808740D01*
G02X2306430Y-760000I117670J-117672D01*
G01X2394790D01*
X2396940Y-762150D01*
X2450000D01*
G01Y-812150D02*
X2330510D01*
G03X2212000Y-930660I0J-118510D01*
G01Y-1103550D01*
G03X2338450Y-1230000I126450J0D01*
G01X2665570D01*
G02X2736290Y-1259290I0J-100021D01*
G01X3017710Y-1540710D01*
G03X3088430Y-1570000I70720J70731D01*
G01X3401830D01*
G02X3501150Y-1611140I0J-140459D01*
G01X3540710Y-1650700D01*
G02X3570000Y-1721420I-70731J-70720D01*
G01Y-1728570D01*
G03X3599290Y-1799290I100021J0D01*
G01X3730710Y-1930710D01*
G03X3801430Y-1960000I70720J70731D01*
G01X4056640D01*
G03X4113590Y-1936410I0J80538D01*
G01X4116410Y-1933590D01*
G02X4173360Y-1910000I56950J-56948D01*
G01X4260000D01*
G01X4960000D02*
X4928000D01*
G02X4880200Y-1890200I0J67598D01*
G01X4826290Y-1836290D01*
G03X4755570Y-1807000I-70720J-70731D01*
G01X4538430D01*
G02X4467710Y-1777710I0J100021D01*
G01X4319290Y-1629290D01*
G03X4248570Y-1600000I-70720J-70731D01*
G01X3981430D01*
G02X3910710Y-1570710I0J100021D01*
G01X3869290Y-1529290D01*
G03X3798570Y-1500000I-70720J-70731D01*
G01X3212430D01*
G02X3141710Y-1470710I0J100021D01*
G01X2860290Y-1189290D01*
G03X2789570Y-1160000I-70720J-70731D01*
G01X2355000D01*
G02X2283000Y-1088000I0J72000D01*
G01Y-922000D01*
G02X2342850Y-862150I59850J0D01*
G01X2450000D01*
G01Y-912150D02*
X2388850D01*
G03X2348000Y-953000I0J-40850D01*
G01Y-1042000D01*
G03X2398000Y-1092000I50000J0D01*
G01X2871570D01*
G02X2942290Y-1121290I0J-100021D01*
G01X3225710Y-1404710D01*
G03X3296430Y-1434000I70720J70731D01*
G01X3912570D01*
G02X3983290Y-1463290I0J-100021D01*
G01X4000710Y-1480710D01*
G03X4071430Y-1510000I70720J70731D01*
G01X4317570D01*
G02X4388290Y-1539290I0J-100021D01*
G01X4550710Y-1701710D01*
G03X4621430Y-1731000I70720J70731D01*
G01X5479570D01*
G02X5550290Y-1760290I0J-100021D01*
G01X5690800Y-1900800D01*
G03X5713000Y-1910000I22205J22198D01*
G01X5730000D01*
G01X3550000Y-665000D02*
X3286430D01*
G03X3215710Y-694290I0J-100021D01*
G01X3177140Y-732860D01*
G02X3106420Y-762150I-70720J70731D01*
G01X2790000D01*
G01Y-912150D02*
X2928720D01*
G02X2999440Y-941440I0J-100021D01*
G01X3398710Y-1340710D01*
G03X3469430Y-1370000I70720J70731D01*
G01X3720000D01*
G03X3775000Y-1315000I0J55000D01*
G01Y-1240000D01*
G01X3550000Y-715000D02*
X3346430D01*
G03X3275710Y-744290I0J-100021D01*
G01X3237140Y-782860D01*
G02X3166420Y-812150I-70720J70731D01*
G01X2790000D01*
G01X3550000Y-1165000D02*
X3361430D01*
G02X3290710Y-1135710I0J100021D01*
G01X3046440Y-891440D01*
G03X2975720Y-862150I-70720J-70731D01*
G01X2790000D01*
G01X3380000Y-1911000D02*
Y-1810000D01*
G01X4330000Y-1120000D02*
X4353910Y-1143910D01*
G03X4404820Y-1165000I50910J50902D01*
G01X4450000D01*
G01X4420000Y-1390000D02*
X4343040Y-1313040D01*
G02X4325000Y-1269500I43537J43546D01*
G01Y-1240000D01*
G01X4275000D02*
Y-1350000D01*
G01X4130000D02*
X4174060D01*
G03X4225000Y-1299060I0J50940D01*
G01Y-1240000D01*
G01X4996000Y-1200000D02*
X4946890D01*
G03X4902350Y-1218450I0J-62987D01*
G01X4880800Y-1240000D01*
G02X4820000I-30400J30400D01*
G01X4780000Y-1200000D01*
X4770000D01*
G01X4450000Y-865000D02*
X4723570D01*
G02X4794290Y-894290I0J-100021D01*
G01X4860710Y-960710D01*
G03X4931430Y-990000I70720J70731D01*
G01X5335000D01*
G03X5435000Y-890000I0J100000D01*
G01Y-780000D01*
G01X4450000Y-815000D02*
X4753570D01*
G02X4824290Y-844290I0J-100021D01*
G01X4890710Y-910710D01*
G03X4961430Y-940000I70720J70731D01*
G01X5307000D01*
G03X5385000Y-862000I0J78000D01*
G01Y-780000D01*
G01X5050000Y-1910000D02*
X4960000D01*
G01X5580000Y-900000D02*
X5553600Y-873600D01*
G02X5535000Y-828690I44918J44910D01*
G01Y-780000D01*
G01X5435000D02*
Y-615000D01*
G02X5490000Y-560000I55000J0D01*
G01X5960000D01*
G02X6020000Y-620000I0J-60000D01*
G01Y-903310D01*
G03X6136690Y-1020000I116690J0D01*
G01X6160000D01*
G01X5385000Y-780000D02*
Y-575000D01*
G02X5460000Y-500000I75000J0D01*
G01X5990000D01*
G02X6080000Y-590000I0J-90000D01*
G01Y-896300D01*
G03X6113700Y-930000I33700J0D01*
G01X6113710D01*
G03X6158590Y-911410I0J63470D01*
G01X6180000Y-890000D01*
G01X5550000Y-990000D02*
G02X5532040I-8980J8980D01*
G01X5502160Y-960120D01*
G02X5485000Y-918690I41433J41430D01*
G01Y-780000D01*
G01X6160000Y-1020000D02*
X6181410Y-998590D01*
G02X6226290Y-980000I44880J-44880D01*
G01X6760000D01*
G03X6820000Y-920000I0J60000D01*
G01Y-901430D01*
G02X6849290Y-830710I100021J0D01*
G01X6870200Y-809800D01*
G03X6890000Y-762000I-47798J47800D01*
G01Y-730000D01*
G01X6180000Y-890000D02*
X6201410Y-911410D01*
G03X6246290Y-930000I44880J44880D01*
G01X6730000D01*
G03X6760000Y-900000I0J30000D01*
G01Y-893000D01*
G03X6736660Y-836660I-79669J0D01*
G01X6709800Y-809800D01*
G02X6690000Y-762000I47798J47800D01*
G01Y-730000D01*
G54D16*
X940000Y-890000D03*
Y-790000D03*
X1150000Y-630000D03*
Y-730000D03*
X1470000Y-2430000D03*
Y-2530000D03*
X1780000Y-2528000D03*
Y-2428000D03*
X1630000Y-2528000D03*
Y-2428000D03*
X1550000Y-1100000D03*
X1551000Y-710000D03*
Y-810000D03*
X1550000Y-1000000D03*
X1930000Y-2528000D03*
Y-2428000D03*
X2510000Y-2450000D03*
Y-2550000D03*
X2340000Y-2260000D03*
Y-2160000D03*
X2950000Y-2429000D03*
Y-2529000D03*
X3120000Y-2528000D03*
Y-2428000D03*
X3280000Y-2528000D03*
Y-2428000D03*
X3440000Y-2528000D03*
Y-2428000D03*
X3840000Y-2260000D03*
Y-2160000D03*
X4050000Y-2460000D03*
Y-2560000D03*
X4460000Y-2429000D03*
Y-2529000D03*
X4770000Y-2528000D03*
Y-2428000D03*
X4620000Y-2528000D03*
Y-2428000D03*
X4770000Y-1350000D03*
Y-1450000D03*
Y-1200000D03*
Y-1100000D03*
X4930000Y-2528000D03*
Y-2428000D03*
X5340000Y-2260000D03*
Y-2160000D03*
X5960000Y-2430000D03*
Y-2530000D03*
X6120000Y-2528000D03*
Y-2428000D03*
X6030000Y-1540000D03*
Y-1440000D03*
Y-1298000D03*
Y-1198000D03*
X6280000Y-2528000D03*
Y-2428000D03*
X6430000Y-2528000D03*
Y-2428000D03*
X6380000Y-1652000D03*
Y-1752000D03*
X6200000Y-1651500D03*
Y-1751500D03*
X6550000Y-1200000D03*
Y-1300000D03*
X6840000Y-2260000D03*
Y-2160000D03*
X6880000Y-1750000D03*
Y-1650000D03*
X7070000Y-1200000D03*
Y-1300000D03*
G54D34*
X4060000Y1250000D03*
X5110000Y1210000D03*
X5950000Y750000D03*
G54D25*
X1700000Y-1560000D03*
Y-1280000D03*
G54D44*
G01X643000Y-2606000D02*
X763200D01*
G01X643000Y-2731000D02*
X765700D01*
G01X643000Y-1236000D02*
X765700D01*
G01X643000Y-1361000D02*
X770000D01*
G01X1350000Y-1911000D02*
X1099000D01*
G03X999000Y-2011000I0J-100000D01*
G01Y-2339000D01*
G03X1070000Y-2410000I71000J0D01*
G01X1210000D01*
G01X1470000Y-2430000D02*
Y-2387000D01*
G03X1443830Y-2323830I-89326J0D01*
G01X1375430Y-2255430D01*
G02X1350000Y-2194040I61385J61390D01*
G01Y-2155100D01*
G03X1289700Y-2094800I-60300J0D01*
G01X1223400D01*
G01X1622000Y-3324000D02*
X1712060Y-3233940D01*
G02X1818140Y-3190000I106080J-106079D01*
G01X1960000D01*
G03X2010000Y-3140000I0J50000D01*
G01Y-2813570D01*
G03X1972120Y-2722120I-129329J0D01*
G01X1967880Y-2717880D01*
G02X1930000Y-2626430I91449J91450D01*
G01Y-2528000D01*
G01X1630000D02*
Y-2577060D01*
X1622000Y-2585060D01*
Y-3070000D01*
G01X1876000D02*
Y-2908140D01*
G03X1832060Y-2802060I-150019J0D01*
G01X1823940Y-2793940D01*
G02X1780000Y-2687860I106079J106080D01*
G01Y-2528000D01*
G01X1630000Y-2428000D02*
Y-2381000D01*
G02X1659000Y-2311000I98997J-6D01*
G01X1694730Y-2275270D01*
G03X1715830Y-2224330I-50940J50940D01*
G01Y-2188500D01*
G01X1494170Y-2188700D02*
Y-2144140D01*
G02X1558310Y-2080000I64140J0D01*
G01X1748930D01*
G02X1870000Y-2201070I0J-121070D01*
G01Y-2227100D01*
G03X1925300Y-2282400I55300J0D01*
G01X1986600D01*
G01X1450000Y-1911000D02*
X1588000D01*
G01X1833280Y-1953280D02*
X1856540Y-1930020D01*
G02X1902460Y-1911000I45920J-45922D01*
G01X2010000D01*
G01X2340000Y-2160000D02*
X2282000D01*
G03X2193230Y-2196770I0J-125539D01*
G01X2148260Y-2241740D01*
G02X2050100Y-2282400I-98160J98157D01*
G01X1986600D01*
G01X2110000Y-1911000D02*
X2260000D01*
G01X2510000Y-2450000D02*
Y-2092140D01*
G02X2553940Y-1986060I150019J0D01*
G01X2700000Y-1840000D01*
G01X2360000Y-1911000D02*
Y-1810000D01*
G01X2695000Y-952950D02*
Y-865000D01*
X2680000Y-850000D01*
G01X2460000Y-1010000D02*
X2530010D01*
X2545000Y-995010D01*
Y-952950D01*
G01X2355000Y-535000D02*
X2370690Y-550690D01*
G03X2398350Y-562150I27660J27650D01*
G01X2450000D01*
G01X2950000Y-2429000D02*
Y-2381500D01*
G03X2920650Y-2310650I-100190J0D01*
G01X2860110Y-2250110D01*
G02X2830000Y-2177420I72687J72690D01*
G01Y-2128840D01*
G03X2795960Y-2094800I-34040J0D01*
G01X2713400D01*
G01X3496600Y-2282400D02*
X3442320D01*
G02X3370000Y-2210080I0J72320D01*
G01Y-2198720D01*
G03X3241280Y-2070000I-128720J0D01*
G01X3040520D01*
G03X2984170Y-2126350I0J-56350D01*
G01Y-2188700D01*
G01X3040000Y-1911000D02*
X2990060D01*
X2989060Y-1910000D01*
X2940000D01*
G01X2790000Y-562150D02*
X2828110D01*
G03X2861810Y-548190I0J47657D01*
G01X2880000Y-530000D01*
G01X3122000Y-3324000D02*
X3202060Y-3243940D01*
G02X3308140Y-3200000I106080J-106079D01*
G01X3450000D01*
G03X3500000Y-3150000I0J50000D01*
G01Y-2779430D01*
G03X3472120Y-2712120I-95192J0D01*
G01X3467880Y-2707880D01*
G02X3440000Y-2640570I67312J67310D01*
G01Y-2528000D01*
G01X3120000D02*
Y-2998940D01*
X3122000Y-3000940D01*
Y-3070000D01*
G01X3376000D02*
Y-2878140D01*
G03X3332060Y-2772060I-150019J0D01*
G01X3323940Y-2763940D01*
G02X3280000Y-2657860I106079J106080D01*
G01Y-2528000D01*
G01X3120000Y-2428000D02*
Y-2386000D01*
G02X3145460Y-2324540I86912J0D01*
G01X3208260Y-2261740D01*
G03X3225830Y-2219330I-42399J42410D01*
G01Y-2188500D01*
G01X3840000Y-2160000D02*
X3787000D01*
G03X3706760Y-2193240I0J-113468D01*
G01X3658260Y-2241740D01*
G02X3560100Y-2282400I-98160J98157D01*
G01X3496600D01*
G01X3140000Y-1911000D02*
X3280000D01*
G01X3950000Y-2050000D02*
X3977120Y-2077120D01*
G02X4000000Y-2132360I-55244J-55240D01*
G01Y-2327640D01*
G03X4022880Y-2382880I78124J0D01*
G01X4034440Y-2394440D01*
G02X4050000Y-2432000I-37553J-37560D01*
G01Y-2460000D01*
G01X4460000Y-2429000D02*
Y-2386500D01*
G03X4434190Y-2324190I-88119J0D01*
G01X4344360Y-2234360D01*
G02X4330000Y-2199700I34649J34660D01*
G01Y-2173400D01*
G03X4251400Y-2094800I-78600J0D01*
G01X4213400D01*
G01X4930000Y-2528000D02*
Y-2636430D01*
G03X4967880Y-2727880I129329J0D01*
G01X4972120Y-2732120D01*
G02X5010000Y-2823570I-91449J-91450D01*
G01Y-3140000D01*
G02X4960000Y-3190000I-50000J0D01*
G01X4818140D01*
G03X4712060Y-3233940I0J-150019D01*
G01X4622000Y-3324000D01*
G01X4620000Y-2528000D02*
Y-2998940D01*
X4622000Y-3000940D01*
Y-3070000D01*
G01X4876000D02*
Y-2898140D01*
G03X4832060Y-2792060I-150019J0D01*
G01X4813940Y-2773940D01*
G02X4770000Y-2667860I106079J106080D01*
G01Y-2528000D01*
G01X4695830Y-2188500D02*
Y-2234330D01*
G02X4667660Y-2302340I-96182J0D01*
G01X4645460Y-2324540D01*
G03X4620000Y-2386000I61452J-61460D01*
G01Y-2428000D01*
G01X4484170Y-2188700D02*
Y-2178820D01*
G02X4602990Y-2060000I118820J0D01*
G01X4714110D01*
G02X4840000Y-2185890I0J-125890D01*
G01Y-2222100D01*
G03X4900300Y-2282400I60300J0D01*
G01X4966600D01*
G01X5340000Y-2160000D02*
X5272000D01*
G03X5166150Y-2203850I7J-149697D01*
G01X5128260Y-2241740D01*
G02X5030100Y-2282400I-98160J98157D01*
G01X4966600D01*
G01X5150000Y-1910000D02*
X5370000D01*
G02X5490000Y-2030000I0J-120000D01*
G01Y-2340000D01*
G03X5560000Y-2410000I70000J0D01*
G01X5680000D01*
G01X5585000Y-780000D02*
Y-665000D01*
X5570000Y-650000D01*
G01X5285000Y-780000D02*
Y-662700D01*
X5297700Y-650000D01*
X5300000D01*
G01X6430000Y-2528000D02*
Y-2626430D01*
G03X6467880Y-2717880I129329J0D01*
G01X6472120Y-2722120D01*
G02X6510000Y-2813570I-91449J-91450D01*
G01Y-3140000D01*
G02X6460000Y-3190000I-50000J0D01*
G01X6318140D01*
G03X6212060Y-3233940I0J-150019D01*
G01X6122000Y-3324000D01*
G01X6120000Y-2528000D02*
Y-2998940D01*
X6122000Y-3000940D01*
Y-3070000D01*
G01X5960000Y-2430000D02*
Y-2387000D01*
G03X5933830Y-2323830I-89326J0D01*
G01X5850110Y-2240110D01*
G02X5820000Y-2167420I72687J72690D01*
G01Y-2132840D01*
G03X5810100Y-2108940I-33799J0D01*
G01X5805860Y-2104700D01*
G03X5781960Y-2094800I-23900J-23899D01*
G01X5713400D01*
G01X6476600Y-2282400D02*
X6405300D01*
G02X6340000Y-2217100I0J65300D01*
G01Y-2168200D01*
G03X6231800Y-2060000I-108200J0D01*
G01X6045520D01*
G03X5984170Y-2121350I0J-61350D01*
G01Y-2188700D01*
G01X6100000Y-1910000D02*
X5930000D01*
G01X5730000D02*
X5830000D01*
G01X6376000Y-3070000D02*
Y-2898140D01*
G03X6332060Y-2792060I-150019J0D01*
G01X6323940Y-2783940D01*
G02X6280000Y-2677860I106079J106080D01*
G01Y-2528000D01*
G01X6120000Y-2428000D02*
Y-2386000D01*
G02X6145460Y-2324540I86912J0D01*
G01X6181190Y-2288810D01*
G03X6205830Y-2229330I-59471J59480D01*
G01Y-2188500D01*
G01X6200000Y-1910000D02*
X6280000D01*
X6300000Y-1930000D01*
G01X6840000Y-2160000D02*
X6782000D01*
G03X6693230Y-2196770I0J-125539D01*
G01X6651540Y-2238460D01*
G02X6545460Y-2282400I-106080J106079D01*
G01X6476600D01*
G01X7357000Y-2765000D02*
X7234300D01*
G01X7357000Y-2640000D02*
X7234300D01*
G01X7357000Y-1395000D02*
X7234300D01*
G01X7357000Y-1270000D02*
X7234300D01*
G54D26*
X2000000Y675000D03*
Y925000D03*
X3010000Y675000D03*
Y925000D03*
X4010000Y675000D03*
Y925000D03*
X5010000Y675000D03*
Y925000D03*
G54D17*
X840000Y-320000D03*
X1630000D03*
G54D35*
X4996000Y-1400000D03*
Y-1200000D03*
X5196000Y-1400000D03*
Y-1200000D03*
G54D45*
G01X5027500Y-730000D02*
Y-837300D01*
X5040200Y-850000D01*
X5095000D01*
G03X5140000Y-805000I0J45000D01*
G01Y-780000D01*
G01X5125000Y-585000D02*
X5220000Y-680000D01*
Y-780000D01*
G01X5780000D02*
Y-805000D01*
G03X5825000Y-850000I45000J0D01*
G01X5855710D01*
G03X5897180Y-832820I0J58641D01*
G01X5897190D01*
G03X5897180Y-734680I-49075J49065D01*
G01X5892500Y-730000D01*
G01X5700000Y-780000D02*
Y-687300D01*
G01X6700000Y-1910000D02*
X6870000D01*
G01X6660000Y-1640000D02*
Y-1713430D01*
G02X6648280Y-1741720I-40004J0D01*
G01X6627180Y-1762820D01*
G03X6600000Y-1828430I65598J-65610D01*
G01Y-1910000D01*
G01X6990000D02*
X7080000D01*
G54D27*
X2340000Y-2410000D03*
Y-2550000D03*
X3840000Y-2410000D03*
Y-2550000D03*
X5340000Y-2410000D03*
Y-2550000D03*
X6840000Y-2410000D03*
Y-2550000D03*
G54D18*
X1368000Y-3324000D03*
Y-3070000D03*
X1622000Y-3324000D03*
Y-3070000D03*
X1876000Y-3324000D03*
X2130000D03*
X1876000Y-3070000D03*
X2130000D03*
X2868000Y-3324000D03*
X3122000D03*
X2868000Y-3070000D03*
X3122000D03*
X3376000Y-3324000D03*
Y-3070000D03*
X3630000Y-3324000D03*
Y-3070000D03*
X4368000Y-3324000D03*
Y-3070000D03*
X4622000Y-3324000D03*
Y-3070000D03*
X4876000Y-3324000D03*
X5130000D03*
X4876000Y-3070000D03*
X5130000D03*
X5868000Y-3324000D03*
X6122000D03*
X5868000Y-3070000D03*
X6122000D03*
X6376000Y-3324000D03*
Y-3070000D03*
X6630000Y-3324000D03*
Y-3070000D03*
G54D36*
X5027500Y-730000D03*
Y-310000D03*
X5892500Y-730000D03*
Y-310000D03*
G54D46*
G01X5196000Y-1400000D02*
Y-1390000D01*
G03X5106000Y-1300000I-90000J0D01*
G01X4953160D01*
G03X4896550Y-1323450I0J-80055D01*
G01X4893450Y-1326550D01*
G02X4836840Y-1350000I-56610J56605D01*
G01X4770000D01*
G01X4450000Y-1115000D02*
X4530400D01*
G02X4570000Y-1154600I0J-39600D01*
G01Y-1252200D01*
G03X4667800Y-1350000I97800J0D01*
G01X4770000D01*
G01X4450000Y-1065000D02*
X4583320D01*
G02X4640000Y-1121680I0J-56680D01*
G01Y-1200000D01*
G03X4670000Y-1230000I30000J0D01*
G01X4720980D01*
G03X4753450Y-1216550I0J45918D01*
G01X4770000Y-1200000D01*
G01X4450000Y-565000D02*
X4525380D01*
G02X4575950Y-585950I0J-71509D01*
G01X4579050Y-589050D01*
G03X4629620Y-610000I50570J50559D01*
G01X4680000D01*
G01X4680500Y-470000D02*
X4629620D01*
G03X4579050Y-490950I0J-71509D01*
G01X4575950Y-494050D01*
G02X4525380Y-515000I-50570J50559D01*
G01X4450000D01*
G54D28*
X2545000Y-952950D03*
Y-521450D03*
X2695000Y-952950D03*
Y-521450D03*
G54D19*
X1310000Y-2550000D03*
X1210000D03*
X1310000Y-2410000D03*
X1210000D03*
X1350000Y-1911000D03*
X1390000Y-1370000D03*
X1290000Y-720000D03*
X1390000D03*
X1450000Y-1911000D03*
X1490000Y-1370000D03*
X2180000Y-2550000D03*
X2080000D03*
X2180000Y-2410000D03*
X2080000D03*
X2260000Y-1911000D03*
X2110000D03*
X2010000D03*
X2669500Y-2550000D03*
X2670000Y-2410000D03*
X2360000Y-1911000D03*
X2769500Y-2550000D03*
X2770000Y-2410000D03*
X3040000Y-1911000D03*
X3380000D03*
X3280000D03*
X3140000D03*
X3680000Y-2550000D03*
X3580000D03*
X3680000Y-2410000D03*
X3580000D03*
X3950000Y-1700000D03*
X4300000Y-2550000D03*
X4200000D03*
X4300000Y-2410000D03*
X4200000D03*
X4260000Y-1910000D03*
X4360000D03*
X4050000Y-1700000D03*
X4510000Y-1910000D03*
X4610000D03*
X4680000Y-610000D03*
X4780000D03*
X4680500Y-470000D03*
X4780500D03*
X4779000Y-330000D03*
X4679000D03*
X5180000Y-2550000D03*
X5080000D03*
X5180000Y-2410000D03*
X5080000D03*
X5050000Y-1910000D03*
X5150000D03*
X5679500Y-2550000D03*
X5680000Y-2410000D03*
X5779500Y-2550000D03*
X5780000Y-2410000D03*
X5830000Y-1910000D03*
X5930000D03*
X6100000D03*
X5870000Y-1600000D03*
X5770000D03*
X6200000Y-1910000D03*
X6680000Y-2550000D03*
X6580000D03*
X6680000Y-2410000D03*
X6580000D03*
X6870000Y-1910000D03*
X6990000D03*
X6700000D03*
X6600000D03*
G54D37*
X5140000Y-780000D03*
X5220000D03*
X5700000D03*
X5780000D03*
G54D47*
G01X940000Y-1200000D02*
Y-1290940D01*
X939500Y-1291440D01*
Y-1340500D01*
G01D02*
Y-1409500D01*
X970000Y-1440000D01*
X1169060D01*
X1190000Y-1460940D01*
Y-1560000D01*
G01X1180000Y-910000D02*
X1100000D01*
X1070000Y-880000D01*
Y-850000D01*
X1010000Y-790000D01*
X940000D01*
G01Y-890000D02*
Y-1040000D01*
G01X1310000Y-2410000D02*
X1390940D01*
X1410940Y-2430000D01*
X1470000D01*
G01X1310000Y-2550000D02*
X1390940D01*
X1410940Y-2530000D01*
X1470000D01*
G01X1210000Y-2550000D02*
Y-2410000D01*
G01X1223400Y-2286300D02*
X1117200D01*
G01X1180000Y-1175000D02*
Y-1072300D01*
G01X1150000Y-730000D02*
X1230940D01*
X1240940Y-720000D01*
X1290000D01*
G01X1370000Y-910000D02*
Y-799060D01*
X1390000Y-779060D01*
Y-720000D01*
G01X1551000Y-710000D02*
X1480940D01*
X1470940Y-720000D01*
X1390000D01*
G01D02*
Y-650000D01*
G03X1340000Y-600000I-50000J0D01*
G01X1198220D01*
G03X1167120Y-612880I0J-43987D01*
G01X1150000Y-630000D01*
G01X1780000Y-2428000D02*
X1930000D01*
G01X1551000Y-810000D02*
Y-890000D01*
G01X1930000Y-2428000D02*
X2012940D01*
X2030940Y-2410000D01*
X2080000D01*
G01Y-2550000D02*
Y-2410000D01*
G01Y-2550000D02*
Y-2632700D01*
G01X2180000Y-2550000D02*
Y-2410000D01*
G01D02*
X2340000D01*
G01X1986600Y-2090900D02*
X2030000Y-2134300D01*
Y-2159100D01*
G01X2340000Y-2327300D02*
Y-2410000D01*
G01Y-2550000D02*
Y-2610000D01*
X2370000Y-2640000D01*
G01X2670000Y-2410000D02*
Y-2490440D01*
X2669500Y-2490940D01*
Y-2550000D01*
G01X2510000D02*
X2669500D01*
G01X2340000Y-2260000D02*
Y-2327300D01*
G01X2713400Y-2286300D02*
X2607200D01*
G01X2769500Y-2550000D02*
X2869940D01*
X2890940Y-2529000D01*
X2950000D01*
G01X2770000Y-2410000D02*
X2871940D01*
X2890940Y-2429000D01*
X2950000D01*
G01X3280000Y-2428000D02*
X3440000D01*
G01D02*
X3512940D01*
X3530940Y-2410000D01*
X3580000D01*
G01X3496600Y-2090900D02*
X3530000Y-2124300D01*
Y-2159100D01*
G01X3580000Y-2550000D02*
Y-2410000D01*
G01Y-2550000D02*
Y-2632700D01*
G01X3680000Y-2410000D02*
Y-2550000D01*
G01Y-2410000D02*
X3840000D01*
G01Y-2330000D02*
Y-2410000D01*
G01Y-2550000D02*
Y-2610000D01*
X3870000Y-2640000D01*
G01X3840000Y-2260000D02*
Y-2330000D01*
G01X3762700Y-1605000D02*
X3690000Y-1677700D01*
G03Y-1750000I36150J-36150D01*
G01X3770000Y-1830000D01*
G03X4020000I125000J125000D01*
G01X4023530Y-1826470D01*
G03X4050000Y-1762570I-63894J63900D01*
G01Y-1700000D01*
G01X3950000D02*
X3837300D01*
G01X4300000Y-2550000D02*
X4379940D01*
X4400940Y-2529000D01*
X4460000D01*
G01Y-2429000D02*
X4368060D01*
X4349060Y-2410000D01*
X4300000D01*
G01X4200000D02*
Y-2550000D01*
G01X4050000Y-2560000D02*
X4140940D01*
X4150940Y-2550000D01*
X4200000D01*
G01X4213400Y-2286300D02*
X4107200D01*
G01X4930000Y-2428000D02*
X4770000D01*
G01Y-1100000D02*
Y-1030000D01*
G01X4780000Y-610000D02*
X4870000D01*
G01X4780500Y-470000D02*
X4870000D01*
G01X4680500D02*
Y-390560D01*
X4679000Y-389060D01*
Y-330000D01*
G01X4779000D02*
Y-230000D01*
G01X5180000Y-2410000D02*
X5340000D01*
G01X5180000Y-2550000D02*
Y-2410000D01*
G01X4930000Y-2428000D02*
X5012940D01*
X5030940Y-2410000D01*
X5080000D01*
G01Y-2550000D02*
Y-2410000D01*
G01Y-2550000D02*
Y-2632700D01*
G01X4966600Y-2090900D02*
X5072800D01*
G01X5340000Y-2330000D02*
Y-2410000D01*
G01Y-2550000D02*
Y-2610000D01*
X5370000Y-2640000D01*
G01X5679500Y-2550000D02*
Y-2469560D01*
X5680000Y-2469060D01*
Y-2410000D01*
G01X5340000Y-2260000D02*
Y-2330000D01*
G01X5713400Y-2286300D02*
X5607200D01*
G01X5430000Y-1190000D02*
X5650000D01*
G01D02*
X5760940D01*
X5770940Y-1200000D01*
X5860000D01*
G01X5650000Y-1190000D02*
Y-1070000D01*
G01X5460000D02*
X5430000Y-1100000D01*
Y-1190000D01*
G01X5779500Y-2550000D02*
X5880940D01*
X5900940Y-2530000D01*
X5960000D01*
G01X5780000Y-2410000D02*
X5880940D01*
X5900940Y-2430000D01*
X5960000D01*
G01X6030000Y-1540000D02*
Y-1630000D01*
G01D02*
X5950000D01*
X5920000Y-1600000D01*
X5870000D01*
G01Y-1760000D02*
X5800000D01*
X5770000Y-1730000D01*
Y-1600000D01*
G01X6030000Y-1198000D02*
Y-1110000D01*
G01Y-1440000D02*
Y-1360000D01*
G01X5860000Y-1400000D02*
X5930000D01*
X5960000Y-1430000D01*
G01D02*
X5970000Y-1440000D01*
X6030000D01*
G01Y-1360000D02*
Y-1298000D01*
G01X6195000Y-1332500D02*
X6142200D01*
X6107700Y-1298000D01*
X6030000D01*
G01X6430000Y-2428000D02*
X6512940D01*
X6530940Y-2410000D01*
X6580000D01*
G01X6280000Y-2428000D02*
X6430000D01*
G01X6476600Y-2090900D02*
X6520000Y-2134300D01*
Y-2159100D01*
G01X6380000Y-1752000D02*
X6478000D01*
G01X6385000Y-1470000D02*
Y-1597940D01*
X6380000Y-1602940D01*
Y-1652000D01*
G01X6200000Y-1651500D02*
X6320440D01*
X6320940Y-1652000D01*
X6380000D01*
G01X6550000Y-1300000D02*
Y-1390000D01*
G01X6290000Y-1210000D02*
Y-1100000D01*
G01X6385000Y-1210000D02*
X6480940D01*
X6490940Y-1200000D01*
X6550000D01*
G01D02*
X6660940D01*
X6670940Y-1210000D01*
X6715000D01*
G01X6195000D02*
Y-1332500D01*
G01X6385000Y-1210000D02*
Y-1261020D01*
G02X6366130Y-1306570I-64411J0D01*
G01X6359070Y-1313630D01*
G02X6313520Y-1332500I-45550J45541D01*
G01X6195000D01*
G01X6680000Y-2410000D02*
Y-2550000D01*
G01Y-2410000D02*
X6840000D01*
G01D02*
Y-2327300D01*
G01Y-2550000D02*
Y-2610000D01*
X6870000Y-2640000D01*
G01X6580000Y-2550000D02*
Y-2410000D01*
G01Y-2550000D02*
Y-2640000D01*
G01X6840000Y-2327300D02*
Y-2260000D01*
G01X6880000Y-1750000D02*
X6780000D01*
G01X6880000Y-1600940D02*
Y-1650000D01*
G01X6905000Y-1470000D02*
Y-1575940D01*
X6880000Y-1600940D01*
G01X6810000Y-1210000D02*
Y-1100000D01*
G01X6905000Y-1210000D02*
X7000940D01*
X7010940Y-1200000D01*
X7070000D01*
G01X6715000Y-1210000D02*
Y-1294280D01*
G03X6765000Y-1344280I50000J0D01*
G01X6848420D01*
G03X6905000Y-1287700I0J56580D01*
G01Y-1210000D01*
G01X7070000Y-1300000D02*
Y-1400000D01*
G54D29*
X2450000Y-912150D03*
Y-862150D03*
Y-812150D03*
Y-762150D03*
Y-712150D03*
Y-662150D03*
Y-612150D03*
Y-562150D03*
X2790000Y-912150D03*
Y-862150D03*
Y-812150D03*
Y-762150D03*
Y-712150D03*
Y-662150D03*
Y-612150D03*
Y-562150D03*
G54D38*
X5650000Y-1410000D03*
Y-1190000D03*
X5430000Y-1410000D03*
Y-1190000D03*
X5860000Y-1400000D03*
Y-1200000D03*
G54D48*
G01X3430000Y-1060000D02*
X3463780Y-1093780D01*
G03X3515000Y-1115000I51220J51206D01*
G01X3550000D01*
G01X3530000Y-1260000D02*
X3573990Y-1303990D01*
G03X3616010I21010J21010D01*
G01X3625000Y-1295000D01*
Y-1240000D01*
G01X3550000Y-515000D02*
X3465000D01*
X3464700Y-515300D01*
X3454700D01*
X3420000Y-550000D01*
G01X3800000Y-1130000D02*
X3760000D01*
G03X3725000Y-1165000I0J-35000D01*
G01Y-1240000D01*
G01X3675000D02*
Y-1107250D01*
G02X3690740Y-1069260I53716J0D01*
G01X3710000Y-1050000D01*
G01X3550000Y-865000D02*
X3670000D01*
G01X3550000Y-615000D02*
X3680000D01*
G01X3720000Y-460000D02*
X3695740Y-435740D01*
G02X3675000Y-385680I50058J50065D01*
G01Y-340000D01*
G01X4360000Y-1910000D02*
X4510000D01*
G01X4260000Y-1780000D02*
Y-1910000D01*
G01X4470000Y-1260000D02*
X4440000Y-1290000D01*
G02X4390000I-25000J25000D01*
G01X4385610Y-1285610D01*
G02X4375000Y-1260000I25603J25610D01*
G01Y-1240000D01*
G01X3975000D02*
Y-1140000D01*
G01X4315940Y-890000D02*
X4371820Y-945880D01*
G03X4417970Y-965000I46150J46136D01*
G01X4450000D01*
G01Y-765000D02*
X4374060D01*
X4359060Y-780000D01*
X4310000D01*
G01X4450000Y-1015000D02*
X4330000D01*
G01X3975000Y-340000D02*
Y-455000D01*
G01X4450000Y-465000D02*
X4325000D01*
G01X4450000Y-615000D02*
X4377250D01*
G02X4339260Y-599260I0J53716D01*
G01X4320000Y-580000D01*
G01X4225000Y-340000D02*
Y-385680D01*
G02X4204260Y-435740I-70798J5D01*
G01X4180000Y-460000D01*
G01X4610000Y-1910000D02*
X4700000D01*
G01X4780000Y-610000D02*
Y-680000D01*
G02X4745000Y-715000I-35000J0D01*
G01X4560000D01*
G01D02*
X4450000D01*
G01Y-665000D02*
X4525000D01*
G02X4560000Y-700000I0J-35000D01*
G01Y-715000D01*
G01X4450000Y-915000D02*
X4525000D01*
X4570000Y-960000D01*
G54D39*
X5285000Y-780000D03*
X5335000D03*
X5385000D03*
X5435000D03*
X5485000D03*
X5535000D03*
X5585000D03*
X5635000D03*
G54D49*
G01X6490000Y-730000D02*
Y-587300D01*
G01X6290000Y-730000D02*
Y-587300D01*
G01X6490000Y-230000D02*
Y-372700D01*
G01D02*
Y-480000D01*
G01D02*
Y-587300D01*
G01X6290000Y-230000D02*
Y-372700D01*
G01D02*
Y-480000D01*
G01D02*
Y-587300D01*
G01X7090000D02*
Y-730000D01*
G01Y-372700D02*
Y-230000D01*
G01Y-587300D02*
Y-480000D01*
G01D02*
Y-372700D01*
M02*
