G04 ================== begin FILE IDENTIFICATION RECORD ==================*
G04 Layout Name:  OpticalInOut-Jun-3.brd*
G04 Film Name:    GND*
G04 File Format:  Gerber RS274X*
G04 File Origin:  Cadence Allegro 25.1-S020*
G04 Origin Date:  Fri Jun  5 08:44:30 2026*
G04 *
G04 Layer:  VIA CLASS/GND*
G04 Layer:  PIN/GND*
G04 Layer:  ETCH/GND*
G04 Layer:  BOARD GEOMETRY/OUTLINE*
G04 Layer:  BOARD GEOMETRY/DESIGN_OUTLINE*
G04 *
G04 Offset:    (0.0000 0.0000)*
G04 Mirror:    No*
G04 Mode:      Positive*
G04 Rotation:  0*
G04 FullContactRelief:  No*
G04 UndefLineWidth:     0.2540*
G04 ================== end FILE IDENTIFICATION RECORD ====================*
%FSLAX25Y25*MOMM*%
%IR0*IPPOS*OFA0.00000B0.00000*MIA0B0*SFA1.00000B1.00000*%
%ADD11C,.6*%
%ADD19C,.55*%
%ADD18O,1.1X2.*%
%ADD20O,1.6X2.4*%
%ADD13C,1.*%
%ADD16C,2.*%
%ADD17C,1.2*%
%ADD12C,3.*%
%ADD15C,1.4*%
%ADD10C,3.4*%
%ADD14C,1.8*%
%ADD21C,.1*%
%ADD22C,.427*%
%ADD29C,2.2004*%
%ADD25C,1.4004*%
%ADD28C,4.2004*%
%ADD26C,1.3504*%
%ADD24C,1.8004*%
%ADD30C,2.8004*%
%ADD27C,3.2544*%
%ADD23O,1.8544X2.6544*%
G75*
%LPD*%
G75*
G36*
G01X1890000Y-110010D02*
X7572960D01*
G02X7578820Y-128470I-2J-10161D01*
G03X7489980Y-300000I121173J-171530D01*
G03X7700000Y-510020I210020J0D01*
G03X7871530Y-421180I0J210013D01*
G02X7889990Y-427040I8299J-5862D01*
G01Y-3572960D01*
G02X7871530Y-3578820I-10161J2D01*
G03X7700000Y-3489980I-171530J-121173D01*
G03X7489980Y-3700000I0J-210020D01*
G03X7578820Y-3871530I210013J0D01*
G02X7572960Y-3889990I-5862J-8299D01*
G01X6245230D01*
G02X6236880Y-3874040I-2J10160D01*
G03X6260020Y-3800000I-106881J74040D01*
G03X5999980I-130020J0D01*
G03X6023120Y-3874040I130021J0D01*
G02X6014770Y-3889990I-8348J-5790D01*
G01X4735230D01*
G02X4726880Y-3874040I-2J10160D01*
G03X4750020Y-3800000I-106881J74040D01*
G03X4489980I-130020J0D01*
G03X4513120Y-3874040I130021J0D01*
G02X4504770Y-3889990I-8348J-5790D01*
G01X3235230D01*
G02X3226880Y-3874040I-2J10160D01*
G03X3250020Y-3800000I-106881J74040D01*
G03X2989980I-130020J0D01*
G03X3013120Y-3874040I130021J0D01*
G02X3004770Y-3889990I-8348J-5790D01*
G01X1735230D01*
G02X1726880Y-3874040I-2J10160D01*
G03X1750020Y-3800000I-106881J74040D01*
G03X1489980I-130020J0D01*
G03X1513120Y-3874040I130021J0D01*
G02X1504770Y-3889990I-8348J-5790D01*
G01X427040D01*
G02X421180Y-3871530I2J10161D01*
G03X510020Y-3700000I-121173J171530D01*
G03X300000Y-3489980I-210020J0D01*
G03X128470Y-3578820I0J-210013D01*
G02X110010Y-3572960I-8299J5862D01*
G01Y-427040D01*
G02X128470Y-421180I10161J-2D01*
G03X300000Y-510020I171530J121173D01*
G03X510020Y-300000I0J210020D01*
G03X421180Y-128470I-210013J0D01*
G02X427040Y-110010I5862J8299D01*
G01X1360000D01*
Y-590000D01*
X1890000D01*
Y-110010D01*
G37*
G36*
G01X7890000Y1490000D02*
Y110000D01*
X110000D01*
Y1490000D01*
X7890000D01*
G37*
%LPC*%
G75*
G36*
G01X7190440Y-2710420D02*
G03Y-2694580I-6365J7920D01*
G02X7164280Y-2640000I43858J54580D01*
G02X7304320I70020J0D01*
G02X7278160Y-2694580I-70018J0D01*
G03Y-2710420I6365J-7920D01*
G02X7304320Y-2765000I-43858J-54580D01*
G02X7164280I-70020J0D01*
G02X7190440Y-2710420I70018J0D01*
G37*
G36*
G01X720770Y-2677300D02*
G03X720450Y-2661460I-6519J7792D01*
G02X693180Y-2606000I42761J55460D01*
G02X833220I70020J0D01*
G02X808130Y-2659700I-70012J0D01*
G03X808450Y-2675540I6519J-7792D01*
G02X835720Y-2731000I-42761J-55460D01*
G02X695680I-70020J0D01*
G02X720770Y-2677300I70012J0D01*
G37*
G36*
G01X5916620Y-1707750D02*
G03X5923380I3380J3786D01*
G02X5970000Y-1689980I46614J-52252D01*
G02X6016620Y-1707750I6J-70022D01*
G03X6023380I3380J3786D01*
G02X6070000Y-1689980I46614J-52252D01*
G02Y-1830020I0J-70020D01*
G02X6023380Y-1812250I-6J70022D01*
G03X6016620I-3380J-3786D01*
G02X5970000Y-1830020I-46614J52252D01*
G02X5923380Y-1812250I-6J70022D01*
G03X5916620I-3380J-3786D01*
G02X5870000Y-1830020I-46614J52252D01*
G02Y-1689980I0J70020D01*
G02X5916620Y-1707750I6J-70022D01*
G37*
G36*
G01X944920Y-1760680D02*
G03X928480I-8220J-5967D01*
G02X863700Y-1793720I-64780J46986D01*
G02Y-1633680I0J80020D01*
G02X928480Y-1666720I0J-80026D01*
G03X944920I8220J5967D01*
G02X1009700Y-1633680I64780J-46986D01*
G02Y-1793720I0J-80020D01*
G02X944920Y-1760680I0J80026D01*
G37*
G36*
G01X6615000Y-1693650D02*
G02X6570000Y-1710020I-44995J53652D01*
G02Y-1569980I0J70020D01*
G02X6615000Y-1586350I5J-70022D01*
G02X6660000Y-1569980I44995J-53652D01*
G02X6706620Y-1587750I6J-70022D01*
G03X6713380I3380J3786D01*
G02X6760000Y-1569980I46614J-52252D01*
G02Y-1710020I0J-70020D01*
G02X6713380Y-1692250I-6J70022D01*
G03X6706620I-3380J-3786D01*
G02X6660000Y-1710020I-46614J52252D01*
G02X6615000Y-1693650I-5J70022D01*
G37*
G36*
G01X5950540Y-1350540D02*
G02X6030000Y-1279980I79460J-9461D01*
G02X6110020Y-1360000I0J-80020D01*
G02X6039460Y-1439460I-80021J0D01*
G02X5960000Y-1510020I-79460J9461D01*
G02X5879980Y-1430000I0J80020D01*
G02X5950540Y-1350540I80021J0D01*
G37*
G36*
G01X7190440Y-1340420D02*
G03Y-1324580I-6365J7920D01*
G02X7164280Y-1270000I43858J54580D01*
G02X7304320I70020J0D01*
G02X7278160Y-1324580I-70018J0D01*
G03Y-1340420I6365J-7920D01*
G02X7304320Y-1395000I-43858J-54580D01*
G02X7164280I-70020J0D01*
G02X7190440Y-1340420I70018J0D01*
G37*
G36*
G01X4409450Y-1320780D02*
G03X4415780Y-1304310I-1537J10042D01*
G02X4399980Y-1260000I54232J44310D01*
G02X4540020I70020J0D01*
G02X4480550Y-1329220I-70019J0D01*
G03X4474220Y-1345690I1537J-10042D01*
G02X4490020Y-1390000I-54232J-44310D01*
G02X4349980I-70020J0D01*
G02X4409450Y-1320780I70019J0D01*
G37*
G36*
G01X724330Y-1307930D02*
G03X723780Y-1292090I-6629J7699D01*
G02X695680Y-1236000I41930J56090D01*
G02X835720I70020J0D01*
G02X811370Y-1289070I-70007J0D01*
G03X811920Y-1304910I6629J-7699D01*
G02X840020Y-1361000I-41930J-56090D01*
G02X699980I-70020J0D01*
G02X724330Y-1307930I70007J0D01*
G37*
G36*
G01X5479980Y-990370D02*
Y-990000D01*
G02X5516140Y-928710I70022J0D01*
G02X5509980Y-900000I63858J28717D01*
G02X5650020I70020J0D01*
G02X5613860Y-961290I-70022J0D01*
G02X5620020Y-990000I-63858J-28717D01*
G02X5619990Y-992020I-70020J30D01*
G03X5632660Y-1002160I10155J-296D01*
G02X5650000Y-999980I17336J-67841D01*
G02X5579980Y-1070000I0J-70020D01*
G02X5580010Y-1067980I70020J-30D01*
G03X5567340Y-1057840I-10155J296D01*
G02X5550000Y-1060020I-17336J67841D01*
G02X5541420Y-1059490I19J70019D01*
G03X5530020Y-1069630I-1240J-10084D01*
G01Y-1070000D01*
G02X5460000Y-999980I-70020J0D01*
G02X5468580Y-1000510I-19J-70019D01*
G03X5479980Y-990370I1240J10084D01*
G37*
G36*
G01X6129140Y-957150D02*
G03X6131680Y-940670I-4472J9125D01*
G02X6109980Y-890000I48308J50670D01*
G02X6250020I70020J0D01*
G02X6210860Y-952850I-70016J0D01*
G03X6208320Y-969330I4472J-9125D01*
G02X6230020Y-1020000I-48308J-50670D01*
G02X6089980I-70020J0D01*
G02X6129140Y-957150I70016J0D01*
G37*
G36*
G01X7037960Y-433150D02*
G03Y-419550I-7546J6800D01*
G02X7019980Y-372700I52048J46850D01*
G02X7160020I70020J0D01*
G02X7142040Y-419550I-70028J0D01*
G03Y-433150I7546J-6800D01*
G02Y-526850I-52048J-46850D01*
G03Y-540450I7546J-6800D01*
G02X7160020Y-587300I-52048J-46850D01*
G02X7019980I-70020J0D01*
G02X7037960Y-540450I70028J0D01*
G03Y-526850I-7546J6800D01*
G02Y-433150I52048J46850D01*
G37*
G36*
G01X4193310Y-1379900D02*
G02X4130000Y-1420020I-63310J29892D01*
G02Y-1279980I0J70020D01*
G02X4193310Y-1320100I0J-70012D01*
G03X4211690I9190J4342D01*
G02X4275000Y-1279980I63310J-29892D01*
G02Y-1420020I0J-70020D01*
G02X4211690Y-1379900I0J70012D01*
G03X4193310I-9190J-4342D01*
G37*
G36*
G01X5058450Y-624770D02*
G03X5073040Y-617780I4639J9038D01*
G02X5171000Y-537980I97960J-20226D01*
G02X5257520Y-587820I0J-100017D01*
G03X5264490Y-589650I4394J2548D01*
G02X5300000Y-579980I35506J-60351D01*
G02Y-720020I0J-70020D01*
G02X5253970Y-702760I0J70008D01*
G03X5246780Y-703280I-3337J-3831D01*
G02X5171000Y-738020I-75780J65281D01*
G02X5111430Y-718350I-5J100022D01*
G03X5095220Y-726510I-6051J-8159D01*
G01Y-775000D01*
G02X4959780I-67720J0D01*
G01Y-742660D01*
X4950120D01*
X4949650Y-747210D01*
G02X4880000Y-810020I-69650J7212D01*
G02Y-669980I0J70020D01*
G02X4940800Y-705270I0J-70020D01*
G03X4959780Y-700230I8820J5042D01*
G01Y-685000D01*
G02X5027500Y-617280I67720J0D01*
G02X5058450Y-624770I-7J-67718D01*
G37*
G36*
G01X5636120Y-673030D02*
G02X5570000Y-720020I-66120J23024D01*
G02Y-579980I0J70020D01*
G02X5632460Y-618350I0J-70022D01*
G03X5651430Y-615990I9060J4595D01*
G02X5749000Y-537980I97570J-22012D01*
G02X5846960Y-617780I0J-100026D01*
G03X5861550Y-624770I9951J2048D01*
G02X5892500Y-617280I30957J-60228D01*
G02X5960220Y-685000I0J-67720D01*
G01Y-775000D01*
G02X5824780I-67720J0D01*
G01Y-726510D01*
G03X5808570Y-718350I-10159J1D01*
G02X5749000Y-738020I-59565J80352D01*
G02X5655240Y-672830I0J100021D01*
G03X5636120Y-673030I-9524J-3541D01*
G37*
G54D29*
X2000000Y675000D03*
X3010000D03*
X4010000D03*
X5010000D03*
X2000000Y925000D03*
X3010000D03*
X4010000D03*
X5010000D03*
G54D25*
X7479700Y-2890000D03*
X520300Y-2481000D03*
X2080000Y-2632700D03*
X3580000D03*
X5080000D03*
X6580000Y-2640000D03*
X1588000Y-1911000D03*
X1790000Y-2320000D03*
X1540000Y-2300000D03*
X1833280Y-1953280D03*
X2340000Y-2327300D03*
X3040000Y-2290000D03*
X3290000Y-2320000D03*
X3950000Y-2050000D03*
X3840000Y-2330000D03*
X4770000Y-2320000D03*
X4540000Y-2300000D03*
X5340000Y-2330000D03*
X6040000Y-2310000D03*
X6280000Y-2320000D03*
X6300000Y-1930000D03*
X6840000Y-2327300D03*
X2360000Y-1810000D03*
X2700000Y-1840000D03*
X2940000Y-1910000D03*
X3380000Y-1810000D03*
X3837300Y-1700000D03*
X4260000Y-1780000D03*
X4700000Y-1910000D03*
X4960000D03*
X5730000D03*
X7479700Y-1520000D03*
X520300Y-1111000D03*
X3530000Y-1260000D03*
X3975000Y-1140000D03*
X2460000Y-1010000D03*
X3710000Y-1050000D03*
X3670000Y-865000D03*
X4310000Y-780000D03*
X4330000Y-1015000D03*
X4570000Y-960000D03*
X2020000Y-450000D03*
X2355000Y-535000D03*
X2880000Y-530000D03*
X3680000Y-615000D03*
X3720000Y-460000D03*
X4180000D03*
X4320000Y-580000D03*
X4779000Y-230000D03*
G54D28*
X1300000Y800000D03*
X6600000D03*
G54D26*
X5220000Y-870000D03*
G54D24*
X1368000Y-3324000D03*
X1622000D03*
X1876000D03*
X2130000D03*
X2868000D03*
X3122000D03*
X3376000D03*
X3630000D03*
X4368000D03*
X4622000D03*
X4876000D03*
X5130000D03*
X5868000D03*
X6122000D03*
X6376000D03*
X6630000D03*
X1368000Y-3070000D03*
X1622000D03*
X1876000D03*
X2130000D03*
X2868000D03*
X3122000D03*
X3376000D03*
X3630000D03*
X4368000D03*
X4622000D03*
X4876000D03*
X5130000D03*
X5868000D03*
X6122000D03*
X6376000D03*
X6630000D03*
G54D30*
X5950000Y750000D03*
X4060000Y1250000D03*
X5110000Y1210000D03*
G54D27*
X840000Y-320000D03*
G54D23*
X5892500Y-310000D03*
X5027500D03*
%LPD*%
G75*
G54D10*
X300000Y-3700000D03*
Y-300000D03*
X1300000Y800000D03*
X6600000D03*
X7700000Y-3700000D03*
Y-300000D03*
G54D20*
X5027500Y-310000D03*
X5892500D03*
G54D11*
X293000Y-2988300D03*
X520300Y-2856000D03*
X293000Y-2373700D03*
X520300Y-2481000D03*
X293000Y-1618300D03*
X520300Y-1486000D03*
Y-1111000D03*
X293000Y-1003700D03*
X763200Y-2606000D03*
X765700Y-2731000D03*
X863700Y-1713700D03*
X765700Y-1236000D03*
X770000Y-1361000D03*
X1320000Y-3710000D03*
X1220000Y-2750000D03*
X1117200Y-2286300D03*
X1009700Y-1713700D03*
X1180000Y-1072300D03*
X1770000Y-3430000D03*
X1470000D03*
Y-2940000D03*
X1770000D03*
X1540000Y-2300000D03*
X1790000Y-2320000D03*
X1588000Y-1911000D03*
X1583000Y-1525000D03*
X1584000Y-1606000D03*
X1500000Y-1445000D03*
X1551000Y-890000D03*
X2070000Y-3710000D03*
X1920000D03*
X2080000Y-2632700D03*
X2190000Y-2750000D03*
X1833280Y-1953280D03*
X2030000Y-2159100D03*
X2020000Y-450000D03*
X2370000Y-2640000D03*
X2340000Y-2327300D03*
X2607200Y-2286300D03*
X2360000Y-1810000D03*
X2620000Y-737150D03*
X2560000Y-630000D03*
X2680000D03*
X2560000Y-850000D03*
X2680000D03*
X2460000Y-1010000D03*
X2620000Y-360000D03*
X2355000Y-535000D03*
X2830000Y-3710000D03*
X2970000Y-3430000D03*
Y-2940000D03*
X2720000Y-2750000D03*
X3040000Y-2290000D03*
X2940000Y-1910000D03*
X2700000Y-1840000D03*
X2880000Y-530000D03*
X2740000Y1000000D03*
X3420000Y-3710000D03*
X3270000Y-3430000D03*
Y-2940000D03*
X3290000Y-2320000D03*
X3530000Y-2159100D03*
X3380000Y-1810000D03*
X3430000Y-1060000D03*
X3530000Y-1260000D03*
X3420000Y-550000D03*
X3570000Y-3710000D03*
X3580000Y-2632700D03*
X3870000Y-2640000D03*
X3670000Y-2750000D03*
X3840000Y-2330000D03*
X3950000Y-2050000D03*
X3762700Y-1605000D03*
X3837300Y-1700000D03*
X3800000Y-1130000D03*
X3975000Y-1140000D03*
X3850000Y-640000D03*
Y-790000D03*
Y-940000D03*
X3710000Y-1050000D03*
X3670000Y-865000D03*
X3975000Y-455000D03*
X3680000Y-615000D03*
X3720000Y-460000D03*
X3740000Y1010000D03*
X4320000Y-3710000D03*
X4220000Y-2750000D03*
X4107200Y-2286300D03*
X4260000Y-1780000D03*
X4330000Y-1120000D03*
X4275000Y-1350000D03*
X4130000D03*
X4000000Y-640000D03*
Y-940000D03*
Y-790000D03*
X4315940Y-890000D03*
X4310000Y-780000D03*
X4330000Y-1015000D03*
X4325000Y-465000D03*
X4320000Y-580000D03*
X4180000Y-460000D03*
X4770000Y-3430000D03*
X4470000D03*
Y-2940000D03*
X4770000D03*
X4540000Y-2300000D03*
X4770000Y-2320000D03*
X4700000Y-1910000D03*
X4470000Y-1260000D03*
X4420000Y-1390000D03*
X4770000Y-1030000D03*
X4570000Y-960000D03*
X4779000Y-230000D03*
X4730000Y990000D03*
X5070000Y-3710000D03*
X4920000D03*
X5170000Y-2750000D03*
X5080000Y-2632700D03*
X5072800Y-2090900D03*
X4996000Y-1520000D03*
X4960000Y-1910000D03*
X5196000Y-1084000D03*
X4870000Y-1450000D03*
X4880000Y-740000D03*
X4870000Y-610000D03*
Y-470000D03*
X5370000Y-2640000D03*
X5340000Y-2330000D03*
X5607200Y-2286300D03*
X5540000Y-1410000D03*
X5650000Y-1070000D03*
X5460000D03*
X5580000Y-900000D03*
X5570000Y-650000D03*
X5300000D03*
X5550000Y-990000D03*
X5433000Y-409000D03*
X5570000Y-387300D03*
X5300000D03*
X5530400Y920900D03*
X5830000Y-3710000D03*
X5980000Y-3430000D03*
X5970000Y-2940000D03*
X5720000Y-2750000D03*
X6040000Y-2310000D03*
X6030000Y-1630000D03*
X6070000Y-1760000D03*
X5970000D03*
X5870000D03*
X5730000Y-1910000D03*
X6030000Y-1110000D03*
X5960000Y-1430000D03*
X6030000Y-1360000D03*
X6430000Y-3710000D03*
X6280000Y-3430000D03*
X6270000Y-2940000D03*
X6280000Y-2320000D03*
X6520000Y-2159100D03*
X6300000Y-1930000D03*
X6478000Y-1752000D03*
X6550000Y-1390000D03*
X6290000Y-1100000D03*
X6160000Y-1020000D03*
X6180000Y-890000D03*
X6490000Y-372700D03*
Y-587300D03*
Y-480000D03*
X6290000Y-372700D03*
Y-587300D03*
Y-480000D03*
X6580000Y-3710000D03*
X6870000Y-2640000D03*
X6670000Y-2750000D03*
X6580000Y-2640000D03*
X6840000Y-2327300D03*
X6780000Y-1750000D03*
X6570000Y-1640000D03*
X6660000D03*
X6760000D03*
X6810000Y-1100000D03*
X7234300Y-2765000D03*
Y-2640000D03*
X7080000Y-1910000D03*
X7070000Y-1400000D03*
X7234300Y-1395000D03*
Y-1270000D03*
X7090000Y-372700D03*
Y-587300D03*
Y-480000D03*
X7707000Y-2997300D03*
X7479700Y-2890000D03*
X7707000Y-2382700D03*
X7479700Y-2515000D03*
X7707000Y-1627300D03*
X7479700Y-1520000D03*
X7480000Y-1145000D03*
X7707000Y-1012700D03*
X7710000Y482700D03*
Y1080000D03*
Y710000D03*
Y890000D03*
G54D21*
G01X-2000000Y0D02*
X10000000D01*
G01X0D02*
Y1600000D01*
X8000000D01*
Y-4000000D01*
X0D01*
Y0D01*
G54D12*
X840000Y-320000D03*
X1630000D03*
G54D22*
G01X840000Y-487800D02*
Y-320000D01*
G01D02*
Y-152200D01*
G01X672200Y-320000D02*
X840000D01*
G01D02*
X1007800D01*
G01X5027500Y-847800D02*
Y-730000D01*
G01D02*
Y-612200D01*
G01Y-447800D02*
Y-310000D01*
G01D02*
Y-172200D01*
G01X4929700Y-310000D02*
X5027500D01*
G01D02*
X5125300D01*
G01X5892500Y-847800D02*
Y-730000D01*
G01D02*
Y-612200D01*
G01Y-730000D02*
X5965300D01*
G01X5892500Y-447800D02*
Y-310000D01*
G01D02*
Y-172200D01*
G01X5794700Y-310000D02*
X5892500D01*
G01D02*
X5990300D01*
G54D13*
X1368000Y-3324000D03*
Y-3070000D03*
X1622000Y-3324000D03*
Y-3070000D03*
X1876000Y-3324000D03*
X2130000D03*
X1876000Y-3070000D03*
X2130000D03*
X2868000Y-3324000D03*
X3122000D03*
X2868000Y-3070000D03*
X3122000D03*
X3376000Y-3324000D03*
Y-3070000D03*
X3630000Y-3324000D03*
Y-3070000D03*
X4368000Y-3324000D03*
Y-3070000D03*
X4622000Y-3324000D03*
Y-3070000D03*
X4876000Y-3324000D03*
X5130000D03*
X4876000Y-3070000D03*
X5130000D03*
X5868000Y-3324000D03*
X6122000D03*
X5868000Y-3070000D03*
X6122000D03*
X6376000Y-3324000D03*
Y-3070000D03*
X6630000Y-3324000D03*
Y-3070000D03*
G54D14*
X1620000Y-3800000D03*
X3120000D03*
X4620000D03*
X6130000D03*
G54D15*
X2000000Y675000D03*
Y925000D03*
X3010000Y675000D03*
Y925000D03*
X4010000Y675000D03*
Y925000D03*
X5010000Y675000D03*
Y925000D03*
G54D16*
X4060000Y1250000D03*
X5110000Y1210000D03*
X5950000Y750000D03*
G54D17*
X5171000Y-638000D03*
X5749000D03*
G54D18*
X5027500Y-730000D03*
X5892500D03*
G54D19*
X5220000Y-870000D03*
M02*
